<svg width="40" height="29" viewBox="0 0 40 29" fill="none" xmlns="http://www.w3.org/2000/svg">
<path d="M39.7709 4.47686L36.7803 1.43203C34.9049 -0.477303 31.8532 -0.477383 29.9777 1.43203L22.8156 8.72361C22.5103 9.03452 22.5102 9.53864 22.8156 9.84956L25.1106 12.1869L21.891 15.4647L8.1989 1.52477C8.18116 1.5068 8.16335 1.48882 8.14515 1.47132C6.26999 -0.375494 3.24545 -0.3502 1.40006 1.52867C-0.444479 3.40658 -0.469714 6.48737 1.34388 8.39614L1.34396 8.39606C1.42131 8.47544 2.36029 9.43206 15.0883 22.3905L11.1736 26.376C10.8682 26.6869 10.8682 27.1911 11.1736 27.5021C12.152 28.4983 13.4343 29 14.7185 29C15.9234 29 17.1302 28.5583 18.0894 27.6689C18.0978 27.661 18.1062 27.653 18.1143 27.6448C18.1143 27.6448 18.5177 27.2364 18.9211 26.8241C19.028 26.7148 19.1348 26.6055 19.2342 26.5032C20.0337 27.0719 20.9851 27.3796 21.9862 27.38C23.2742 27.3795 24.482 26.8716 25.3871 25.9502C26.2924 25.0284 26.791 23.7986 26.791 22.4873C26.791 21.4707 26.4901 20.5038 25.9335 19.6908L39.7708 5.60305C40.0764 5.29198 40.0764 4.78786 39.7709 4.47686ZM17.024 26.5027C15.8604 27.5716 14.1734 27.6882 12.8954 26.8752L16.1944 23.5167C16.7965 24.1297 17.4232 24.7677 18.0752 25.4316C17.7784 25.7363 17.3904 26.1316 17.024 26.5027ZM24.2811 24.824C23.6713 25.4448 22.856 25.787 21.9863 25.7874C21.1157 25.787 20.3005 25.4448 19.6906 24.824C19.5206 24.6508 2.75498 7.5819 2.46467 7.2853C1.24443 5.99701 1.26248 3.9208 2.50607 2.65478C3.75233 1.38598 5.79538 1.36991 7.06046 2.61883C7.06366 2.62201 7.06686 2.62511 7.07014 2.62822C7.07827 2.63601 7.08616 2.64412 7.09655 2.6547L24.2811 20.1503C24.891 20.7712 25.227 21.6012 25.227 22.4871C25.2269 23.3732 24.891 24.203 24.2811 24.824ZM24.8816 18.5096L22.997 16.5909L26.7696 12.7501L27.6088 11.8957C27.9142 11.5848 27.9142 11.0806 27.6088 10.7696C27.3033 10.4587 26.8082 10.4587 26.5027 10.7696L26.2166 11.0609L24.4746 9.28682L31.0838 2.55822C32.1588 1.46377 33.8061 1.2996 35.0534 2.06413L30.9268 6.26537C30.6214 6.57629 30.6214 7.08049 30.9268 7.39149C31.0796 7.54699 31.2797 7.6247 31.4799 7.6247C31.68 7.6247 31.8803 7.54691 32.0329 7.39149L36.2273 3.12128L38.1119 5.04L24.8816 18.5096Z" fill="black"/>
</svg>
