<svg width="11" height="11" viewBox="0 0 11 11" fill="none" xmlns="http://www.w3.org/2000/svg">
<path d="M7.88808 1.42145C7.80791 1.02164 7.45981 0.719727 7.04343 0.719727C6.94808 0.719727 6.87101 0.798145 6.87101 0.895159C6.87101 0.99217 6.94808 1.07059 7.04343 1.07059C7.3286 1.07059 7.56067 1.30672 7.56067 1.59689C7.56067 1.88705 7.3286 2.12318 7.04343 2.12318C6.94808 2.12318 6.87101 2.2016 6.87101 2.29861C6.87101 2.39563 6.94808 2.47404 7.04343 2.47404C7.45963 2.47404 7.80791 2.17213 7.88808 1.77232H10.1469V3.3512H0.836527V1.77232H3.25032H3.76756C3.86291 1.77232 3.93998 1.6939 3.93998 1.59689C3.93998 1.49987 3.86291 1.42145 3.76756 1.42145H3.45446C3.52584 1.2176 3.7155 1.07059 3.93998 1.07059C4.22515 1.07059 4.45722 1.30672 4.45722 1.59689C4.45722 1.88705 4.22515 2.12318 3.93998 2.12318C3.84463 2.12318 3.76756 2.2016 3.76756 2.29861C3.76756 2.39563 3.84463 2.47404 3.93998 2.47404C4.41532 2.47404 4.80205 2.08055 4.80205 1.59689C4.80205 1.11322 4.41532 0.719727 3.93998 0.719727C3.52377 0.719727 3.1755 1.02164 3.09532 1.42145H0.491699V3.70207V10.7193H10.4917V3.70207V1.42145H7.88808ZM10.1469 10.3684H0.836527V3.70207H10.1469V10.3684Z" fill="#7D7D7D"/>
<path d="M4.97474 1.06961C5.26005 1.06961 5.49223 1.30574 5.49223 1.59591C5.49223 1.88607 5.26005 2.1222 4.97474 2.1222C4.87935 2.1222 4.80225 2.20062 4.80225 2.29763C4.80225 2.39465 4.87935 2.47306 4.97474 2.47306C5.45032 2.47306 5.83722 2.07957 5.83722 1.59591C5.83722 1.11224 5.45032 0.71875 4.97474 0.71875C4.87935 0.71875 4.80225 0.797168 4.80225 0.894181C4.80225 0.991193 4.87935 1.06961 4.97474 1.06961Z" fill="#7D7D7D"/>
<path d="M6.0094 1.07059C6.29471 1.07059 6.52689 1.30672 6.52689 1.59688C6.52689 1.88705 6.29471 2.12318 6.0094 2.12318C5.91401 2.12318 5.83691 2.2016 5.83691 2.29861C5.83691 2.39563 5.91401 2.47404 6.0094 2.47404C6.48497 2.47404 6.87188 2.08055 6.87188 1.59688C6.87188 1.11322 6.48497 0.719727 6.0094 0.719727C5.91401 0.719727 5.83691 0.798145 5.83691 0.895159C5.83691 0.992172 5.91401 1.07059 6.0094 1.07059Z" fill="#7D7D7D"/>
<path d="M4.28479 5.10575C4.38006 5.10575 4.4573 5.0272 4.4573 4.93031C4.4573 4.83343 4.38006 4.75488 4.28479 4.75488C4.18953 4.75488 4.1123 4.83343 4.1123 4.93031C4.1123 5.0272 4.18953 5.10575 4.28479 5.10575Z" fill="#7D7D7D"/>
<path d="M5.49184 5.10574C5.5871 5.10574 5.66433 5.0272 5.66433 4.93031C5.66433 4.83342 5.5871 4.75488 5.49184 4.75488C5.39657 4.75488 5.31934 4.83342 5.31934 4.93031C5.31934 5.0272 5.39657 5.10574 5.49184 5.10574Z" fill="#7D7D7D"/>
<path d="M6.69887 5.1038C6.79413 5.1038 6.87136 5.02525 6.87136 4.92837C6.87136 4.83148 6.79413 4.75293 6.69887 4.75293C6.6036 4.75293 6.52637 4.83148 6.52637 4.92837C6.52637 5.02525 6.6036 5.1038 6.69887 5.1038Z" fill="#7D7D7D"/>
<path d="M7.9059 5.10477C8.00116 5.10477 8.07839 5.02623 8.07839 4.92934C8.07839 4.83245 8.00116 4.75391 7.9059 4.75391C7.81063 4.75391 7.7334 4.83245 7.7334 4.92934C7.7334 5.02623 7.81063 5.10477 7.9059 5.10477Z" fill="#7D7D7D"/>
<path d="M9.11293 5.10477C9.2082 5.10477 9.28542 5.02623 9.28542 4.92934C9.28542 4.83245 9.2082 4.75391 9.11293 4.75391C9.01766 4.75391 8.94043 4.83245 8.94043 4.92934C8.94043 5.02623 9.01766 5.10477 9.11293 5.10477Z" fill="#7D7D7D"/>
<path d="M1.87172 6.50906C1.96698 6.50906 2.04421 6.43052 2.04421 6.33363C2.04421 6.23674 1.96698 6.1582 1.87172 6.1582C1.77645 6.1582 1.69922 6.23674 1.69922 6.33363C1.69922 6.43052 1.77645 6.50906 1.87172 6.50906Z" fill="#7D7D7D"/>
<path d="M3.07776 6.50906C3.17303 6.50906 3.25026 6.43052 3.25026 6.33363C3.25026 6.23674 3.17303 6.1582 3.07776 6.1582C2.9825 6.1582 2.90527 6.23674 2.90527 6.33363C2.90527 6.43052 2.9825 6.50906 3.07776 6.50906Z" fill="#7D7D7D"/>
<path d="M4.28479 6.50906C4.38006 6.50906 4.4573 6.43052 4.4573 6.33363C4.4573 6.23674 4.38006 6.1582 4.28479 6.1582C4.18953 6.1582 4.1123 6.23674 4.1123 6.33363C4.1123 6.43052 4.18953 6.50906 4.28479 6.50906Z" fill="#7D7D7D"/>
<path d="M5.49184 6.50809C5.5871 6.50809 5.66433 6.42955 5.66433 6.33266C5.66433 6.23577 5.5871 6.15723 5.49184 6.15723C5.39657 6.15723 5.31934 6.23577 5.31934 6.33266C5.31934 6.42955 5.39657 6.50809 5.49184 6.50809Z" fill="#7D7D7D"/>
<path d="M6.69887 6.5081C6.79413 6.5081 6.87136 6.42955 6.87136 6.33266C6.87136 6.23577 6.79413 6.15723 6.69887 6.15723C6.6036 6.15723 6.52637 6.23577 6.52637 6.33266C6.52637 6.42955 6.6036 6.5081 6.69887 6.5081Z" fill="#7D7D7D"/>
<path d="M7.90492 6.5081C8.00019 6.5081 8.07742 6.42955 8.07742 6.33267C8.07742 6.23578 8.00019 6.15723 7.90492 6.15723C7.80965 6.15723 7.73242 6.23578 7.73242 6.33267C7.73242 6.42955 7.80965 6.5081 7.90492 6.5081Z" fill="#7D7D7D"/>
<path d="M9.11244 6.50809C9.20771 6.50809 9.28494 6.42955 9.28494 6.33266C9.28494 6.23577 9.20771 6.15723 9.11244 6.15723C9.01717 6.15723 8.93994 6.23577 8.93994 6.33266C8.93994 6.42955 9.01717 6.50809 9.11244 6.50809Z" fill="#7D7D7D"/>
<path d="M1.87172 7.73661C1.96698 7.73661 2.04421 7.65806 2.04421 7.56118C2.04421 7.46429 1.96698 7.38574 1.87172 7.38574C1.77645 7.38574 1.69922 7.46429 1.69922 7.56118C1.69922 7.65806 1.77645 7.73661 1.87172 7.73661Z" fill="#7D7D7D"/>
<path d="M3.07826 7.7366C3.17353 7.7366 3.25076 7.65806 3.25076 7.56117C3.25076 7.46428 3.17353 7.38574 3.07826 7.38574C2.98299 7.38574 2.90576 7.46428 2.90576 7.56117C2.90576 7.65806 2.98299 7.7366 3.07826 7.7366Z" fill="#7D7D7D"/>
<path d="M4.28479 7.7366C4.38006 7.7366 4.4573 7.65806 4.4573 7.56117C4.4573 7.46428 4.38006 7.38574 4.28479 7.38574C4.18953 7.38574 4.1123 7.46428 4.1123 7.56117C4.1123 7.65806 4.18953 7.7366 4.28479 7.7366Z" fill="#7D7D7D"/>
<path d="M5.49184 7.73661C5.5871 7.73661 5.66433 7.65806 5.66433 7.56117C5.66433 7.46429 5.5871 7.38574 5.49184 7.38574C5.39657 7.38574 5.31934 7.46429 5.31934 7.56117C5.31934 7.65806 5.39657 7.73661 5.49184 7.73661Z" fill="#7D7D7D"/>
<path d="M6.69887 7.73661C6.79413 7.73661 6.87136 7.65807 6.87136 7.56118C6.87136 7.46429 6.79413 7.38574 6.69887 7.38574C6.6036 7.38574 6.52637 7.46429 6.52637 7.56118C6.52637 7.65807 6.6036 7.73661 6.69887 7.73661Z" fill="#7D7D7D"/>
<path d="M7.90492 7.73758C8.00019 7.73758 8.07742 7.65904 8.07742 7.56215C8.07742 7.46526 8.00019 7.38672 7.90492 7.38672C7.80965 7.38672 7.73242 7.46526 7.73242 7.56215C7.73242 7.65904 7.80965 7.73758 7.90492 7.73758Z" fill="#7D7D7D"/>
<path d="M9.11244 7.73563C9.20771 7.73563 9.28494 7.65709 9.28494 7.5602C9.28494 7.46331 9.20771 7.38477 9.11244 7.38477C9.01717 7.38477 8.93994 7.46331 8.93994 7.5602C8.93994 7.65709 9.01717 7.73563 9.11244 7.73563Z" fill="#7D7D7D"/>
<path d="M1.87123 9.13992C1.9665 9.13992 2.04372 9.06138 2.04372 8.96449C2.04372 8.8676 1.9665 8.78906 1.87123 8.78906C1.77596 8.78906 1.69873 8.8676 1.69873 8.96449C1.69873 9.06138 1.77596 9.13992 1.87123 9.13992Z" fill="#7D7D7D"/>
<path d="M3.07776 9.13993C3.17303 9.13993 3.25026 9.06138 3.25026 8.96449C3.25026 8.86761 3.17303 8.78906 3.07776 8.78906C2.9825 8.78906 2.90527 8.86761 2.90527 8.96449C2.90527 9.06138 2.9825 9.13993 3.07776 9.13993Z" fill="#7D7D7D"/>
<path d="M4.28479 9.13992C4.38006 9.13992 4.4573 9.06137 4.4573 8.96449C4.4573 8.8676 4.38006 8.78906 4.28479 8.78906C4.18953 8.78906 4.1123 8.8676 4.1123 8.96449C4.1123 9.06137 4.18953 9.13992 4.28479 9.13992Z" fill="#7D7D7D"/>
<path d="M5.49184 9.1409C5.5871 9.1409 5.66433 9.06236 5.66433 8.96547C5.66433 8.86858 5.5871 8.79004 5.49184 8.79004C5.39657 8.79004 5.31934 8.86858 5.31934 8.96547C5.31934 9.06236 5.39657 9.1409 5.49184 9.1409Z" fill="#7D7D7D"/>
<path d="M6.69887 9.13895C6.79413 9.13895 6.87136 9.06041 6.87136 8.96352C6.87136 8.86663 6.79413 8.78809 6.69887 8.78809C6.6036 8.78809 6.52637 8.86663 6.52637 8.96352C6.52637 9.06041 6.6036 9.13895 6.69887 9.13895Z" fill="#7D7D7D"/>
</svg>
