<svg width="100" height="100" viewBox="0 0 100 100" fill="none" xmlns="http://www.w3.org/2000/svg">
<path d="M30.6663 63.725L47.2732 50.8924L61.2424 36.9235L74.0751 20.3167C75.7898 18.0977 75.5888 14.9506 73.6062 12.9676L63.5559 2.91743C62.2702 1.63169 60.1854 1.63169 58.8995 2.91743L13.267 48.5497C11.9813 49.8354 11.9813 51.9202 13.267 53.2061L23.3171 63.2561C25.2999 65.2387 28.4474 65.4397 30.6663 63.725Z" fill="#FFCAAF"/>
<path d="M58.9143 34.5955L44.9453 48.5645L49.6017 53.2208L63.5707 39.2519L58.9143 34.5955Z" fill="white"/>
<path d="M61.2424 41.5801L51.9297 50.8928L55.3055 54.2686C57.8772 56.8402 62.0465 56.8402 64.6182 54.2686C67.1899 51.6969 67.1899 47.5275 64.6182 44.9559L61.2424 41.5801Z" fill="white"/>
<path d="M98.4641 35.0621L84.7277 21.3258L74.9911 11.5893C74.9901 11.5883 74.9892 11.5871 74.9882 11.5861C74.9878 11.5857 74.9872 11.5854 74.9866 11.5848L64.9381 1.53652C63.9473 0.545703 62.6301 0 61.2289 0C59.8278 0 58.5106 0.545508 57.5195 1.53633L48.5929 10.4629L44.9818 6.85176C43.4015 5.27148 40.8302 5.27148 39.2499 6.85176L37.2251 8.87656L17.2028 28.899C15.6225 30.4793 15.6225 33.0506 17.2028 34.6309L20.8139 38.242L11.8873 47.1686C10.8965 48.1594 10.3508 49.4766 10.3508 50.8777C10.3508 52.2789 10.8963 53.5961 11.8871 54.5871L18.7291 61.4291L8.40956 71.7486C7.64686 72.5113 7.64686 73.748 8.40956 74.5109C8.79101 74.8924 9.29081 75.083 9.79062 75.083C10.2904 75.083 10.7904 74.8924 11.1717 74.5109L21.4913 64.1914L21.9366 64.6367C21.9366 64.6367 21.9368 64.6369 21.9368 64.6371C21.937 64.6373 21.9372 64.6375 21.9374 64.6377L27.2686 69.9689L0.572024 96.6658C-0.190675 97.4285 -0.190675 98.6652 0.572024 99.4281C0.953471 99.8094 1.45328 100 1.95308 100C2.45289 100 2.95289 99.8094 3.33415 99.4279L30.0313 72.7311L35.8443 78.5439L23.5143 90.8738C22.7516 91.6365 22.7516 92.8732 23.5143 93.6361C23.8956 94.0176 24.3956 94.2082 24.8954 94.2082C25.3952 94.2082 25.8952 94.0174 26.2764 93.6361L38.6064 81.3061L45.4132 88.1127C46.4041 89.1035 47.7213 89.649 49.1224 89.649C50.5236 89.649 51.8408 89.1033 52.8316 88.1127L82.7952 58.1494C83.5579 57.3867 83.5579 56.15 82.7952 55.3871C82.0325 54.6244 80.7958 54.6244 80.0329 55.3871L50.0693 85.3508C49.8164 85.6037 49.4801 85.743 49.1222 85.743C48.7644 85.743 48.4281 85.6037 48.175 85.3508L39.9876 77.1635C39.9874 77.1633 39.9874 77.1631 39.9872 77.1629C39.987 77.1627 39.9868 77.1625 39.9867 77.1625L29.3638 66.5395C30.2481 66.2836 31.097 65.8617 31.8616 65.2707L47.1086 53.4891L48.2215 54.602C48.5877 54.9682 49.0845 55.174 49.6025 55.174C50.1205 55.174 50.6174 54.9682 50.9836 54.602L51.9307 53.6549L53.9254 55.6498C55.5898 57.3143 57.7764 58.1465 59.9629 58.1465C62.1493 58.1465 64.3358 57.3143 66.0004 55.6498C67.6131 54.0371 68.5012 51.893 68.5012 49.6123C68.5012 47.3316 67.6131 45.1875 66.0004 43.575L64.0057 41.5801L64.9528 40.633C65.7155 39.8703 65.7155 38.6336 64.9528 37.8709L63.8399 36.758L75.6216 21.5111C76.2128 20.7461 76.6335 19.8969 76.8894 19.0123L81.9654 24.0883L95.7017 37.8246C95.9547 38.0775 96.0939 38.4139 96.0939 38.7717C96.0939 39.1295 95.9547 39.4658 95.7015 39.7188L91.0812 44.3391C90.3185 45.1018 90.3185 46.3385 91.0812 47.1014C91.4627 47.4828 91.9625 47.6734 92.4623 47.6734C92.9621 47.6734 93.4621 47.4828 93.8433 47.1014L98.4637 42.4811C99.4545 41.4902 100 40.1729 100 38.7717C100 37.3705 99.4549 36.0529 98.4641 35.0621ZM19.9649 31.8687C19.9077 31.8117 19.9077 31.7184 19.9649 31.6613L39.9874 11.6389L42.0122 9.61406C42.0228 9.60332 42.0552 9.57109 42.116 9.57109C42.1767 9.57109 42.2091 9.60332 42.2197 9.61406L45.8308 13.2252L23.5762 35.4799L19.9649 31.8687ZM47.7086 48.5645L58.9154 37.3576L60.8096 39.252L59.8635 40.198C59.8631 40.1984 59.8629 40.1986 59.8625 40.199L50.5498 49.5117C50.5494 49.5121 50.5492 49.5123 50.5488 49.5127L49.6027 50.459L47.7086 48.5645ZM63.2385 46.3369C64.1133 47.2117 64.5952 48.375 64.5952 49.6121C64.5952 50.8494 64.1133 52.0127 63.2385 52.8875C61.4326 54.6936 58.494 54.6936 56.6879 52.8875L54.6932 50.8926L61.2438 44.342L63.2385 46.3369ZM72.5309 19.1227L61.0553 33.9732L60.2965 33.2145C59.9303 32.8482 59.4334 32.6424 58.9154 32.6424C58.3975 32.6424 57.9006 32.8482 57.5344 33.2145L43.5654 47.1834C42.8027 47.9461 42.8027 49.1828 43.5654 49.9455L44.3242 50.7043L29.4735 62.1799C28.0364 63.2906 25.9841 63.1596 24.6997 61.875C24.6995 61.8748 24.6993 61.8746 24.6991 61.8744L14.6496 51.825C14.3967 51.5721 14.2572 51.2357 14.2572 50.8779C14.2572 50.5201 14.3965 50.1838 14.6496 49.9309L60.2819 4.29844C60.5348 4.04551 60.8711 3.90625 61.2289 3.90625C61.5867 3.90625 61.9231 4.04551 62.176 4.29844L72.2266 14.349C73.5104 15.6334 73.6413 17.6854 72.5309 19.1227Z" fill="black"/>
<path d="M19.1035 96.0938C18.5899 96.0938 18.0859 96.3027 17.7227 96.666C17.3594 97.0293 17.1504 97.5332 17.1504 98.0469C17.1504 98.5605 17.3594 99.0645 17.7227 99.4277C18.0859 99.791 18.5899 100 19.1035 100C19.6172 100 20.1211 99.791 20.4844 99.4277C20.8477 99.0645 21.0567 98.5605 21.0567 98.0469C21.0567 97.5332 20.8477 97.0293 20.4844 96.666C20.1211 96.3027 19.6172 96.0938 19.1035 96.0938Z" fill="black"/>
<path d="M86.9258 49.2793C86.4121 49.2793 85.9082 49.4883 85.5449 49.8516C85.1816 50.2148 84.9727 50.7187 84.9727 51.2324C84.9727 51.7461 85.1816 52.25 85.5449 52.6133C85.9082 52.9766 86.4121 53.1855 86.9258 53.1855C87.4414 53.1855 87.9434 52.9766 88.3067 52.6133C88.6719 52.25 88.8789 51.7461 88.8789 51.2324C88.8789 50.7187 88.6719 50.2148 88.3067 49.8516C87.9434 49.4883 87.4414 49.2793 86.9258 49.2793Z" fill="black"/>
</svg>
