<svg width="35" height="35" viewBox="0 0 35 35" fill="none" xmlns="http://www.w3.org/2000/svg">
<path d="M21.7139 13.2859C21.4467 13.0193 21.0139 13.0193 20.7473 13.2859C20.4801 13.5532 20.4801 13.9859 20.7473 14.2524C21.0139 14.5197 21.4467 14.5197 21.7139 14.2524C21.9805 13.9858 21.9805 13.5532 21.7139 13.2859Z" fill="black"/>
<path d="M34.1983 13.3684L33.2317 12.4019C33.2673 12.3498 34.3158 11.496 34.3158 9.90238C34.3158 8.98924 33.9601 8.13092 33.3143 7.48554L32.8309 7.00217L33.314 6.51874C34.6498 5.18484 34.6511 3.02052 33.3144 1.68567C31.9792 0.349521 29.8172 0.348701 28.4816 1.68526L27.9977 2.16883L27.5144 1.6856C26.179 0.349247 24.0164 0.348769 22.6806 1.68547L22.5979 1.76811L21.6315 0.801649C20.5629 -0.266806 18.8336 -0.267558 17.7646 0.801444C16.6958 1.86942 16.6952 3.59973 17.7644 4.66805L21.6312 8.53493L8.53493 21.6312L4.66847 17.7647C3.60172 16.6963 1.8695 16.6947 0.80187 17.7641C-0.267199 18.8324 -0.267336 20.5624 0.801733 21.6315L1.7682 22.598L1.68575 22.6804C0.349401 24.0158 0.348922 26.1784 1.68562 27.5143L2.16899 27.9977L1.68596 28.4811C0.350153 29.815 0.348785 31.9793 1.68548 33.3143C3.02074 34.6503 5.1826 34.6513 6.51847 33.3146L7.00239 32.831L7.48562 33.3143C8.82102 34.6506 10.9836 34.6512 12.3195 33.3144L12.4021 33.2318L13.3685 34.1984C14.4371 35.2669 16.1665 35.2675 17.2355 34.1986C18.3043 33.1306 18.3048 31.4003 17.2357 30.332L13.3688 26.4651L26.4651 13.3688L30.3315 17.2353C31.3983 18.3037 33.1305 18.3053 34.1981 17.2359C35.2672 16.1675 35.2673 14.4375 34.1983 13.3684ZM29.4483 2.65207C30.2475 1.85226 31.5441 1.84796 32.348 2.65254C33.1492 3.45255 33.15 4.75042 32.3475 5.55193L31.8643 6.03551L28.9644 3.13557L29.4483 2.65207ZM23.6475 2.65207C24.4487 1.85035 25.7459 1.84987 26.5476 2.6522L32.3478 8.45242C33.1495 9.25359 33.15 10.5508 32.3476 11.3525L32.2651 11.4351L23.5647 2.73485L23.6475 2.65207ZM5.5516 32.3478C4.75241 33.1476 3.45585 33.1519 2.65194 32.3473C1.85077 31.5473 1.84988 30.2494 2.65242 29.4479L3.13558 28.9644L6.03552 31.8643L5.5516 32.3478ZM11.3524 32.3478C10.5513 33.1495 9.254 33.15 8.45236 32.3477L2.65215 26.5475C1.85043 25.7463 1.84995 24.449 2.65228 23.6474L2.73486 23.5647L11.4351 32.265L11.3524 32.3478ZM16.269 31.2988C16.8032 31.8324 16.8037 32.6972 16.2688 33.2315C15.7332 33.7672 14.8688 33.7651 14.3351 33.2315C13.7637 32.6601 2.39389 21.2903 1.7684 20.6648C1.23841 20.1348 1.22932 19.2698 1.76881 18.7307C2.30058 18.1981 3.16628 18.1951 3.70132 18.7311L16.269 31.2988ZM12.4019 25.4981L9.5018 22.598L22.5981 9.50173L25.4982 12.4019L12.4019 25.4981ZM33.2311 16.2692C32.6994 16.8018 31.8337 16.8048 31.2986 16.2687L18.731 3.70117C18.1967 3.16749 18.1963 2.30275 18.7312 1.76839C19.2668 1.23272 20.1312 1.23484 20.6649 1.76839C21.2904 2.39394 32.6692 13.7727 33.2315 14.3351C33.7615 14.8651 33.7706 15.7301 33.2311 16.2692Z" fill="black"/>
<path d="M19.7809 15.2159C19.5139 14.9489 19.0811 14.9489 18.8141 15.2159L13.2861 20.7439C13.0192 21.0108 13.0192 21.4437 13.2861 21.7107C13.5531 21.9776 13.9859 21.9776 14.2529 21.7107L19.7809 16.1827C20.0479 15.9157 20.0479 15.4829 19.7809 15.2159Z" fill="black"/>
</svg>
