<svg width="49" height="49" viewBox="0 0 49 49" fill="none" xmlns="http://www.w3.org/2000/svg">
<path d="M25.1492 30.3576C24.9662 29.9717 24.5046 29.8071 24.1186 29.9904C23.4906 30.2884 22.8322 30.5347 22.1617 30.7223C21.8812 30.8008 21.6686 31.03 21.6116 31.3157L20.7931 35.4077C20.7124 35.8118 20.3546 36.1051 19.9425 36.1051H17.7099C17.2978 36.1051 16.9401 35.8119 16.8593 35.4077L16.0408 31.3157C15.9837 31.03 15.771 30.8008 15.4907 30.7223C14.5435 30.4572 13.6293 30.0784 12.7736 29.5965C12.5197 29.4535 12.2071 29.4652 11.9648 29.6268L8.49208 31.9418C8.14928 32.1704 7.68895 32.1247 7.39744 31.8334L5.81873 30.2546C5.52731 29.9632 5.48185 29.5029 5.71029 29.16L8.02534 25.6873C8.18699 25.4449 8.19876 25.1323 8.05568 24.8784C7.57363 24.0226 7.19483 23.1084 6.92983 22.1613C6.85136 21.8808 6.62215 21.6682 6.33648 21.6112L2.24442 20.7928C1.84036 20.712 1.54703 20.3542 1.54703 19.9422V17.7095C1.54703 17.2974 1.84027 16.9398 2.24442 16.8589L6.33648 16.0404C6.62215 15.9833 6.85136 15.7707 6.92983 15.4903C7.19493 14.5431 7.57372 13.6289 8.05568 12.7733C8.19866 12.5194 8.18689 12.2068 8.02534 11.9644L5.71048 8.49209C5.48195 8.14918 5.5275 7.68895 5.81892 7.39744L7.39763 5.81873C7.68904 5.52731 8.14947 5.48185 8.49228 5.71029L11.9649 8.02534C12.2073 8.18699 12.52 8.19866 12.7738 8.05568C13.6295 7.57372 14.5437 7.19493 15.4909 6.92983C15.7714 6.85136 15.984 6.62215 16.041 6.33648L16.8595 2.24442C16.9402 1.84036 17.298 1.54703 17.7101 1.54703H19.9427C20.3548 1.54703 20.7125 1.84027 20.7933 2.24442L21.6118 6.33648C21.6689 6.62215 21.8816 6.85136 22.1619 6.92983C23.1091 7.19493 24.0233 7.57372 24.879 8.05568C25.1329 8.19866 25.4455 8.18689 25.6879 8.02534L29.1605 5.71029C29.5033 5.48176 29.9636 5.52741 30.2552 5.81873L31.8339 7.39744C32.1253 7.68885 32.1708 8.14918 31.9423 8.49209L29.6273 11.9648C29.4656 12.2072 29.4538 12.5197 29.5969 12.7736C30.0789 13.6293 30.4577 14.5435 30.7228 15.4907C30.8013 15.7712 31.0305 15.9838 31.3161 16.0408L35.4082 16.8593C35.8122 16.9401 36.1056 17.2978 36.1056 17.7099V19.9425C36.1056 20.3546 35.8123 20.7123 35.4082 20.7931L31.3161 21.6116C31.0305 21.6687 30.8013 21.8814 30.7228 22.1619C30.5305 22.849 30.2768 23.5231 29.9686 24.1653C29.7837 24.5505 29.9462 25.0127 30.3314 25.1975C30.7166 25.3825 31.1789 25.2199 31.3636 24.8347C31.6417 24.255 31.8805 23.6524 32.0758 23.0377L35.7117 22.3105C36.8361 22.0854 37.6524 21.0895 37.6524 19.9424V17.7098C37.6524 16.5627 36.8361 15.5669 35.7112 15.3418L32.0754 14.6147C31.8369 13.864 31.5347 13.1341 31.1726 12.4356L33.2294 9.35025C33.8657 8.39581 33.7388 7.11435 32.9277 6.30317L31.349 4.72446C30.5377 3.91328 29.2562 3.78657 28.3019 4.42271L25.2165 6.47955C24.518 6.11751 23.7882 5.81519 23.0375 5.57669L22.3103 1.94095C22.0855 0.816344 21.0896 0 19.9425 0H17.7099C16.5628 0 15.567 0.816344 15.3419 1.94123L14.6148 5.57698C13.8641 5.81547 13.1342 6.1177 12.4357 6.47984L9.35054 4.423C8.39619 3.78677 7.11464 3.91348 6.30346 4.72475L4.72475 6.30346C3.91367 7.11464 3.78677 8.396 4.423 9.35054L6.47984 12.4359C6.1178 13.1344 5.81547 13.8642 5.57698 14.615L1.94114 15.3421C0.816344 15.567 0 16.5629 0 17.71V19.9426C0 21.0897 0.816344 22.0855 1.94123 22.3106L5.57698 23.0378C5.81538 23.7883 6.1177 24.5182 6.47984 25.2168L4.423 28.3022C3.78677 29.2566 3.91357 30.5381 4.72475 31.3492L6.30346 32.928C7.11464 33.7391 8.3961 33.8658 9.35054 33.2297L12.4359 31.1729C13.1344 31.5349 13.8642 31.8372 14.615 32.0757L15.3421 35.7117C15.567 36.8362 16.5629 37.6526 17.71 37.6526H19.9426C21.0897 37.6526 22.0855 36.8363 22.3106 35.7114L23.0377 32.0756C23.6339 31.8862 24.219 31.6559 24.7822 31.3885C25.1682 31.2051 25.3326 30.7436 25.1492 30.3576Z" fill="white"/>
<path d="M25.526 23.1246C25.639 23.1826 25.7595 23.21 25.8784 23.21C26.1594 23.21 26.4305 23.0564 26.5675 22.7892C27.1915 21.5724 27.5213 20.2018 27.5213 18.8257C27.5213 14.0303 23.62 10.1289 18.8245 10.1289C16.5432 10.1289 14.3874 11.0057 12.7541 12.5981C12.4482 12.8963 12.4419 13.3862 12.7401 13.6921C13.0384 13.998 13.5282 14.0044 13.8341 13.7061C15.1767 12.3973 16.949 11.6763 18.8244 11.6763C22.7665 11.6763 25.9738 14.8835 25.9738 18.8258C25.9738 19.9737 25.7103 21.0696 25.1905 22.0833C24.9956 22.4633 25.1458 22.9295 25.526 23.1246Z" fill="white"/>
<path d="M11.5824 15.5169C11.1783 15.3779 10.7382 15.5927 10.5992 15.9968C10.2865 16.9058 10.1279 17.8582 10.1279 18.8274C10.1279 23.6229 14.0293 27.5242 18.8247 27.5242C20.669 27.5242 22.4311 26.9542 23.9206 25.8755C24.2667 25.6249 24.3441 25.1411 24.0935 24.795C23.843 24.449 23.3591 24.3715 23.0131 24.6221C21.7892 25.5082 20.3409 25.9767 18.8246 25.9767C14.8823 25.9767 11.6752 22.7694 11.6752 18.8272C11.6752 18.0296 11.8053 17.2465 12.0622 16.4999C12.2011 16.0959 11.9864 15.6558 11.5824 15.5169Z" fill="white"/>
<path d="M47.5113 33.8135L45.274 33.3661C45.1378 32.9606 44.9736 32.5647 44.7834 32.182L46.0491 30.2834C46.5371 29.5513 46.4399 28.5685 45.8177 27.9464L44.7803 26.909C44.1581 26.2869 43.1753 26.1896 42.4432 26.6776L40.5447 27.9433C40.162 27.7531 39.7661 27.5889 39.3606 27.4527L38.9132 25.2155C38.7406 24.3527 37.9768 23.7266 37.097 23.7266H35.6298C34.7501 23.7266 33.9862 24.3527 33.8136 25.2155L33.3662 27.4527C32.9607 27.589 32.5648 27.7532 32.1821 27.9433L30.2835 26.6776C29.5514 26.1897 28.5685 26.2868 27.9465 26.909L26.9091 27.9464C26.2869 28.5685 26.1897 29.5514 26.6777 30.2834L27.9434 32.182C27.6818 32.7082 27.4698 33.2592 27.3113 33.8259C27.1962 34.2374 27.4365 34.6642 27.8479 34.7795C28.2594 34.8946 28.6863 34.6544 28.8015 34.2429C28.9699 33.6407 29.2107 33.0598 29.517 32.5161C29.6599 32.2622 29.6482 31.9495 29.4866 31.7072L27.9652 29.4252C27.8849 29.3047 27.9009 29.143 28.0033 29.0406L29.0407 28.0031C29.1431 27.9008 29.3049 27.8849 29.4254 27.965L31.7074 29.4864C31.9497 29.6481 32.2624 29.6597 32.5163 29.5168C33.0601 29.2105 33.6409 28.9697 34.243 28.8013C34.5236 28.7228 34.7361 28.4936 34.7931 28.2079L35.3309 25.519C35.3592 25.3771 35.485 25.274 35.6298 25.274H37.097C37.2417 25.274 37.3675 25.3771 37.3959 25.519L37.9336 28.2081C37.9908 28.4938 38.2034 28.723 38.4837 28.8015C39.0859 28.9699 39.6668 29.2107 40.2105 29.517C40.4643 29.6599 40.7771 29.6482 41.0194 29.4866L43.3014 27.9652C43.4219 27.8849 43.5836 27.9008 43.686 28.0033L44.7235 29.0407C44.8258 29.1431 44.8417 29.3049 44.7615 29.4254L43.2402 31.7074C43.0785 31.9498 43.0667 32.2624 43.2098 32.5163C43.5161 33.0601 43.7569 33.6409 43.9253 34.243C44.0038 34.5236 44.233 34.7361 44.5187 34.7931L47.2076 35.3309C47.3495 35.3592 47.4526 35.485 47.4526 35.6298V37.097C47.4526 37.2417 47.3495 37.3675 47.2076 37.3959L44.5185 37.9336C44.2328 37.9908 44.0036 38.2034 43.9251 38.4837C43.7567 39.0859 43.5159 39.6668 43.2096 40.2105C43.0667 40.4644 43.0784 40.7771 43.24 41.0194L44.7614 43.3014C44.8417 43.4219 44.8257 43.5836 44.7233 43.686L43.6858 44.7235C43.5835 44.8259 43.4218 44.8417 43.3012 44.7615L41.0192 43.2402C40.7769 43.0786 40.4641 43.0668 40.2103 43.2098C39.6665 43.5161 39.0857 43.7569 38.4835 43.9253C38.203 44.0038 37.9905 44.233 37.9334 44.5187L37.3957 47.2076C37.3674 47.3495 37.2416 47.4526 37.0968 47.4526H35.6296C35.4849 47.4526 35.3591 47.3495 35.3307 47.2076L34.793 44.5185C34.7358 44.2328 34.5232 44.0036 34.2429 43.9251C33.6407 43.7567 33.0598 43.5159 32.5161 43.2096C32.2622 43.0667 31.9494 43.0784 31.7072 43.24L29.4252 44.7614C29.3047 44.8416 29.143 44.8258 29.0406 44.7233L28.0031 43.6858C27.9008 43.5834 27.8848 43.4217 27.965 43.3012L29.4864 41.0192C29.6481 40.7768 29.6598 40.4642 29.5168 40.2103C29.2105 39.6665 28.9697 39.0857 28.8013 38.4835C28.7228 38.203 28.4936 37.9905 28.2079 37.9334L25.519 37.3957C25.3771 37.3674 25.274 37.2416 25.274 37.0968V35.6296C25.274 35.4849 25.3771 35.3591 25.519 35.3307L25.6836 35.2978C26.1026 35.214 26.3744 34.8064 26.2904 34.3874C26.2066 33.9684 25.7995 33.6971 25.3799 33.7805L25.2153 33.8134C24.3527 33.9861 23.7266 34.7499 23.7266 35.6297V37.0969C23.7266 37.9766 24.3527 38.7405 25.2155 38.9131L27.4527 39.3605C27.589 39.766 27.7532 40.1619 27.9433 40.5446L26.6776 42.4431C26.1895 43.1753 26.2868 44.1581 26.909 44.7802L27.9464 45.8176C28.5685 46.4398 29.5514 46.537 30.2834 46.049L32.182 44.7833C32.5647 44.9735 32.9606 45.1377 33.3661 45.2738L33.8135 47.5111C33.9863 48.3738 34.7501 49 35.6299 49H37.0971C37.9768 49 38.7407 48.3738 38.9132 47.5111L39.3607 45.2738C39.7662 45.1376 40.1621 44.9734 40.5448 44.7832L42.4433 46.0489C43.1755 46.5369 44.1583 46.4397 44.7804 45.8175L45.8178 44.7801C46.44 44.1579 46.5372 43.1751 46.0492 42.4431L44.7835 40.5445C44.9737 40.1618 45.1378 39.7659 45.274 39.3604L47.5113 38.913C48.3739 38.7404 49.0001 37.9766 49.0001 37.0968V35.6296C49.0002 34.7499 48.374 33.9861 47.5113 33.8135Z" fill="white"/>
<path d="M36.364 33.5787C37.8998 33.5787 39.1492 34.8281 39.1492 36.3639C39.1492 36.7912 39.4957 37.1376 39.9229 37.1376C40.3501 37.1376 40.6966 36.7911 40.6966 36.3639C40.6966 33.9749 38.7529 32.0312 36.3639 32.0312C33.9749 32.0312 32.0312 33.9749 32.0312 36.3639C32.0312 38.7529 33.9749 40.6966 36.3639 40.6966C37.3316 40.6966 38.2469 40.3845 39.0109 39.7942C39.3491 39.5329 39.4114 39.047 39.1502 38.7088C38.8889 38.3707 38.4029 38.3083 38.0648 38.5696C37.5741 38.9486 36.9859 39.1491 36.3639 39.1491C34.8281 39.1491 33.5787 37.8997 33.5787 36.3639C33.5788 34.828 34.8282 33.5787 36.364 33.5787Z" fill="white"/>
<path d="M23.5415 18.8289C23.5415 16.2298 21.4269 14.1152 18.8279 14.1152C16.2288 14.1152 14.1143 16.2299 14.1143 18.8289C14.1143 21.428 16.2288 23.5425 18.8279 23.5425C21.427 23.5425 23.5415 21.4279 23.5415 18.8289ZM15.6616 18.8289C15.6616 17.0831 17.0821 15.6626 18.8279 15.6626C20.5737 15.6626 21.9942 17.0831 21.9942 18.8289C21.9942 20.5747 20.5738 21.9952 18.8279 21.9952C17.0819 21.9952 15.6616 20.5747 15.6616 18.8289Z" fill="white"/>
</svg>
