<svg width="1143" height="473" viewBox="0 0 1143 473" fill="none" xmlns="http://www.w3.org/2000/svg">
<path d="M867.484 181.727C867.484 181.727 1179.4 185.804 1105.11 320.938C1053.75 414.348 926.039 450.835 910.217 454.974M929.717 427.114C923.917 436.038 911.882 453.999 910.134 454.447C910.134 454.447 909.144 455.255 910.217 454.974M934.336 467.544L910.217 454.974" stroke="#7C7575" stroke-width="3"/>
<path d="M483.355 63.3134C293.665 66.5791 -39.5306 -43.377 3.85462 141.313C22.0225 218.654 71.3722 201.406 140.355 240.814C248.073 302.348 381.777 273.885 505.5 264.813C713.287 249.579 809.535 359.444 1007.5 294.503C1102 263.503 1045.9 131.14 1023 83.0005C942 -87.3108 678.101 59.9607 483.355 63.3134Z" fill="#26CFA2"/>
<path d="M133.891 146C133.483 146 133.147 145.868 132.883 145.604C132.619 145.34 132.487 145.004 132.487 144.596V119.288C132.487 118.88 132.619 118.544 132.883 118.28C133.147 118.016 133.483 117.884 133.891 117.884H153.043C153.451 117.884 153.787 118.016 154.051 118.28C154.315 118.544 154.447 118.88 154.447 119.288V144.596C154.447 145.004 154.315 145.34 154.051 145.604C153.787 145.868 153.451 146 153.043 146C152.635 146 152.299 145.868 152.035 145.604C151.771 145.34 151.639 145.004 151.639 144.596V120.512H135.295V144.596C135.295 145.004 135.163 145.34 134.899 145.604C134.635 145.868 134.299 146 133.891 146ZM162.675 154.424C162.243 154.424 161.895 154.292 161.631 154.028C161.391 153.788 161.271 153.452 161.271 153.02V136.028C161.295 134.156 161.739 132.476 162.603 130.988C163.491 129.476 164.679 128.288 166.167 127.424C167.679 126.56 169.371 126.128 171.243 126.128C173.163 126.128 174.879 126.572 176.391 127.46C177.903 128.324 179.091 129.512 179.955 131.024C180.843 132.536 181.287 134.252 181.287 136.172C181.287 138.068 180.855 139.772 179.991 141.284C179.151 142.796 177.999 143.996 176.535 144.884C175.071 145.748 173.415 146.18 171.567 146.18C169.959 146.18 168.495 145.844 167.175 145.172C165.879 144.476 164.835 143.564 164.043 142.436V153.02C164.043 153.452 163.911 153.788 163.647 154.028C163.407 154.292 163.083 154.424 162.675 154.424ZM171.243 143.66C172.635 143.66 173.883 143.336 174.987 142.688C176.091 142.04 176.955 141.152 177.579 140.024C178.227 138.872 178.551 137.588 178.551 136.172C178.551 134.732 178.227 133.448 177.579 132.32C176.955 131.192 176.091 130.304 174.987 129.656C173.883 128.984 172.635 128.648 171.243 128.648C169.875 128.648 168.639 128.984 167.535 129.656C166.431 130.304 165.567 131.192 164.943 132.32C164.319 133.448 164.007 134.732 164.007 136.172C164.007 137.588 164.319 138.872 164.943 140.024C165.567 141.152 166.431 142.04 167.535 142.688C168.639 143.336 169.875 143.66 171.243 143.66ZM195.652 146.18C193.708 146.18 191.98 145.76 190.468 144.92C188.98 144.056 187.804 142.868 186.94 141.356C186.1 139.844 185.68 138.116 185.68 136.172C185.68 134.204 186.076 132.476 186.868 130.988C187.684 129.476 188.8 128.288 190.216 127.424C191.632 126.56 193.264 126.128 195.112 126.128C196.936 126.128 198.52 126.548 199.864 127.388C201.232 128.204 202.288 129.344 203.032 130.808C203.776 132.272 204.148 133.94 204.148 135.812C204.148 136.196 204.028 136.508 203.788 136.748C203.548 136.964 203.236 137.072 202.852 137.072H187.552V134.768H203.14L201.592 135.884C201.616 134.492 201.364 133.244 200.836 132.14C200.308 131.036 199.552 130.172 198.568 129.548C197.608 128.924 196.456 128.612 195.112 128.612C193.744 128.612 192.544 128.936 191.512 129.584C190.48 130.232 189.676 131.132 189.1 132.284C188.548 133.412 188.272 134.708 188.272 136.172C188.272 137.636 188.584 138.932 189.208 140.06C189.856 141.188 190.732 142.076 191.836 142.724C192.94 143.372 194.212 143.696 195.652 143.696C196.516 143.696 197.38 143.552 198.244 143.264C199.132 142.952 199.84 142.568 200.368 142.112C200.632 141.896 200.932 141.788 201.268 141.788C201.604 141.764 201.892 141.848 202.132 142.04C202.444 142.328 202.6 142.64 202.6 142.976C202.624 143.312 202.492 143.6 202.204 143.84C201.412 144.512 200.404 145.076 199.18 145.532C197.956 145.964 196.78 146.18 195.652 146.18ZM216.811 146.18C214.915 146.18 213.235 145.76 211.771 144.92C210.307 144.056 209.155 142.868 208.315 141.356C207.499 139.844 207.091 138.116 207.091 136.172C207.091 134.204 207.523 132.464 208.387 130.952C209.251 129.44 210.439 128.264 211.951 127.424C213.463 126.56 215.179 126.128 217.099 126.128C219.043 126.128 220.759 126.56 222.247 127.424C223.759 128.264 224.935 129.44 225.775 130.952C226.639 132.464 227.083 134.204 227.107 136.172L225.487 137.036C225.487 138.812 225.115 140.396 224.371 141.788C223.627 143.156 222.595 144.236 221.275 145.028C219.979 145.796 218.491 146.18 216.811 146.18ZM217.171 153.776C215.275 153.776 213.607 153.416 212.167 152.696C210.727 152 209.539 151.04 208.603 149.816C208.339 149.528 208.219 149.216 208.243 148.88C208.291 148.544 208.471 148.268 208.783 148.052C209.095 147.836 209.443 147.764 209.827 147.836C210.211 147.908 210.511 148.088 210.727 148.376C211.423 149.24 212.311 149.936 213.391 150.464C214.495 150.992 215.767 151.256 217.207 151.256C218.551 151.256 219.763 150.932 220.843 150.284C221.923 149.636 222.775 148.724 223.399 147.548C224.047 146.372 224.371 144.992 224.371 143.408V137.936L225.415 135.848L227.107 136.172V143.516C227.107 145.46 226.675 147.2 225.811 148.736C224.947 150.296 223.771 151.52 222.283 152.408C220.795 153.32 219.091 153.776 217.171 153.776ZM217.099 143.66C218.515 143.66 219.763 143.348 220.843 142.724C221.947 142.076 222.811 141.188 223.435 140.06C224.059 138.932 224.371 137.636 224.371 136.172C224.371 134.708 224.059 133.412 223.435 132.284C222.811 131.132 221.947 130.244 220.843 129.62C219.763 128.972 218.515 128.648 217.099 128.648C215.683 128.648 214.423 128.972 213.319 129.62C212.215 130.244 211.351 131.132 210.727 132.284C210.103 133.412 209.791 134.708 209.791 136.172C209.791 137.636 210.103 138.932 210.727 140.06C211.351 141.188 212.215 142.076 213.319 142.724C214.423 143.348 215.683 143.66 217.099 143.66ZM241.282 146.18C239.386 146.18 237.694 145.748 236.206 144.884C234.742 143.996 233.578 142.796 232.714 141.284C231.874 139.772 231.454 138.068 231.454 136.172C231.454 134.252 231.862 132.536 232.678 131.024C233.494 129.512 234.61 128.324 236.026 127.46C237.442 126.572 239.074 126.128 240.922 126.128C242.386 126.128 243.73 126.416 244.954 126.992C246.202 127.568 247.294 128.432 248.23 129.584C248.494 129.872 248.59 130.184 248.518 130.52C248.446 130.832 248.242 131.108 247.906 131.348C247.642 131.54 247.342 131.612 247.006 131.564C246.694 131.492 246.418 131.312 246.178 131.024C244.786 129.44 243.034 128.648 240.922 128.648C239.578 128.648 238.39 128.972 237.358 129.62C236.35 130.268 235.558 131.156 234.982 132.284C234.43 133.412 234.154 134.708 234.154 136.172C234.154 137.612 234.454 138.896 235.054 140.024C235.654 141.152 236.494 142.04 237.574 142.688C238.654 143.336 239.89 143.66 241.282 143.66C242.218 143.66 243.07 143.54 243.838 143.3C244.63 143.036 245.326 142.64 245.926 142.112C246.214 141.872 246.514 141.74 246.826 141.716C247.138 141.692 247.426 141.788 247.69 142.004C247.978 142.268 248.134 142.568 248.158 142.904C248.206 143.24 248.098 143.528 247.834 143.768C246.082 145.376 243.898 146.18 241.282 146.18ZM280.547 146C280.139 146 279.803 145.88 279.539 145.64C279.275 145.376 279.143 145.04 279.143 144.632V134.264C279.143 132.56 278.699 131.216 277.811 130.232C276.923 129.224 275.783 128.72 274.391 128.72C272.903 128.72 271.679 129.224 270.719 130.232C269.783 131.216 269.327 132.536 269.351 134.192H266.867C266.891 132.584 267.239 131.168 267.911 129.944C268.583 128.72 269.507 127.772 270.683 127.1C271.859 126.428 273.191 126.092 274.679 126.092C276.095 126.092 277.343 126.428 278.423 127.1C279.527 127.772 280.379 128.72 280.979 129.944C281.603 131.168 281.915 132.608 281.915 134.264V144.632C281.915 145.04 281.783 145.376 281.519 145.64C281.279 145.88 280.955 146 280.547 146ZM255.347 146C254.915 146 254.567 145.88 254.303 145.64C254.063 145.376 253.943 145.04 253.943 144.632V127.712C253.943 127.304 254.063 126.968 254.303 126.704C254.567 126.44 254.915 126.308 255.347 126.308C255.755 126.308 256.079 126.44 256.319 126.704C256.583 126.968 256.715 127.304 256.715 127.712V144.632C256.715 145.04 256.583 145.376 256.319 145.64C256.079 145.88 255.755 146 255.347 146ZM267.983 146C267.575 146 267.239 145.88 266.975 145.64C266.711 145.376 266.579 145.04 266.579 144.632V134.264C266.579 132.56 266.135 131.216 265.247 130.232C264.359 129.224 263.219 128.72 261.827 128.72C260.339 128.72 259.115 129.212 258.155 130.196C257.195 131.156 256.715 132.416 256.715 133.976H254.735C254.783 132.44 255.119 131.084 255.743 129.908C256.391 128.708 257.267 127.772 258.371 127.1C259.475 126.428 260.723 126.092 262.115 126.092C263.531 126.092 264.779 126.428 265.859 127.1C266.963 127.772 267.815 128.72 268.415 129.944C269.039 131.168 269.351 132.608 269.351 134.264V144.632C269.351 145.04 269.219 145.376 268.955 145.64C268.715 145.88 268.391 146 267.983 146ZM296.721 146.18C294.873 146.18 293.217 145.748 291.753 144.884C290.289 143.996 289.125 142.796 288.261 141.284C287.421 139.772 287.001 138.068 287.001 136.172C287.001 134.252 287.433 132.536 288.297 131.024C289.185 129.512 290.385 128.324 291.897 127.46C293.409 126.572 295.113 126.128 297.009 126.128C298.905 126.128 300.597 126.572 302.085 127.46C303.597 128.324 304.785 129.512 305.649 131.024C306.537 132.536 306.993 134.252 307.017 136.172L305.901 137.036C305.901 138.764 305.493 140.324 304.677 141.716C303.885 143.084 302.793 144.176 301.401 144.992C300.033 145.784 298.473 146.18 296.721 146.18ZM297.009 143.66C298.401 143.66 299.637 143.336 300.717 142.688C301.821 142.04 302.685 141.152 303.309 140.024C303.957 138.872 304.281 137.588 304.281 136.172C304.281 134.732 303.957 133.448 303.309 132.32C302.685 131.192 301.821 130.304 300.717 129.656C299.637 128.984 298.401 128.648 297.009 128.648C295.641 128.648 294.405 128.984 293.301 129.656C292.197 130.304 291.321 131.192 290.673 132.32C290.025 133.448 289.701 134.732 289.701 136.172C289.701 137.588 290.025 138.872 290.673 140.024C291.321 141.152 292.197 142.04 293.301 142.688C294.405 143.336 295.641 143.66 297.009 143.66ZM305.613 146C305.205 146 304.869 145.88 304.605 145.64C304.341 145.376 304.209 145.04 304.209 144.632V138.476L304.893 135.632L307.017 136.172V144.632C307.017 145.04 306.885 145.376 306.621 145.64C306.357 145.88 306.021 146 305.613 146ZM313.812 146C313.38 146 313.032 145.88 312.768 145.64C312.528 145.376 312.408 145.028 312.408 144.596V127.676C312.432 127.268 312.564 126.944 312.804 126.704C313.068 126.44 313.404 126.308 313.812 126.308C314.22 126.308 314.544 126.44 314.784 126.704C315.048 126.944 315.18 127.28 315.18 127.712V134.552H322.776V135.056C324.024 135.056 325.128 135.284 326.088 135.74C327.072 136.196 327.828 136.832 328.356 137.648C328.908 138.44 329.184 139.352 329.184 140.384C329.184 141.488 328.908 142.46 328.356 143.3C327.828 144.14 327.072 144.8 326.088 145.28C325.128 145.76 324.024 146 322.776 146H313.812ZM315.18 143.444H322.776C323.856 143.444 324.744 143.168 325.44 142.616C326.136 142.064 326.484 141.272 326.484 140.24C326.484 139.16 326.136 138.344 325.44 137.792C324.744 137.216 323.856 136.928 322.776 136.928H315.18V143.444ZM319.212 136.1V134.552H322.776C323.616 134.552 324.3 134.276 324.828 133.724C325.356 133.172 325.62 132.464 325.62 131.6C325.62 130.832 325.332 130.184 324.756 129.656C324.204 129.104 323.496 128.828 322.632 128.828H313.848V126.308H322.632C323.736 126.308 324.708 126.536 325.548 126.992C326.412 127.424 327.084 128.024 327.564 128.792C328.068 129.56 328.32 130.448 328.32 131.456C328.32 133.016 327.792 134.18 326.736 134.948C325.704 135.716 324.384 136.1 322.776 136.1H319.212ZM342.24 146.36C340.584 146.36 339.132 146.048 337.884 145.424C336.636 144.8 335.652 143.948 334.932 142.868C334.236 141.764 333.888 140.48 333.888 139.016V127.676C333.912 127.268 334.056 126.944 334.32 126.704C334.584 126.44 334.908 126.308 335.292 126.308C335.676 126.308 336 126.44 336.264 126.704C336.528 126.968 336.66 127.304 336.66 127.712V132.824H342.528C344.088 132.824 345.456 133.1 346.632 133.652C347.832 134.204 348.756 134.984 349.404 135.992C350.076 137 350.412 138.164 350.412 139.484C350.412 140.804 350.064 141.992 349.368 143.048C348.696 144.08 347.748 144.896 346.524 145.496C345.3 146.072 343.872 146.36 342.24 146.36ZM342.24 143.804C343.8 143.804 345.096 143.444 346.128 142.724C347.16 142.004 347.676 140.924 347.676 139.484C347.676 138.14 347.22 137.096 346.308 136.352C345.396 135.608 344.136 135.236 342.528 135.236H336.66V139.016C336.66 139.928 336.888 140.756 337.344 141.5C337.824 142.22 338.472 142.784 339.288 143.192C340.128 143.6 341.112 143.804 342.24 143.804ZM381.657 146C381.249 146 380.913 145.88 380.649 145.64C380.385 145.376 380.253 145.04 380.253 144.632V134.264C380.253 132.56 379.809 131.216 378.921 130.232C378.033 129.224 376.893 128.72 375.501 128.72C374.013 128.72 372.789 129.224 371.829 130.232C370.893 131.216 370.437 132.536 370.461 134.192H367.977C368.001 132.584 368.349 131.168 369.021 129.944C369.693 128.72 370.617 127.772 371.793 127.1C372.969 126.428 374.301 126.092 375.789 126.092C377.205 126.092 378.453 126.428 379.533 127.1C380.637 127.772 381.489 128.72 382.089 129.944C382.713 131.168 383.025 132.608 383.025 134.264V144.632C383.025 145.04 382.893 145.376 382.629 145.64C382.389 145.88 382.065 146 381.657 146ZM356.457 146C356.025 146 355.677 145.88 355.413 145.64C355.173 145.376 355.053 145.04 355.053 144.632V127.712C355.053 127.304 355.173 126.968 355.413 126.704C355.677 126.44 356.025 126.308 356.457 126.308C356.865 126.308 357.189 126.44 357.429 126.704C357.693 126.968 357.825 127.304 357.825 127.712V144.632C357.825 145.04 357.693 145.376 357.429 145.64C357.189 145.88 356.865 146 356.457 146ZM369.093 146C368.685 146 368.349 145.88 368.085 145.64C367.821 145.376 367.689 145.04 367.689 144.632V134.264C367.689 132.56 367.245 131.216 366.357 130.232C365.469 129.224 364.329 128.72 362.937 128.72C361.449 128.72 360.225 129.212 359.265 130.196C358.305 131.156 357.825 132.416 357.825 133.976H355.845C355.893 132.44 356.229 131.084 356.853 129.908C357.501 128.708 358.377 127.772 359.481 127.1C360.585 126.428 361.833 126.092 363.225 126.092C364.641 126.092 365.889 126.428 366.969 127.1C368.073 127.772 368.925 128.72 369.525 129.944C370.149 131.168 370.461 132.608 370.461 134.264V144.632C370.461 145.04 370.329 145.376 370.065 145.64C369.825 145.88 369.501 146 369.093 146ZM398.082 146.18C396.138 146.18 394.41 145.76 392.898 144.92C391.41 144.056 390.234 142.868 389.37 141.356C388.53 139.844 388.11 138.116 388.11 136.172C388.11 134.204 388.506 132.476 389.298 130.988C390.114 129.476 391.23 128.288 392.646 127.424C394.062 126.56 395.694 126.128 397.542 126.128C399.366 126.128 400.95 126.548 402.294 127.388C403.662 128.204 404.718 129.344 405.462 130.808C406.206 132.272 406.578 133.94 406.578 135.812C406.578 136.196 406.458 136.508 406.218 136.748C405.978 136.964 405.666 137.072 405.282 137.072H389.982V134.768H405.57L404.022 135.884C404.046 134.492 403.794 133.244 403.266 132.14C402.738 131.036 401.982 130.172 400.998 129.548C400.038 128.924 398.886 128.612 397.542 128.612C396.174 128.612 394.974 128.936 393.942 129.584C392.91 130.232 392.106 131.132 391.53 132.284C390.978 133.412 390.702 134.708 390.702 136.172C390.702 137.636 391.014 138.932 391.638 140.06C392.286 141.188 393.162 142.076 394.266 142.724C395.37 143.372 396.642 143.696 398.082 143.696C398.946 143.696 399.81 143.552 400.674 143.264C401.562 142.952 402.27 142.568 402.798 142.112C403.062 141.896 403.362 141.788 403.698 141.788C404.034 141.764 404.322 141.848 404.562 142.04C404.874 142.328 405.03 142.64 405.03 142.976C405.054 143.312 404.922 143.6 404.634 143.84C403.842 144.512 402.834 145.076 401.61 145.532C400.386 145.964 399.21 146.18 398.082 146.18ZM410.943 151.832C410.703 151.832 410.511 151.76 410.367 151.616C410.247 151.496 410.187 151.328 410.187 151.112C410.187 150.752 410.295 150.416 410.511 150.104C410.727 149.816 410.943 149.504 411.159 149.168C411.399 148.832 411.519 148.424 411.519 147.944C411.519 147.512 411.435 147.152 411.267 146.864C411.099 146.576 410.895 146.312 410.655 146.072C410.439 145.856 410.247 145.616 410.079 145.352C409.911 145.064 409.827 144.716 409.827 144.308C409.827 143.708 410.019 143.228 410.403 142.868C410.811 142.508 411.315 142.328 411.915 142.328C412.635 142.328 413.223 142.616 413.679 143.192C414.135 143.744 414.363 144.524 414.363 145.532C414.363 146.204 414.267 146.912 414.075 147.656C413.883 148.4 413.619 149.084 413.283 149.708C412.947 150.356 412.575 150.872 412.167 151.256C411.759 151.64 411.351 151.832 410.943 151.832ZM436.379 139.916C434.627 139.916 433.151 139.556 431.951 138.836C430.775 138.116 429.875 137.096 429.251 135.776C428.627 134.456 428.315 132.908 428.315 131.132V127.712C428.315 127.28 428.435 126.944 428.675 126.704C428.939 126.44 429.287 126.308 429.719 126.308C430.127 126.308 430.451 126.44 430.691 126.704C430.955 126.944 431.087 127.28 431.087 127.712V131.132C431.087 133.028 431.543 134.528 432.455 135.632C433.391 136.736 434.795 137.288 436.667 137.288C438.179 137.288 439.403 137.024 440.339 136.496C441.299 135.944 441.779 135.248 441.779 134.408H443.183C443.159 135.464 442.847 136.412 442.247 137.252C441.647 138.068 440.843 138.716 439.835 139.196C438.827 139.676 437.675 139.916 436.379 139.916ZM443.183 146C442.751 146 442.403 145.88 442.139 145.64C441.899 145.376 441.779 145.028 441.779 144.596V127.712C441.779 127.28 441.899 126.944 442.139 126.704C442.403 126.44 442.751 126.308 443.183 126.308C443.591 126.308 443.915 126.44 444.155 126.704C444.419 126.944 444.551 127.28 444.551 127.712V144.596C444.551 145.028 444.419 145.376 444.155 145.64C443.915 145.88 443.591 146 443.183 146ZM477.633 146C477.225 146 476.889 145.88 476.625 145.64C476.361 145.376 476.229 145.04 476.229 144.632V134.264C476.229 132.56 475.785 131.216 474.897 130.232C474.009 129.224 472.869 128.72 471.477 128.72C469.989 128.72 468.765 129.224 467.805 130.232C466.869 131.216 466.413 132.536 466.437 134.192H463.953C463.977 132.584 464.325 131.168 464.997 129.944C465.669 128.72 466.593 127.772 467.769 127.1C468.945 126.428 470.277 126.092 471.765 126.092C473.181 126.092 474.429 126.428 475.509 127.1C476.613 127.772 477.465 128.72 478.065 129.944C478.689 131.168 479.001 132.608 479.001 134.264V144.632C479.001 145.04 478.869 145.376 478.605 145.64C478.365 145.88 478.041 146 477.633 146ZM452.433 146C452.001 146 451.653 145.88 451.389 145.64C451.149 145.376 451.029 145.04 451.029 144.632V127.712C451.029 127.304 451.149 126.968 451.389 126.704C451.653 126.44 452.001 126.308 452.433 126.308C452.841 126.308 453.165 126.44 453.405 126.704C453.669 126.968 453.801 127.304 453.801 127.712V144.632C453.801 145.04 453.669 145.376 453.405 145.64C453.165 145.88 452.841 146 452.433 146ZM465.069 146C464.661 146 464.325 145.88 464.061 145.64C463.797 145.376 463.665 145.04 463.665 144.632V134.264C463.665 132.56 463.221 131.216 462.333 130.232C461.445 129.224 460.305 128.72 458.913 128.72C457.425 128.72 456.201 129.212 455.241 130.196C454.281 131.156 453.801 132.416 453.801 133.976H451.821C451.869 132.44 452.205 131.084 452.829 129.908C453.477 128.708 454.353 127.772 455.457 127.1C456.561 126.428 457.809 126.092 459.201 126.092C460.617 126.092 461.865 126.428 462.945 127.1C464.049 127.772 464.901 128.72 465.501 129.944C466.125 131.168 466.437 132.608 466.437 134.264V144.632C466.437 145.04 466.305 145.376 466.041 145.64C465.801 145.88 465.477 146 465.069 146ZM494.095 146.18C492.175 146.18 490.459 145.748 488.947 144.884C487.435 144.02 486.247 142.832 485.383 141.32C484.519 139.808 484.087 138.092 484.087 136.172C484.087 134.228 484.519 132.5 485.383 130.988C486.247 129.476 487.435 128.288 488.947 127.424C490.459 126.56 492.175 126.128 494.095 126.128C496.015 126.128 497.719 126.56 499.207 127.424C500.719 128.288 501.907 129.476 502.771 130.988C503.635 132.5 504.079 134.228 504.103 136.172C504.103 138.092 503.659 139.808 502.771 141.32C501.907 142.832 500.719 144.02 499.207 144.884C497.719 145.748 496.015 146.18 494.095 146.18ZM494.095 143.66C495.487 143.66 496.735 143.336 497.839 142.688C498.943 142.04 499.807 141.152 500.431 140.024C501.055 138.896 501.367 137.612 501.367 136.172C501.367 134.732 501.055 133.448 500.431 132.32C499.807 131.168 498.943 130.268 497.839 129.62C496.735 128.972 495.487 128.648 494.095 128.648C492.703 128.648 491.455 128.972 490.351 129.62C489.247 130.268 488.371 131.168 487.723 132.32C487.099 133.448 486.787 134.732 486.787 136.172C486.787 137.612 487.099 138.896 487.723 140.024C488.371 141.152 489.247 142.04 490.351 142.688C491.455 143.336 492.703 143.66 494.095 143.66ZM521.985 146C521.529 146 521.145 145.88 520.833 145.64C520.545 145.376 520.401 145.028 520.401 144.596V119.288C520.401 118.88 520.533 118.544 520.797 118.28C521.061 118.016 521.397 117.884 521.805 117.884H530.553C531.993 117.884 533.289 118.196 534.441 118.82C535.617 119.42 536.541 120.248 537.213 121.304C537.909 122.36 538.257 123.584 538.257 124.976C538.257 126.272 537.909 127.424 537.213 128.432C536.517 129.44 535.605 130.208 534.477 130.736C536.085 131.168 537.381 131.984 538.365 133.184C539.349 134.36 539.841 135.86 539.841 137.684C539.841 139.316 539.469 140.756 538.725 142.004C537.981 143.252 536.949 144.236 535.629 144.956C534.333 145.652 532.845 146 531.165 146H521.985ZM523.209 143.3H531.165C532.317 143.3 533.337 143.072 534.225 142.616C535.113 142.16 535.809 141.512 536.313 140.672C536.817 139.832 537.069 138.836 537.069 137.684C537.069 136.604 536.817 135.668 536.313 134.876C535.809 134.06 535.113 133.436 534.225 133.004C533.337 132.548 532.317 132.32 531.165 132.32H523.209V143.3ZM523.209 129.62H530.553C531.993 129.62 533.181 129.212 534.117 128.396C535.053 127.58 535.521 126.44 535.521 124.976C535.521 123.536 535.053 122.444 534.117 121.7C533.181 120.956 531.993 120.584 530.553 120.584H523.209V129.62ZM553.028 146.36C551.468 146.36 550.088 146.048 548.888 145.424C547.712 144.8 546.776 143.936 546.08 142.832C545.408 141.728 545.072 140.456 545.072 139.016V127.676C545.096 127.268 545.228 126.944 545.468 126.704C545.732 126.44 546.068 126.308 546.476 126.308C546.884 126.308 547.208 126.44 547.448 126.704C547.712 126.944 547.844 127.28 547.844 127.712V132.824H553.172C554.612 132.824 555.884 133.1 556.988 133.652C558.116 134.18 558.992 134.948 559.616 135.956C560.24 136.94 560.552 138.116 560.552 139.484C560.552 140.876 560.228 142.088 559.58 143.12C558.956 144.152 558.068 144.956 556.916 145.532C555.788 146.084 554.492 146.36 553.028 146.36ZM553.028 143.804C554.42 143.804 555.572 143.444 556.484 142.724C557.396 142.004 557.852 140.924 557.852 139.484C557.852 138.044 557.408 136.976 556.52 136.28C555.656 135.584 554.54 135.236 553.172 135.236H547.844V139.016C547.844 140.408 548.324 141.56 549.284 142.472C550.268 143.36 551.516 143.804 553.028 143.804ZM565.052 146C564.644 146 564.308 145.88 564.044 145.64C563.804 145.376 563.684 145.028 563.684 144.596V127.712C563.684 127.28 563.804 126.944 564.044 126.704C564.308 126.44 564.644 126.308 565.052 126.308C565.484 126.308 565.82 126.44 566.06 126.704C566.324 126.944 566.456 127.28 566.456 127.712V144.596C566.456 145.028 566.324 145.376 566.06 145.64C565.82 145.88 565.484 146 565.052 146ZM592.282 146.18C590.386 146.18 588.694 145.748 587.206 144.884C585.742 143.996 584.578 142.796 583.714 141.284C582.874 139.772 582.454 138.068 582.454 136.172C582.454 134.252 582.862 132.536 583.678 131.024C584.494 129.512 585.61 128.324 587.026 127.46C588.442 126.572 590.074 126.128 591.922 126.128C593.386 126.128 594.73 126.416 595.954 126.992C597.202 127.568 598.294 128.432 599.23 129.584C599.494 129.872 599.59 130.184 599.518 130.52C599.446 130.832 599.242 131.108 598.906 131.348C598.642 131.54 598.342 131.612 598.006 131.564C597.694 131.492 597.418 131.312 597.178 131.024C595.786 129.44 594.034 128.648 591.922 128.648C590.578 128.648 589.39 128.972 588.358 129.62C587.35 130.268 586.558 131.156 585.982 132.284C585.43 133.412 585.154 134.708 585.154 136.172C585.154 137.612 585.454 138.896 586.054 140.024C586.654 141.152 587.494 142.04 588.574 142.688C589.654 143.336 590.89 143.66 592.282 143.66C593.218 143.66 594.07 143.54 594.838 143.3C595.63 143.036 596.326 142.64 596.926 142.112C597.214 141.872 597.514 141.74 597.826 141.716C598.138 141.692 598.426 141.788 598.69 142.004C598.978 142.268 599.134 142.568 599.158 142.904C599.206 143.24 599.098 143.528 598.834 143.768C597.082 145.376 594.898 146.18 592.282 146.18ZM613.619 146.18C611.771 146.18 610.115 145.748 608.651 144.884C607.187 143.996 606.023 142.796 605.159 141.284C604.319 139.772 603.899 138.068 603.899 136.172C603.899 134.252 604.331 132.536 605.195 131.024C606.083 129.512 607.283 128.324 608.795 127.46C610.307 126.572 612.011 126.128 613.907 126.128C615.803 126.128 617.495 126.572 618.983 127.46C620.495 128.324 621.683 129.512 622.547 131.024C623.435 132.536 623.891 134.252 623.915 136.172L622.799 137.036C622.799 138.764 622.391 140.324 621.575 141.716C620.783 143.084 619.691 144.176 618.299 144.992C616.931 145.784 615.371 146.18 613.619 146.18ZM613.907 143.66C615.299 143.66 616.535 143.336 617.615 142.688C618.719 142.04 619.583 141.152 620.207 140.024C620.855 138.872 621.179 137.588 621.179 136.172C621.179 134.732 620.855 133.448 620.207 132.32C619.583 131.192 618.719 130.304 617.615 129.656C616.535 128.984 615.299 128.648 613.907 128.648C612.539 128.648 611.303 128.984 610.199 129.656C609.095 130.304 608.219 131.192 607.571 132.32C606.923 133.448 606.599 134.732 606.599 136.172C606.599 137.588 606.923 138.872 607.571 140.024C608.219 141.152 609.095 142.04 610.199 142.688C611.303 143.336 612.539 143.66 613.907 143.66ZM622.511 146C622.103 146 621.767 145.88 621.503 145.64C621.239 145.376 621.107 145.04 621.107 144.632V138.476L621.791 135.632L623.915 136.172V144.632C623.915 145.04 623.783 145.376 623.519 145.64C623.255 145.88 622.919 146 622.511 146ZM630.71 146C630.278 146 629.93 145.88 629.666 145.64C629.426 145.376 629.306 145.028 629.306 144.596V127.712C629.306 127.28 629.426 126.944 629.666 126.704C629.93 126.44 630.278 126.308 630.71 126.308C631.334 126.308 631.838 126.596 632.222 127.172L640.178 138.692L648.134 127.172C648.518 126.596 649.022 126.308 649.646 126.308C650.078 126.308 650.414 126.44 650.654 126.704C650.918 126.944 651.05 127.28 651.05 127.712V144.596C651.05 145.028 650.918 145.376 650.654 145.64C650.414 145.88 650.078 146 649.646 146C649.214 146 648.878 145.88 648.638 145.64C648.398 145.376 648.278 145.028 648.278 144.596V129.512L649.178 129.8L641.474 140.924C641.09 141.476 640.646 141.752 640.142 141.752C639.638 141.752 639.206 141.476 638.846 140.924L631.142 129.908L632.078 129.62V144.596C632.078 145.028 631.958 145.376 631.718 145.64C631.478 145.88 631.142 146 630.71 146ZM666.105 146.216C664.401 146.216 662.877 145.868 661.533 145.172C660.189 144.452 659.121 143.408 658.329 142.04C657.561 140.672 657.177 139.004 657.177 137.036V127.676C657.177 127.292 657.309 126.968 657.573 126.704C657.837 126.44 658.161 126.308 658.545 126.308C658.953 126.308 659.289 126.44 659.553 126.704C659.817 126.968 659.949 127.292 659.949 127.676V137.036C659.949 138.524 660.225 139.748 660.777 140.708C661.353 141.668 662.121 142.388 663.081 142.868C664.065 143.348 665.169 143.588 666.393 143.588C667.569 143.588 668.625 143.36 669.561 142.904C670.521 142.448 671.277 141.824 671.829 141.032C672.381 140.24 672.657 139.34 672.657 138.332H674.637C674.565 139.844 674.145 141.2 673.377 142.4C672.633 143.576 671.625 144.512 670.353 145.208C669.081 145.88 667.665 146.216 666.105 146.216ZM674.025 146C673.617 146 673.281 145.88 673.017 145.64C672.777 145.376 672.657 145.028 672.657 144.596V127.676C672.657 127.268 672.777 126.944 673.017 126.704C673.281 126.44 673.617 126.308 674.025 126.308C674.433 126.308 674.769 126.44 675.033 126.704C675.297 126.944 675.429 127.268 675.429 127.676V144.596C675.429 145.028 675.297 145.376 675.033 145.64C674.769 145.88 674.433 146 674.025 146ZM693.851 154.424C693.419 154.424 693.071 154.292 692.807 154.028C692.567 153.788 692.447 153.452 692.447 153.02V136.028C692.471 134.156 692.915 132.476 693.779 130.988C694.667 129.476 695.855 128.288 697.343 127.424C698.855 126.56 700.547 126.128 702.419 126.128C704.339 126.128 706.055 126.572 707.567 127.46C709.079 128.324 710.267 129.512 711.131 131.024C712.019 132.536 712.463 134.252 712.463 136.172C712.463 138.068 712.031 139.772 711.167 141.284C710.327 142.796 709.175 143.996 707.711 144.884C706.247 145.748 704.591 146.18 702.743 146.18C701.135 146.18 699.671 145.844 698.351 145.172C697.055 144.476 696.011 143.564 695.219 142.436V153.02C695.219 153.452 695.087 153.788 694.823 154.028C694.583 154.292 694.259 154.424 693.851 154.424ZM702.419 143.66C703.811 143.66 705.059 143.336 706.163 142.688C707.267 142.04 708.131 141.152 708.755 140.024C709.403 138.872 709.727 137.588 709.727 136.172C709.727 134.732 709.403 133.448 708.755 132.32C708.131 131.192 707.267 130.304 706.163 129.656C705.059 128.984 703.811 128.648 702.419 128.648C701.051 128.648 699.815 128.984 698.711 129.656C697.607 130.304 696.743 131.192 696.119 132.32C695.495 133.448 695.183 134.732 695.183 136.172C695.183 137.588 695.495 138.872 696.119 140.024C696.743 141.152 697.607 142.04 698.711 142.688C699.815 143.336 701.051 143.66 702.419 143.66ZM726.828 146.18C724.884 146.18 723.156 145.76 721.644 144.92C720.156 144.056 718.98 142.868 718.116 141.356C717.276 139.844 716.856 138.116 716.856 136.172C716.856 134.204 717.252 132.476 718.044 130.988C718.86 129.476 719.976 128.288 721.392 127.424C722.808 126.56 724.44 126.128 726.288 126.128C728.112 126.128 729.696 126.548 731.04 127.388C732.408 128.204 733.464 129.344 734.208 130.808C734.952 132.272 735.324 133.94 735.324 135.812C735.324 136.196 735.204 136.508 734.964 136.748C734.724 136.964 734.412 137.072 734.028 137.072H718.728V134.768H734.316L732.768 135.884C732.792 134.492 732.54 133.244 732.012 132.14C731.484 131.036 730.728 130.172 729.744 129.548C728.784 128.924 727.632 128.612 726.288 128.612C724.92 128.612 723.72 128.936 722.688 129.584C721.656 130.232 720.852 131.132 720.276 132.284C719.724 133.412 719.448 134.708 719.448 136.172C719.448 137.636 719.76 138.932 720.384 140.06C721.032 141.188 721.908 142.076 723.012 142.724C724.116 143.372 725.388 143.696 726.828 143.696C727.692 143.696 728.556 143.552 729.42 143.264C730.308 142.952 731.016 142.568 731.544 142.112C731.808 141.896 732.108 141.788 732.444 141.788C732.78 141.764 733.068 141.848 733.308 142.04C733.62 142.328 733.776 142.64 733.776 142.976C733.8 143.312 733.668 143.6 733.38 143.84C732.588 144.512 731.58 145.076 730.356 145.532C729.132 145.964 727.956 146.18 726.828 146.18ZM759.453 146.252C758.037 146.252 756.777 145.916 755.673 145.244C754.593 144.572 753.741 143.624 753.117 142.4C752.517 141.176 752.217 139.736 752.217 138.08V127.712C752.217 127.28 752.337 126.944 752.577 126.704C752.841 126.44 753.177 126.308 753.585 126.308C753.993 126.308 754.329 126.44 754.593 126.704C754.857 126.944 754.989 127.28 754.989 127.712V138.08C754.989 139.208 755.181 140.192 755.565 141.032C755.973 141.848 756.537 142.484 757.257 142.94C757.977 143.372 758.805 143.588 759.741 143.588C761.229 143.588 762.453 143.108 763.413 142.148C764.373 141.164 764.853 139.916 764.853 138.404L766.329 138.44C766.281 139.952 765.957 141.296 765.357 142.472C764.757 143.648 763.941 144.572 762.909 145.244C761.901 145.916 760.749 146.252 759.453 146.252ZM746.889 146.252C745.473 146.252 744.213 145.916 743.109 145.244C742.029 144.572 741.177 143.624 740.553 142.4C739.953 141.176 739.653 139.736 739.653 138.08V127.712C739.653 127.28 739.773 126.944 740.013 126.704C740.277 126.44 740.613 126.308 741.021 126.308C741.429 126.308 741.765 126.44 742.029 126.704C742.293 126.944 742.425 127.28 742.425 127.712V138.08C742.425 139.208 742.617 140.192 743.001 141.032C743.409 141.848 743.973 142.484 744.693 142.94C745.413 143.372 746.241 143.588 747.177 143.588C748.665 143.588 749.877 143.096 750.813 142.112C751.773 141.128 752.241 139.82 752.217 138.188H753.693C753.669 139.772 753.357 141.176 752.757 142.4C752.181 143.6 751.377 144.548 750.345 145.244C749.337 145.916 748.185 146.252 746.889 146.252ZM766.221 146C765.813 146 765.477 145.88 765.213 145.64C764.973 145.376 764.853 145.028 764.853 144.596V127.712C764.853 127.28 764.973 126.944 765.213 126.704C765.477 126.44 765.813 126.308 766.221 126.308C766.629 126.308 766.965 126.44 767.229 126.704C767.493 126.944 767.625 127.28 767.625 127.712V144.596C767.625 145.028 767.493 145.376 767.229 145.64C766.965 145.88 766.629 146 766.221 146ZM782.791 146.18C780.943 146.18 779.287 145.748 777.823 144.884C776.359 143.996 775.195 142.796 774.331 141.284C773.491 139.772 773.071 138.068 773.071 136.172C773.071 134.252 773.503 132.536 774.367 131.024C775.255 129.512 776.455 128.324 777.967 127.46C779.479 126.572 781.183 126.128 783.079 126.128C784.975 126.128 786.667 126.572 788.155 127.46C789.667 128.324 790.855 129.512 791.719 131.024C792.607 132.536 793.063 134.252 793.087 136.172L791.971 137.036C791.971 138.764 791.563 140.324 790.747 141.716C789.955 143.084 788.863 144.176 787.471 144.992C786.103 145.784 784.543 146.18 782.791 146.18ZM783.079 143.66C784.471 143.66 785.707 143.336 786.787 142.688C787.891 142.04 788.755 141.152 789.379 140.024C790.027 138.872 790.351 137.588 790.351 136.172C790.351 134.732 790.027 133.448 789.379 132.32C788.755 131.192 787.891 130.304 786.787 129.656C785.707 128.984 784.471 128.648 783.079 128.648C781.711 128.648 780.475 128.984 779.371 129.656C778.267 130.304 777.391 131.192 776.743 132.32C776.095 133.448 775.771 134.732 775.771 136.172C775.771 137.588 776.095 138.872 776.743 140.024C777.391 141.152 778.267 142.04 779.371 142.688C780.475 143.336 781.711 143.66 783.079 143.66ZM791.683 146C791.275 146 790.939 145.88 790.675 145.64C790.411 145.376 790.279 145.04 790.279 144.632V138.476L790.963 135.632L793.087 136.172V144.632C793.087 145.04 792.955 145.376 792.691 145.64C792.427 145.88 792.091 146 791.683 146ZM807.406 146.18C805.462 146.18 803.734 145.76 802.222 144.92C800.734 144.056 799.558 142.868 798.694 141.356C797.854 139.844 797.434 138.116 797.434 136.172C797.434 134.204 797.83 132.476 798.622 130.988C799.438 129.476 800.554 128.288 801.97 127.424C803.386 126.56 805.018 126.128 806.866 126.128C808.69 126.128 810.274 126.548 811.618 127.388C812.986 128.204 814.042 129.344 814.786 130.808C815.53 132.272 815.902 133.94 815.902 135.812C815.902 136.196 815.782 136.508 815.542 136.748C815.302 136.964 814.99 137.072 814.606 137.072H799.306V134.768H814.894L813.346 135.884C813.37 134.492 813.118 133.244 812.59 132.14C812.062 131.036 811.306 130.172 810.322 129.548C809.362 128.924 808.21 128.612 806.866 128.612C805.498 128.612 804.298 128.936 803.266 129.584C802.234 130.232 801.43 131.132 800.854 132.284C800.302 133.412 800.026 134.708 800.026 136.172C800.026 137.636 800.338 138.932 800.962 140.06C801.61 141.188 802.486 142.076 803.59 142.724C804.694 143.372 805.966 143.696 807.406 143.696C808.27 143.696 809.134 143.552 809.998 143.264C810.886 142.952 811.594 142.568 812.122 142.112C812.386 141.896 812.686 141.788 813.022 141.788C813.358 141.764 813.646 141.848 813.886 142.04C814.198 142.328 814.354 142.64 814.354 142.976C814.378 143.312 814.246 143.6 813.958 143.84C813.166 144.512 812.158 145.076 810.934 145.532C809.71 145.964 808.534 146.18 807.406 146.18ZM847.196 146C846.788 146 846.452 145.88 846.188 145.64C845.924 145.376 845.792 145.04 845.792 144.632V134.264C845.792 132.56 845.348 131.216 844.46 130.232C843.572 129.224 842.432 128.72 841.04 128.72C839.552 128.72 838.328 129.224 837.368 130.232C836.432 131.216 835.976 132.536 836 134.192H833.516C833.54 132.584 833.888 131.168 834.56 129.944C835.232 128.72 836.156 127.772 837.332 127.1C838.508 126.428 839.84 126.092 841.328 126.092C842.744 126.092 843.992 126.428 845.072 127.1C846.176 127.772 847.028 128.72 847.628 129.944C848.252 131.168 848.564 132.608 848.564 134.264V144.632C848.564 145.04 848.432 145.376 848.168 145.64C847.928 145.88 847.604 146 847.196 146ZM821.996 146C821.564 146 821.216 145.88 820.952 145.64C820.712 145.376 820.592 145.04 820.592 144.632V127.712C820.592 127.304 820.712 126.968 820.952 126.704C821.216 126.44 821.564 126.308 821.996 126.308C822.404 126.308 822.728 126.44 822.968 126.704C823.232 126.968 823.364 127.304 823.364 127.712V144.632C823.364 145.04 823.232 145.376 822.968 145.64C822.728 145.88 822.404 146 821.996 146ZM834.632 146C834.224 146 833.888 145.88 833.624 145.64C833.36 145.376 833.228 145.04 833.228 144.632V134.264C833.228 132.56 832.784 131.216 831.896 130.232C831.008 129.224 829.868 128.72 828.476 128.72C826.988 128.72 825.764 129.212 824.804 130.196C823.844 131.156 823.364 132.416 823.364 133.976H821.384C821.432 132.44 821.768 131.084 822.392 129.908C823.04 128.708 823.916 127.772 825.02 127.1C826.124 126.428 827.372 126.092 828.764 126.092C830.18 126.092 831.428 126.428 832.508 127.1C833.612 127.772 834.464 128.72 835.064 129.944C835.688 131.168 836 132.608 836 134.264V144.632C836 145.04 835.868 145.376 835.604 145.64C835.364 145.88 835.04 146 834.632 146ZM863.621 146.18C861.677 146.18 859.949 145.76 858.437 144.92C856.949 144.056 855.773 142.868 854.909 141.356C854.069 139.844 853.649 138.116 853.649 136.172C853.649 134.204 854.045 132.476 854.837 130.988C855.653 129.476 856.769 128.288 858.185 127.424C859.601 126.56 861.233 126.128 863.081 126.128C864.905 126.128 866.489 126.548 867.833 127.388C869.201 128.204 870.257 129.344 871.001 130.808C871.745 132.272 872.117 133.94 872.117 135.812C872.117 136.196 871.997 136.508 871.757 136.748C871.517 136.964 871.205 137.072 870.821 137.072H855.521V134.768H871.109L869.561 135.884C869.585 134.492 869.333 133.244 868.805 132.14C868.277 131.036 867.521 130.172 866.537 129.548C865.577 128.924 864.425 128.612 863.081 128.612C861.713 128.612 860.513 128.936 859.481 129.584C858.449 130.232 857.645 131.132 857.069 132.284C856.517 133.412 856.241 134.708 856.241 136.172C856.241 137.636 856.553 138.932 857.177 140.06C857.825 141.188 858.701 142.076 859.805 142.724C860.909 143.372 862.181 143.696 863.621 143.696C864.485 143.696 865.349 143.552 866.213 143.264C867.101 142.952 867.809 142.568 868.337 142.112C868.601 141.896 868.901 141.788 869.237 141.788C869.573 141.764 869.861 141.848 870.101 142.04C870.413 142.328 870.569 142.64 870.569 142.976C870.593 143.312 870.461 143.6 870.173 143.84C869.381 144.512 868.373 145.076 867.149 145.532C865.925 145.964 864.749 146.18 863.621 146.18ZM902.653 145.64C902.413 145.88 902.089 146 901.681 146C901.297 146 900.985 145.868 900.745 145.604L892.141 136.172L900.385 126.74C900.625 126.476 900.925 126.332 901.285 126.308C901.645 126.284 901.957 126.38 902.221 126.596C902.509 126.86 902.665 127.16 902.689 127.496C902.713 127.808 902.605 128.108 902.365 128.396L895.597 136.028L902.725 143.876C902.965 144.14 903.085 144.44 903.085 144.776C903.085 145.088 902.941 145.376 902.653 145.64ZM888.685 146C888.277 146 887.953 145.88 887.713 145.64C887.473 145.376 887.353 145.04 887.353 144.632V127.712C887.353 127.28 887.473 126.944 887.713 126.704C887.953 126.44 888.277 126.308 888.685 126.308C889.117 126.308 889.453 126.44 889.693 126.704C889.957 126.944 890.089 127.28 890.089 127.712V134.84H894.481V137.36H890.089V144.632C890.089 145.04 889.957 145.376 889.693 145.64C889.453 145.88 889.117 146 888.685 146ZM914.451 146.18C912.603 146.18 910.947 145.748 909.483 144.884C908.019 143.996 906.855 142.796 905.991 141.284C905.151 139.772 904.731 138.068 904.731 136.172C904.731 134.252 905.163 132.536 906.027 131.024C906.915 129.512 908.115 128.324 909.627 127.46C911.139 126.572 912.843 126.128 914.739 126.128C916.635 126.128 918.327 126.572 919.815 127.46C921.327 128.324 922.515 129.512 923.379 131.024C924.267 132.536 924.723 134.252 924.747 136.172L923.631 137.036C923.631 138.764 923.223 140.324 922.407 141.716C921.615 143.084 920.523 144.176 919.131 144.992C917.763 145.784 916.203 146.18 914.451 146.18ZM914.739 143.66C916.131 143.66 917.367 143.336 918.447 142.688C919.551 142.04 920.415 141.152 921.039 140.024C921.687 138.872 922.011 137.588 922.011 136.172C922.011 134.732 921.687 133.448 921.039 132.32C920.415 131.192 919.551 130.304 918.447 129.656C917.367 128.984 916.131 128.648 914.739 128.648C913.371 128.648 912.135 128.984 911.031 129.656C909.927 130.304 909.051 131.192 908.403 132.32C907.755 133.448 907.431 134.732 907.431 136.172C907.431 137.588 907.755 138.872 908.403 140.024C909.051 141.152 909.927 142.04 911.031 142.688C912.135 143.336 913.371 143.66 914.739 143.66ZM923.343 146C922.935 146 922.599 145.88 922.335 145.64C922.071 145.376 921.939 145.04 921.939 144.632V138.476L922.623 135.632L924.747 136.172V144.632C924.747 145.04 924.615 145.376 924.351 145.64C924.087 145.88 923.751 146 923.343 146ZM945.438 145.64C945.198 145.88 944.874 146 944.466 146C944.082 146 943.77 145.868 943.53 145.604L934.926 136.172L943.17 126.74C943.41 126.476 943.71 126.332 944.07 126.308C944.43 126.284 944.742 126.38 945.006 126.596C945.294 126.86 945.45 127.16 945.474 127.496C945.498 127.808 945.39 128.108 945.15 128.396L938.382 136.028L945.51 143.876C945.75 144.14 945.87 144.44 945.87 144.776C945.87 145.088 945.726 145.376 945.438 145.64ZM931.47 146C931.062 146 930.738 145.88 930.498 145.64C930.258 145.376 930.138 145.04 930.138 144.632V127.712C930.138 127.28 930.258 126.944 930.498 126.704C930.738 126.44 931.062 126.308 931.47 126.308C931.902 126.308 932.238 126.44 932.478 126.704C932.742 126.944 932.874 127.28 932.874 127.712V134.84H937.266V137.36H932.874V144.632C932.874 145.04 932.742 145.376 932.478 145.64C932.238 145.88 931.902 146 931.47 146ZM310.982 193C310.55 193 310.202 192.88 309.938 192.64C309.698 192.376 309.578 192.028 309.578 191.596V174.676C309.602 174.268 309.734 173.944 309.974 173.704C310.238 173.44 310.574 173.308 310.982 173.308C311.39 173.308 311.714 173.44 311.954 173.704C312.218 173.944 312.35 174.28 312.35 174.712V181.552H319.946V182.056C321.194 182.056 322.298 182.284 323.258 182.74C324.242 183.196 324.998 183.832 325.526 184.648C326.078 185.44 326.354 186.352 326.354 187.384C326.354 188.488 326.078 189.46 325.526 190.3C324.998 191.14 324.242 191.8 323.258 192.28C322.298 192.76 321.194 193 319.946 193H310.982ZM312.35 190.444H319.946C321.026 190.444 321.914 190.168 322.61 189.616C323.306 189.064 323.654 188.272 323.654 187.24C323.654 186.16 323.306 185.344 322.61 184.792C321.914 184.216 321.026 183.928 319.946 183.928H312.35V190.444ZM316.382 183.1V181.552H319.946C320.786 181.552 321.47 181.276 321.998 180.724C322.526 180.172 322.79 179.464 322.79 178.6C322.79 177.832 322.502 177.184 321.926 176.656C321.374 176.104 320.666 175.828 319.802 175.828H311.018V173.308H319.802C320.906 173.308 321.878 173.536 322.718 173.992C323.582 174.424 324.254 175.024 324.734 175.792C325.238 176.56 325.49 177.448 325.49 178.456C325.49 180.016 324.962 181.18 323.906 181.948C322.874 182.716 321.554 183.1 319.946 183.1H316.382ZM339.014 193.36C337.454 193.36 336.074 193.048 334.874 192.424C333.698 191.8 332.762 190.936 332.066 189.832C331.394 188.728 331.058 187.456 331.058 186.016V174.676C331.082 174.268 331.214 173.944 331.454 173.704C331.718 173.44 332.054 173.308 332.462 173.308C332.87 173.308 333.194 173.44 333.434 173.704C333.698 173.944 333.83 174.28 333.83 174.712V179.824H339.158C340.598 179.824 341.87 180.1 342.974 180.652C344.102 181.18 344.978 181.948 345.602 182.956C346.226 183.94 346.538 185.116 346.538 186.484C346.538 187.876 346.214 189.088 345.566 190.12C344.942 191.152 344.054 191.956 342.902 192.532C341.774 193.084 340.478 193.36 339.014 193.36ZM339.014 190.804C340.406 190.804 341.558 190.444 342.47 189.724C343.382 189.004 343.838 187.924 343.838 186.484C343.838 185.044 343.394 183.976 342.506 183.28C341.642 182.584 340.526 182.236 339.158 182.236H333.83V186.016C333.83 187.408 334.31 188.56 335.27 189.472C336.254 190.36 337.502 190.804 339.014 190.804ZM351.038 193C350.63 193 350.294 192.88 350.03 192.64C349.79 192.376 349.67 192.028 349.67 191.596V174.712C349.67 174.28 349.79 173.944 350.03 173.704C350.294 173.44 350.63 173.308 351.038 173.308C351.47 173.308 351.806 173.44 352.046 173.704C352.31 173.944 352.442 174.28 352.442 174.712V191.596C352.442 192.028 352.31 192.376 352.046 192.64C351.806 192.88 351.47 193 351.038 193ZM364.949 193.18C363.533 193.18 362.261 192.964 361.133 192.532C360.005 192.1 359.105 191.488 358.433 190.696C357.785 189.904 357.461 188.968 357.461 187.888C357.461 186.976 357.701 186.148 358.181 185.404C358.685 184.66 359.477 184.012 360.557 183.46C361.661 182.884 363.101 182.404 364.877 182.02C366.485 181.66 367.589 181.204 368.189 180.652C368.813 180.076 369.125 179.356 369.125 178.492C369.125 177.652 368.765 176.968 368.045 176.44C367.325 175.888 366.329 175.612 365.057 175.612C364.049 175.612 363.113 175.792 362.249 176.152C361.409 176.488 360.713 176.98 360.161 177.628C359.897 177.916 359.597 178.096 359.261 178.168C358.925 178.24 358.637 178.204 358.397 178.06C358.013 177.844 357.785 177.568 357.713 177.232C357.641 176.872 357.725 176.548 357.965 176.26C358.661 175.324 359.609 174.568 360.809 173.992C362.009 173.416 363.413 173.128 365.021 173.128C366.341 173.128 367.517 173.344 368.549 173.776C369.581 174.184 370.385 174.796 370.961 175.612C371.537 176.428 371.825 177.424 371.825 178.6C371.825 179.848 371.345 180.964 370.385 181.948C369.425 182.908 367.829 183.64 365.597 184.144C363.557 184.6 362.153 185.116 361.385 185.692C360.617 186.268 360.233 186.988 360.233 187.852C360.233 188.788 360.605 189.496 361.349 189.976C362.117 190.432 363.293 190.66 364.877 190.66C366.077 190.66 367.145 190.516 368.081 190.228C369.041 189.94 369.833 189.436 370.457 188.716C370.697 188.452 370.985 188.284 371.321 188.212C371.657 188.116 371.993 188.2 372.329 188.464C372.641 188.728 372.809 189.028 372.833 189.364C372.857 189.7 372.737 190.012 372.473 190.3C371.657 191.188 370.553 191.896 369.161 192.424C367.769 192.928 366.365 193.18 364.949 193.18ZM384.879 173.308C385.167 173.308 385.431 173.38 385.671 173.524C385.911 173.668 386.103 173.908 386.247 174.244L394.059 191.236C394.227 191.572 394.239 191.896 394.095 192.208C393.975 192.496 393.747 192.724 393.411 192.892C393.027 193.06 392.679 193.096 392.367 193C392.055 192.88 391.803 192.64 391.611 192.28L384.159 175.684H385.779L378.183 192.244C378.015 192.604 377.751 192.844 377.391 192.964C377.055 193.06 376.707 193.024 376.347 192.856C376.011 192.688 375.771 192.46 375.627 192.172C375.507 191.86 375.519 191.536 375.663 191.2L383.583 174.244C383.871 173.62 384.303 173.308 384.879 173.308ZM411.695 193C411.311 193 410.987 192.88 410.723 192.64C410.483 192.376 410.363 192.028 410.363 191.596V186.196H404.603V185.836C403.379 185.836 402.287 185.584 401.327 185.08C400.367 184.552 399.623 183.832 399.095 182.92C398.567 182.008 398.303 180.952 398.303 179.752C398.303 178.504 398.591 177.4 399.167 176.44C399.767 175.456 400.595 174.688 401.651 174.136C402.707 173.584 403.919 173.308 405.287 173.308H411.695C412.127 173.308 412.463 173.44 412.703 173.704C412.967 173.944 413.099 174.28 413.099 174.712V191.632C413.075 192.04 412.931 192.376 412.667 192.64C412.427 192.88 412.103 193 411.695 193ZM398.231 192.64C397.943 192.376 397.799 192.088 397.799 191.776C397.823 191.464 397.943 191.164 398.159 190.876L403.199 184.468L406.763 184.54L400.283 192.496C399.995 192.856 399.635 193.024 399.203 193C398.795 193 398.471 192.88 398.231 192.64ZM405.287 183.82H410.363V175.864H405.287C404.063 175.864 403.043 176.224 402.227 176.944C401.411 177.64 401.003 178.576 401.003 179.752C401.003 181.024 401.411 182.02 402.227 182.74C403.043 183.46 404.063 183.82 405.287 183.82ZM428.258 193.18C426.362 193.18 424.682 192.76 423.218 191.92C421.754 191.056 420.602 189.868 419.762 188.356C418.946 186.844 418.538 185.116 418.538 183.172C418.538 181.204 418.97 179.464 419.834 177.952C420.698 176.44 421.886 175.264 423.398 174.424C424.91 173.56 426.626 173.128 428.546 173.128C430.49 173.128 432.206 173.56 433.694 174.424C435.206 175.264 436.382 176.44 437.222 177.952C438.086 179.464 438.53 181.204 438.554 183.172L436.934 184.036C436.934 185.812 436.562 187.396 435.818 188.788C435.074 190.156 434.042 191.236 432.722 192.028C431.426 192.796 429.938 193.18 428.258 193.18ZM428.618 200.776C426.722 200.776 425.054 200.416 423.614 199.696C422.174 199 420.986 198.04 420.05 196.816C419.786 196.528 419.666 196.216 419.69 195.88C419.738 195.544 419.918 195.268 420.23 195.052C420.542 194.836 420.89 194.764 421.274 194.836C421.658 194.908 421.958 195.088 422.174 195.376C422.87 196.24 423.758 196.936 424.838 197.464C425.942 197.992 427.214 198.256 428.654 198.256C429.998 198.256 431.21 197.932 432.29 197.284C433.37 196.636 434.222 195.724 434.846 194.548C435.494 193.372 435.818 191.992 435.818 190.408V184.936L436.862 182.848L438.554 183.172V190.516C438.554 192.46 438.122 194.2 437.258 195.736C436.394 197.296 435.218 198.52 433.73 199.408C432.242 200.32 430.538 200.776 428.618 200.776ZM428.546 190.66C429.962 190.66 431.21 190.348 432.29 189.724C433.394 189.076 434.258 188.188 434.882 187.06C435.506 185.932 435.818 184.636 435.818 183.172C435.818 181.708 435.506 180.412 434.882 179.284C434.258 178.132 433.394 177.244 432.29 176.62C431.21 175.972 429.962 175.648 428.546 175.648C427.13 175.648 425.87 175.972 424.766 176.62C423.662 177.244 422.798 178.132 422.174 179.284C421.55 180.412 421.238 181.708 421.238 183.172C421.238 184.636 421.55 185.932 422.174 187.06C422.798 188.188 423.662 189.076 424.766 189.724C425.87 190.348 427.13 190.66 428.546 190.66ZM452.513 193.216C450.809 193.216 449.285 192.868 447.941 192.172C446.597 191.452 445.529 190.408 444.737 189.04C443.969 187.672 443.585 186.004 443.585 184.036V174.676C443.585 174.292 443.717 173.968 443.981 173.704C444.245 173.44 444.569 173.308 444.953 173.308C445.361 173.308 445.697 173.44 445.961 173.704C446.225 173.968 446.357 174.292 446.357 174.676V184.036C446.357 185.524 446.633 186.748 447.185 187.708C447.761 188.668 448.529 189.388 449.489 189.868C450.473 190.348 451.577 190.588 452.801 190.588C453.977 190.588 455.033 190.36 455.969 189.904C456.929 189.448 457.685 188.824 458.237 188.032C458.789 187.24 459.065 186.34 459.065 185.332H461.045C460.973 186.844 460.553 188.2 459.785 189.4C459.041 190.576 458.033 191.512 456.761 192.208C455.489 192.88 454.073 193.216 452.513 193.216ZM460.433 193C460.025 193 459.689 192.88 459.425 192.64C459.185 192.376 459.065 192.028 459.065 191.596V174.676C459.065 174.268 459.185 173.944 459.425 173.704C459.689 173.44 460.025 173.308 460.433 173.308C460.841 173.308 461.177 173.44 461.441 173.704C461.705 173.944 461.837 174.268 461.837 174.676V191.596C461.837 192.028 461.705 192.376 461.441 192.64C461.177 192.88 460.841 193 460.433 193ZM494.912 193C494.504 193 494.168 192.88 493.904 192.64C493.64 192.376 493.508 192.04 493.508 191.632V181.264C493.508 179.56 493.064 178.216 492.176 177.232C491.288 176.224 490.148 175.72 488.756 175.72C487.268 175.72 486.044 176.224 485.084 177.232C484.148 178.216 483.692 179.536 483.716 181.192H481.232C481.256 179.584 481.604 178.168 482.276 176.944C482.948 175.72 483.872 174.772 485.048 174.1C486.224 173.428 487.556 173.092 489.044 173.092C490.46 173.092 491.708 173.428 492.788 174.1C493.892 174.772 494.744 175.72 495.344 176.944C495.968 178.168 496.28 179.608 496.28 181.264V191.632C496.28 192.04 496.148 192.376 495.884 192.64C495.644 192.88 495.32 193 494.912 193ZM469.712 193C469.28 193 468.932 192.88 468.668 192.64C468.428 192.376 468.308 192.04 468.308 191.632V174.712C468.308 174.304 468.428 173.968 468.668 173.704C468.932 173.44 469.28 173.308 469.712 173.308C470.12 173.308 470.444 173.44 470.684 173.704C470.948 173.968 471.08 174.304 471.08 174.712V191.632C471.08 192.04 470.948 192.376 470.684 192.64C470.444 192.88 470.12 193 469.712 193ZM482.348 193C481.94 193 481.604 192.88 481.34 192.64C481.076 192.376 480.944 192.04 480.944 191.632V181.264C480.944 179.56 480.5 178.216 479.612 177.232C478.724 176.224 477.584 175.72 476.192 175.72C474.704 175.72 473.48 176.212 472.52 177.196C471.56 178.156 471.08 179.416 471.08 180.976H469.1C469.148 179.44 469.484 178.084 470.108 176.908C470.756 175.708 471.632 174.772 472.736 174.1C473.84 173.428 475.088 173.092 476.48 173.092C477.896 173.092 479.144 173.428 480.224 174.1C481.328 174.772 482.18 175.72 482.78 176.944C483.404 178.168 483.716 179.608 483.716 181.264V191.632C483.716 192.04 483.584 192.376 483.32 192.64C483.08 192.88 482.756 193 482.348 193ZM514.901 193C514.445 193 514.061 192.88 513.749 192.64C513.461 192.376 513.317 192.028 513.317 191.596V166.288C513.317 165.88 513.449 165.544 513.713 165.28C513.977 165.016 514.313 164.884 514.721 164.884H523.469C524.909 164.884 526.205 165.196 527.357 165.82C528.533 166.42 529.457 167.248 530.129 168.304C530.825 169.36 531.173 170.584 531.173 171.976C531.173 173.272 530.825 174.424 530.129 175.432C529.433 176.44 528.521 177.208 527.393 177.736C529.001 178.168 530.297 178.984 531.281 180.184C532.265 181.36 532.757 182.86 532.757 184.684C532.757 186.316 532.385 187.756 531.641 189.004C530.897 190.252 529.865 191.236 528.545 191.956C527.249 192.652 525.761 193 524.081 193H514.901ZM516.125 190.3H524.081C525.233 190.3 526.253 190.072 527.141 189.616C528.029 189.16 528.725 188.512 529.229 187.672C529.733 186.832 529.985 185.836 529.985 184.684C529.985 183.604 529.733 182.668 529.229 181.876C528.725 181.06 528.029 180.436 527.141 180.004C526.253 179.548 525.233 179.32 524.081 179.32H516.125V190.3ZM516.125 176.62H523.469C524.909 176.62 526.097 176.212 527.033 175.396C527.969 174.58 528.437 173.44 528.437 171.976C528.437 170.536 527.969 169.444 527.033 168.7C526.097 167.956 524.909 167.584 523.469 167.584H516.125V176.62ZM546.664 193.18C544.816 193.18 543.16 192.748 541.696 191.884C540.232 190.996 539.068 189.796 538.204 188.284C537.364 186.772 536.944 185.068 536.944 183.172C536.944 181.252 537.376 179.536 538.24 178.024C539.128 176.512 540.328 175.324 541.84 174.46C543.352 173.572 545.056 173.128 546.952 173.128C548.848 173.128 550.54 173.572 552.028 174.46C553.54 175.324 554.728 176.512 555.592 178.024C556.48 179.536 556.936 181.252 556.96 183.172L555.844 184.036C555.844 185.764 555.436 187.324 554.62 188.716C553.828 190.084 552.736 191.176 551.344 191.992C549.976 192.784 548.416 193.18 546.664 193.18ZM546.952 190.66C548.344 190.66 549.58 190.336 550.66 189.688C551.764 189.04 552.628 188.152 553.252 187.024C553.9 185.872 554.224 184.588 554.224 183.172C554.224 181.732 553.9 180.448 553.252 179.32C552.628 178.192 551.764 177.304 550.66 176.656C549.58 175.984 548.344 175.648 546.952 175.648C545.584 175.648 544.348 175.984 543.244 176.656C542.14 177.304 541.264 178.192 540.616 179.32C539.968 180.448 539.644 181.732 539.644 183.172C539.644 184.588 539.968 185.872 540.616 187.024C541.264 188.152 542.14 189.04 543.244 189.688C544.348 190.336 545.584 190.66 546.952 190.66ZM555.556 193C555.148 193 554.812 192.88 554.548 192.64C554.284 192.376 554.152 192.04 554.152 191.632V185.476L554.836 182.632L556.96 183.172V191.632C556.96 192.04 556.828 192.376 556.564 192.64C556.3 192.88 555.964 193 555.556 193ZM581.791 193.252C580.375 193.252 579.115 192.916 578.011 192.244C576.931 191.572 576.079 190.624 575.455 189.4C574.855 188.176 574.555 186.736 574.555 185.08V174.712C574.555 174.28 574.675 173.944 574.915 173.704C575.179 173.44 575.515 173.308 575.923 173.308C576.331 173.308 576.667 173.44 576.931 173.704C577.195 173.944 577.327 174.28 577.327 174.712V185.08C577.327 186.208 577.519 187.192 577.903 188.032C578.311 188.848 578.875 189.484 579.595 189.94C580.315 190.372 581.143 190.588 582.079 190.588C583.567 190.588 584.791 190.108 585.751 189.148C586.711 188.164 587.191 186.916 587.191 185.404L588.667 185.44C588.619 186.952 588.295 188.296 587.695 189.472C587.095 190.648 586.279 191.572 585.247 192.244C584.239 192.916 583.087 193.252 581.791 193.252ZM569.227 193.252C567.811 193.252 566.551 192.916 565.447 192.244C564.367 191.572 563.515 190.624 562.891 189.4C562.291 188.176 561.991 186.736 561.991 185.08V174.712C561.991 174.28 562.111 173.944 562.351 173.704C562.615 173.44 562.951 173.308 563.359 173.308C563.767 173.308 564.103 173.44 564.367 173.704C564.631 173.944 564.763 174.28 564.763 174.712V185.08C564.763 186.208 564.955 187.192 565.339 188.032C565.747 188.848 566.311 189.484 567.031 189.94C567.751 190.372 568.579 190.588 569.515 190.588C571.003 190.588 572.215 190.096 573.151 189.112C574.111 188.128 574.579 186.82 574.555 185.188H576.031C576.007 186.772 575.695 188.176 575.095 189.4C574.519 190.6 573.715 191.548 572.683 192.244C571.675 192.916 570.523 193.252 569.227 193.252ZM588.559 193C588.151 193 587.815 192.88 587.551 192.64C587.311 192.376 587.191 192.028 587.191 191.596V174.712C587.191 174.28 587.311 173.944 587.551 173.704C587.815 173.44 588.151 173.308 588.559 173.308C588.967 173.308 589.303 173.44 589.567 173.704C589.831 173.944 589.963 174.28 589.963 174.712V191.596C589.963 192.028 589.831 192.376 589.567 192.64C589.303 192.88 588.967 193 588.559 193ZM606.62 181.824L606.664 176.852C606.693 173.391 607.646 170.223 609.524 167.348C611.43 164.473 614.378 162.141 618.368 160.352L626.596 156.7C627.182 156.465 627.71 156.436 628.18 156.612C628.649 156.759 628.986 157.096 629.192 157.624C629.397 158.181 629.441 158.695 629.324 159.164C629.236 159.604 628.81 160 628.048 160.352L619.116 164.444C616.3 165.735 614.173 167.363 612.736 169.328C611.298 171.264 610.448 173.464 610.184 175.928C611.093 174.256 612.354 172.936 613.968 171.968C615.61 171 617.488 170.516 619.6 170.516C621.712 170.516 623.574 171 625.188 171.968C626.83 172.936 628.106 174.271 629.016 175.972C629.954 177.644 630.424 179.595 630.424 181.824C630.424 184.024 629.925 185.989 628.928 187.72C627.93 189.421 626.552 190.756 624.792 191.724C623.032 192.692 621.008 193.176 618.72 193.176C616.373 193.176 614.29 192.692 612.472 191.724C610.653 190.756 609.23 189.421 608.204 187.72C607.177 185.989 606.649 184.024 606.62 181.824ZM618.72 189.216C620.186 189.216 621.462 188.908 622.548 188.292C623.662 187.647 624.528 186.767 625.144 185.652C625.789 184.537 626.112 183.261 626.112 181.824C626.112 180.387 625.789 179.125 625.144 178.04C624.528 176.925 623.662 176.06 622.548 175.444C621.462 174.799 620.186 174.476 618.72 174.476C617.194 174.476 615.845 174.799 614.672 175.444C613.498 176.06 612.574 176.925 611.9 178.04C611.254 179.125 610.932 180.387 610.932 181.824C610.932 183.261 611.254 184.537 611.9 185.652C612.574 186.767 613.498 187.647 614.672 188.292C615.845 188.908 617.194 189.216 618.72 189.216ZM647.23 193.22C645.206 193.22 643.388 192.795 641.774 191.944C640.19 191.064 638.929 189.788 637.99 188.116C637.081 186.444 636.626 184.391 636.626 181.956V171.132C636.626 170.487 636.832 169.959 637.242 169.548C637.682 169.108 638.225 168.888 638.87 168.888C639.516 168.888 640.044 169.108 640.454 169.548C640.894 169.959 641.114 170.487 641.114 171.132V181.956C641.114 184.449 641.774 186.283 643.094 187.456C644.444 188.6 646.116 189.172 648.11 189.172C649.372 189.172 650.486 188.923 651.454 188.424C652.452 187.925 653.244 187.251 653.83 186.4C654.417 185.549 654.71 184.596 654.71 183.54V171.132C654.71 170.457 654.916 169.915 655.326 169.504C655.766 169.093 656.309 168.888 656.954 168.888C657.629 168.888 658.172 169.093 658.582 169.504C658.993 169.915 659.198 170.457 659.198 171.132V190.756C659.198 191.401 658.993 191.944 658.582 192.384C658.172 192.795 657.629 193 656.954 193C656.309 193 655.766 192.795 655.326 192.384C654.916 191.944 654.71 191.401 654.71 190.756V190.272C653.801 191.181 652.701 191.9 651.41 192.428C650.12 192.956 648.726 193.22 647.23 193.22ZM675.331 193.352C673.219 193.352 671.341 193.029 669.699 192.384C668.085 191.739 666.765 190.947 665.739 190.008C665.269 189.568 665.035 189.055 665.035 188.468C665.035 187.852 665.284 187.353 665.783 186.972C666.223 186.62 666.751 186.473 667.367 186.532C668.012 186.561 668.555 186.781 668.995 187.192C669.699 187.808 670.579 188.336 671.635 188.776C672.691 189.187 673.908 189.392 675.287 189.392C676.9 189.392 678.176 189.055 679.115 188.38C680.083 187.676 680.567 186.781 680.567 185.696C680.567 184.728 680.215 183.965 679.511 183.408C678.836 182.821 677.985 182.513 676.959 182.484H674.451C673.805 182.484 673.263 182.308 672.823 181.956C672.383 181.604 672.163 181.179 672.163 180.68C672.163 180.181 672.383 179.771 672.823 179.448C673.263 179.125 673.805 178.964 674.451 178.964H676.915C677.883 178.905 678.601 178.583 679.071 177.996C679.569 177.409 679.819 176.676 679.819 175.796C679.819 174.828 679.408 174.065 678.587 173.508C677.765 172.951 676.577 172.672 675.023 172.672C672.412 172.672 670.417 173.361 669.039 174.74C668.569 175.209 668.056 175.473 667.499 175.532C666.971 175.561 666.457 175.385 665.959 175.004C665.577 174.711 665.401 174.285 665.431 173.728C665.489 173.171 665.739 172.657 666.179 172.188C667.117 171.161 668.379 170.325 669.963 169.68C671.547 169.035 673.204 168.712 674.935 168.712C676.724 168.712 678.308 169.02 679.687 169.636C681.065 170.252 682.151 171.073 682.943 172.1C683.735 173.127 684.131 174.256 684.131 175.488C684.131 176.779 683.72 177.864 682.899 178.744C682.077 179.595 681.065 180.167 679.863 180.46C681.329 180.753 682.532 181.399 683.471 182.396C684.409 183.393 684.879 184.567 684.879 185.916C684.879 187.324 684.453 188.585 683.603 189.7C682.781 190.815 681.652 191.709 680.215 192.384C678.777 193.029 677.149 193.352 675.331 193.352ZM692.548 193C691.902 193 691.374 192.795 690.964 192.384C690.582 191.944 690.392 191.401 690.392 190.756V171.176C690.392 170.501 690.582 169.959 690.964 169.548C691.374 169.137 691.902 168.932 692.548 168.932C693.222 168.932 693.765 169.137 694.176 169.548C694.586 169.959 694.792 170.501 694.792 171.176V178.524H708.388V171.176C708.388 170.501 708.593 169.959 709.004 169.548C709.444 169.137 709.986 168.932 710.632 168.932C711.306 168.932 711.834 169.137 712.216 169.548C712.597 169.959 712.788 170.501 712.788 171.176V190.756C712.788 191.401 712.597 191.944 712.216 192.384C711.834 192.795 711.306 193 710.632 193C709.986 193 709.444 192.795 709.004 192.384C708.593 191.944 708.388 191.401 708.388 190.756V182.484H694.792V190.756C694.792 191.401 694.586 191.944 694.176 192.384C693.765 192.795 693.222 193 692.548 193ZM732.036 193.176C729.601 193.176 727.43 192.663 725.524 191.636C723.646 190.58 722.165 189.143 721.08 187.324C720.024 185.476 719.496 183.364 719.496 180.988C719.496 178.583 719.994 176.471 720.992 174.652C722.018 172.804 723.426 171.367 725.216 170.34C727.005 169.284 729.058 168.756 731.376 168.756C733.664 168.756 735.629 169.269 737.272 170.296C738.914 171.293 740.161 172.687 741.012 174.476C741.892 176.236 742.332 178.275 742.332 180.592C742.332 181.149 742.141 181.619 741.76 182C741.378 182.352 740.894 182.528 740.308 182.528H723.588C723.91 184.552 724.834 186.209 726.36 187.5C727.914 188.761 729.806 189.392 732.036 189.392C732.945 189.392 733.869 189.231 734.808 188.908C735.776 188.556 736.553 188.16 737.14 187.72C737.58 187.397 738.049 187.236 738.548 187.236C739.076 187.207 739.53 187.353 739.912 187.676C740.41 188.116 740.674 188.6 740.704 189.128C740.733 189.656 740.498 190.111 740 190.492C739.002 191.284 737.756 191.929 736.26 192.428C734.793 192.927 733.385 193.176 732.036 193.176ZM731.376 172.54C729.205 172.54 727.46 173.141 726.14 174.344C724.82 175.547 723.984 177.101 723.632 179.008H738.284C738.02 177.131 737.301 175.591 736.128 174.388C734.954 173.156 733.37 172.54 731.376 172.54ZM758.108 193.176C755.762 193.176 753.664 192.648 751.816 191.592C749.998 190.507 748.56 189.055 747.504 187.236C746.478 185.388 745.964 183.305 745.964 180.988C745.964 178.612 746.478 176.5 747.504 174.652C748.531 172.804 749.939 171.367 751.728 170.34C753.518 169.284 755.571 168.756 757.888 168.756C761.35 168.756 764.224 170.076 766.512 172.716C766.923 173.185 767.07 173.669 766.952 174.168C766.835 174.667 766.512 175.107 765.984 175.488C765.574 175.781 765.119 175.884 764.62 175.796C764.122 175.679 763.667 175.415 763.256 175.004C761.819 173.479 760.03 172.716 757.888 172.716C755.63 172.716 753.796 173.479 752.388 175.004C750.98 176.5 750.276 178.495 750.276 180.988C750.276 182.572 750.599 183.98 751.244 185.212C751.919 186.444 752.843 187.427 754.016 188.16C755.19 188.864 756.554 189.216 758.108 189.216C760.103 189.216 761.716 188.703 762.948 187.676C763.418 187.295 763.902 187.089 764.4 187.06C764.899 187.001 765.339 187.133 765.72 187.456C766.219 187.867 766.498 188.336 766.556 188.864C766.615 189.363 766.439 189.817 766.028 190.228C763.916 192.193 761.276 193.176 758.108 193.176Z" fill="white"/>
<path d="M948.774 402.968C948.897 403.234 948.909 403.5 948.811 403.765C948.726 404.025 948.544 404.219 948.265 404.348C947.999 404.471 947.733 404.483 947.468 404.386C947.202 404.288 947.008 404.106 946.885 403.84L941.211 391.546C941.082 391.268 941.069 391.002 941.173 390.748C941.271 390.483 941.453 390.289 941.719 390.166L951.379 385.707C951.658 385.578 951.924 385.566 952.177 385.669C952.437 385.755 952.631 385.937 952.76 386.215L958.434 398.509C958.557 398.775 958.57 399.041 958.472 399.306C958.386 399.566 958.204 399.76 957.926 399.889C957.659 400.012 957.394 400.024 957.128 399.926C956.863 399.829 956.669 399.647 956.546 399.38L951.206 387.813L943.434 391.401L948.774 402.968ZM962.204 385.777C963.16 385.335 964.114 385.159 965.066 385.248C966.024 385.32 966.891 385.639 967.667 386.206C968.455 386.768 969.075 387.539 969.528 388.52C969.975 389.488 970.163 390.451 970.091 391.41C970.019 392.368 969.703 393.241 969.141 394.029C968.586 394.799 967.824 395.408 966.856 395.855C965.888 396.302 964.924 396.489 963.966 396.418C963.002 396.334 962.132 396.009 961.357 395.441C960.581 394.874 959.969 394.107 959.522 393.138C959.07 392.158 958.879 391.188 958.951 390.23C959.023 389.272 959.342 388.405 959.909 387.629C960.47 386.841 961.235 386.224 962.204 385.777ZM962.958 387.411C962.341 387.696 961.851 388.098 961.489 388.618C961.139 389.132 960.945 389.713 960.906 390.362C960.868 391.012 961 391.663 961.302 392.317C961.604 392.97 962.014 393.493 962.533 393.885C963.046 394.265 963.611 394.489 964.23 394.556C964.86 394.617 965.484 394.505 966.102 394.22C966.719 393.935 967.203 393.536 967.553 393.022C967.915 392.502 968.112 391.927 968.144 391.295C968.182 390.646 968.05 389.995 967.748 389.341C967.447 388.687 967.036 388.164 966.518 387.772C966.011 387.375 965.442 387.145 964.812 387.084C964.194 387.017 963.576 387.126 962.958 387.411ZM974.885 379.901C975.72 379.515 976.555 379.35 977.388 379.406C978.222 379.462 978.988 379.755 979.687 380.283C980.381 380.8 980.954 381.549 981.407 382.53L983.469 386.997C983.592 387.263 983.605 387.529 983.507 387.794C983.416 388.042 983.237 388.227 982.97 388.35C982.704 388.473 982.441 388.492 982.181 388.406C981.928 388.303 981.74 388.118 981.617 387.852L979.555 383.384C979.102 382.404 978.495 381.788 977.733 381.538C976.978 381.27 976.165 381.337 975.293 381.739C974.785 381.974 974.366 382.292 974.037 382.693C973.721 383.089 973.522 383.518 973.442 383.981C973.374 384.438 973.441 384.885 973.642 385.321L976.006 390.442C976.129 390.708 976.147 390.971 976.062 391.231C975.97 391.479 975.786 391.667 975.507 391.795C975.241 391.918 974.978 391.937 974.718 391.851C974.465 391.748 974.277 391.563 974.154 391.297L970.415 383.198C970.287 382.919 970.268 382.656 970.359 382.409C970.463 382.155 970.648 381.967 970.914 381.844C971.192 381.716 971.455 381.697 971.703 381.788C971.951 381.879 972.139 382.064 972.267 382.343L972.36 382.543C972.568 381.976 972.891 381.467 973.329 381.016C973.761 380.552 974.28 380.18 974.885 379.901ZM987.326 374.18C988.258 373.75 989.209 373.583 990.178 373.679C991.154 373.757 992.039 374.083 992.832 374.656C993.62 375.218 994.232 375.971 994.668 376.915C995.104 377.859 995.294 378.814 995.241 379.779C995.193 380.726 994.913 381.582 994.4 382.348C993.899 383.107 993.212 383.689 992.341 384.091C991.639 384.415 990.918 384.571 990.179 384.56C989.439 384.549 988.737 384.381 988.073 384.056L990.337 388.959C990.465 389.237 990.484 389.501 990.392 389.748C990.301 389.996 990.116 390.184 989.838 390.313C989.572 390.436 989.309 390.454 989.049 390.369C988.801 390.277 988.613 390.092 988.484 389.814L984.662 381.534C984.226 380.589 984.05 379.635 984.134 378.671C984.224 377.69 984.544 376.808 985.094 376.026C985.649 375.226 986.393 374.611 987.326 374.18ZM991.223 382.624C991.829 382.345 992.306 381.948 992.656 381.434C993.013 380.902 993.213 380.318 993.257 379.681C993.307 379.026 993.184 378.378 992.888 377.737C992.592 377.095 992.178 376.581 991.648 376.194C991.129 375.802 990.554 375.576 989.924 375.514C989.3 375.435 988.685 375.535 988.08 375.815C987.475 376.094 986.994 376.5 986.637 377.031C986.287 377.545 986.093 378.127 986.055 378.776C986.017 379.425 986.146 380.071 986.442 380.712C986.738 381.354 987.145 381.871 987.664 382.263C988.177 382.643 988.746 382.872 989.37 382.951C990 383.013 990.618 382.904 991.223 382.624ZM999.603 368.513C1000.56 368.072 1001.51 367.896 1002.47 367.985C1003.42 368.057 1004.29 368.376 1005.07 368.943C1005.85 369.505 1006.47 370.276 1006.93 371.256C1007.37 372.225 1007.56 373.188 1007.49 374.146C1007.42 375.104 1007.1 375.978 1006.54 376.765C1005.99 377.536 1005.22 378.144 1004.26 378.591C1003.29 379.038 1002.32 379.226 1001.37 379.154C1000.4 379.071 999.532 378.745 998.756 378.178C997.98 377.611 997.369 376.843 996.922 375.875C996.469 374.894 996.279 373.925 996.35 372.966C996.422 372.008 996.741 371.141 997.308 370.365C997.87 369.578 998.635 368.96 999.603 368.513ZM1000.36 370.147C999.74 370.432 999.25 370.835 998.888 371.354C998.538 371.868 998.344 372.45 998.306 373.099C998.268 373.748 998.399 374.4 998.701 375.053C999.003 375.707 999.413 376.23 999.932 376.622C1000.45 377.002 1001.01 377.225 1001.63 377.292C1002.26 377.354 1002.88 377.242 1003.5 376.957C1004.12 376.672 1004.6 376.272 1004.95 375.758C1005.31 375.239 1005.51 374.663 1005.54 374.032C1005.58 373.383 1005.45 372.731 1005.15 372.078C1004.85 371.424 1004.44 370.901 1003.92 370.509C1003.41 370.111 1002.84 369.882 1002.21 369.82C1001.59 369.753 1000.98 369.862 1000.36 370.147ZM1012.59 363.399C1013.45 363.002 1014.31 362.847 1015.17 362.934C1016.03 363.008 1016.81 363.316 1017.52 363.857C1018.23 364.38 1018.79 365.096 1019.21 366.004C1019.63 366.912 1019.8 367.818 1019.72 368.722C1019.63 369.614 1019.31 370.43 1018.76 371.171C1018.21 371.905 1017.48 372.488 1016.55 372.918C1015.59 373.36 1014.64 373.557 1013.69 373.509C1012.76 373.456 1011.91 373.179 1011.15 372.678C1010.39 372.16 1009.81 371.446 1009.39 370.538L1008.46 368.478C1007.79 366.995 1007.58 365.483 1007.84 363.94C1008.1 362.397 1008.87 360.896 1010.15 359.439L1012.85 356.364C1012.98 356.231 1013.1 356.139 1013.2 356.089C1013.36 356.016 1013.52 355.994 1013.68 356.023C1013.84 356.04 1013.97 356.116 1014.09 356.251C1014.23 356.38 1014.32 356.512 1014.39 356.645C1014.51 356.923 1014.43 357.24 1014.14 357.595L1011.24 360.985C1009.48 363.042 1008.98 365.189 1009.74 367.426C1009.79 366.551 1010.06 365.763 1010.56 365.063C1011.06 364.35 1011.73 363.796 1012.59 363.399ZM1015.79 371.284C1016.69 370.87 1017.29 370.248 1017.59 369.416C1017.9 368.585 1017.85 367.721 1017.43 366.825C1017.02 365.929 1016.4 365.334 1015.57 365.04C1014.74 364.734 1013.88 364.787 1012.98 365.201C1012.37 365.486 1011.87 365.876 1011.5 366.371C1011.13 366.849 1010.91 367.382 1010.85 367.971C1010.79 368.554 1010.9 369.136 1011.17 369.717C1011.44 370.298 1011.81 370.763 1012.3 371.112C1012.79 371.444 1013.34 371.631 1013.94 371.674C1014.56 371.699 1015.17 371.569 1015.79 371.284ZM1026.61 356.134C1026.95 356.139 1027.2 356.305 1027.35 356.631C1027.42 356.789 1027.46 356.969 1027.47 357.172L1027.62 368.998C1027.63 370.209 1027.44 371.268 1027.03 372.174C1026.65 373.087 1026.08 373.714 1025.35 374.055C1024.87 374.273 1024.38 374.355 1023.85 374.303C1023.63 374.29 1023.43 374.233 1023.27 374.133C1023.1 374.032 1022.98 373.903 1022.91 373.746C1022.84 373.589 1022.82 373.421 1022.86 373.243C1022.93 372.887 1023.1 372.648 1023.36 372.525C1023.54 372.441 1023.73 372.414 1023.92 372.444C1024.24 372.472 1024.52 372.433 1024.75 372.327C1025.48 371.986 1025.85 370.858 1025.83 368.942L1025.8 367.348L1018.16 361.49C1018.05 361.409 1017.96 361.296 1017.89 361.151C1017.82 360.993 1017.8 360.826 1017.84 360.648C1017.87 360.47 1017.95 360.308 1018.07 360.163C1018.16 360.064 1018.27 359.984 1018.4 359.923C1018.56 359.85 1018.73 359.832 1018.91 359.867C1019.08 359.89 1019.24 359.961 1019.4 360.079L1025.77 365.092L1025.64 357.133C1025.65 356.924 1025.69 356.741 1025.78 356.583C1025.88 356.419 1026.02 356.298 1026.19 356.219C1026.3 356.169 1026.44 356.141 1026.61 356.134ZM1039.7 355.931C1039.8 356.161 1039.81 356.391 1039.73 356.621C1039.64 356.839 1039.47 357.004 1039.23 357.116L1032.33 360.301C1032.86 361.087 1033.55 361.595 1034.42 361.825C1035.3 362.049 1036.2 361.949 1037.12 361.524C1037.49 361.357 1037.83 361.117 1038.16 360.805C1038.5 360.487 1038.75 360.173 1038.91 359.862C1039.02 359.651 1039.19 359.492 1039.42 359.386C1039.65 359.279 1039.86 359.256 1040.05 359.316C1040.35 359.397 1040.55 359.552 1040.66 359.782C1040.76 360 1040.75 360.226 1040.62 360.461C1040.36 360.978 1039.97 361.482 1039.45 361.973C1038.94 362.458 1038.4 362.829 1037.85 363.086C1036.85 363.544 1035.87 363.743 1034.88 363.683C1033.89 363.61 1033 363.296 1032.2 362.74C1031.41 362.178 1030.8 361.413 1030.35 360.445C1029.9 359.476 1029.71 358.516 1029.77 357.563C1029.83 356.593 1030.14 355.725 1030.68 354.961C1031.23 354.178 1031.98 353.569 1032.92 353.134C1033.85 352.703 1034.75 352.537 1035.62 352.636C1036.49 352.735 1037.28 353.07 1037.98 353.64C1038.68 354.211 1039.26 354.975 1039.7 355.931ZM1033.64 354.695C1032.76 355.103 1032.15 355.678 1031.82 356.419C1031.5 357.155 1031.45 357.962 1031.68 358.84L1037.73 356.049C1037.24 355.288 1036.64 354.78 1035.92 354.525C1035.2 354.27 1034.44 354.326 1033.64 354.695ZM1050.24 345.226C1050.52 345.097 1050.79 345.079 1051.03 345.17C1051.28 345.261 1051.47 345.446 1051.6 345.724L1055.33 353.805C1055.45 354.071 1055.47 354.334 1055.38 354.594C1055.29 354.842 1055.11 355.03 1054.83 355.159C1054.56 355.281 1054.3 355.3 1054.04 355.214C1053.79 355.111 1053.6 354.926 1053.48 354.66L1050.8 348.867L1049.8 354.241C1049.71 354.799 1049.48 355.162 1049.11 355.329C1048.76 355.491 1048.34 355.428 1047.86 355.138L1043.17 352.388L1045.85 358.18C1045.97 358.447 1045.99 358.71 1045.9 358.97C1045.81 359.217 1045.63 359.405 1045.35 359.534C1045.08 359.657 1044.82 359.676 1044.56 359.59C1044.31 359.487 1044.12 359.302 1044 359.035L1040.27 350.955C1040.14 350.676 1040.12 350.413 1040.21 350.165C1040.31 349.912 1040.5 349.724 1040.76 349.601C1041.15 349.422 1041.57 349.459 1042.01 349.711L1048.27 353.406L1049.52 346.241C1049.62 345.743 1049.86 345.405 1050.24 345.226ZM1055.86 337.126C1056.64 336.768 1057.41 336.617 1058.18 336.671C1058.96 336.707 1059.67 336.947 1060.3 337.39C1060.92 337.821 1061.41 338.418 1061.77 339.181C1062.07 339.834 1062.23 340.457 1062.25 341.048C1062.27 341.627 1062.19 342.192 1062.02 342.741C1061.84 343.278 1061.58 343.9 1061.23 344.605C1061.04 344.969 1060.98 345.375 1061.02 345.824C1061.07 346.273 1061.16 346.655 1061.31 346.969C1061.43 347.236 1061.45 347.499 1061.36 347.759C1061.27 348.006 1061.09 348.195 1060.81 348.323C1060.54 348.446 1060.28 348.465 1060.02 348.379C1059.77 348.276 1059.58 348.091 1059.46 347.824C1059.22 347.316 1059.1 346.725 1059.1 346.05C1059.1 345.376 1059.24 344.722 1059.54 344.086C1059.82 343.487 1060.01 343.007 1060.13 342.646C1060.25 342.28 1060.31 341.879 1060.3 341.444C1060.3 341.002 1060.18 340.527 1059.95 340.019C1059.66 339.401 1059.22 338.97 1058.6 338.724C1057.99 338.478 1057.34 338.514 1056.65 338.833C1055.79 339.23 1055.24 339.768 1055.01 340.446C1054.79 341.108 1054.86 341.838 1055.23 342.637C1055.36 342.903 1055.37 343.166 1055.29 343.426C1055.2 343.674 1055.01 343.862 1054.73 343.99C1054.47 344.113 1054.2 344.132 1053.94 344.046C1053.69 343.943 1053.5 343.758 1053.38 343.492C1052.99 342.656 1052.83 341.828 1052.89 341.007C1052.97 340.18 1053.26 339.428 1053.77 338.752C1054.28 338.076 1054.98 337.534 1055.86 337.126ZM1061.19 349.158C1061.55 348.996 1061.9 348.986 1062.26 349.129C1062.63 349.254 1062.89 349.492 1063.05 349.843C1063.21 350.182 1063.22 350.537 1063.08 350.909C1062.95 351.262 1062.71 351.52 1062.36 351.682C1062.02 351.839 1061.67 351.855 1061.3 351.73C1060.94 351.587 1060.68 351.347 1060.53 351.008C1060.37 350.657 1060.35 350.304 1060.48 349.95C1060.62 349.579 1060.86 349.315 1061.19 349.158Z" fill="#7C7575"/>
</svg>
