<svg width="1116" height="421" viewBox="0 0 1116 421" fill="none" xmlns="http://www.w3.org/2000/svg">
<path d="M483.355 34.1506C293.665 37.4162 -39.5306 -72.5398 3.85462 112.151C22.0225 189.491 71.3722 172.243 140.355 211.651C248.073 273.186 320.632 244.722 444.355 235.651C652.142 220.416 895.212 413.494 946.855 211.651C960.069 160.008 930.366 163.716 916.855 112.15C867.49 -76.2656 678.101 30.7978 483.355 34.1506Z" fill="#26CFA2"/>
<path d="M72.8907 125.844C72.4827 125.844 72.1467 125.712 71.8827 125.448C71.6187 125.184 71.4867 124.848 71.4867 124.44V99.1317C71.4867 98.7237 71.6187 98.3877 71.8827 98.1237C72.1467 97.8597 72.4827 97.7277 72.8907 97.7277H92.0427C92.4507 97.7277 92.7867 97.8597 93.0507 98.1237C93.3147 98.3877 93.4467 98.7237 93.4467 99.1317V124.44C93.4467 124.848 93.3147 125.184 93.0507 125.448C92.7867 125.712 92.4507 125.844 92.0427 125.844C91.6347 125.844 91.2987 125.712 91.0347 125.448C90.7707 125.184 90.6387 124.848 90.6387 124.44V100.356H74.2947V124.44C74.2947 124.848 74.1627 125.184 73.8987 125.448C73.6347 125.712 73.2987 125.844 72.8907 125.844ZM101.675 134.268C101.243 134.268 100.895 134.136 100.631 133.872C100.391 133.632 100.271 133.296 100.271 132.864V115.872C100.295 114 100.739 112.32 101.603 110.832C102.491 109.32 103.679 108.132 105.167 107.268C106.679 106.404 108.371 105.972 110.243 105.972C112.163 105.972 113.879 106.416 115.391 107.304C116.903 108.168 118.091 109.356 118.955 110.868C119.843 112.38 120.287 114.096 120.287 116.016C120.287 117.912 119.855 119.616 118.991 121.128C118.151 122.64 116.999 123.84 115.535 124.728C114.071 125.592 112.415 126.024 110.567 126.024C108.959 126.024 107.495 125.688 106.175 125.016C104.879 124.32 103.835 123.408 103.043 122.28V132.864C103.043 133.296 102.911 133.632 102.647 133.872C102.407 134.136 102.083 134.268 101.675 134.268ZM110.243 123.504C111.635 123.504 112.883 123.18 113.987 122.532C115.091 121.884 115.955 120.996 116.579 119.868C117.227 118.716 117.551 117.432 117.551 116.016C117.551 114.576 117.227 113.292 116.579 112.164C115.955 111.036 115.091 110.148 113.987 109.5C112.883 108.828 111.635 108.492 110.243 108.492C108.875 108.492 107.639 108.828 106.535 109.5C105.431 110.148 104.567 111.036 103.943 112.164C103.319 113.292 103.007 114.576 103.007 116.016C103.007 117.432 103.319 118.716 103.943 119.868C104.567 120.996 105.431 121.884 106.535 122.532C107.639 123.18 108.875 123.504 110.243 123.504ZM134.652 126.024C132.708 126.024 130.98 125.604 129.468 124.764C127.98 123.9 126.804 122.712 125.94 121.2C125.1 119.688 124.68 117.96 124.68 116.016C124.68 114.048 125.076 112.32 125.868 110.832C126.684 109.32 127.8 108.132 129.216 107.268C130.632 106.404 132.264 105.972 134.112 105.972C135.936 105.972 137.52 106.392 138.864 107.232C140.232 108.048 141.288 109.188 142.032 110.652C142.776 112.116 143.148 113.784 143.148 115.656C143.148 116.04 143.028 116.352 142.788 116.592C142.548 116.808 142.236 116.916 141.852 116.916H126.552V114.612H142.14L140.592 115.728C140.616 114.336 140.364 113.088 139.836 111.984C139.308 110.88 138.552 110.016 137.568 109.392C136.608 108.768 135.456 108.456 134.112 108.456C132.744 108.456 131.544 108.78 130.512 109.428C129.48 110.076 128.676 110.976 128.1 112.128C127.548 113.256 127.272 114.552 127.272 116.016C127.272 117.48 127.584 118.776 128.208 119.904C128.856 121.032 129.732 121.92 130.836 122.568C131.94 123.216 133.212 123.54 134.652 123.54C135.516 123.54 136.38 123.396 137.244 123.108C138.132 122.796 138.84 122.412 139.368 121.956C139.632 121.74 139.932 121.632 140.268 121.632C140.604 121.608 140.892 121.692 141.132 121.884C141.444 122.172 141.6 122.484 141.6 122.82C141.624 123.156 141.492 123.444 141.204 123.684C140.412 124.356 139.404 124.92 138.18 125.376C136.956 125.808 135.78 126.024 134.652 126.024ZM155.811 126.024C153.915 126.024 152.235 125.604 150.771 124.764C149.307 123.9 148.155 122.712 147.315 121.2C146.499 119.688 146.091 117.96 146.091 116.016C146.091 114.048 146.523 112.308 147.387 110.796C148.251 109.284 149.439 108.108 150.951 107.268C152.463 106.404 154.179 105.972 156.099 105.972C158.043 105.972 159.759 106.404 161.247 107.268C162.759 108.108 163.935 109.284 164.775 110.796C165.639 112.308 166.083 114.048 166.107 116.016L164.487 116.88C164.487 118.656 164.115 120.24 163.371 121.632C162.627 123 161.595 124.08 160.275 124.872C158.979 125.64 157.491 126.024 155.811 126.024ZM156.171 133.62C154.275 133.62 152.607 133.26 151.167 132.54C149.727 131.844 148.539 130.884 147.603 129.66C147.339 129.372 147.219 129.06 147.243 128.724C147.291 128.388 147.471 128.112 147.783 127.896C148.095 127.68 148.443 127.608 148.827 127.68C149.211 127.752 149.511 127.932 149.727 128.22C150.423 129.084 151.311 129.78 152.391 130.308C153.495 130.836 154.767 131.1 156.207 131.1C157.551 131.1 158.763 130.776 159.843 130.128C160.923 129.48 161.775 128.568 162.399 127.392C163.047 126.216 163.371 124.836 163.371 123.252V117.78L164.415 115.692L166.107 116.016V123.36C166.107 125.304 165.675 127.044 164.811 128.58C163.947 130.14 162.771 131.364 161.283 132.252C159.795 133.164 158.091 133.62 156.171 133.62ZM156.099 123.504C157.515 123.504 158.763 123.192 159.843 122.568C160.947 121.92 161.811 121.032 162.435 119.904C163.059 118.776 163.371 117.48 163.371 116.016C163.371 114.552 163.059 113.256 162.435 112.128C161.811 110.976 160.947 110.088 159.843 109.464C158.763 108.816 157.515 108.492 156.099 108.492C154.683 108.492 153.423 108.816 152.319 109.464C151.215 110.088 150.351 110.976 149.727 112.128C149.103 113.256 148.791 114.552 148.791 116.016C148.791 117.48 149.103 118.776 149.727 119.904C150.351 121.032 151.215 121.92 152.319 122.568C153.423 123.192 154.683 123.504 156.099 123.504ZM180.282 126.024C178.386 126.024 176.694 125.592 175.206 124.728C173.742 123.84 172.578 122.64 171.714 121.128C170.874 119.616 170.454 117.912 170.454 116.016C170.454 114.096 170.862 112.38 171.678 110.868C172.494 109.356 173.61 108.168 175.026 107.304C176.442 106.416 178.074 105.972 179.922 105.972C181.386 105.972 182.73 106.26 183.954 106.836C185.202 107.412 186.294 108.276 187.23 109.428C187.494 109.716 187.59 110.028 187.518 110.364C187.446 110.676 187.242 110.952 186.906 111.192C186.642 111.384 186.342 111.456 186.006 111.408C185.694 111.336 185.418 111.156 185.178 110.868C183.786 109.284 182.034 108.492 179.922 108.492C178.578 108.492 177.39 108.816 176.358 109.464C175.35 110.112 174.558 111 173.982 112.128C173.43 113.256 173.154 114.552 173.154 116.016C173.154 117.456 173.454 118.74 174.054 119.868C174.654 120.996 175.494 121.884 176.574 122.532C177.654 123.18 178.89 123.504 180.282 123.504C181.218 123.504 182.07 123.384 182.838 123.144C183.63 122.88 184.326 122.484 184.926 121.956C185.214 121.716 185.514 121.584 185.826 121.56C186.138 121.536 186.426 121.632 186.69 121.848C186.978 122.112 187.134 122.412 187.158 122.748C187.206 123.084 187.098 123.372 186.834 123.612C185.082 125.22 182.898 126.024 180.282 126.024ZM219.547 125.844C219.139 125.844 218.803 125.724 218.539 125.484C218.275 125.22 218.143 124.884 218.143 124.476V114.108C218.143 112.404 217.699 111.06 216.811 110.076C215.923 109.068 214.783 108.564 213.391 108.564C211.903 108.564 210.679 109.068 209.719 110.076C208.783 111.06 208.327 112.38 208.351 114.036H205.867C205.891 112.428 206.239 111.012 206.911 109.788C207.583 108.564 208.507 107.616 209.683 106.944C210.859 106.272 212.191 105.936 213.679 105.936C215.095 105.936 216.343 106.272 217.423 106.944C218.527 107.616 219.379 108.564 219.979 109.788C220.603 111.012 220.915 112.452 220.915 114.108V124.476C220.915 124.884 220.783 125.22 220.519 125.484C220.279 125.724 219.955 125.844 219.547 125.844ZM194.347 125.844C193.915 125.844 193.567 125.724 193.303 125.484C193.063 125.22 192.943 124.884 192.943 124.476V107.556C192.943 107.148 193.063 106.812 193.303 106.548C193.567 106.284 193.915 106.152 194.347 106.152C194.755 106.152 195.079 106.284 195.319 106.548C195.583 106.812 195.715 107.148 195.715 107.556V124.476C195.715 124.884 195.583 125.22 195.319 125.484C195.079 125.724 194.755 125.844 194.347 125.844ZM206.983 125.844C206.575 125.844 206.239 125.724 205.975 125.484C205.711 125.22 205.579 124.884 205.579 124.476V114.108C205.579 112.404 205.135 111.06 204.247 110.076C203.359 109.068 202.219 108.564 200.827 108.564C199.339 108.564 198.115 109.056 197.155 110.04C196.195 111 195.715 112.26 195.715 113.82H193.735C193.783 112.284 194.119 110.928 194.743 109.752C195.391 108.552 196.267 107.616 197.371 106.944C198.475 106.272 199.723 105.936 201.115 105.936C202.531 105.936 203.779 106.272 204.859 106.944C205.963 107.616 206.815 108.564 207.415 109.788C208.039 111.012 208.351 112.452 208.351 114.108V124.476C208.351 124.884 208.219 125.22 207.955 125.484C207.715 125.724 207.391 125.844 206.983 125.844ZM235.721 126.024C233.873 126.024 232.217 125.592 230.753 124.728C229.289 123.84 228.125 122.64 227.261 121.128C226.421 119.616 226.001 117.912 226.001 116.016C226.001 114.096 226.433 112.38 227.297 110.868C228.185 109.356 229.385 108.168 230.897 107.304C232.409 106.416 234.113 105.972 236.009 105.972C237.905 105.972 239.597 106.416 241.085 107.304C242.597 108.168 243.785 109.356 244.649 110.868C245.537 112.38 245.993 114.096 246.017 116.016L244.901 116.88C244.901 118.608 244.493 120.168 243.677 121.56C242.885 122.928 241.793 124.02 240.401 124.836C239.033 125.628 237.473 126.024 235.721 126.024ZM236.009 123.504C237.401 123.504 238.637 123.18 239.717 122.532C240.821 121.884 241.685 120.996 242.309 119.868C242.957 118.716 243.281 117.432 243.281 116.016C243.281 114.576 242.957 113.292 242.309 112.164C241.685 111.036 240.821 110.148 239.717 109.5C238.637 108.828 237.401 108.492 236.009 108.492C234.641 108.492 233.405 108.828 232.301 109.5C231.197 110.148 230.321 111.036 229.673 112.164C229.025 113.292 228.701 114.576 228.701 116.016C228.701 117.432 229.025 118.716 229.673 119.868C230.321 120.996 231.197 121.884 232.301 122.532C233.405 123.18 234.641 123.504 236.009 123.504ZM244.613 125.844C244.205 125.844 243.869 125.724 243.605 125.484C243.341 125.22 243.209 124.884 243.209 124.476V118.32L243.893 115.476L246.017 116.016V124.476C246.017 124.884 245.885 125.22 245.621 125.484C245.357 125.724 245.021 125.844 244.613 125.844ZM252.812 125.844C252.38 125.844 252.032 125.724 251.768 125.484C251.528 125.22 251.408 124.872 251.408 124.44V107.52C251.432 107.112 251.564 106.788 251.804 106.548C252.068 106.284 252.404 106.152 252.812 106.152C253.22 106.152 253.544 106.284 253.784 106.548C254.048 106.788 254.18 107.124 254.18 107.556V114.396H261.776V114.9C263.024 114.9 264.128 115.128 265.088 115.584C266.072 116.04 266.828 116.676 267.356 117.492C267.908 118.284 268.184 119.196 268.184 120.228C268.184 121.332 267.908 122.304 267.356 123.144C266.828 123.984 266.072 124.644 265.088 125.124C264.128 125.604 263.024 125.844 261.776 125.844H252.812ZM254.18 123.288H261.776C262.856 123.288 263.744 123.012 264.44 122.46C265.136 121.908 265.484 121.116 265.484 120.084C265.484 119.004 265.136 118.188 264.44 117.636C263.744 117.06 262.856 116.772 261.776 116.772H254.18V123.288ZM258.212 115.944V114.396H261.776C262.616 114.396 263.3 114.12 263.828 113.568C264.356 113.016 264.62 112.308 264.62 111.444C264.62 110.676 264.332 110.028 263.756 109.5C263.204 108.948 262.496 108.672 261.632 108.672H252.848V106.152H261.632C262.736 106.152 263.708 106.38 264.548 106.836C265.412 107.268 266.084 107.868 266.564 108.636C267.068 109.404 267.32 110.292 267.32 111.3C267.32 112.86 266.792 114.024 265.736 114.792C264.704 115.56 263.384 115.944 261.776 115.944H258.212ZM281.24 126.204C279.584 126.204 278.132 125.892 276.884 125.268C275.636 124.644 274.652 123.792 273.932 122.712C273.236 121.608 272.888 120.324 272.888 118.86V107.52C272.912 107.112 273.056 106.788 273.32 106.548C273.584 106.284 273.908 106.152 274.292 106.152C274.676 106.152 275 106.284 275.264 106.548C275.528 106.812 275.66 107.148 275.66 107.556V112.668H281.528C283.088 112.668 284.456 112.944 285.632 113.496C286.832 114.048 287.756 114.828 288.404 115.836C289.076 116.844 289.412 118.008 289.412 119.328C289.412 120.648 289.064 121.836 288.368 122.892C287.696 123.924 286.748 124.74 285.524 125.34C284.3 125.916 282.872 126.204 281.24 126.204ZM281.24 123.648C282.8 123.648 284.096 123.288 285.128 122.568C286.16 121.848 286.676 120.768 286.676 119.328C286.676 117.984 286.22 116.94 285.308 116.196C284.396 115.452 283.136 115.08 281.528 115.08H275.66V118.86C275.66 119.772 275.888 120.6 276.344 121.344C276.824 122.064 277.472 122.628 278.288 123.036C279.128 123.444 280.112 123.648 281.24 123.648ZM320.657 125.844C320.249 125.844 319.913 125.724 319.649 125.484C319.385 125.22 319.253 124.884 319.253 124.476V114.108C319.253 112.404 318.809 111.06 317.921 110.076C317.033 109.068 315.893 108.564 314.501 108.564C313.013 108.564 311.789 109.068 310.829 110.076C309.893 111.06 309.437 112.38 309.461 114.036H306.977C307.001 112.428 307.349 111.012 308.021 109.788C308.693 108.564 309.617 107.616 310.793 106.944C311.969 106.272 313.301 105.936 314.789 105.936C316.205 105.936 317.453 106.272 318.533 106.944C319.637 107.616 320.489 108.564 321.089 109.788C321.713 111.012 322.025 112.452 322.025 114.108V124.476C322.025 124.884 321.893 125.22 321.629 125.484C321.389 125.724 321.065 125.844 320.657 125.844ZM295.457 125.844C295.025 125.844 294.677 125.724 294.413 125.484C294.173 125.22 294.053 124.884 294.053 124.476V107.556C294.053 107.148 294.173 106.812 294.413 106.548C294.677 106.284 295.025 106.152 295.457 106.152C295.865 106.152 296.189 106.284 296.429 106.548C296.693 106.812 296.825 107.148 296.825 107.556V124.476C296.825 124.884 296.693 125.22 296.429 125.484C296.189 125.724 295.865 125.844 295.457 125.844ZM308.093 125.844C307.685 125.844 307.349 125.724 307.085 125.484C306.821 125.22 306.689 124.884 306.689 124.476V114.108C306.689 112.404 306.245 111.06 305.357 110.076C304.469 109.068 303.329 108.564 301.937 108.564C300.449 108.564 299.225 109.056 298.265 110.04C297.305 111 296.825 112.26 296.825 113.82H294.845C294.893 112.284 295.229 110.928 295.853 109.752C296.501 108.552 297.377 107.616 298.481 106.944C299.585 106.272 300.833 105.936 302.225 105.936C303.641 105.936 304.889 106.272 305.969 106.944C307.073 107.616 307.925 108.564 308.525 109.788C309.149 111.012 309.461 112.452 309.461 114.108V124.476C309.461 124.884 309.329 125.22 309.065 125.484C308.825 125.724 308.501 125.844 308.093 125.844ZM337.082 126.024C335.138 126.024 333.41 125.604 331.898 124.764C330.41 123.9 329.234 122.712 328.37 121.2C327.53 119.688 327.11 117.96 327.11 116.016C327.11 114.048 327.506 112.32 328.298 110.832C329.114 109.32 330.23 108.132 331.646 107.268C333.062 106.404 334.694 105.972 336.542 105.972C338.366 105.972 339.95 106.392 341.294 107.232C342.662 108.048 343.718 109.188 344.462 110.652C345.206 112.116 345.578 113.784 345.578 115.656C345.578 116.04 345.458 116.352 345.218 116.592C344.978 116.808 344.666 116.916 344.282 116.916H328.982V114.612H344.57L343.022 115.728C343.046 114.336 342.794 113.088 342.266 111.984C341.738 110.88 340.982 110.016 339.998 109.392C339.038 108.768 337.886 108.456 336.542 108.456C335.174 108.456 333.974 108.78 332.942 109.428C331.91 110.076 331.106 110.976 330.53 112.128C329.978 113.256 329.702 114.552 329.702 116.016C329.702 117.48 330.014 118.776 330.638 119.904C331.286 121.032 332.162 121.92 333.266 122.568C334.37 123.216 335.642 123.54 337.082 123.54C337.946 123.54 338.81 123.396 339.674 123.108C340.562 122.796 341.27 122.412 341.798 121.956C342.062 121.74 342.362 121.632 342.698 121.632C343.034 121.608 343.322 121.692 343.562 121.884C343.874 122.172 344.03 122.484 344.03 122.82C344.054 123.156 343.922 123.444 343.634 123.684C342.842 124.356 341.834 124.92 340.61 125.376C339.386 125.808 338.21 126.024 337.082 126.024ZM349.943 131.676C349.703 131.676 349.511 131.604 349.367 131.46C349.247 131.34 349.187 131.172 349.187 130.956C349.187 130.596 349.295 130.26 349.511 129.948C349.727 129.66 349.943 129.348 350.159 129.012C350.399 128.676 350.519 128.268 350.519 127.788C350.519 127.356 350.435 126.996 350.267 126.708C350.099 126.42 349.895 126.156 349.655 125.916C349.439 125.7 349.247 125.46 349.079 125.196C348.911 124.908 348.827 124.56 348.827 124.152C348.827 123.552 349.019 123.072 349.403 122.712C349.811 122.352 350.315 122.172 350.915 122.172C351.635 122.172 352.223 122.46 352.679 123.036C353.135 123.588 353.363 124.368 353.363 125.376C353.363 126.048 353.267 126.756 353.075 127.5C352.883 128.244 352.619 128.928 352.283 129.552C351.947 130.2 351.575 130.716 351.167 131.1C350.759 131.484 350.351 131.676 349.943 131.676ZM375.379 119.76C373.627 119.76 372.151 119.4 370.951 118.68C369.775 117.96 368.875 116.94 368.251 115.62C367.627 114.3 367.315 112.752 367.315 110.976V107.556C367.315 107.124 367.435 106.788 367.675 106.548C367.939 106.284 368.287 106.152 368.719 106.152C369.127 106.152 369.451 106.284 369.691 106.548C369.955 106.788 370.087 107.124 370.087 107.556V110.976C370.087 112.872 370.543 114.372 371.455 115.476C372.391 116.58 373.795 117.132 375.667 117.132C377.179 117.132 378.403 116.868 379.339 116.34C380.299 115.788 380.779 115.092 380.779 114.252H382.183C382.159 115.308 381.847 116.256 381.247 117.096C380.647 117.912 379.843 118.56 378.835 119.04C377.827 119.52 376.675 119.76 375.379 119.76ZM382.183 125.844C381.751 125.844 381.403 125.724 381.139 125.484C380.899 125.22 380.779 124.872 380.779 124.44V107.556C380.779 107.124 380.899 106.788 381.139 106.548C381.403 106.284 381.751 106.152 382.183 106.152C382.591 106.152 382.915 106.284 383.155 106.548C383.419 106.788 383.551 107.124 383.551 107.556V124.44C383.551 124.872 383.419 125.22 383.155 125.484C382.915 125.724 382.591 125.844 382.183 125.844ZM416.633 125.844C416.225 125.844 415.889 125.724 415.625 125.484C415.361 125.22 415.229 124.884 415.229 124.476V114.108C415.229 112.404 414.785 111.06 413.897 110.076C413.009 109.068 411.869 108.564 410.477 108.564C408.989 108.564 407.765 109.068 406.805 110.076C405.869 111.06 405.413 112.38 405.437 114.036H402.953C402.977 112.428 403.325 111.012 403.997 109.788C404.669 108.564 405.593 107.616 406.769 106.944C407.945 106.272 409.277 105.936 410.765 105.936C412.181 105.936 413.429 106.272 414.509 106.944C415.613 107.616 416.465 108.564 417.065 109.788C417.689 111.012 418.001 112.452 418.001 114.108V124.476C418.001 124.884 417.869 125.22 417.605 125.484C417.365 125.724 417.041 125.844 416.633 125.844ZM391.433 125.844C391.001 125.844 390.653 125.724 390.389 125.484C390.149 125.22 390.029 124.884 390.029 124.476V107.556C390.029 107.148 390.149 106.812 390.389 106.548C390.653 106.284 391.001 106.152 391.433 106.152C391.841 106.152 392.165 106.284 392.405 106.548C392.669 106.812 392.801 107.148 392.801 107.556V124.476C392.801 124.884 392.669 125.22 392.405 125.484C392.165 125.724 391.841 125.844 391.433 125.844ZM404.069 125.844C403.661 125.844 403.325 125.724 403.061 125.484C402.797 125.22 402.665 124.884 402.665 124.476V114.108C402.665 112.404 402.221 111.06 401.333 110.076C400.445 109.068 399.305 108.564 397.913 108.564C396.425 108.564 395.201 109.056 394.241 110.04C393.281 111 392.801 112.26 392.801 113.82H390.821C390.869 112.284 391.205 110.928 391.829 109.752C392.477 108.552 393.353 107.616 394.457 106.944C395.561 106.272 396.809 105.936 398.201 105.936C399.617 105.936 400.865 106.272 401.945 106.944C403.049 107.616 403.901 108.564 404.501 109.788C405.125 111.012 405.437 112.452 405.437 114.108V124.476C405.437 124.884 405.305 125.22 405.041 125.484C404.801 125.724 404.477 125.844 404.069 125.844ZM433.095 126.024C431.175 126.024 429.459 125.592 427.947 124.728C426.435 123.864 425.247 122.676 424.383 121.164C423.519 119.652 423.087 117.936 423.087 116.016C423.087 114.072 423.519 112.344 424.383 110.832C425.247 109.32 426.435 108.132 427.947 107.268C429.459 106.404 431.175 105.972 433.095 105.972C435.015 105.972 436.719 106.404 438.207 107.268C439.719 108.132 440.907 109.32 441.771 110.832C442.635 112.344 443.079 114.072 443.103 116.016C443.103 117.936 442.659 119.652 441.771 121.164C440.907 122.676 439.719 123.864 438.207 124.728C436.719 125.592 435.015 126.024 433.095 126.024ZM433.095 123.504C434.487 123.504 435.735 123.18 436.839 122.532C437.943 121.884 438.807 120.996 439.431 119.868C440.055 118.74 440.367 117.456 440.367 116.016C440.367 114.576 440.055 113.292 439.431 112.164C438.807 111.012 437.943 110.112 436.839 109.464C435.735 108.816 434.487 108.492 433.095 108.492C431.703 108.492 430.455 108.816 429.351 109.464C428.247 110.112 427.371 111.012 426.723 112.164C426.099 113.292 425.787 114.576 425.787 116.016C425.787 117.456 426.099 118.74 426.723 119.868C427.371 120.996 428.247 121.884 429.351 122.532C430.455 123.18 431.703 123.504 433.095 123.504ZM460.985 125.844C460.529 125.844 460.145 125.724 459.833 125.484C459.545 125.22 459.401 124.872 459.401 124.44V99.1317C459.401 98.7237 459.533 98.3877 459.797 98.1237C460.061 97.8597 460.397 97.7277 460.805 97.7277H469.553C470.993 97.7277 472.289 98.0397 473.441 98.6637C474.617 99.2637 475.541 100.092 476.213 101.148C476.909 102.204 477.257 103.428 477.257 104.82C477.257 106.116 476.909 107.268 476.213 108.276C475.517 109.284 474.605 110.052 473.477 110.58C475.085 111.012 476.381 111.828 477.365 113.028C478.349 114.204 478.841 115.704 478.841 117.528C478.841 119.16 478.469 120.6 477.725 121.848C476.981 123.096 475.949 124.08 474.629 124.8C473.333 125.496 471.845 125.844 470.165 125.844H460.985ZM462.209 123.144H470.165C471.317 123.144 472.337 122.916 473.225 122.46C474.113 122.004 474.809 121.356 475.313 120.516C475.817 119.676 476.069 118.68 476.069 117.528C476.069 116.448 475.817 115.512 475.313 114.72C474.809 113.904 474.113 113.28 473.225 112.848C472.337 112.392 471.317 112.164 470.165 112.164H462.209V123.144ZM462.209 109.464H469.553C470.993 109.464 472.181 109.056 473.117 108.24C474.053 107.424 474.521 106.284 474.521 104.82C474.521 103.38 474.053 102.288 473.117 101.544C472.181 100.8 470.993 100.428 469.553 100.428H462.209V109.464ZM492.028 126.204C490.468 126.204 489.088 125.892 487.888 125.268C486.712 124.644 485.776 123.78 485.08 122.676C484.408 121.572 484.072 120.3 484.072 118.86V107.52C484.096 107.112 484.228 106.788 484.468 106.548C484.732 106.284 485.068 106.152 485.476 106.152C485.884 106.152 486.208 106.284 486.448 106.548C486.712 106.788 486.844 107.124 486.844 107.556V112.668H492.172C493.612 112.668 494.884 112.944 495.988 113.496C497.116 114.024 497.992 114.792 498.616 115.8C499.24 116.784 499.552 117.96 499.552 119.328C499.552 120.72 499.228 121.932 498.58 122.964C497.956 123.996 497.068 124.8 495.916 125.376C494.788 125.928 493.492 126.204 492.028 126.204ZM492.028 123.648C493.42 123.648 494.572 123.288 495.484 122.568C496.396 121.848 496.852 120.768 496.852 119.328C496.852 117.888 496.408 116.82 495.52 116.124C494.656 115.428 493.54 115.08 492.172 115.08H486.844V118.86C486.844 120.252 487.324 121.404 488.284 122.316C489.268 123.204 490.516 123.648 492.028 123.648ZM504.052 125.844C503.644 125.844 503.308 125.724 503.044 125.484C502.804 125.22 502.684 124.872 502.684 124.44V107.556C502.684 107.124 502.804 106.788 503.044 106.548C503.308 106.284 503.644 106.152 504.052 106.152C504.484 106.152 504.82 106.284 505.06 106.548C505.324 106.788 505.456 107.124 505.456 107.556V124.44C505.456 124.872 505.324 125.22 505.06 125.484C504.82 125.724 504.484 125.844 504.052 125.844ZM531.282 126.024C529.386 126.024 527.694 125.592 526.206 124.728C524.742 123.84 523.578 122.64 522.714 121.128C521.874 119.616 521.454 117.912 521.454 116.016C521.454 114.096 521.862 112.38 522.678 110.868C523.494 109.356 524.61 108.168 526.026 107.304C527.442 106.416 529.074 105.972 530.922 105.972C532.386 105.972 533.73 106.26 534.954 106.836C536.202 107.412 537.294 108.276 538.23 109.428C538.494 109.716 538.59 110.028 538.518 110.364C538.446 110.676 538.242 110.952 537.906 111.192C537.642 111.384 537.342 111.456 537.006 111.408C536.694 111.336 536.418 111.156 536.178 110.868C534.786 109.284 533.034 108.492 530.922 108.492C529.578 108.492 528.39 108.816 527.358 109.464C526.35 110.112 525.558 111 524.982 112.128C524.43 113.256 524.154 114.552 524.154 116.016C524.154 117.456 524.454 118.74 525.054 119.868C525.654 120.996 526.494 121.884 527.574 122.532C528.654 123.18 529.89 123.504 531.282 123.504C532.218 123.504 533.07 123.384 533.838 123.144C534.63 122.88 535.326 122.484 535.926 121.956C536.214 121.716 536.514 121.584 536.826 121.56C537.138 121.536 537.426 121.632 537.69 121.848C537.978 122.112 538.134 122.412 538.158 122.748C538.206 123.084 538.098 123.372 537.834 123.612C536.082 125.22 533.898 126.024 531.282 126.024ZM552.619 126.024C550.771 126.024 549.115 125.592 547.651 124.728C546.187 123.84 545.023 122.64 544.159 121.128C543.319 119.616 542.899 117.912 542.899 116.016C542.899 114.096 543.331 112.38 544.195 110.868C545.083 109.356 546.283 108.168 547.795 107.304C549.307 106.416 551.011 105.972 552.907 105.972C554.803 105.972 556.495 106.416 557.983 107.304C559.495 108.168 560.683 109.356 561.547 110.868C562.435 112.38 562.891 114.096 562.915 116.016L561.799 116.88C561.799 118.608 561.391 120.168 560.575 121.56C559.783 122.928 558.691 124.02 557.299 124.836C555.931 125.628 554.371 126.024 552.619 126.024ZM552.907 123.504C554.299 123.504 555.535 123.18 556.615 122.532C557.719 121.884 558.583 120.996 559.207 119.868C559.855 118.716 560.179 117.432 560.179 116.016C560.179 114.576 559.855 113.292 559.207 112.164C558.583 111.036 557.719 110.148 556.615 109.5C555.535 108.828 554.299 108.492 552.907 108.492C551.539 108.492 550.303 108.828 549.199 109.5C548.095 110.148 547.219 111.036 546.571 112.164C545.923 113.292 545.599 114.576 545.599 116.016C545.599 117.432 545.923 118.716 546.571 119.868C547.219 120.996 548.095 121.884 549.199 122.532C550.303 123.18 551.539 123.504 552.907 123.504ZM561.511 125.844C561.103 125.844 560.767 125.724 560.503 125.484C560.239 125.22 560.107 124.884 560.107 124.476V118.32L560.791 115.476L562.915 116.016V124.476C562.915 124.884 562.783 125.22 562.519 125.484C562.255 125.724 561.919 125.844 561.511 125.844ZM569.71 125.844C569.278 125.844 568.93 125.724 568.666 125.484C568.426 125.22 568.306 124.872 568.306 124.44V107.556C568.306 107.124 568.426 106.788 568.666 106.548C568.93 106.284 569.278 106.152 569.71 106.152C570.334 106.152 570.838 106.44 571.222 107.016L579.178 118.536L587.134 107.016C587.518 106.44 588.022 106.152 588.646 106.152C589.078 106.152 589.414 106.284 589.654 106.548C589.918 106.788 590.05 107.124 590.05 107.556V124.44C590.05 124.872 589.918 125.22 589.654 125.484C589.414 125.724 589.078 125.844 588.646 125.844C588.214 125.844 587.878 125.724 587.638 125.484C587.398 125.22 587.278 124.872 587.278 124.44V109.356L588.178 109.644L580.474 120.768C580.09 121.32 579.646 121.596 579.142 121.596C578.638 121.596 578.206 121.32 577.846 120.768L570.142 109.752L571.078 109.464V124.44C571.078 124.872 570.958 125.22 570.718 125.484C570.478 125.724 570.142 125.844 569.71 125.844ZM605.105 126.06C603.401 126.06 601.877 125.712 600.533 125.016C599.189 124.296 598.121 123.252 597.329 121.884C596.561 120.516 596.177 118.848 596.177 116.88V107.52C596.177 107.136 596.309 106.812 596.573 106.548C596.837 106.284 597.161 106.152 597.545 106.152C597.953 106.152 598.289 106.284 598.553 106.548C598.817 106.812 598.949 107.136 598.949 107.52V116.88C598.949 118.368 599.225 119.592 599.777 120.552C600.353 121.512 601.121 122.232 602.081 122.712C603.065 123.192 604.169 123.432 605.393 123.432C606.569 123.432 607.625 123.204 608.561 122.748C609.521 122.292 610.277 121.668 610.829 120.876C611.381 120.084 611.657 119.184 611.657 118.176H613.637C613.565 119.688 613.145 121.044 612.377 122.244C611.633 123.42 610.625 124.356 609.353 125.052C608.081 125.724 606.665 126.06 605.105 126.06ZM613.025 125.844C612.617 125.844 612.281 125.724 612.017 125.484C611.777 125.22 611.657 124.872 611.657 124.44V107.52C611.657 107.112 611.777 106.788 612.017 106.548C612.281 106.284 612.617 106.152 613.025 106.152C613.433 106.152 613.769 106.284 614.033 106.548C614.297 106.788 614.429 107.112 614.429 107.52V124.44C614.429 124.872 614.297 125.22 614.033 125.484C613.769 125.724 613.433 125.844 613.025 125.844ZM632.851 134.268C632.419 134.268 632.071 134.136 631.807 133.872C631.567 133.632 631.447 133.296 631.447 132.864V115.872C631.471 114 631.915 112.32 632.779 110.832C633.667 109.32 634.855 108.132 636.343 107.268C637.855 106.404 639.547 105.972 641.419 105.972C643.339 105.972 645.055 106.416 646.567 107.304C648.079 108.168 649.267 109.356 650.131 110.868C651.019 112.38 651.463 114.096 651.463 116.016C651.463 117.912 651.031 119.616 650.167 121.128C649.327 122.64 648.175 123.84 646.711 124.728C645.247 125.592 643.591 126.024 641.743 126.024C640.135 126.024 638.671 125.688 637.351 125.016C636.055 124.32 635.011 123.408 634.219 122.28V132.864C634.219 133.296 634.087 133.632 633.823 133.872C633.583 134.136 633.259 134.268 632.851 134.268ZM641.419 123.504C642.811 123.504 644.059 123.18 645.163 122.532C646.267 121.884 647.131 120.996 647.755 119.868C648.403 118.716 648.727 117.432 648.727 116.016C648.727 114.576 648.403 113.292 647.755 112.164C647.131 111.036 646.267 110.148 645.163 109.5C644.059 108.828 642.811 108.492 641.419 108.492C640.051 108.492 638.815 108.828 637.711 109.5C636.607 110.148 635.743 111.036 635.119 112.164C634.495 113.292 634.183 114.576 634.183 116.016C634.183 117.432 634.495 118.716 635.119 119.868C635.743 120.996 636.607 121.884 637.711 122.532C638.815 123.18 640.051 123.504 641.419 123.504ZM665.828 126.024C663.884 126.024 662.156 125.604 660.644 124.764C659.156 123.9 657.98 122.712 657.116 121.2C656.276 119.688 655.856 117.96 655.856 116.016C655.856 114.048 656.252 112.32 657.044 110.832C657.86 109.32 658.976 108.132 660.392 107.268C661.808 106.404 663.44 105.972 665.288 105.972C667.112 105.972 668.696 106.392 670.04 107.232C671.408 108.048 672.464 109.188 673.208 110.652C673.952 112.116 674.324 113.784 674.324 115.656C674.324 116.04 674.204 116.352 673.964 116.592C673.724 116.808 673.412 116.916 673.028 116.916H657.728V114.612H673.316L671.768 115.728C671.792 114.336 671.54 113.088 671.012 111.984C670.484 110.88 669.728 110.016 668.744 109.392C667.784 108.768 666.632 108.456 665.288 108.456C663.92 108.456 662.72 108.78 661.688 109.428C660.656 110.076 659.852 110.976 659.276 112.128C658.724 113.256 658.448 114.552 658.448 116.016C658.448 117.48 658.76 118.776 659.384 119.904C660.032 121.032 660.908 121.92 662.012 122.568C663.116 123.216 664.388 123.54 665.828 123.54C666.692 123.54 667.556 123.396 668.42 123.108C669.308 122.796 670.016 122.412 670.544 121.956C670.808 121.74 671.108 121.632 671.444 121.632C671.78 121.608 672.068 121.692 672.308 121.884C672.62 122.172 672.776 122.484 672.776 122.82C672.8 123.156 672.668 123.444 672.38 123.684C671.588 124.356 670.58 124.92 669.356 125.376C668.132 125.808 666.956 126.024 665.828 126.024ZM698.453 126.096C697.037 126.096 695.777 125.76 694.673 125.088C693.593 124.416 692.741 123.468 692.117 122.244C691.517 121.02 691.217 119.58 691.217 117.924V107.556C691.217 107.124 691.337 106.788 691.577 106.548C691.841 106.284 692.177 106.152 692.585 106.152C692.993 106.152 693.329 106.284 693.593 106.548C693.857 106.788 693.989 107.124 693.989 107.556V117.924C693.989 119.052 694.181 120.036 694.565 120.876C694.973 121.692 695.537 122.328 696.257 122.784C696.977 123.216 697.805 123.432 698.741 123.432C700.229 123.432 701.453 122.952 702.413 121.992C703.373 121.008 703.853 119.76 703.853 118.248L705.329 118.284C705.281 119.796 704.957 121.14 704.357 122.316C703.757 123.492 702.941 124.416 701.909 125.088C700.901 125.76 699.749 126.096 698.453 126.096ZM685.889 126.096C684.473 126.096 683.213 125.76 682.109 125.088C681.029 124.416 680.177 123.468 679.553 122.244C678.953 121.02 678.653 119.58 678.653 117.924V107.556C678.653 107.124 678.773 106.788 679.013 106.548C679.277 106.284 679.613 106.152 680.021 106.152C680.429 106.152 680.765 106.284 681.029 106.548C681.293 106.788 681.425 107.124 681.425 107.556V117.924C681.425 119.052 681.617 120.036 682.001 120.876C682.409 121.692 682.973 122.328 683.693 122.784C684.413 123.216 685.241 123.432 686.177 123.432C687.665 123.432 688.877 122.94 689.813 121.956C690.773 120.972 691.241 119.664 691.217 118.032H692.693C692.669 119.616 692.357 121.02 691.757 122.244C691.181 123.444 690.377 124.392 689.345 125.088C688.337 125.76 687.185 126.096 685.889 126.096ZM705.221 125.844C704.813 125.844 704.477 125.724 704.213 125.484C703.973 125.22 703.853 124.872 703.853 124.44V107.556C703.853 107.124 703.973 106.788 704.213 106.548C704.477 106.284 704.813 106.152 705.221 106.152C705.629 106.152 705.965 106.284 706.229 106.548C706.493 106.788 706.625 107.124 706.625 107.556V124.44C706.625 124.872 706.493 125.22 706.229 125.484C705.965 125.724 705.629 125.844 705.221 125.844ZM721.791 126.024C719.943 126.024 718.287 125.592 716.823 124.728C715.359 123.84 714.195 122.64 713.331 121.128C712.491 119.616 712.071 117.912 712.071 116.016C712.071 114.096 712.503 112.38 713.367 110.868C714.255 109.356 715.455 108.168 716.967 107.304C718.479 106.416 720.183 105.972 722.079 105.972C723.975 105.972 725.667 106.416 727.155 107.304C728.667 108.168 729.855 109.356 730.719 110.868C731.607 112.38 732.063 114.096 732.087 116.016L730.971 116.88C730.971 118.608 730.563 120.168 729.747 121.56C728.955 122.928 727.863 124.02 726.471 124.836C725.103 125.628 723.543 126.024 721.791 126.024ZM722.079 123.504C723.471 123.504 724.707 123.18 725.787 122.532C726.891 121.884 727.755 120.996 728.379 119.868C729.027 118.716 729.351 117.432 729.351 116.016C729.351 114.576 729.027 113.292 728.379 112.164C727.755 111.036 726.891 110.148 725.787 109.5C724.707 108.828 723.471 108.492 722.079 108.492C720.711 108.492 719.475 108.828 718.371 109.5C717.267 110.148 716.391 111.036 715.743 112.164C715.095 113.292 714.771 114.576 714.771 116.016C714.771 117.432 715.095 118.716 715.743 119.868C716.391 120.996 717.267 121.884 718.371 122.532C719.475 123.18 720.711 123.504 722.079 123.504ZM730.683 125.844C730.275 125.844 729.939 125.724 729.675 125.484C729.411 125.22 729.279 124.884 729.279 124.476V118.32L729.963 115.476L732.087 116.016V124.476C732.087 124.884 731.955 125.22 731.691 125.484C731.427 125.724 731.091 125.844 730.683 125.844ZM746.406 126.024C744.462 126.024 742.734 125.604 741.222 124.764C739.734 123.9 738.558 122.712 737.694 121.2C736.854 119.688 736.434 117.96 736.434 116.016C736.434 114.048 736.83 112.32 737.622 110.832C738.438 109.32 739.554 108.132 740.97 107.268C742.386 106.404 744.018 105.972 745.866 105.972C747.69 105.972 749.274 106.392 750.618 107.232C751.986 108.048 753.042 109.188 753.786 110.652C754.53 112.116 754.902 113.784 754.902 115.656C754.902 116.04 754.782 116.352 754.542 116.592C754.302 116.808 753.99 116.916 753.606 116.916H738.306V114.612H753.894L752.346 115.728C752.37 114.336 752.118 113.088 751.59 111.984C751.062 110.88 750.306 110.016 749.322 109.392C748.362 108.768 747.21 108.456 745.866 108.456C744.498 108.456 743.298 108.78 742.266 109.428C741.234 110.076 740.43 110.976 739.854 112.128C739.302 113.256 739.026 114.552 739.026 116.016C739.026 117.48 739.338 118.776 739.962 119.904C740.61 121.032 741.486 121.92 742.59 122.568C743.694 123.216 744.966 123.54 746.406 123.54C747.27 123.54 748.134 123.396 748.998 123.108C749.886 122.796 750.594 122.412 751.122 121.956C751.386 121.74 751.686 121.632 752.022 121.632C752.358 121.608 752.646 121.692 752.886 121.884C753.198 122.172 753.354 122.484 753.354 122.82C753.378 123.156 753.246 123.444 752.958 123.684C752.166 124.356 751.158 124.92 749.934 125.376C748.71 125.808 747.534 126.024 746.406 126.024ZM786.196 125.844C785.788 125.844 785.452 125.724 785.188 125.484C784.924 125.22 784.792 124.884 784.792 124.476V114.108C784.792 112.404 784.348 111.06 783.46 110.076C782.572 109.068 781.432 108.564 780.04 108.564C778.552 108.564 777.328 109.068 776.368 110.076C775.432 111.06 774.976 112.38 775 114.036H772.516C772.54 112.428 772.888 111.012 773.56 109.788C774.232 108.564 775.156 107.616 776.332 106.944C777.508 106.272 778.84 105.936 780.328 105.936C781.744 105.936 782.992 106.272 784.072 106.944C785.176 107.616 786.028 108.564 786.628 109.788C787.252 111.012 787.564 112.452 787.564 114.108V124.476C787.564 124.884 787.432 125.22 787.168 125.484C786.928 125.724 786.604 125.844 786.196 125.844ZM760.996 125.844C760.564 125.844 760.216 125.724 759.952 125.484C759.712 125.22 759.592 124.884 759.592 124.476V107.556C759.592 107.148 759.712 106.812 759.952 106.548C760.216 106.284 760.564 106.152 760.996 106.152C761.404 106.152 761.728 106.284 761.968 106.548C762.232 106.812 762.364 107.148 762.364 107.556V124.476C762.364 124.884 762.232 125.22 761.968 125.484C761.728 125.724 761.404 125.844 760.996 125.844ZM773.632 125.844C773.224 125.844 772.888 125.724 772.624 125.484C772.36 125.22 772.228 124.884 772.228 124.476V114.108C772.228 112.404 771.784 111.06 770.896 110.076C770.008 109.068 768.868 108.564 767.476 108.564C765.988 108.564 764.764 109.056 763.804 110.04C762.844 111 762.364 112.26 762.364 113.82H760.384C760.432 112.284 760.768 110.928 761.392 109.752C762.04 108.552 762.916 107.616 764.02 106.944C765.124 106.272 766.372 105.936 767.764 105.936C769.18 105.936 770.428 106.272 771.508 106.944C772.612 107.616 773.464 108.564 774.064 109.788C774.688 111.012 775 112.452 775 114.108V124.476C775 124.884 774.868 125.22 774.604 125.484C774.364 125.724 774.04 125.844 773.632 125.844ZM802.621 126.024C800.677 126.024 798.949 125.604 797.437 124.764C795.949 123.9 794.773 122.712 793.909 121.2C793.069 119.688 792.649 117.96 792.649 116.016C792.649 114.048 793.045 112.32 793.837 110.832C794.653 109.32 795.769 108.132 797.185 107.268C798.601 106.404 800.233 105.972 802.081 105.972C803.905 105.972 805.489 106.392 806.833 107.232C808.201 108.048 809.257 109.188 810.001 110.652C810.745 112.116 811.117 113.784 811.117 115.656C811.117 116.04 810.997 116.352 810.757 116.592C810.517 116.808 810.205 116.916 809.821 116.916H794.521V114.612H810.109L808.561 115.728C808.585 114.336 808.333 113.088 807.805 111.984C807.277 110.88 806.521 110.016 805.537 109.392C804.577 108.768 803.425 108.456 802.081 108.456C800.713 108.456 799.513 108.78 798.481 109.428C797.449 110.076 796.645 110.976 796.069 112.128C795.517 113.256 795.241 114.552 795.241 116.016C795.241 117.48 795.553 118.776 796.177 119.904C796.825 121.032 797.701 121.92 798.805 122.568C799.909 123.216 801.181 123.54 802.621 123.54C803.485 123.54 804.349 123.396 805.213 123.108C806.101 122.796 806.809 122.412 807.337 121.956C807.601 121.74 807.901 121.632 808.237 121.632C808.573 121.608 808.861 121.692 809.101 121.884C809.413 122.172 809.569 122.484 809.569 122.82C809.593 123.156 809.461 123.444 809.173 123.684C808.381 124.356 807.373 124.92 806.149 125.376C804.925 125.808 803.749 126.024 802.621 126.024ZM841.653 125.484C841.413 125.724 841.089 125.844 840.681 125.844C840.297 125.844 839.985 125.712 839.745 125.448L831.141 116.016L839.385 106.584C839.625 106.32 839.925 106.176 840.285 106.152C840.645 106.128 840.957 106.224 841.221 106.44C841.509 106.704 841.665 107.004 841.689 107.34C841.713 107.652 841.605 107.952 841.365 108.24L834.597 115.872L841.725 123.72C841.965 123.984 842.085 124.284 842.085 124.62C842.085 124.932 841.941 125.22 841.653 125.484ZM827.685 125.844C827.277 125.844 826.953 125.724 826.713 125.484C826.473 125.22 826.353 124.884 826.353 124.476V107.556C826.353 107.124 826.473 106.788 826.713 106.548C826.953 106.284 827.277 106.152 827.685 106.152C828.117 106.152 828.453 106.284 828.693 106.548C828.957 106.788 829.089 107.124 829.089 107.556V114.684H833.481V117.204H829.089V124.476C829.089 124.884 828.957 125.22 828.693 125.484C828.453 125.724 828.117 125.844 827.685 125.844ZM853.451 126.024C851.603 126.024 849.947 125.592 848.483 124.728C847.019 123.84 845.855 122.64 844.991 121.128C844.151 119.616 843.731 117.912 843.731 116.016C843.731 114.096 844.163 112.38 845.027 110.868C845.915 109.356 847.115 108.168 848.627 107.304C850.139 106.416 851.843 105.972 853.739 105.972C855.635 105.972 857.327 106.416 858.815 107.304C860.327 108.168 861.515 109.356 862.379 110.868C863.267 112.38 863.723 114.096 863.747 116.016L862.631 116.88C862.631 118.608 862.223 120.168 861.407 121.56C860.615 122.928 859.523 124.02 858.131 124.836C856.763 125.628 855.203 126.024 853.451 126.024ZM853.739 123.504C855.131 123.504 856.367 123.18 857.447 122.532C858.551 121.884 859.415 120.996 860.039 119.868C860.687 118.716 861.011 117.432 861.011 116.016C861.011 114.576 860.687 113.292 860.039 112.164C859.415 111.036 858.551 110.148 857.447 109.5C856.367 108.828 855.131 108.492 853.739 108.492C852.371 108.492 851.135 108.828 850.031 109.5C848.927 110.148 848.051 111.036 847.403 112.164C846.755 113.292 846.431 114.576 846.431 116.016C846.431 117.432 846.755 118.716 847.403 119.868C848.051 120.996 848.927 121.884 850.031 122.532C851.135 123.18 852.371 123.504 853.739 123.504ZM862.343 125.844C861.935 125.844 861.599 125.724 861.335 125.484C861.071 125.22 860.939 124.884 860.939 124.476V118.32L861.623 115.476L863.747 116.016V124.476C863.747 124.884 863.615 125.22 863.351 125.484C863.087 125.724 862.751 125.844 862.343 125.844ZM884.438 125.484C884.198 125.724 883.874 125.844 883.466 125.844C883.082 125.844 882.77 125.712 882.53 125.448L873.926 116.016L882.17 106.584C882.41 106.32 882.71 106.176 883.07 106.152C883.43 106.128 883.742 106.224 884.006 106.44C884.294 106.704 884.45 107.004 884.474 107.34C884.498 107.652 884.39 107.952 884.15 108.24L877.382 115.872L884.51 123.72C884.75 123.984 884.87 124.284 884.87 124.62C884.87 124.932 884.726 125.22 884.438 125.484ZM870.47 125.844C870.062 125.844 869.738 125.724 869.498 125.484C869.258 125.22 869.138 124.884 869.138 124.476V107.556C869.138 107.124 869.258 106.788 869.498 106.548C869.738 106.284 870.062 106.152 870.47 106.152C870.902 106.152 871.238 106.284 871.478 106.548C871.742 106.788 871.874 107.124 871.874 107.556V114.684H876.266V117.204H871.874V124.476C871.874 124.884 871.742 125.22 871.478 125.484C871.238 125.724 870.902 125.844 870.47 125.844ZM249.982 172.844C249.55 172.844 249.202 172.724 248.938 172.484C248.698 172.22 248.578 171.872 248.578 171.44V154.52C248.602 154.112 248.734 153.788 248.974 153.548C249.238 153.284 249.574 153.152 249.982 153.152C250.39 153.152 250.714 153.284 250.954 153.548C251.218 153.788 251.35 154.124 251.35 154.556V161.396H258.946V161.9C260.194 161.9 261.298 162.128 262.258 162.584C263.242 163.04 263.998 163.676 264.526 164.492C265.078 165.284 265.354 166.196 265.354 167.228C265.354 168.332 265.078 169.304 264.526 170.144C263.998 170.984 263.242 171.644 262.258 172.124C261.298 172.604 260.194 172.844 258.946 172.844H249.982ZM251.35 170.288H258.946C260.026 170.288 260.914 170.012 261.61 169.46C262.306 168.908 262.654 168.116 262.654 167.084C262.654 166.004 262.306 165.188 261.61 164.636C260.914 164.06 260.026 163.772 258.946 163.772H251.35V170.288ZM255.382 162.944V161.396H258.946C259.786 161.396 260.47 161.12 260.998 160.568C261.526 160.016 261.79 159.308 261.79 158.444C261.79 157.676 261.502 157.028 260.926 156.5C260.374 155.948 259.666 155.672 258.802 155.672H250.018V153.152H258.802C259.906 153.152 260.878 153.38 261.718 153.836C262.582 154.268 263.254 154.868 263.734 155.636C264.238 156.404 264.49 157.292 264.49 158.3C264.49 159.86 263.962 161.024 262.906 161.792C261.874 162.56 260.554 162.944 258.946 162.944H255.382ZM278.014 173.204C276.454 173.204 275.074 172.892 273.874 172.268C272.698 171.644 271.762 170.78 271.066 169.676C270.394 168.572 270.058 167.3 270.058 165.86V154.52C270.082 154.112 270.214 153.788 270.454 153.548C270.718 153.284 271.054 153.152 271.462 153.152C271.87 153.152 272.194 153.284 272.434 153.548C272.698 153.788 272.83 154.124 272.83 154.556V159.668H278.158C279.598 159.668 280.87 159.944 281.974 160.496C283.102 161.024 283.978 161.792 284.602 162.8C285.226 163.784 285.538 164.96 285.538 166.328C285.538 167.72 285.214 168.932 284.566 169.964C283.942 170.996 283.054 171.8 281.902 172.376C280.774 172.928 279.478 173.204 278.014 173.204ZM278.014 170.648C279.406 170.648 280.558 170.288 281.47 169.568C282.382 168.848 282.838 167.768 282.838 166.328C282.838 164.888 282.394 163.82 281.506 163.124C280.642 162.428 279.526 162.08 278.158 162.08H272.83V165.86C272.83 167.252 273.31 168.404 274.27 169.316C275.254 170.204 276.502 170.648 278.014 170.648ZM290.038 172.844C289.63 172.844 289.294 172.724 289.03 172.484C288.79 172.22 288.67 171.872 288.67 171.44V154.556C288.67 154.124 288.79 153.788 289.03 153.548C289.294 153.284 289.63 153.152 290.038 153.152C290.47 153.152 290.806 153.284 291.046 153.548C291.31 153.788 291.442 154.124 291.442 154.556V171.44C291.442 171.872 291.31 172.22 291.046 172.484C290.806 172.724 290.47 172.844 290.038 172.844ZM303.949 173.024C302.533 173.024 301.261 172.808 300.133 172.376C299.005 171.944 298.105 171.332 297.433 170.54C296.785 169.748 296.461 168.812 296.461 167.732C296.461 166.82 296.701 165.992 297.181 165.248C297.685 164.504 298.477 163.856 299.557 163.304C300.661 162.728 302.101 162.248 303.877 161.864C305.485 161.504 306.589 161.048 307.189 160.496C307.813 159.92 308.125 159.2 308.125 158.336C308.125 157.496 307.765 156.812 307.045 156.284C306.325 155.732 305.329 155.456 304.057 155.456C303.049 155.456 302.113 155.636 301.249 155.996C300.409 156.332 299.713 156.824 299.161 157.472C298.897 157.76 298.597 157.94 298.261 158.012C297.925 158.084 297.637 158.048 297.397 157.904C297.013 157.688 296.785 157.412 296.713 157.076C296.641 156.716 296.725 156.392 296.965 156.104C297.661 155.168 298.609 154.412 299.809 153.836C301.009 153.26 302.413 152.972 304.021 152.972C305.341 152.972 306.517 153.188 307.549 153.62C308.581 154.028 309.385 154.64 309.961 155.456C310.537 156.272 310.825 157.268 310.825 158.444C310.825 159.692 310.345 160.808 309.385 161.792C308.425 162.752 306.829 163.484 304.597 163.988C302.557 164.444 301.153 164.96 300.385 165.536C299.617 166.112 299.233 166.832 299.233 167.696C299.233 168.632 299.605 169.34 300.349 169.82C301.117 170.276 302.293 170.504 303.877 170.504C305.077 170.504 306.145 170.36 307.081 170.072C308.041 169.784 308.833 169.28 309.457 168.56C309.697 168.296 309.985 168.128 310.321 168.056C310.657 167.96 310.993 168.044 311.329 168.308C311.641 168.572 311.809 168.872 311.833 169.208C311.857 169.544 311.737 169.856 311.473 170.144C310.657 171.032 309.553 171.74 308.161 172.268C306.769 172.772 305.365 173.024 303.949 173.024ZM323.879 153.152C324.167 153.152 324.431 153.224 324.671 153.368C324.911 153.512 325.103 153.752 325.247 154.088L333.059 171.08C333.227 171.416 333.239 171.74 333.095 172.052C332.975 172.34 332.747 172.568 332.411 172.736C332.027 172.904 331.679 172.94 331.367 172.844C331.055 172.724 330.803 172.484 330.611 172.124L323.159 155.528H324.779L317.183 172.088C317.015 172.448 316.751 172.688 316.391 172.808C316.055 172.904 315.707 172.868 315.347 172.7C315.011 172.532 314.771 172.304 314.627 172.016C314.507 171.704 314.519 171.38 314.663 171.044L322.583 154.088C322.871 153.464 323.303 153.152 323.879 153.152ZM350.695 172.844C350.311 172.844 349.987 172.724 349.723 172.484C349.483 172.22 349.363 171.872 349.363 171.44V166.04H343.603V165.68C342.379 165.68 341.287 165.428 340.327 164.924C339.367 164.396 338.623 163.676 338.095 162.764C337.567 161.852 337.303 160.796 337.303 159.596C337.303 158.348 337.591 157.244 338.167 156.284C338.767 155.3 339.595 154.532 340.651 153.98C341.707 153.428 342.919 153.152 344.287 153.152H350.695C351.127 153.152 351.463 153.284 351.703 153.548C351.967 153.788 352.099 154.124 352.099 154.556V171.476C352.075 171.884 351.931 172.22 351.667 172.484C351.427 172.724 351.103 172.844 350.695 172.844ZM337.231 172.484C336.943 172.22 336.799 171.932 336.799 171.62C336.823 171.308 336.943 171.008 337.159 170.72L342.199 164.312L345.763 164.384L339.283 172.34C338.995 172.7 338.635 172.868 338.203 172.844C337.795 172.844 337.471 172.724 337.231 172.484ZM344.287 163.664H349.363V155.708H344.287C343.063 155.708 342.043 156.068 341.227 156.788C340.411 157.484 340.003 158.42 340.003 159.596C340.003 160.868 340.411 161.864 341.227 162.584C342.043 163.304 343.063 163.664 344.287 163.664ZM367.258 173.024C365.362 173.024 363.682 172.604 362.218 171.764C360.754 170.9 359.602 169.712 358.762 168.2C357.946 166.688 357.538 164.96 357.538 163.016C357.538 161.048 357.97 159.308 358.834 157.796C359.698 156.284 360.886 155.108 362.398 154.268C363.91 153.404 365.626 152.972 367.546 152.972C369.49 152.972 371.206 153.404 372.694 154.268C374.206 155.108 375.382 156.284 376.222 157.796C377.086 159.308 377.53 161.048 377.554 163.016L375.934 163.88C375.934 165.656 375.562 167.24 374.818 168.632C374.074 170 373.042 171.08 371.722 171.872C370.426 172.64 368.938 173.024 367.258 173.024ZM367.618 180.62C365.722 180.62 364.054 180.26 362.614 179.54C361.174 178.844 359.986 177.884 359.05 176.66C358.786 176.372 358.666 176.06 358.69 175.724C358.738 175.388 358.918 175.112 359.23 174.896C359.542 174.68 359.89 174.608 360.274 174.68C360.658 174.752 360.958 174.932 361.174 175.22C361.87 176.084 362.758 176.78 363.838 177.308C364.942 177.836 366.214 178.1 367.654 178.1C368.998 178.1 370.21 177.776 371.29 177.128C372.37 176.48 373.222 175.568 373.846 174.392C374.494 173.216 374.818 171.836 374.818 170.252V164.78L375.862 162.692L377.554 163.016V170.36C377.554 172.304 377.122 174.044 376.258 175.58C375.394 177.14 374.218 178.364 372.73 179.252C371.242 180.164 369.538 180.62 367.618 180.62ZM367.546 170.504C368.962 170.504 370.21 170.192 371.29 169.568C372.394 168.92 373.258 168.032 373.882 166.904C374.506 165.776 374.818 164.48 374.818 163.016C374.818 161.552 374.506 160.256 373.882 159.128C373.258 157.976 372.394 157.088 371.29 156.464C370.21 155.816 368.962 155.492 367.546 155.492C366.13 155.492 364.87 155.816 363.766 156.464C362.662 157.088 361.798 157.976 361.174 159.128C360.55 160.256 360.238 161.552 360.238 163.016C360.238 164.48 360.55 165.776 361.174 166.904C361.798 168.032 362.662 168.92 363.766 169.568C364.87 170.192 366.13 170.504 367.546 170.504ZM391.513 173.06C389.809 173.06 388.285 172.712 386.941 172.016C385.597 171.296 384.529 170.252 383.737 168.884C382.969 167.516 382.585 165.848 382.585 163.88V154.52C382.585 154.136 382.717 153.812 382.981 153.548C383.245 153.284 383.569 153.152 383.953 153.152C384.361 153.152 384.697 153.284 384.961 153.548C385.225 153.812 385.357 154.136 385.357 154.52V163.88C385.357 165.368 385.633 166.592 386.185 167.552C386.761 168.512 387.529 169.232 388.489 169.712C389.473 170.192 390.577 170.432 391.801 170.432C392.977 170.432 394.033 170.204 394.969 169.748C395.929 169.292 396.685 168.668 397.237 167.876C397.789 167.084 398.065 166.184 398.065 165.176H400.045C399.973 166.688 399.553 168.044 398.785 169.244C398.041 170.42 397.033 171.356 395.761 172.052C394.489 172.724 393.073 173.06 391.513 173.06ZM399.433 172.844C399.025 172.844 398.689 172.724 398.425 172.484C398.185 172.22 398.065 171.872 398.065 171.44V154.52C398.065 154.112 398.185 153.788 398.425 153.548C398.689 153.284 399.025 153.152 399.433 153.152C399.841 153.152 400.177 153.284 400.441 153.548C400.705 153.788 400.837 154.112 400.837 154.52V171.44C400.837 171.872 400.705 172.22 400.441 172.484C400.177 172.724 399.841 172.844 399.433 172.844ZM433.912 172.844C433.504 172.844 433.168 172.724 432.904 172.484C432.64 172.22 432.508 171.884 432.508 171.476V161.108C432.508 159.404 432.064 158.06 431.176 157.076C430.288 156.068 429.148 155.564 427.756 155.564C426.268 155.564 425.044 156.068 424.084 157.076C423.148 158.06 422.692 159.38 422.716 161.036H420.232C420.256 159.428 420.604 158.012 421.276 156.788C421.948 155.564 422.872 154.616 424.048 153.944C425.224 153.272 426.556 152.936 428.044 152.936C429.46 152.936 430.708 153.272 431.788 153.944C432.892 154.616 433.744 155.564 434.344 156.788C434.968 158.012 435.28 159.452 435.28 161.108V171.476C435.28 171.884 435.148 172.22 434.884 172.484C434.644 172.724 434.32 172.844 433.912 172.844ZM408.712 172.844C408.28 172.844 407.932 172.724 407.668 172.484C407.428 172.22 407.308 171.884 407.308 171.476V154.556C407.308 154.148 407.428 153.812 407.668 153.548C407.932 153.284 408.28 153.152 408.712 153.152C409.12 153.152 409.444 153.284 409.684 153.548C409.948 153.812 410.08 154.148 410.08 154.556V171.476C410.08 171.884 409.948 172.22 409.684 172.484C409.444 172.724 409.12 172.844 408.712 172.844ZM421.348 172.844C420.94 172.844 420.604 172.724 420.34 172.484C420.076 172.22 419.944 171.884 419.944 171.476V161.108C419.944 159.404 419.5 158.06 418.612 157.076C417.724 156.068 416.584 155.564 415.192 155.564C413.704 155.564 412.48 156.056 411.52 157.04C410.56 158 410.08 159.26 410.08 160.82H408.1C408.148 159.284 408.484 157.928 409.108 156.752C409.756 155.552 410.632 154.616 411.736 153.944C412.84 153.272 414.088 152.936 415.48 152.936C416.896 152.936 418.144 153.272 419.224 153.944C420.328 154.616 421.18 155.564 421.78 156.788C422.404 158.012 422.716 159.452 422.716 161.108V171.476C422.716 171.884 422.584 172.22 422.32 172.484C422.08 172.724 421.756 172.844 421.348 172.844ZM453.901 172.844C453.445 172.844 453.061 172.724 452.749 172.484C452.461 172.22 452.317 171.872 452.317 171.44V146.132C452.317 145.724 452.449 145.388 452.713 145.124C452.977 144.86 453.313 144.728 453.721 144.728H462.469C463.909 144.728 465.205 145.04 466.357 145.664C467.533 146.264 468.457 147.092 469.129 148.148C469.825 149.204 470.173 150.428 470.173 151.82C470.173 153.116 469.825 154.268 469.129 155.276C468.433 156.284 467.521 157.052 466.393 157.58C468.001 158.012 469.297 158.828 470.281 160.028C471.265 161.204 471.757 162.704 471.757 164.528C471.757 166.16 471.385 167.6 470.641 168.848C469.897 170.096 468.865 171.08 467.545 171.8C466.249 172.496 464.761 172.844 463.081 172.844H453.901ZM455.125 170.144H463.081C464.233 170.144 465.253 169.916 466.141 169.46C467.029 169.004 467.725 168.356 468.229 167.516C468.733 166.676 468.985 165.68 468.985 164.528C468.985 163.448 468.733 162.512 468.229 161.72C467.725 160.904 467.029 160.28 466.141 159.848C465.253 159.392 464.233 159.164 463.081 159.164H455.125V170.144ZM455.125 156.464H462.469C463.909 156.464 465.097 156.056 466.033 155.24C466.969 154.424 467.437 153.284 467.437 151.82C467.437 150.38 466.969 149.288 466.033 148.544C465.097 147.8 463.909 147.428 462.469 147.428H455.125V156.464ZM485.664 173.024C483.816 173.024 482.16 172.592 480.696 171.728C479.232 170.84 478.068 169.64 477.204 168.128C476.364 166.616 475.944 164.912 475.944 163.016C475.944 161.096 476.376 159.38 477.24 157.868C478.128 156.356 479.328 155.168 480.84 154.304C482.352 153.416 484.056 152.972 485.952 152.972C487.848 152.972 489.54 153.416 491.028 154.304C492.54 155.168 493.728 156.356 494.592 157.868C495.48 159.38 495.936 161.096 495.96 163.016L494.844 163.88C494.844 165.608 494.436 167.168 493.62 168.56C492.828 169.928 491.736 171.02 490.344 171.836C488.976 172.628 487.416 173.024 485.664 173.024ZM485.952 170.504C487.344 170.504 488.58 170.18 489.66 169.532C490.764 168.884 491.628 167.996 492.252 166.868C492.9 165.716 493.224 164.432 493.224 163.016C493.224 161.576 492.9 160.292 492.252 159.164C491.628 158.036 490.764 157.148 489.66 156.5C488.58 155.828 487.344 155.492 485.952 155.492C484.584 155.492 483.348 155.828 482.244 156.5C481.14 157.148 480.264 158.036 479.616 159.164C478.968 160.292 478.644 161.576 478.644 163.016C478.644 164.432 478.968 165.716 479.616 166.868C480.264 167.996 481.14 168.884 482.244 169.532C483.348 170.18 484.584 170.504 485.952 170.504ZM494.556 172.844C494.148 172.844 493.812 172.724 493.548 172.484C493.284 172.22 493.152 171.884 493.152 171.476V165.32L493.836 162.476L495.96 163.016V171.476C495.96 171.884 495.828 172.22 495.564 172.484C495.3 172.724 494.964 172.844 494.556 172.844ZM520.791 173.096C519.375 173.096 518.115 172.76 517.011 172.088C515.931 171.416 515.079 170.468 514.455 169.244C513.855 168.02 513.555 166.58 513.555 164.924V154.556C513.555 154.124 513.675 153.788 513.915 153.548C514.179 153.284 514.515 153.152 514.923 153.152C515.331 153.152 515.667 153.284 515.931 153.548C516.195 153.788 516.327 154.124 516.327 154.556V164.924C516.327 166.052 516.519 167.036 516.903 167.876C517.311 168.692 517.875 169.328 518.595 169.784C519.315 170.216 520.143 170.432 521.079 170.432C522.567 170.432 523.791 169.952 524.751 168.992C525.711 168.008 526.191 166.76 526.191 165.248L527.667 165.284C527.619 166.796 527.295 168.14 526.695 169.316C526.095 170.492 525.279 171.416 524.247 172.088C523.239 172.76 522.087 173.096 520.791 173.096ZM508.227 173.096C506.811 173.096 505.551 172.76 504.447 172.088C503.367 171.416 502.515 170.468 501.891 169.244C501.291 168.02 500.991 166.58 500.991 164.924V154.556C500.991 154.124 501.111 153.788 501.351 153.548C501.615 153.284 501.951 153.152 502.359 153.152C502.767 153.152 503.103 153.284 503.367 153.548C503.631 153.788 503.763 154.124 503.763 154.556V164.924C503.763 166.052 503.955 167.036 504.339 167.876C504.747 168.692 505.311 169.328 506.031 169.784C506.751 170.216 507.579 170.432 508.515 170.432C510.003 170.432 511.215 169.94 512.151 168.956C513.111 167.972 513.579 166.664 513.555 165.032H515.031C515.007 166.616 514.695 168.02 514.095 169.244C513.519 170.444 512.715 171.392 511.683 172.088C510.675 172.76 509.523 173.096 508.227 173.096ZM527.559 172.844C527.151 172.844 526.815 172.724 526.551 172.484C526.311 172.22 526.191 171.872 526.191 171.44V154.556C526.191 154.124 526.311 153.788 526.551 153.548C526.815 153.284 527.151 153.152 527.559 153.152C527.967 153.152 528.303 153.284 528.567 153.548C528.831 153.788 528.963 154.124 528.963 154.556V171.44C528.963 171.872 528.831 172.22 528.567 172.484C528.303 172.724 527.967 172.844 527.559 172.844ZM545.62 161.668L545.664 156.696C545.693 153.234 546.646 150.066 548.524 147.192C550.43 144.317 553.378 141.985 557.368 140.196L565.596 136.544C566.182 136.309 566.71 136.28 567.18 136.456C567.649 136.602 567.986 136.94 568.192 137.468C568.397 138.025 568.441 138.538 568.324 139.008C568.236 139.448 567.81 139.844 567.048 140.196L558.116 144.288C555.3 145.578 553.173 147.206 551.736 149.172C550.298 151.108 549.448 153.308 549.184 155.772C550.093 154.1 551.354 152.78 552.968 151.812C554.61 150.844 556.488 150.36 558.6 150.36C560.712 150.36 562.574 150.844 564.188 151.812C565.83 152.78 567.106 154.114 568.016 155.816C568.954 157.488 569.424 159.438 569.424 161.668C569.424 163.868 568.925 165.833 567.928 167.564C566.93 169.265 565.552 170.6 563.792 171.568C562.032 172.536 560.008 173.02 557.72 173.02C555.373 173.02 553.29 172.536 551.472 171.568C549.653 170.6 548.23 169.265 547.204 167.564C546.177 165.833 545.649 163.868 545.62 161.668ZM557.72 169.06C559.186 169.06 560.462 168.752 561.548 168.136C562.662 167.49 563.528 166.61 564.144 165.496C564.789 164.381 565.112 163.105 565.112 161.668C565.112 160.23 564.789 158.969 564.144 157.884C563.528 156.769 562.662 155.904 561.548 155.288C560.462 154.642 559.186 154.32 557.72 154.32C556.194 154.32 554.845 154.642 553.672 155.288C552.498 155.904 551.574 156.769 550.9 157.884C550.254 158.969 549.932 160.23 549.932 161.668C549.932 163.105 550.254 164.381 550.9 165.496C551.574 166.61 552.498 167.49 553.672 168.136C554.845 168.752 556.194 169.06 557.72 169.06ZM586.23 173.064C584.206 173.064 582.388 172.638 580.774 171.788C579.19 170.908 577.929 169.632 576.99 167.96C576.081 166.288 575.626 164.234 575.626 161.8V150.976C575.626 150.33 575.832 149.802 576.242 149.392C576.682 148.952 577.225 148.732 577.87 148.732C578.516 148.732 579.044 148.952 579.454 149.392C579.894 149.802 580.114 150.33 580.114 150.976V161.8C580.114 164.293 580.774 166.126 582.094 167.3C583.444 168.444 585.116 169.016 587.11 169.016C588.372 169.016 589.486 168.766 590.454 168.268C591.452 167.769 592.244 167.094 592.83 166.244C593.417 165.393 593.71 164.44 593.71 163.384V150.976C593.71 150.301 593.916 149.758 594.326 149.348C594.766 148.937 595.309 148.732 595.954 148.732C596.629 148.732 597.172 148.937 597.582 149.348C597.993 149.758 598.198 150.301 598.198 150.976V170.6C598.198 171.245 597.993 171.788 597.582 172.228C597.172 172.638 596.629 172.844 595.954 172.844C595.309 172.844 594.766 172.638 594.326 172.228C593.916 171.788 593.71 171.245 593.71 170.6V170.116C592.801 171.025 591.701 171.744 590.41 172.272C589.12 172.8 587.726 173.064 586.23 173.064ZM614.331 173.196C612.219 173.196 610.341 172.873 608.699 172.228C607.085 171.582 605.765 170.79 604.739 169.852C604.269 169.412 604.035 168.898 604.035 168.312C604.035 167.696 604.284 167.197 604.783 166.816C605.223 166.464 605.751 166.317 606.367 166.376C607.012 166.405 607.555 166.625 607.995 167.036C608.699 167.652 609.579 168.18 610.635 168.62C611.691 169.03 612.908 169.236 614.287 169.236C615.9 169.236 617.176 168.898 618.115 168.224C619.083 167.52 619.567 166.625 619.567 165.54C619.567 164.572 619.215 163.809 618.511 163.252C617.836 162.665 616.985 162.357 615.959 162.328H613.451C612.805 162.328 612.263 162.152 611.823 161.8C611.383 161.448 611.163 161.022 611.163 160.524C611.163 160.025 611.383 159.614 611.823 159.292C612.263 158.969 612.805 158.808 613.451 158.808H615.915C616.883 158.749 617.601 158.426 618.071 157.84C618.569 157.253 618.819 156.52 618.819 155.64C618.819 154.672 618.408 153.909 617.587 153.352C616.765 152.794 615.577 152.516 614.023 152.516C611.412 152.516 609.417 153.205 608.039 154.584C607.569 155.053 607.056 155.317 606.499 155.376C605.971 155.405 605.457 155.229 604.959 154.848C604.577 154.554 604.401 154.129 604.431 153.572C604.489 153.014 604.739 152.501 605.179 152.032C606.117 151.005 607.379 150.169 608.963 149.524C610.547 148.878 612.204 148.556 613.935 148.556C615.724 148.556 617.308 148.864 618.687 149.48C620.065 150.096 621.151 150.917 621.943 151.944C622.735 152.97 623.131 154.1 623.131 155.332C623.131 156.622 622.72 157.708 621.899 158.588C621.077 159.438 620.065 160.01 618.863 160.304C620.329 160.597 621.532 161.242 622.471 162.24C623.409 163.237 623.879 164.41 623.879 165.76C623.879 167.168 623.453 168.429 622.603 169.544C621.781 170.658 620.652 171.553 619.215 172.228C617.777 172.873 616.149 173.196 614.331 173.196ZM631.548 172.844C630.902 172.844 630.374 172.638 629.964 172.228C629.582 171.788 629.392 171.245 629.392 170.6V151.02C629.392 150.345 629.582 149.802 629.964 149.392C630.374 148.981 630.902 148.776 631.548 148.776C632.222 148.776 632.765 148.981 633.176 149.392C633.586 149.802 633.792 150.345 633.792 151.02V158.368H647.388V151.02C647.388 150.345 647.593 149.802 648.004 149.392C648.444 148.981 648.986 148.776 649.632 148.776C650.306 148.776 650.834 148.981 651.216 149.392C651.597 149.802 651.788 150.345 651.788 151.02V170.6C651.788 171.245 651.597 171.788 651.216 172.228C650.834 172.638 650.306 172.844 649.632 172.844C648.986 172.844 648.444 172.638 648.004 172.228C647.593 171.788 647.388 171.245 647.388 170.6V162.328H633.792V170.6C633.792 171.245 633.586 171.788 633.176 172.228C632.765 172.638 632.222 172.844 631.548 172.844ZM671.036 173.02C668.601 173.02 666.43 172.506 664.524 171.48C662.646 170.424 661.165 168.986 660.08 167.168C659.024 165.32 658.496 163.208 658.496 160.832C658.496 158.426 658.994 156.314 659.992 154.496C661.018 152.648 662.426 151.21 664.216 150.184C666.005 149.128 668.058 148.6 670.376 148.6C672.664 148.6 674.629 149.113 676.272 150.14C677.914 151.137 679.161 152.53 680.012 154.32C680.892 156.08 681.332 158.118 681.332 160.436C681.332 160.993 681.141 161.462 680.76 161.844C680.378 162.196 679.894 162.372 679.308 162.372H662.588C662.91 164.396 663.834 166.053 665.36 167.344C666.914 168.605 668.806 169.236 671.036 169.236C671.945 169.236 672.869 169.074 673.808 168.752C674.776 168.4 675.553 168.004 676.14 167.564C676.58 167.241 677.049 167.08 677.548 167.08C678.076 167.05 678.53 167.197 678.912 167.52C679.41 167.96 679.674 168.444 679.704 168.972C679.733 169.5 679.498 169.954 679 170.336C678.002 171.128 676.756 171.773 675.26 172.272C673.793 172.77 672.385 173.02 671.036 173.02ZM670.376 152.384C668.205 152.384 666.46 152.985 665.14 154.188C663.82 155.39 662.984 156.945 662.632 158.852H677.284C677.02 156.974 676.301 155.434 675.128 154.232C673.954 153 672.37 152.384 670.376 152.384ZM697.108 173.02C694.762 173.02 692.664 172.492 690.816 171.436C688.998 170.35 687.56 168.898 686.504 167.08C685.478 165.232 684.964 163.149 684.964 160.832C684.964 158.456 685.478 156.344 686.504 154.496C687.531 152.648 688.939 151.21 690.728 150.184C692.518 149.128 694.571 148.6 696.888 148.6C700.35 148.6 703.224 149.92 705.512 152.56C705.923 153.029 706.07 153.513 705.952 154.012C705.835 154.51 705.512 154.95 704.984 155.332C704.574 155.625 704.119 155.728 703.62 155.64C703.122 155.522 702.667 155.258 702.256 154.848C700.819 153.322 699.03 152.56 696.888 152.56C694.63 152.56 692.796 153.322 691.388 154.848C689.98 156.344 689.276 158.338 689.276 160.832C689.276 162.416 689.599 163.824 690.244 165.056C690.919 166.288 691.843 167.27 693.016 168.004C694.19 168.708 695.554 169.06 697.108 169.06C699.103 169.06 700.716 168.546 701.948 167.52C702.418 167.138 702.902 166.933 703.4 166.904C703.899 166.845 704.339 166.977 704.72 167.3C705.219 167.71 705.498 168.18 705.556 168.708C705.615 169.206 705.439 169.661 705.028 170.072C702.916 172.037 700.276 173.02 697.108 173.02Z" fill="white"/>
<path d="M948.414 371.545C948.522 371.818 948.519 372.084 948.407 372.344C948.307 372.598 948.114 372.782 947.829 372.894C947.556 373.002 947.29 373 947.03 372.887C946.771 372.775 946.587 372.582 946.479 372.309L941.507 359.715C941.394 359.43 941.397 359.164 941.514 358.917C941.627 358.657 941.819 358.474 942.092 358.366L951.989 354.458C952.274 354.346 952.54 354.348 952.787 354.466C953.042 354.566 953.225 354.758 953.338 355.044L958.311 367.638C958.418 367.91 958.416 368.177 958.303 368.436C958.203 368.691 958.01 368.874 957.725 368.987C957.452 369.095 957.186 369.092 956.927 368.98C956.667 368.867 956.484 368.674 956.376 368.401L951.697 356.552L943.735 359.695L948.414 371.545ZM962.792 355.138C963.772 354.751 964.734 354.629 965.679 354.772C966.632 354.898 967.48 355.266 968.222 355.876C968.977 356.481 969.553 357.285 969.95 358.29C970.341 359.282 970.474 360.254 970.349 361.207C970.223 362.16 969.858 363.014 969.253 363.769C968.656 364.506 967.861 365.071 966.869 365.463C965.876 365.854 964.904 365.987 963.951 365.862C962.994 365.724 962.144 365.35 961.401 364.74C960.659 364.13 960.091 363.329 959.7 362.337C959.303 361.332 959.168 360.354 959.293 359.401C959.419 358.448 959.786 357.601 960.396 356.858C961.001 356.103 961.8 355.53 962.792 355.138ZM963.453 356.812C962.821 357.062 962.309 357.436 961.918 357.935C961.539 358.428 961.313 358.998 961.238 359.644C961.163 360.29 961.258 360.947 961.523 361.617C961.787 362.287 962.167 362.832 962.663 363.253C963.154 363.661 963.706 363.916 964.32 364.018C964.946 364.115 965.575 364.038 966.208 363.788C966.84 363.539 967.346 363.167 967.724 362.674C968.115 362.175 968.344 361.612 968.411 360.983C968.486 360.337 968.391 359.679 968.127 359.01C967.862 358.34 967.482 357.795 966.986 357.374C966.503 356.949 965.948 356.687 965.322 356.591C964.709 356.489 964.086 356.563 963.453 356.812ZM975.784 349.987C976.64 349.649 977.482 349.531 978.311 349.634C979.14 349.737 979.889 350.072 980.557 350.64C981.221 351.195 981.751 351.974 982.148 352.979L983.955 357.555C984.062 357.828 984.06 358.094 983.947 358.354C983.842 358.596 983.653 358.771 983.38 358.878C983.108 358.986 982.844 358.99 982.589 358.89C982.342 358.772 982.165 358.577 982.057 358.304L980.25 353.728C979.854 352.724 979.282 352.075 978.536 351.782C977.797 351.472 976.981 351.493 976.088 351.845C975.567 352.051 975.131 352.345 974.78 352.727C974.442 353.104 974.22 353.522 974.114 353.979C974.02 354.432 974.061 354.882 974.238 355.328L976.309 360.574C976.417 360.847 976.421 361.111 976.32 361.365C976.215 361.607 976.02 361.785 975.735 361.897C975.462 362.005 975.198 362.009 974.944 361.909C974.697 361.791 974.519 361.596 974.412 361.323L971.136 353.026C971.023 352.741 971.019 352.478 971.124 352.235C971.242 351.988 971.437 351.811 971.71 351.703C971.995 351.591 972.259 351.587 972.501 351.692C972.743 351.797 972.92 351.992 973.033 352.277L973.114 352.482C973.354 351.928 973.705 351.438 974.168 351.012C974.625 350.573 975.164 350.232 975.784 349.987ZM988.528 344.977C989.482 344.6 990.441 344.486 991.404 344.637C992.374 344.77 993.239 345.145 993.998 345.763C994.753 346.368 995.322 347.154 995.704 348.121C996.086 349.088 996.223 350.052 996.114 351.012C996.013 351.955 995.685 352.794 995.13 353.53C994.587 354.26 993.869 354.802 992.976 355.154C992.257 355.438 991.528 355.554 990.791 355.501C990.053 355.448 989.362 355.241 988.717 354.879L990.701 359.902C990.813 360.187 990.817 360.451 990.712 360.693C990.607 360.935 990.412 361.112 990.126 361.225C989.854 361.333 989.59 361.336 989.335 361.236C989.093 361.131 988.916 360.936 988.803 360.651L985.454 352.168C985.072 351.201 984.95 350.238 985.088 349.281C985.233 348.306 985.602 347.443 986.195 346.693C986.795 345.926 987.573 345.354 988.528 344.977ZM991.943 353.627C992.563 353.382 993.062 353.013 993.441 352.519C993.827 352.009 994.06 351.436 994.139 350.803C994.226 350.152 994.14 349.498 993.881 348.841C993.621 348.184 993.237 347.647 992.729 347.231C992.233 346.811 991.672 346.552 991.046 346.455C990.428 346.341 989.809 346.406 989.189 346.651C988.569 346.896 988.065 347.274 987.679 347.784C987.301 348.278 987.074 348.848 987 349.494C986.925 350.139 987.017 350.791 987.277 351.448C987.536 352.106 987.914 352.645 988.41 353.065C988.901 353.473 989.455 353.735 990.074 353.849C990.7 353.946 991.323 353.872 991.943 353.627ZM1001.11 340.011C1002.08 339.624 1003.05 339.502 1003.99 339.645C1004.95 339.77 1005.79 340.138 1006.54 340.748C1007.29 341.353 1007.87 342.158 1008.26 343.162C1008.65 344.154 1008.79 345.127 1008.66 346.079C1008.54 347.032 1008.17 347.886 1007.57 348.641C1006.97 349.379 1006.17 349.943 1005.18 350.335C1004.19 350.727 1003.22 350.86 1002.26 350.734C1001.31 350.596 1000.46 350.222 999.714 349.612C998.972 349.002 998.404 348.201 998.013 347.209C997.616 346.205 997.481 345.226 997.606 344.273C997.732 343.321 998.099 342.473 998.709 341.731C999.314 340.976 1000.11 340.402 1001.11 340.011ZM1001.77 341.685C1001.13 341.935 1000.62 342.309 1000.23 342.807C999.852 343.301 999.626 343.87 999.551 344.516C999.476 345.162 999.571 345.82 999.836 346.49C1000.1 347.159 1000.48 347.704 1000.98 348.125C1001.47 348.533 1002.02 348.788 1002.63 348.89C1003.26 348.987 1003.89 348.91 1004.52 348.661C1005.15 348.411 1005.66 348.039 1006.04 347.546C1006.43 347.047 1006.66 346.484 1006.72 345.855C1006.8 345.209 1006.7 344.552 1006.44 343.882C1006.18 343.212 1005.8 342.667 1005.3 342.247C1004.82 341.821 1004.26 341.56 1003.64 341.463C1003.02 341.361 1002.4 341.435 1001.77 341.685ZM1014.36 335.637C1015.24 335.289 1016.11 335.183 1016.97 335.318C1017.82 335.44 1018.58 335.792 1019.25 336.372C1019.93 336.934 1020.46 337.68 1020.83 338.611C1021.19 339.541 1021.31 340.455 1021.18 341.353C1021.04 342.239 1020.67 343.036 1020.08 343.744C1019.5 344.447 1018.73 344.987 1017.77 345.364C1016.79 345.751 1015.83 345.894 1014.89 345.793C1013.96 345.687 1013.13 345.363 1012.4 344.82C1011.67 344.26 1011.13 343.514 1010.76 342.584L1009.95 340.475C1009.36 338.957 1009.24 337.435 1009.59 335.909C1009.93 334.383 1010.78 332.928 1012.14 331.545L1015.01 328.628C1015.15 328.502 1015.27 328.417 1015.39 328.373C1015.55 328.309 1015.71 328.296 1015.86 328.334C1016.02 328.36 1016.15 328.443 1016.26 328.585C1016.39 328.722 1016.48 328.858 1016.53 328.995C1016.65 329.28 1016.55 329.591 1016.24 329.929L1013.14 333.15C1011.28 335.105 1010.66 337.221 1011.28 339.497C1011.38 338.625 1011.7 337.854 1012.24 337.183C1012.77 336.5 1013.48 335.984 1014.36 335.637ZM1017.11 343.69C1018.03 343.327 1018.66 342.74 1019.02 341.927C1019.37 341.113 1019.36 340.248 1019 339.33C1018.64 338.413 1018.05 337.784 1017.25 337.443C1016.43 337.091 1015.57 337.095 1014.65 337.458C1014.02 337.708 1013.5 338.069 1013.1 338.543C1012.71 338.999 1012.46 339.519 1012.36 340.103C1012.27 340.682 1012.35 341.269 1012.58 341.864C1012.82 342.46 1013.17 342.945 1013.63 343.321C1014.1 343.68 1014.64 343.898 1015.25 343.975C1015.86 344.034 1016.48 343.939 1017.11 343.69ZM1028.77 329.174C1029.11 329.198 1029.34 329.377 1029.48 329.712C1029.54 329.873 1029.57 330.055 1029.56 330.258L1029.05 342.074C1028.99 343.284 1028.74 344.33 1028.28 345.212C1027.85 346.102 1027.25 346.696 1026.49 346.994C1026.01 347.185 1025.51 347.24 1024.99 347.159C1024.76 347.133 1024.57 347.065 1024.41 346.956C1024.26 346.846 1024.15 346.71 1024.08 346.549C1024.02 346.388 1024.01 346.22 1024.05 346.044C1024.15 345.693 1024.33 345.463 1024.6 345.356C1024.79 345.282 1024.97 345.266 1025.16 345.306C1025.48 345.352 1025.76 345.329 1025.99 345.236C1026.75 344.937 1027.17 343.831 1027.26 341.917L1027.32 340.324L1020.03 334.045C1019.92 333.958 1019.84 333.84 1019.78 333.691C1019.72 333.53 1019.71 333.361 1019.75 333.186C1019.8 333.01 1019.89 332.853 1020.02 332.715C1020.11 332.622 1020.22 332.548 1020.36 332.494C1020.52 332.43 1020.69 332.421 1020.87 332.466C1021.04 332.499 1021.2 332.579 1021.35 332.706L1027.42 338.07L1027.74 330.116C1027.76 329.909 1027.82 329.728 1027.92 329.575C1028.03 329.417 1028.17 329.304 1028.34 329.235C1028.45 329.191 1028.6 329.171 1028.77 329.174ZM1041.85 329.709C1041.94 329.945 1041.94 330.175 1041.84 330.4C1041.74 330.612 1041.56 330.767 1041.31 330.865L1034.24 333.656C1034.72 334.471 1035.39 335.017 1036.25 335.296C1037.11 335.569 1038.02 335.52 1038.96 335.148C1039.33 335.001 1039.69 334.781 1040.03 334.488C1040.39 334.19 1040.66 333.89 1040.84 333.589C1040.96 333.384 1041.14 333.235 1041.37 333.142C1041.61 333.049 1041.82 333.038 1042 333.108C1042.3 333.206 1042.5 333.373 1042.59 333.608C1042.68 333.831 1042.65 334.057 1042.51 334.284C1042.22 334.785 1041.8 335.266 1041.25 335.727C1040.72 336.182 1040.16 336.523 1039.59 336.748C1038.58 337.149 1037.58 337.292 1036.6 337.177C1035.62 337.048 1034.74 336.684 1033.98 336.084C1033.22 335.479 1032.65 334.681 1032.26 333.688C1031.86 332.696 1031.73 331.726 1031.84 330.779C1031.96 329.813 1032.31 328.965 1032.9 328.232C1033.49 327.482 1034.27 326.916 1035.24 326.534C1036.19 326.157 1037.1 326.042 1037.96 326.189C1038.82 326.337 1039.59 326.715 1040.26 327.325C1040.93 327.935 1041.46 328.729 1041.85 329.709ZM1035.87 328.134C1034.96 328.491 1034.32 329.03 1033.95 329.752C1033.59 330.468 1033.5 331.271 1033.67 332.161L1039.87 329.715C1039.43 328.928 1038.86 328.387 1038.15 328.092C1037.45 327.796 1036.69 327.81 1035.87 328.134ZM1052.98 319.615C1053.26 319.502 1053.53 319.499 1053.77 319.604C1054.01 319.709 1054.19 319.904 1054.3 320.189L1057.57 328.467C1057.68 328.74 1057.68 329.004 1057.58 329.258C1057.48 329.501 1057.28 329.678 1057 329.791C1056.72 329.898 1056.46 329.902 1056.2 329.802C1055.96 329.684 1055.78 329.489 1055.67 329.216L1053.33 323.282L1052.03 328.591C1051.9 329.143 1051.65 329.492 1051.28 329.639C1050.92 329.781 1050.51 329.694 1050.04 329.377L1045.52 326.367L1047.86 332.301C1047.97 332.574 1047.97 332.838 1047.87 333.092C1047.77 333.335 1047.57 333.512 1047.29 333.625C1047.01 333.732 1046.75 333.736 1046.49 333.636C1046.25 333.519 1046.07 333.323 1045.96 333.051L1042.69 324.772C1042.58 324.487 1042.58 324.224 1042.68 323.981C1042.8 323.734 1042.99 323.557 1043.27 323.449C1043.66 323.292 1044.07 323.352 1044.5 323.629L1050.55 327.671L1052.2 320.588C1052.32 320.096 1052.58 319.772 1052.98 319.615ZM1059.04 311.845C1059.84 311.531 1060.62 311.424 1061.39 311.521C1062.16 311.601 1062.86 311.88 1063.46 312.359C1064.06 312.824 1064.51 313.448 1064.82 314.229C1065.09 314.899 1065.21 315.529 1065.2 316.121C1065.19 316.7 1065.08 317.259 1064.88 317.798C1064.67 318.325 1064.37 318.93 1063.98 319.614C1063.78 319.967 1063.68 320.369 1063.7 320.82C1063.72 321.271 1063.8 321.657 1063.93 321.98C1064.03 322.253 1064.04 322.516 1063.94 322.771C1063.83 323.013 1063.64 323.19 1063.35 323.303C1063.08 323.411 1062.81 323.415 1062.56 323.314C1062.31 323.197 1062.14 323.002 1062.03 322.729C1061.82 322.208 1061.74 321.611 1061.77 320.938C1061.81 320.264 1061.99 319.619 1062.32 319.001C1062.63 318.418 1062.86 317.95 1062.99 317.597C1063.14 317.238 1063.22 316.841 1063.23 316.406C1063.26 315.965 1063.17 315.484 1062.96 314.963C1062.71 314.331 1062.29 313.875 1061.69 313.595C1061.09 313.315 1060.44 313.314 1059.73 313.594C1058.85 313.941 1058.28 314.447 1058.01 315.112C1057.75 315.76 1057.78 316.493 1058.1 317.311C1058.21 317.584 1058.22 317.848 1058.12 318.102C1058.01 318.345 1057.82 318.522 1057.53 318.635C1057.26 318.742 1056.99 318.746 1056.74 318.646C1056.49 318.529 1056.31 318.333 1056.21 318.061C1055.87 317.205 1055.75 316.369 1055.86 315.552C1055.98 314.731 1056.32 313.997 1056.86 313.35C1057.41 312.704 1058.14 312.202 1059.04 311.845ZM1063.69 324.159C1064.05 324.017 1064.4 324.027 1064.76 324.189C1065.11 324.335 1065.36 324.587 1065.51 324.947C1065.64 325.294 1065.63 325.649 1065.47 326.013C1065.32 326.358 1065.07 326.602 1064.71 326.744C1064.36 326.882 1064.01 326.878 1063.65 326.732C1063.3 326.57 1063.06 326.315 1062.92 325.968C1062.78 325.608 1062.78 325.255 1062.93 324.909C1063.09 324.546 1063.34 324.296 1063.69 324.159Z" fill="#7C7575"/>
<path d="M961.324 176.844C961.324 176.844 1164.39 220.197 1102.14 321.503C1059.1 391.53 972.068 405.075 961.324 406.44M976.887 386.091C972.193 392.667 962.509 405.854 961.324 405.998C961.324 405.998 960.595 406.533 961.324 406.44M975.776 419.844L961.324 406.44" stroke="#7C7575" stroke-width="3"/>
</svg>
