<svg width="100" height="100" viewBox="0 0 100 100" fill="none" xmlns="http://www.w3.org/2000/svg">
<path d="M80.932 21.755C95.3447 28.8107 102.922 45.4095 98.95 61.2649C96.8414 69.678 91.7524 76.9036 84.6226 81.6125C79.1338 85.2386 72.8146 87.1276 66.3948 87.1276C64.9702 87.1276 63.5411 87.0338 62.1144 86.8462C61.509 87.6031 60.8579 88.32 60.2178 89.0367C50.0004 100.455 35.2162 99.9975 34.9912 99.9975C25.8947 99.9975 17.3031 96.4606 10.7283 89.9923C3.99187 83.3631 0.183212 74.4518 0.00626087 64.902C-0.089938 59.6393 0.924061 54.5284 2.93642 49.8483C1.22967 39.2827 3.44967 28.5026 9.19208 19.4933C14.9759 10.4168 23.8276 3.95722 34.1148 1.30248C52.5305 -3.44457 71.7198 5.10267 80.932 21.755ZM94.7176 60.1574C97.674 48.357 93.2775 36.0831 84.0982 28.938C86.6023 37.6081 86.7595 46.7336 84.5221 55.6671C81.817 66.4427 75.8517 75.8249 67.4765 82.6418C72.6857 82.443 77.7835 80.8131 82.2518 77.8636C88.4551 73.7663 92.882 67.4788 94.7176 60.1574ZM80.2895 54.5574C82.5774 45.4251 82.1185 36.0719 78.9764 27.3304C74.0994 25.178 69.0475 23.74 63.9126 23.0255C65.8683 24.5528 67.5727 26.4217 68.9382 28.5808C71.6346 32.8433 72.7971 37.8693 72.2749 42.8663C72.6245 43.1722 72.9677 43.487 73.2954 43.8107C76.7499 47.2069 79.0006 51.5408 79.8222 56.2742C79.9859 55.7052 80.1454 55.1358 80.2895 54.5574ZM70.7475 73.1144C74.0951 69.5619 75.8867 64.8932 75.7971 59.9653C75.7207 55.924 74.3856 52.1058 71.9884 48.9775C71.2106 55.8257 68.2848 62.1847 63.4973 67.2644C59.361 71.6543 54.1256 74.7042 48.4051 76.1176C51.2916 77.9084 54.6238 78.8327 58.0805 78.7657C62.9029 78.6742 67.402 76.6668 70.7475 73.1144ZM64.5221 58.4069C66.788 54.2271 67.933 49.498 67.8193 44.5879C65.3435 40.5824 61.9632 37.3536 57.9755 35.132C56.0177 34.0357 53.9113 33.185 51.6956 32.6045C46.4668 31.2359 41.1133 31.4793 36.0941 33.2879C34.5121 37.1372 33.6207 41.1652 33.4305 45.2423C35.2835 42.1164 37.8531 39.5106 40.9843 37.6149C45.8591 34.6699 51.5489 33.7656 57.0467 35.0539C57.3351 35.0785 57.6192 35.161 57.8836 35.304C58.041 35.389 58.1917 35.496 58.3294 35.6255C62.7913 39.783 65.3128 45.4679 65.4264 51.6327C65.4704 53.948 65.1558 56.2299 64.5221 58.4069ZM67.7189 37.2129C67.3038 35.0269 66.4801 32.9192 65.2672 31.0035C62.9096 27.2747 59.2912 24.6155 55.0762 23.5124C49.1721 21.9674 43.0605 23.7602 38.863 27.8799C40.8689 27.4691 42.9031 27.2613 44.9462 27.2613C47.5573 27.2613 50.1816 27.5984 52.7819 28.2795C58.5658 29.7956 63.7005 32.8925 67.7189 37.2129ZM75.4387 21.1812C68.4137 10.6937 56.6975 4.46411 44.3649 4.46411C41.3211 4.46411 38.2402 4.84373 35.1832 5.63194C25.9667 8.00996 18.0371 13.7974 12.8541 21.9292C8.79868 28.2951 6.70323 35.6433 6.74683 43.1052C6.79708 43.0383 7.68868 41.8527 8.10593 41.3436C16.4813 30.8359 27.9026 23.3672 40.9845 19.989C52.5283 17.0126 64.3211 17.4367 75.4387 21.1812ZM57.3967 62.9639C59.8375 59.7576 61.1332 55.7989 61.0568 51.7172C60.9694 46.9969 59.1142 42.6319 55.8235 39.354C51.4993 38.4073 47.0395 39.1442 43.2113 41.4573C40.2964 43.2211 37.989 45.7532 36.4856 48.8121C38.3779 53.3672 41.5724 57.1116 45.7655 59.668C49.3055 61.8275 53.3085 62.9574 57.3967 62.9639ZM43.8755 72.3933C48.521 71.8932 52.9239 70.1717 56.6756 67.4163C52.0499 67.2868 47.5377 65.9494 43.5259 63.5044C39.5579 61.084 36.3415 57.7727 34.0536 53.7939C34.1739 54.4191 34.3094 55.0421 34.4644 55.6651C36.0595 62.1156 39.3197 67.8606 43.8755 72.3933ZM56.3063 86.7212C51.4183 86.4576 46.6264 85.4506 42.0029 83.7136C37.5477 82.0413 33.4068 79.7414 29.6312 76.8544C28.4403 76.0105 27.3281 75.077 26.2991 74.0634C25.8359 73.6415 25.3748 73.2105 24.9247 72.7661C17.384 65.3466 12.4065 55.7342 10.6169 45.2958C10.5295 45.4097 4.37627 52.6976 4.37627 64.8173C4.37627 73.1769 7.86368 80.9739 13.759 86.7749C19.6565 92.5781 27.4112 95.6862 35.5877 95.5275C43.4057 95.3757 50.7213 92.2586 56.3063 86.7212ZM32.6662 73.5609C35.6532 75.5481 39.0094 76.7605 42.4728 77.1423C36.4791 71.8283 32.2096 64.7769 30.2256 56.759C28.6065 50.1989 28.6196 43.516 30.2299 37.1168C23.9829 42.6497 21.0811 51.4761 23.1853 59.9943C24.2146 64.1608 26.3427 67.8918 29.3121 70.8257C30.2647 71.8195 32.4826 73.4383 32.6662 73.5609ZM31.4731 30.7556C32.0849 29.4897 32.806 28.3062 33.6188 27.2121C26.3534 30.3492 19.8442 34.9488 14.4339 40.7564C14.884 45.8249 16.1493 50.7326 18.1507 55.301C17.8361 45.3448 22.8967 35.8195 31.4731 30.7556Z" fill="#021F02"/>
<path d="M90.2838 56.7207C91.4529 57.0266 92.1564 58.2435 91.857 59.4379C90.9044 63.2403 89.2 66.7081 86.7943 69.749C86.3616 70.2939 85.0332 71.1067 83.7222 70.0795C82.7629 69.3292 82.6384 67.8981 83.3966 66.9378C85.4047 64.4014 86.8271 61.5055 87.6247 58.3303C87.924 57.136 89.1126 56.4148 90.2838 56.7207Z" fill="#021F02"/>
<path d="M61.0573 51.7159C61.1338 55.7974 59.838 59.7562 57.3973 62.9626C53.309 62.9558 49.306 61.8262 45.7662 59.6669C41.5731 57.1103 38.3784 53.3658 36.4863 48.811C37.9897 45.752 40.2971 43.22 43.212 41.4561C47.0403 39.1429 51.5 38.4062 55.8243 39.3529C59.115 42.6306 60.9699 46.9958 61.0573 51.7159Z" fill="#FFE155"/>
<path d="M57.9745 35.1333L57.8828 35.3051C57.6184 35.1622 57.3343 35.0795 57.0459 35.0549C51.5483 33.7666 45.8585 34.6709 40.9835 37.616C37.8523 39.5117 35.2827 42.1173 33.4297 45.2433C33.6197 41.1662 34.5113 37.1383 36.0933 33.2889C41.1125 31.4803 46.4658 31.237 51.6946 32.6056C53.9103 33.1864 56.0167 34.037 57.9745 35.1333Z" fill="#ED5D9F"/>
<path d="M56.6747 67.4173C52.923 70.1725 48.5201 71.894 43.8746 72.3943C39.3188 67.8616 36.0586 62.1166 34.4635 55.666C34.3085 55.0431 34.173 54.4201 34.0527 53.7949C36.3406 57.7737 39.557 61.085 43.525 63.5054C47.5368 65.9504 52.049 67.2878 56.6747 67.4173Z" fill="#ED5D9F"/>
<path d="M45.9601 9.99709C45.9842 11.2297 45.0249 12.25 43.8187 12.2746C41.5528 12.3216 39.2782 12.643 37.056 13.2101C28.2263 15.4586 22.9842 21.4804 22.7899 21.659C21.4351 22.9072 20.1241 22.1369 19.7002 21.7194C18.8305 20.8642 18.8043 19.4508 19.6411 18.5621C19.8464 18.3411 25.8227 11.4774 35.9875 8.87841C38.5309 8.22866 41.1334 7.86462 43.7313 7.81107C44.9375 7.7845 45.9361 8.76472 45.9601 9.99709Z" fill="#021F02"/>
<path d="M28.6702 86.8136C29.8305 87.1531 30.5275 88.3966 30.1713 89.5756C29.5835 91.5227 27.6715 91.1676 27.4705 91.1073C23.2096 89.8635 19.2547 87.5303 16.0339 84.3619C12.6822 81.064 10.1977 76.9445 8.84953 72.452C8.49563 71.273 9.14458 70.0248 10.2982 69.6632C11.4518 69.3015 12.6734 69.9647 13.0273 71.1435C14.1592 74.9125 16.2459 78.3711 19.0646 81.1443C21.7721 83.8082 25.0956 85.7708 28.6702 86.8136Z" fill="#021F02"/>
</svg>
