<svg width="807" height="1053" viewBox="0 0 807 1053" fill="none" xmlns="http://www.w3.org/2000/svg">
<path fill-rule="evenodd" clip-rule="evenodd" d="M316.212 737.269C344.83 670.569 364.268 666.209 455.329 705.989C467.79 727.231 494.97 737.975 494.715 768.311C469.59 789.377 437.736 772.859 401.978 765.222C419.02 819.025 440.465 870.432 426.177 919.138C424.2 944.09 417.297 961.282 390.898 960.643C370.829 960.155 351.53 965.849 332.368 970.351L332.628 970.379C295.057 950.522 273.52 921.016 277.502 875.068C278.598 862.405 274.824 849.384 269.731 836.293C244.062 770.245 249.214 757.156 305.296 744.13C309.895 743.058 313.885 741.831 316.212 737.269Z" fill="#395398"/>
<path fill-rule="evenodd" clip-rule="evenodd" d="M332.344 970.346C350.729 960.319 367.357 944.844 391.456 950.175C420.448 956.582 405.413 921.762 417.039 912.294C429.587 883.163 439.021 852.933 437.218 816.288C436.029 792.462 444.251 774.629 467.775 774.513C487.887 786.241 489.667 807.033 487.22 823.308C480.619 867.105 487.595 914.235 483.217 958.391C482.084 963.294 480.69 968.047 479.068 972.673C432.747 987.602 381.55 972.869 332.344 970.346Z" fill="#415FA3"/>
<path fill-rule="evenodd" clip-rule="evenodd" d="M316.21 737.271C316.498 752.336 305.455 748.978 297.225 752.089C268.275 762.992 242.99 776.93 278.074 824.814C286.703 836.589 296.66 852.077 291.99 866.811C278.146 910.542 297.589 942.657 332.592 970.358C305.856 958.896 231.075 862.517 228.675 836.425C223.128 776.173 248.708 747.194 316.21 737.271Z" fill="#415FA3"/>
<path fill-rule="evenodd" clip-rule="evenodd" d="M479.067 972.674C477.365 969.379 475.718 966.034 474.112 962.688C479.481 952.542 480.347 938.999 487.589 930.39C513.19 899.954 513.304 862.603 492.151 818.663C485.286 804.388 479.837 789.505 483.802 774.747C485.112 772.828 486.438 770.901 487.773 768.989C491.009 740.759 459.351 730.454 455.321 705.977C483.757 725.341 507.121 748.016 507.326 788.033C507.395 800.665 513.645 810.594 525.861 812.083C571.043 817.54 565.804 854.157 558.39 877.967C544.697 922.068 530.72 969.84 479.067 972.674Z" fill="#6994D1"/>
<path fill-rule="evenodd" clip-rule="evenodd" d="M556.632 792.989C548.019 796.502 540.036 795.045 535.677 784.242C529.511 768.955 536.344 759.356 546.245 755.34C553.78 752.303 566.368 750.138 570.153 765.23C573.561 778.805 564.002 786.636 556.632 792.989Z" fill="#5479BA"/>
<path fill-rule="evenodd" clip-rule="evenodd" d="M569.259 810.902C567.688 810.186 566.672 811.689 565.008 811.306C562.654 810.771 561.245 807.018 561.337 804.241C561.353 803.601 561.365 803.269 561.554 802.846C562.624 800.542 567.154 800.441 570.111 800.605C575.359 800.908 579.23 804.183 571.136 812.682C570.473 813.37 570.423 811.421 569.259 810.902Z" fill="#6994D1"/>
<path fill-rule="evenodd" clip-rule="evenodd" d="M471.57 777.52C453.942 784.081 442.102 799.444 447.777 821.625C459.436 867.374 438 888.998 417.04 912.291C422.004 870.256 418.466 828.519 393.788 786.624C385.675 772.851 378.883 756.788 389.946 745.716C399.986 735.702 411.133 747.54 421.064 755.607C443.79 774.01 465.393 758.348 487.765 769.011L488.059 769.185C485.468 777.652 480.425 781.295 471.57 777.52Z" fill="#36568E"/>
<path fill-rule="evenodd" clip-rule="evenodd" d="M471.569 777.522C477.076 774.738 482.567 771.963 488.058 769.187C490.439 780.34 491.2 792.024 495.41 802.579C534.33 900.111 534.499 900.044 474.096 962.696C473.248 900.974 472.425 839.26 471.569 777.522Z" fill="#5479BA"/>
<path fill-rule="evenodd" clip-rule="evenodd" d="M448.089 684.169C447.71 674.527 451.368 668.992 458.197 667.623C466.026 666.063 470.042 672.339 471.424 681.36C472.84 690.568 470.363 697.204 462.499 697.437C455.493 697.635 450.349 692.961 448.089 684.169Z" fill="#5479BA"/>
<path opacity="0.29" fill-rule="evenodd" clip-rule="evenodd" d="M450.762 681.097C451.728 671.494 456.121 666.516 463.084 666.116C471.058 665.663 474.166 672.428 474.278 681.555C474.409 690.877 471.028 697.104 463.215 696.253C456.228 695.463 451.788 690.14 450.762 681.097Z" fill="#5479BA"/>
<path opacity="0.41" fill-rule="evenodd" clip-rule="evenodd" d="M555.313 793.325C546.061 794.418 538.771 790.873 537.461 779.309C535.61 762.913 544.754 755.5 555.372 754.292C563.453 753.376 576.152 754.657 575.774 770.208C575.433 784.173 564.12 789.162 555.313 793.325Z" fill="#5479BA"/>
<path opacity="0.31" fill-rule="evenodd" clip-rule="evenodd" d="M571.292 810.852C569.476 810.018 568.302 811.806 566.378 811.354C563.675 810.734 562.071 806.328 562.198 803.065C562.22 802.32 562.239 801.923 562.451 801.427C563.694 798.707 568.912 798.558 572.346 798.739C578.395 799.055 582.824 802.898 573.448 812.935C572.681 813.739 572.627 811.465 571.292 810.852Z" fill="#6994D1"/>
<path d="M448.298 914.49L412.686 845.555L435.819 833.604L425.398 804.955L398.791 818.7L389.93 801.547C385.91 793.766 385.332 787.364 396.489 781.6L410.716 774.25L398.3 750.216C395.674 751.165 386.852 754.786 377.013 759.869C356.5 770.466 348.935 790.24 360.812 813.229L371.044 833.035L347.846 845.019L361.724 871.883L384.922 859.898L420.535 928.833L448.298 914.49V914.49Z" fill="white"/>
<path fill-rule="evenodd" clip-rule="evenodd" d="M528.459 588.452C519.264 561.656 474.704 553.376 476.455 520.814C474.453 514.388 469.162 508.916 467.472 502.34C464.931 492.211 466.254 482.606 478.582 481.686C495.96 480.379 502.243 489.781 499.941 503.547C507.767 493.309 506.514 480.224 506.678 467.505C507.274 426.609 554.63 385.833 602.13 385.665C606.426 385.646 610.416 388.847 613.526 392.044C622.474 416.387 598.432 424.215 587.624 438.664C575.651 454.625 556.689 469.419 581.924 492.08C606.394 514.053 644.225 517.81 666.393 500.401C689.514 482.246 677.046 461.581 662.251 441.23C648.902 422.866 622.618 413.714 613.824 391.974C626.33 371.609 644.92 380.71 662.543 390.247C717.393 419.953 741.298 483.613 716.291 532.023C699.266 565.017 631.165 574.102 569.515 550.83C582.699 568.01 592.624 584.546 574.493 599.647C558.562 599.112 541.648 603.922 528.459 588.452Z" fill="#6FC1EF"/>
<path fill-rule="evenodd" clip-rule="evenodd" d="M573.983 597.432C581.787 568.826 564.356 550.582 533.861 539.058C541.652 524.042 552.929 531.985 559.826 537.337C579.033 552.29 603.87 556.894 622.828 555.881C656.931 554.03 701.418 558.111 709.637 518.053C722.396 455.625 699.189 411.818 646.614 390.663C633.806 385.513 623.413 386.646 614.352 394.012C556.472 395.929 519.248 428.638 520.516 476.228C520.637 480.005 520.103 483.849 518.957 487.351C516.642 494.416 513.673 501.243 511.165 507.673C492.642 508.177 495.658 482.89 481.453 486.927C463.389 492.035 480.437 509.739 476.46 520.801C444.378 499.265 451.773 479.484 471.365 460.206C492.602 445.791 507.299 427.282 513.434 403.432C516.534 401.742 519.631 400.018 522.737 398.314C548.353 392.795 558.129 369.823 580.502 360.666C616.152 357.587 651.867 368.638 684.354 380.533C720.174 393.66 732.926 427.59 744.468 458.235C748.704 501.999 748.953 544.513 710.613 574.65C671.57 585.645 630.571 591.96 590.706 601.108C584.794 602.226 578.859 603.098 573.983 597.432Z" fill="#7BC5F8"/>
<path fill-rule="evenodd" clip-rule="evenodd" d="M703.272 567.039C736.947 561.85 726.48 532.71 733.27 514.134C739.396 497.299 735.402 476.685 735.864 457.726C736.984 439.735 730.293 419.73 746.503 405.643C752.222 407.671 757.941 409.698 763.675 411.732C774.598 442.745 753.758 469.047 758.987 499.229C761.415 540.677 725.572 566.499 715.278 602.967C712.769 611.787 696.921 606.13 687.149 605.539C668.34 604.389 651.318 601.393 637.162 616.689C626.337 628.401 545.691 605.11 528.45 588.466C543.621 591.469 558.783 594.452 573.975 597.446C577.708 596.393 581.442 595.34 585.175 594.288C626.115 596.206 655.793 589.356 703.272 567.039Z" fill="#C2ECFF"/>
<path fill-rule="evenodd" clip-rule="evenodd" d="M746.504 405.64C752.801 425.525 741.664 440.947 735.865 457.723C713.344 409.725 686.129 368.066 616.276 373.687C604.421 374.656 590.528 367.117 577.577 363.505C576.811 362.037 576.024 360.577 575.258 359.108C575.218 354.126 577.308 350.55 583.089 349.465C604.455 341.543 625.254 338.943 644.323 359.894C654.511 371.108 668.281 369.054 681.371 371.788C705.899 376.966 734.98 377.037 746.504 405.64Z" fill="#9CDCFF"/>
<path fill-rule="evenodd" clip-rule="evenodd" d="M759.005 499.237C742.811 467.439 755.516 439.913 763.693 411.74C790.344 420.95 792.413 434.506 780.804 453.051C771.774 467.464 766.144 483.763 759.005 499.237Z" fill="#E1F7FF"/>
<path fill-rule="evenodd" clip-rule="evenodd" d="M513.428 403.448C514.466 441.2 498.136 463.243 471.359 460.222C467.695 430.243 501.762 423.834 513.428 403.448Z" fill="#9CDCFF"/>
<path fill-rule="evenodd" clip-rule="evenodd" d="M577.596 363.513C566.61 383.284 554.228 401.51 522.748 398.332C529.34 382.781 544.762 374.235 557.718 363.71C563.935 361.897 569.273 355.384 577.266 363.012L577.596 363.513Z" fill="#9CDCFF"/>
<path fill-rule="evenodd" clip-rule="evenodd" d="M577.247 363.006C570.714 363.238 564.217 363.467 557.699 363.704C561.771 353.527 565.301 342.698 583.088 349.468C581.15 354.001 579.194 358.494 577.247 363.006Z" fill="#C2ECFF"/>
<path fill-rule="evenodd" clip-rule="evenodd" d="M614.358 394.034C634.71 401.703 650.645 415.09 665.318 429.105C697.159 459.514 700.388 493.476 674.38 510.082C639.784 532.186 583.227 523.498 560.499 490.066C545.615 468.205 561.329 450.872 574.512 435.417C586.851 420.955 601.016 407.765 614.358 394.034Z" fill="#60A7C6"/>
<path fill-rule="evenodd" clip-rule="evenodd" d="M703.274 567.038C670.073 590.433 635.973 611.832 585.183 594.272C624.56 585.205 663.906 576.126 703.274 567.038Z" fill="#AFE5F9"/>
<path d="M688.471 469.75C685.391 469.43 683.26 468.463 683.26 468.463L683.554 467.968C686.933 466.912 695.925 463.114 697.938 460.474C698.805 459.338 698.551 458.73 698.553 458.68L688.863 458.968L680.68 459.387C677.864 452.44 671.858 446.367 663.736 443.198C649.273 437.556 633.566 443.227 628.635 455.866C627.734 458.176 626.424 462.531 626.339 464.922C626.081 465.584 626.627 464.271 626.339 464.922C617.123 461.038 606.683 452.557 598.16 443.028C581.338 424.225 582.899 416.357 582.899 416.357C578.237 418.573 572.033 429.478 571.816 439.854C571.682 446.498 577.007 454.577 577.007 454.577C577.007 454.577 573.703 453.355 570.713 450.85C567.724 448.344 566.877 446.691 566.877 446.691C562.886 450.881 563.512 461.399 568.113 470.552C570.795 475.887 577.431 481.172 577.431 481.172L565.498 476.906C560.365 488.11 582.411 504.56 582.411 504.56C572.996 507.313 563.275 507.419 554.27 503.906C549.606 502.086 545.358 499.633 541.576 496.682C549.656 511.125 562.298 523.872 579.283 529.482C624.316 544.372 664.019 516.173 679.731 479.377L679.761 479.474C679.761 479.474 682.237 479.253 688.379 476.546C694.515 473.854 699.287 469.749 699.287 469.749C699.287 469.749 691.55 470.07 688.471 469.75Z" fill="white"/>
<path fill-rule="evenodd" clip-rule="evenodd" d="M666.626 344.627C667.317 345.592 669.273 348.575 667.602 351.162C665.634 354.208 659.328 355.597 655.628 354.305C651.106 352.728 649.068 346.61 652.047 341.669C652.293 341.256 653.094 339.941 654.324 339.048C657.365 336.86 662.898 340.884 662.898 340.884C662.898 340.884 665.376 342.919 666.626 344.627Z" fill="#9CDCFF"/>
<path opacity="0.34" fill-rule="evenodd" clip-rule="evenodd" d="M669.026 347.209C669.718 348.174 671.673 351.157 670.003 353.744C668.034 356.79 661.729 358.179 658.028 356.887C653.507 355.31 651.469 349.192 654.448 344.251C654.693 343.838 655.495 342.523 656.725 341.63C659.765 339.442 665.299 343.466 665.299 343.466C665.299 343.466 667.777 345.501 669.026 347.209Z" fill="#9CDCFF"/>
<path fill-rule="evenodd" clip-rule="evenodd" d="M657.166 616C664.688 613.797 669.691 615.444 671.962 620.314C674.546 625.899 670.301 630.177 663.447 633.013C656.43 635.921 650.791 635.382 649.237 629.503C647.84 624.262 650.626 619.466 657.166 616Z" fill="#9CDCFF"/>
<path opacity="0.42" fill-rule="evenodd" clip-rule="evenodd" d="M660.829 617.87C668.037 615.731 672.801 617.251 674.932 621.829C677.358 627.081 673.278 631.152 666.705 633.877C659.989 636.665 654.591 636.204 653.154 630.676C651.857 625.745 654.551 621.185 660.829 617.87Z" fill="#9CDCFF"/>
<path fill-rule="evenodd" clip-rule="evenodd" d="M694.715 612.997C693.052 612.958 691.66 617.959 694.202 619.612C695.403 620.403 697.471 620.447 698.318 619.709C700.103 618.133 696.378 613.036 694.715 612.997Z" fill="#AFE5F9"/>
<path opacity="0.57" fill-rule="evenodd" clip-rule="evenodd" d="M693.118 613.966C691.467 613.983 690.337 619.052 692.947 620.663C694.179 621.416 696.22 621.398 697.029 620.629C698.728 618.969 694.764 613.964 693.118 613.966Z" fill="#AFE5F9"/>
<path fill-rule="evenodd" clip-rule="evenodd" d="M236.529 561.122C210.495 558.9 184.479 556.684 158.458 554.457C146.13 549.94 144.437 540.336 145.871 529.218C148.5 518.766 144.369 510.743 137.227 503.824C131.856 497.118 128.641 489.57 128.069 480.904C127.815 462.845 135.122 445.696 143.421 428.658C150.577 415.333 156.243 401.52 164.829 388.65C167.294 385.485 170.25 382.714 173.615 380.256C198.559 367.816 225.411 368.146 251.403 362.319C255.551 362.356 259.257 363.382 262.636 365.154C272.913 372.86 277.288 385.055 287.969 392.492C296.632 399.631 304.997 406.978 310.423 416.593C315.054 425.201 316.624 434.53 315.579 444.606C307.994 517.593 281.151 500.868 265.593 540.063C263.765 544.725 244.212 558.579 236.529 561.122Z" fill="#32BA46"/>
<path fill-rule="evenodd" clip-rule="evenodd" d="M236.526 561.12C251.83 549.251 272.77 539.479 253.752 519.085C242.047 506.567 261.039 504.31 267.884 497.47C291.095 474.262 319.01 451.5 300.331 418.875C325.052 412.177 323.377 431.081 329.752 442.189C340.818 461.13 326.946 477.42 315.244 493.91C310.534 536.486 273.651 548.906 236.526 561.12Z" fill="#4ACC59"/>
<path fill-rule="evenodd" clip-rule="evenodd" d="M315.254 493.922C312.928 478.837 331.59 464.393 323.567 449.155C321.326 425.096 312.178 405.151 290.371 391.059C269.511 377.579 257.806 357.741 251.733 334.792C256.304 329.131 262.042 326.423 269.291 327.606C318.383 347.164 323.804 392.317 338.118 432.473C346.665 456.474 356.965 479.708 315.254 493.922Z" fill="#5CD067"/>
<path fill-rule="evenodd" clip-rule="evenodd" d="M133.938 477.015C137.8 486.01 141.673 495.031 145.54 504.039C153.462 508.814 149.666 518.395 153.668 524.784C152.058 535.441 152.768 545.558 158.45 554.475C130.887 556.947 132.172 535.492 124.462 521.491C113.843 500.63 114.517 477.202 114.655 453.879C116.966 452.684 119.311 451.564 121.7 450.543C133.973 455.609 134.277 466.161 133.938 477.015Z" fill="#5CD067"/>
<path fill-rule="evenodd" clip-rule="evenodd" d="M121.327 426.983C111.918 382.619 147.701 345.811 193.24 353.002C194.501 354.221 195.763 355.44 197.056 356.66C182.377 383.593 140.077 388.968 131.697 420.832C128.94 423.947 125.478 425.985 121.327 426.983Z" fill="#95FC97"/>
<path fill-rule="evenodd" clip-rule="evenodd" d="M114.66 453.862C127.362 474.258 126.242 497.795 124.467 521.474C103.145 503.065 94.3127 481.781 114.66 453.862Z" fill="#95FC97"/>
<path fill-rule="evenodd" clip-rule="evenodd" d="M121.328 426.985C123.714 425.621 126.087 424.264 128.462 422.875C130.064 422.206 131.672 421.549 133.264 420.854C140.83 421.072 151.309 417.178 150.534 429.17C144.999 445.124 139.472 461.061 133.951 477.01C129.879 468.183 125.796 459.361 121.725 450.533C121.576 442.681 121.453 434.818 121.328 426.985Z" fill="#5CD067"/>
<path fill-rule="evenodd" clip-rule="evenodd" d="M269.291 327.619C263.918 330.105 258.539 332.578 253.153 335.07C237.838 355.206 216.781 355.181 195.439 354.115C195.439 354.115 193.241 353.014 193.236 353.001C214.61 330.777 239.365 320.262 269.291 327.619Z" fill="#95FC97"/>
<path fill-rule="evenodd" clip-rule="evenodd" d="M195.436 354.107C213.135 342.338 234.206 342.462 253.15 335.062C274.162 374.461 337.174 390.222 323.558 449.148C316.308 438.73 317.978 422.402 300.331 418.88C293.624 411.123 286.906 403.342 280.199 395.585C266.248 389.711 271.565 371.054 257.129 365.501L257.159 365.503C227.709 369.549 196.717 365.272 170.754 387.881L170.759 387.894C158.195 400.771 148.649 416.524 129.191 422.806L128.467 422.859C123.203 400.179 140.617 387.938 160.128 376.708C172.297 369.724 188.293 367.965 195.436 354.107Z" fill="#73E57B"/>
<path fill-rule="evenodd" clip-rule="evenodd" d="M170.755 387.906C195.4 358.145 225.312 356.677 257.16 365.527C229.973 381.632 198.485 374.732 170.755 387.906Z" fill="#5CD067"/>
<path fill-rule="evenodd" clip-rule="evenodd" d="M129.192 422.835C138.479 406.838 150.703 393.634 170.76 387.923C168.123 402.855 161.382 416.609 150.533 429.171C143.411 427.063 136.301 424.949 129.192 422.835Z" fill="#5CD067"/>
<path fill-rule="evenodd" clip-rule="evenodd" d="M257.133 365.511C274.811 368.899 273.219 385.102 280.203 395.594C262.64 392.125 264.187 375.957 257.133 365.511Z" fill="#4ACC59"/>
<path d="M250.424 501.682C240.036 506.314 228.635 508.105 217.28 506.912L197.72 525.184L191.547 498.583C179.556 491.7 170.267 481.442 164.632 468.806C150.044 436.093 164.794 397.602 197.508 383.014C230.234 368.421 268.712 383.177 283.299 415.89C297.893 448.616 283.137 487.094 250.424 501.682ZM214.015 496.737L216.301 497.064C226.61 498.53 237.048 497.064 246.475 492.86C274.331 480.438 286.876 447.676 274.459 419.832C262.043 391.988 229.288 379.426 201.432 391.848C173.588 404.264 161.031 437.032 173.447 464.876C178.497 476.2 186.994 485.285 198.014 491.133L199.958 492.168L203.324 506.698L214.015 496.737Z" fill="white"/>
<path d="M183.853 432.921C183.853 432.921 184.625 425.287 187.303 423.673C189.982 422.06 193.64 420.428 195.456 421.849C197.267 423.257 206.485 432.079 206.485 432.079C206.485 432.079 208.063 433.606 207.711 435.904C207.352 438.219 205.906 441.993 205.906 441.993C205.906 441.993 205.287 444.499 207.609 445.813C209.937 447.14 213.8 449.759 220.528 452.327C227.244 454.901 237.64 454.247 237.64 454.247C237.64 454.247 238.992 453.853 239.441 452.68C239.891 451.506 241.843 444.035 241.843 444.035C241.843 444.035 242.441 441.582 245.28 441.604C248.106 441.631 260.543 442.163 260.543 442.163C260.543 442.163 261.924 442.071 262.726 443.869C263.527 445.667 264.763 450.385 263.94 452.533C263.117 454.682 260.815 461.201 254.285 464.113C247.754 467.025 229.83 468.656 217.855 464.057C205.867 459.463 194.766 454.34 189.617 447.46C184.426 440.584 183.108 437.025 183.853 432.921Z" fill="white"/>
<path fill-rule="evenodd" clip-rule="evenodd" d="M102.12 408.786C101.402 409.66 103.563 413.666 105.539 413.398C106.469 413.268 107.361 412.182 107.305 411.249C107.191 409.249 102.843 407.924 102.12 408.786Z" fill="#73E57B"/>
<path opacity="0.57" fill-rule="evenodd" clip-rule="evenodd" d="M101.993 410.278C101.317 411.179 103.622 415.106 105.59 414.752C106.521 414.591 107.366 413.466 107.267 412.537C107.08 410.54 102.675 409.39 101.993 410.278Z" fill="#73E57B"/>
<path fill-rule="evenodd" clip-rule="evenodd" d="M103.744 429.303C104.758 429.494 107.804 430.217 108.396 433.156C109.1 436.614 106.179 441.913 103.144 443.566C99.4321 445.581 94.3981 442.751 93.1102 437.278C92.9958 436.82 92.6623 435.367 92.8562 433.888C93.3154 430.286 99.1677 429.278 99.1677 429.278C99.1677 429.278 101.923 428.977 103.744 429.303Z" fill="#73E57B"/>
<path opacity="0.34" fill-rule="evenodd" clip-rule="evenodd" d="M106.797 429.435C107.811 429.627 110.857 430.349 111.449 433.289C112.153 436.747 109.232 442.046 106.197 443.699C102.485 445.713 97.4509 442.884 96.1629 437.411C96.0485 436.953 95.715 435.5 95.9089 434.021C96.3681 430.419 102.22 429.411 102.22 429.411C102.22 429.411 104.976 429.11 106.797 429.435Z" fill="#73E57B"/>
<path fill-rule="evenodd" clip-rule="evenodd" d="M323.234 509.001C323.367 501.712 326.366 497.695 331.576 496.959C337.549 496.121 340.306 501.029 340.957 507.894C341.627 514.9 339.47 519.799 333.529 519.634C328.236 519.479 324.558 515.73 323.234 509.001Z" fill="#73E57B"/>
<path opacity="0.29" fill-rule="evenodd" clip-rule="evenodd" d="M325.381 506.8C326.526 499.599 330.056 496.034 335.325 496.034C341.359 496.038 343.41 501.276 343.1 508.165C342.794 515.202 339.974 519.753 334.118 518.771C328.882 517.873 325.763 513.665 325.381 506.8Z" fill="#73E57B"/>
<path fill-rule="evenodd" clip-rule="evenodd" d="M328.476 109.586C324.004 86.3283 329.94 77.1937 357.272 74.9929C384.604 72.7921 491.034 107.205 480.644 113.024C470.254 118.844 480.508 119.235 476.982 120.717C467.085 123.431 457.857 120.197 448.558 117.556C427.101 111.23 405.798 104.362 384.353 97.9144C368.091 93.0267 353.649 94.4269 341.528 107.407C337.508 110.164 333.317 111.93 328.476 109.586Z" fill="#B02A9E"/>
<path fill-rule="evenodd" clip-rule="evenodd" d="M473.456 118.374C474.009 116.501 474.584 114.636 475.178 112.789C477.055 113.368 478.908 113.939 480.785 114.518C482.796 123.847 493.288 122.495 498.037 128.106C503.965 135.134 500.997 137.853 492.776 136.96C486.238 139.794 487.402 148.336 481.754 151.82C480.618 155.467 479.477 159.126 478.337 162.784C462.897 158.4 464.048 143.893 459.89 132.587C460.086 123.738 465.993 120.308 473.456 118.374Z" fill="#972AAB"/>
<path fill-rule="evenodd" clip-rule="evenodd" d="M328.479 109.585C331.075 108.155 333.686 106.717 336.271 105.283C367.638 86.1316 399.127 101.377 422.193 116.307C444.986 131.065 464.118 155.22 483.849 176.252C492.99 193.305 489.991 208.808 477.843 223.133C476.173 227.618 473.566 231.113 468.425 231.896C461.077 236.059 459.523 244.841 453.768 250.297C442.605 256.592 427.346 256.863 420.865 249.841C402.978 230.467 392.931 240.866 381.761 255.354C332.371 264.151 336.109 261.456 312.809 214.889C291.599 172.475 299.683 141.171 328.479 109.585Z" fill="#F04471"/>
<path fill-rule="evenodd" clip-rule="evenodd" d="M478.531 179.888C471.184 179.089 480.232 151.892 459.77 169.368C451.859 176.127 450.225 161.225 446.767 155.247C425.052 117.765 375.629 95.4116 336.268 105.295C346.588 86.0456 362.087 81.8639 382.138 88.6465C404.842 96.3346 427.817 103.229 450.666 110.486C456.311 118.353 457.096 129.911 468.273 133.532C478.287 140.842 476.877 154.116 483.799 163.041C485.194 165.426 486.589 167.811 487.981 170.207C489.382 177.857 483.315 178.23 478.531 179.888Z" fill="#CF2A8C"/>
<path fill-rule="evenodd" clip-rule="evenodd" d="M381.759 255.354C394.677 242.633 373.437 242.877 373.499 232.107C392.589 238.067 410.47 235.384 426.05 224.924C433.273 237.389 420.573 238.06 420.045 246.155C430.535 251.269 441.251 249.108 452 245.58C462.701 248.102 459.613 253.077 454.289 258.44C430.118 257.418 405.929 256.377 381.759 255.354Z" fill="#CF2A8C"/>
<path fill-rule="evenodd" clip-rule="evenodd" d="M478.53 179.891C481.695 176.656 484.822 173.422 487.987 170.187C498.41 190.48 510.735 211.146 477.834 223.121C478.352 208.72 487.413 194.446 478.53 179.891Z" fill="#9F2AA6"/>
<path fill-rule="evenodd" clip-rule="evenodd" d="M454.29 258.441C455.322 253.834 455.89 249.31 452.002 245.58C454.557 237.496 459.448 232.237 468.437 231.9C459.737 238.617 476.831 259.099 454.29 258.441Z" fill="#9F2AA6"/>
<path fill-rule="evenodd" clip-rule="evenodd" d="M481.335 153.147C480.549 144.885 476.71 130.794 492.436 134.778C501.12 134.372 500.066 155.312 500.066 155.312C500.066 155.312 481.467 161.621 481.335 153.147Z" fill="#B02A9E"/>
<path fill-rule="evenodd" clip-rule="evenodd" d="M468.278 133.51C465.662 135.898 461.107 140.634 460.736 140.332C451.378 132.56 445.974 123.1 450.671 110.464C460.096 113.181 469.51 115.895 478.924 118.609C475.374 123.58 471.828 128.539 468.278 133.51Z" fill="#B52A9B"/>
<path fill-rule="evenodd" clip-rule="evenodd" d="M310.893 246.918C309.289 245.822 307.673 244.722 306.069 243.626C285.576 230.918 285.202 207.984 287.117 190.066C289.017 172.357 297.505 154.009 303.984 136.245C311.274 125.849 321.232 123.016 333.202 125.892C336.327 125.552 339.148 126.033 341.124 128.81C345.728 131.883 351.334 130.203 356.233 131.951C363.225 136.626 367.889 145.481 365.693 151.346C359.644 167.551 368.704 170.356 380.478 172.607C400.235 198.922 397.556 197.533 377.176 224.946C358.615 249.912 337.9 254.429 310.893 246.918Z" fill="#F38259"/>
<path fill-rule="evenodd" clip-rule="evenodd" d="M291.985 226.743C288.754 225.434 285.542 224.105 282.356 222.734C283.703 219.503 285.028 216.303 286.375 213.071C303.291 211.081 302.662 192.228 313.438 184.749C326.93 175.412 331.254 181.143 328.264 195.597C332.171 207.678 347.558 207.071 352.784 217.679C359.075 220.32 365.366 222.961 371.668 225.606C361.252 252.281 335.685 247.783 314.908 253.232C299.226 251.38 294.141 240.314 291.985 226.743Z" fill="#F5AB4A"/>
<path d="M398.999 233.944L356.201 220.751C337.204 214.895 326.518 194.684 332.374 175.688L344.001 137.97C349.857 118.974 370.068 108.288 389.064 114.144L431.862 127.337C450.859 133.193 461.545 153.404 455.689 172.4L444.062 210.117C438.206 229.114 417.995 239.8 398.999 233.944ZM386.715 121.803C371.942 117.249 356.222 125.56 351.668 140.334L340.041 178.051C335.487 192.825 343.798 208.544 358.572 213.099L401.37 226.292C416.144 230.846 431.864 222.534 436.418 207.761L448.045 170.043C452.599 155.27 444.287 139.55 429.514 134.996L386.715 121.803V121.803Z" fill="white"/>
<path d="M384.588 204.716C367.686 199.505 358.171 181.51 363.382 164.608C368.595 147.695 386.587 138.191 403.489 143.402C420.391 148.612 429.906 166.607 424.696 183.509C419.485 200.411 401.49 209.926 384.588 204.716ZM401.133 151.046C388.442 147.134 374.949 154.277 371.037 166.968C367.125 179.659 374.269 193.151 386.948 197.06C399.639 200.972 413.143 193.832 417.051 181.153C420.952 168.458 413.812 154.955 401.133 151.046Z" fill="white"/>
<path d="M439.756 155.598C438.673 159.111 434.945 161.082 431.432 159.999C427.919 158.916 425.948 155.188 427.031 151.675C428.114 148.162 431.842 146.191 435.355 147.274C438.868 148.357 440.839 152.085 439.756 155.598Z" fill="white"/>
<path fill-rule="evenodd" clip-rule="evenodd" d="M509.381 166.228C509.895 166.876 511.355 168.93 510.153 171.04C508.739 173.512 504.153 175.18 501.446 174.571C498.13 173.825 496.575 169.436 498.7 165.429C498.878 165.096 499.445 164.03 500.34 163.241C502.53 161.297 506.625 163.787 506.625 163.787C506.625 163.787 508.46 165.067 509.381 166.228Z" fill="#F04471"/>
<path opacity="0.34" fill-rule="evenodd" clip-rule="evenodd" d="M511.166 167.933C511.681 168.581 513.14 170.635 511.938 172.745C510.525 175.217 505.938 176.885 503.231 176.276C499.915 175.53 498.36 171.141 500.485 167.134C500.663 166.801 501.23 165.735 502.125 164.946C504.315 163.002 508.41 165.492 508.41 165.492C508.41 165.492 510.246 166.772 511.166 167.933Z" fill="#F04471"/>
<path fill-rule="evenodd" clip-rule="evenodd" d="M477.679 235.781C475.713 236.102 473.903 243.965 476.864 245.905C478.26 246.824 480.705 246.412 481.724 245.098C483.9 242.31 479.646 235.46 477.679 235.781Z" fill="#F38259"/>
<path opacity="0.57" fill-rule="evenodd" clip-rule="evenodd" d="M475.763 237.622C473.81 238.022 472.305 245.954 475.339 247.779C476.767 248.633 479.188 248.138 480.168 246.787C482.239 243.891 477.716 237.222 475.763 237.622Z" fill="#F38259"/>
<path fill-rule="evenodd" clip-rule="evenodd" d="M483.336 227.184C482.282 227.272 481.532 230.801 483.202 231.766C483.989 232.222 485.301 232.113 485.814 231.544C486.912 230.341 484.391 227.096 483.336 227.184Z" fill="#F04471"/>
<path opacity="0.35" fill-rule="evenodd" clip-rule="evenodd" d="M483.008 228.248C482.018 228.369 481.162 232.002 482.683 232.959C483.395 233.417 484.63 233.271 485.139 232.676C486.22 231.405 483.998 228.127 483.008 228.248Z" fill="#F04471"/>
<path fill-rule="evenodd" clip-rule="evenodd" d="M146.386 58.0257C175.203 73.078 176.545 81.933 156.046 121.356C146.205 126.221 140.589 138.023 127.097 136.887C118.485 124.93 126.819 111.229 131.32 95.475C106.844 101.292 83.3065 109.159 62.0607 101.113C51.0183 99.3851 43.5716 95.7109 44.6675 83.92C45.4975 74.9547 43.5531 66.1248 42.1433 57.3938L42.1224 57.5064C52.112 41.3604 65.9096 32.7104 86.2415 36.0443C91.8487 36.9576 97.7541 35.7051 103.74 33.8741C133.924 24.6099 139.601 27.3585 143.673 52.902C144.004 55.0052 144.43 56.826 146.386 58.0257Z" fill="#395398"/>
<path fill-rule="evenodd" clip-rule="evenodd" d="M42.1403 57.3855C46.0379 65.9571 52.4182 73.9138 49.3077 84.53C45.5728 97.2962 61.5246 91.7387 65.3848 97.2606C77.9612 103.858 91.1329 109.103 107.5 109.533C118.145 109.807 125.823 114.082 125.159 124.625C119.315 133.235 110.011 133.327 102.839 131.685C83.5394 127.253 62.3484 128.786 42.8305 125.337C40.6866 124.666 38.6063 123.883 36.5959 123C31.3783 101.755 39.5119 79.3236 42.1403 57.3855Z" fill="#415FA3"/>
<path fill-rule="evenodd" clip-rule="evenodd" d="M146.386 58.0266C139.67 57.649 141.501 52.8141 140.373 49.0318C136.403 35.6982 130.977 23.9217 108.585 38.0076C103.075 41.4739 95.8742 45.406 89.4551 42.8199C70.4241 35.1461 55.528 42.7642 42.119 57.4999C48.0457 45.9188 93.2355 15.6905 104.924 15.5003C131.926 15.0522 144.042 27.4679 146.386 58.0266Z" fill="#415FA3"/>
<path fill-rule="evenodd" clip-rule="evenodd" d="M36.6082 122.986C38.1257 122.336 39.663 121.712 41.2066 121.102C45.561 123.847 51.5601 124.688 55.164 128.221C67.9237 140.707 84.5484 142.02 104.754 134.035C111.311 131.441 118.113 129.502 124.565 131.78C125.38 132.433 126.198 133.092 127.006 133.748C139.477 136.15 145.027 122.321 156.054 121.352C146.557 133.427 135.749 143.128 117.929 141.869C112.305 141.481 107.691 143.933 106.654 149.352C102.84 169.389 86.7038 165.811 76.3284 161.69C57.1161 154.077 36.283 146.208 36.6082 122.986Z" fill="#6994D1"/>
<path fill-rule="evenodd" clip-rule="evenodd" d="M123.7 126.219C121.322 118.11 114.845 112.285 104.801 114.076C84.0807 117.756 75.1126 107.428 65.3848 97.2617C83.949 100.904 102.631 100.731 122.034 91.0951C128.415 87.9291 135.773 85.4322 140.36 90.7551C144.51 95.5829 138.898 100.181 135.004 104.354C126.118 113.905 132.423 124.104 126.993 133.763L126.9 133.889C123.22 132.435 121.75 130.051 123.7 126.219Z" fill="#36568E"/>
<path fill-rule="evenodd" clip-rule="evenodd" d="M123.701 126.22C124.773 128.783 125.839 131.331 126.909 133.887C121.872 134.568 116.645 134.52 111.825 136.05C67.2165 150.183 67.2332 150.262 41.1992 121.107C68.6998 122.812 96.2003 124.516 123.701 126.22Z" fill="#5479BA"/>
<path d="M127.816 87.7197C131.418 89.1123 135.103 90.2965 138.549 92.0497C140.074 92.8293 141.568 93.6747 142.901 94.7701C144.794 96.3252 144.797 98.9319 143.055 99.825L131.889 104.601C129.111 106.077 126.323 105.898 123.545 104.757C121.323 103.844 119.177 102.786 116.992 101.797C116.101 101.392 115.191 101.04 114.219 100.869C112.269 100.53 111.08 101.403 110.893 103.365C110.697 105.366 111.266 107.238 111.951 109.078C112.96 111.754 112.461 112.788 109.87 114.037C104.343 116.716 98.6223 118.157 92.4273 117.444C86.967 116.813 82.0508 114.732 77.3692 111.988C68.2602 106.652 60.1696 99.9632 52.4281 92.8402C50.6876 91.2371 50.8774 89.8864 53.0578 88.9089C56.6672 87.2758 60.3109 85.723 63.9838 84.2182C65.4743 83.6054 66.8146 84.0328 67.9839 85.1897C72.0297 89.19 76.4132 92.7693 81.27 95.7399C82.5602 96.5341 83.8724 97.319 85.3805 97.614C87.0501 97.9434 87.91 97.2295 87.907 95.5296C87.9029 94.452 87.6486 93.3951 87.3172 92.38C86.1646 88.8842 84.7598 85.5052 82.811 82.368C81.6 80.4085 79.8438 79.5548 77.5811 80.0581C76.4284 80.3103 76.4201 79.8476 76.6681 79.0159C77.1153 77.5807 77.6803 76.5614 79.3583 75.8424L91.9728 70.4368C94.1261 69.9804 94.9526 70.6798 96.0792 72.5631L102.089 86.568C102.399 87.3507 103.792 89.4738 105.404 89.3874C106.677 89.2739 107.032 88.068 107.393 87.0758C109.041 82.5786 109.568 77.8625 109.815 73.1192C109.931 71.0316 109.898 68.9211 109.84 66.8303C109.796 65.2774 110.347 64.2644 111.855 63.6526L123.998 58.4576C124.356 58.3044 124.724 58.1554 125.099 58.0637C127.292 57.5385 128.229 58.1732 128.458 60.4412C128.81 64.0036 127.989 67.4471 127.214 70.8792C126.394 74.5468 125.387 78.1821 124.587 81.858C123.866 85.2328 124.568 86.4689 127.816 87.7197Z" fill="white"/>
<path fill-rule="evenodd" clip-rule="evenodd" d="M106.865 167.198C112.789 165.644 116.569 166.908 118.074 170.521C119.796 174.662 116.302 177.774 110.86 179.804C105.297 181.877 100.957 181.422 100.057 177.084C99.2474 173.2 101.637 169.688 106.865 167.198Z" fill="#5479BA"/>
<path opacity="0.42" fill-rule="evenodd" clip-rule="evenodd" d="M109.606 168.613C115.281 167.105 118.881 168.273 120.293 171.667C121.909 175.56 118.549 178.52 113.328 180.463C107.998 182.454 103.857 182.06 103.02 177.972C102.278 174.326 104.593 171.002 109.606 168.613Z" fill="#5479BA"/>
<path fill-rule="evenodd" clip-rule="evenodd" d="M69.357 176.788C67.5103 174.03 69.2072 172.266 71.7075 171.713C73.7107 171.269 76.628 171.427 77.7452 172.442C79.4117 173.973 78.2484 176.458 75.3322 177.129C73.2487 177.607 71.0382 176.922 69.357 176.788Z" fill="#6994D1"/>
<path opacity="0.39" fill-rule="evenodd" clip-rule="evenodd" d="M70.7106 177.936C68.8638 175.178 70.5607 173.415 73.061 172.861C75.0642 172.418 77.9815 172.575 79.0987 173.59C80.7652 175.121 79.6019 177.606 76.6857 178.277C74.6023 178.755 72.3917 178.071 70.7106 177.936Z" fill="#6994D1"/>
<path fill-rule="evenodd" clip-rule="evenodd" d="M13.4756 89.6629C12.5887 86.8478 13.4299 84.2766 17.3905 82.9594C23.002 81.0815 26.0891 83.3683 27.0863 86.6024C27.8481 89.0653 28.0908 93.1582 22.6461 94.2565C17.7621 95.2526 15.4015 92.1018 13.4756 89.6629Z" fill="#5479BA"/>
<path opacity="0.43" fill-rule="evenodd" clip-rule="evenodd" d="M15.2471 89.7684C14.3602 86.9532 15.2014 84.3821 19.162 83.0648C24.7735 81.187 27.8605 83.4738 28.8578 86.7079C29.6196 89.1707 29.8623 93.2636 24.4175 94.3619C19.5336 95.3581 17.173 92.2073 15.2471 89.7684Z" fill="#5479BA"/>
</svg>
