<?xml version="1.0" encoding="UTF-8" standalone="no"?>
<!DOCTYPE svg PUBLIC "-//W3C//DTD SVG 1.1//EN" "http://www.w3.org/Graphics/SVG/1.1/DTD/svg11.dtd">
<!-- Создано Microsoft Visio, экспорт SVG barber-black.svg Страница-1 -->
<svg xmlns="http://www.w3.org/2000/svg" xmlns:xlink="http://www.w3.org/1999/xlink" xmlns:ev="http://www.w3.org/2001/xml-events"
		xmlns:v="http://schemas.microsoft.com/visio/2003/SVGExtensions/" width="8.54159in" height="8.45941in"
		viewBox="0 0 614.995 609.078" xml:space="preserve" color-interpolation-filters="sRGB" class="st2">
	<v:documentProperties v:langID="1049" v:metric="true" v:viewMarkup="false"/>

	<style type="text/css">
	<![CDATA[
		.st1 {fill:#000000;stroke:none;stroke-linecap:butt;stroke-width:1.49531}
		.st2 {fill:none;fill-rule:evenodd;font-size:12px;overflow:visible;stroke-linecap:square;stroke-miterlimit:3}
	]]>
	</style>

	<g v:mID="0" v:index="1" v:groupContext="foregroundPage">
		<title>Страница-1</title>
		<v:pageProperties v:drawingScale="1" v:pageScale="1" v:drawingUnits="19" v:shadowOffsetX="9" v:shadowOffsetY="-9"/>
		<g id="shape1-1" v:mID="1" v:groupContext="shape" transform="translate(210.989,-1.49531)">
			<title>Лист.2</title>
			<path d="M393.53 591.13 C371.2 591.13 352.86 573.72 351.35 551.76 C377.03 539.69 394.85 513.58 394.85 483.39 C394.85
						 441.75 360.98 407.87 319.34 407.87 C299.83 407.87 282.03 415.31 268.62 427.5 L210.13 326.2 C213.3 322.37
						 218.32 316.63 224.37 310.88 C236.98 298.91 248.7 292.05 257.37 291.57 C260.24 291.41 262.85 289.89 264.41
						 287.49 C280.99 261.86 391.86 27.27 396.57 17.29 C398.61 12.97 396.92 7.82 392.71 5.56 C388.5 3.3 383.27
						 4.72 380.79 8.81 L199.31 308.09 L17.82 8.8 C15.35 4.72 10.11 3.29 5.9 5.55 C1.7 7.81 0 12.97 2.04 17.29
						 C6.75 27.26 117.62 261.86 134.21 287.49 C135.76 289.89 138.38 291.41 141.24 291.57 C149.91 292.05 161.64
						 298.91 174.24 310.88 C180.29 316.63 185.32 322.37 188.48 326.2 L130 427.49 C116.58 415.31 98.78 407.87 79.27
						 407.87 C37.64 407.87 3.76 441.75 3.76 483.38 C3.76 525.02 37.64 558.9 79.27 558.9 C120.91 558.9 154.79 525.02
						 154.79 483.38 C154.79 468.1 150.21 453.87 142.37 441.96 L199.31 343.34 L256.25 441.96 C248.41 453.87 243.83
						 468.1 243.83 483.38 C243.83 525.02 277.71 558.9 319.34 558.9 C324.33 558.9 329.21 558.4 333.93 557.47 C338.13
						 586.61 363.26 609.08 393.54 609.08 C398.49 609.08 402.51 605.06 402.51 600.1 C402.51 595.15 398.49 591.13
						 393.53 591.13 ZM302.28 172.88 C279.44 219.96 259.53 260.12 251.43 274.26 C246.9 275.11 242.39 276.73 238
						 278.88 L302.28 172.88 ZM147.18 274.26 C139.09 260.12 119.18 219.96 96.33 172.88 L160.61 278.88 C156.22 276.73
						 151.72 275.11 147.18 274.26 ZM79.27 540.96 C47.53 540.96 21.7 515.13 21.7 483.39 C21.7 451.64 47.53 425.82
						 79.27 425.82 C111.02 425.82 136.84 451.64 136.84 483.39 C136.84 515.13 111.02 540.96 79.27 540.96 ZM261.77
						 483.39 C261.77 451.64 287.6 425.82 319.34 425.82 C351.09 425.82 376.91 451.64 376.91 483.39 C376.91 515.13
						 351.09 540.96 319.34 540.96 C287.6 540.96 261.77 515.13 261.77 483.39 Z" class="st1"/>
		</g>
		<g id="shape2-3" v:mID="2" v:groupContext="shape" transform="translate(1.49531,-45.6322)">
			<title>Лист.3</title>
			<path d="M161.16 65.07 C166.12 65.07 170.13 61.05 170.13 56.1 C170.13 51.15 166.12 47.13 161.16 47.13 L42.21 47.13 C18.93
						 47.13 0 66.06 0 89.33 L0 566.87 C0 590.14 18.93 609.08 42.21 609.08 L161.16 609.08 C166.12 609.08 170.14
						 605.06 170.14 600.1 C170.14 595.15 166.12 591.13 161.16 591.13 L51.18 591.13 L51.18 574.27 L161.16 574.27
						 C166.12 574.27 170.14 570.25 170.14 565.29 C170.14 560.34 166.12 556.32 161.16 556.32 L51.18 556.32 L51.18
						 537.78 L161.16 537.78 C166.12 537.78 170.14 533.76 170.14 528.8 C170.14 523.85 166.12 519.83 161.16 519.83
						 L51.18 519.83 L51.18 501.28 L161.16 501.28 C166.12 501.28 170.14 497.27 170.14 492.31 C170.14 487.36 166.12
						 483.34 161.16 483.34 L51.18 483.34 L51.18 464.79 L161.16 464.79 C166.12 464.79 170.14 460.78 170.14 455.82
						 C170.14 450.87 166.12 446.85 161.16 446.85 L51.18 446.85 L51.18 428.3 L161.16 428.3 C166.12 428.3 170.14
						 424.29 170.14 419.33 C170.14 414.38 166.12 410.36 161.16 410.36 L51.18 410.36 L51.18 391.81 L161.16 391.81
						 C166.12 391.81 170.14 387.8 170.14 382.84 C170.14 377.89 166.12 373.87 161.16 373.87 L51.18 373.87 L51.18
						 355.32 L161.16 355.32 C166.12 355.32 170.14 351.31 170.14 346.35 C170.14 341.4 166.12 337.38 161.16 337.38
						 L51.18 337.38 L51.18 318.83 L161.16 318.83 C166.12 318.83 170.14 314.81 170.14 309.86 C170.14 304.9 166.12
						 300.88 161.16 300.88 L51.18 300.88 L51.18 282.34 L161.16 282.34 C166.12 282.34 170.14 278.32 170.14 273.37
						 C170.14 268.41 166.12 264.39 161.16 264.39 L51.18 264.39 L51.18 245.85 L161.16 245.85 C166.12 245.85 170.14
						 241.83 170.14 236.87 C170.14 231.92 166.12 227.9 161.16 227.9 L51.18 227.9 L51.18 209.36 L161.16 209.36
						 C166.12 209.36 170.14 205.34 170.14 200.38 C170.14 195.43 166.12 191.41 161.16 191.41 L51.18 191.41 L51.18
						 172.86 L161.16 172.86 C166.12 172.86 170.14 168.84 170.14 163.89 C170.14 158.94 166.12 154.92 161.16 154.92
						 L51.18 154.92 L51.18 136.37 L161.16 136.37 C166.12 136.37 170.14 132.35 170.14 127.4 C170.14 122.45 166.12
						 118.43 161.16 118.43 L51.18 118.43 L51.18 99.88 L161.16 99.88 C166.12 99.88 170.14 95.86 170.14 90.91 C170.14
						 85.95 166.12 81.94 161.16 81.94 L51.18 81.94 L51.18 65.07 L161.16 65.07 ZM17.94 566.87 L17.94 89.33 C17.94
						 79.13 24.29 70.39 33.24 66.81 L33.24 589.39 C24.29 585.81 17.94 577.08 17.94 566.87 Z" class="st1"/>
		</g>
	</g>
</svg>
