<?xml version="1.0" encoding="iso-8859-1"?>
<!-- Generator: Adobe Illustrator 19.0.0, SVG Export Plug-In . SVG Version: 6.00 Build 0)  -->
<svg version="1.1" id="Capa_1" xmlns="http://www.w3.org/2000/svg" xmlns:xlink="http://www.w3.org/1999/xlink" x="0px" y="0px"
	 viewBox="0 0 512 512" style="enable-background:new 0 0 512 512;" xml:space="preserve">
<g>
	<g>
		<path d="M431.735,278.885c-2.012-14.597-14.561-25.877-29.702-25.877H275.917c-5.512,0-9.997-4.485-9.997-9.997v-3.999h157.952
			c5.52,0,9.997-4.476,9.997-9.997v-39.002v-66.3c0-5.521-4.477-9.997-9.997-9.997c-5.52,0-9.997,4.476-9.997,9.997v56.303H282.198
			c-5.85,0-11.381,1.392-16.278,3.862V36.342c0-8.976,7.303-16.278,16.278-16.278h131.677v25.672c0,5.521,4.477,9.997,9.997,9.997
			c5.52,0,9.997-4.476,9.997-9.997V10.067c0-5.521-4.477-9.997-9.997-9.997H282.198c-10.333,0-19.662,4.35-26.275,11.306
			C249.31,4.42,239.98,0.07,229.648,0.07H87.974c-5.52,0-9.997,4.476-9.997,9.997v90.987H58.605
			c-17.848,0-32.366,14.52-32.366,32.366v149.579c0,5.521,4.477,9.997,9.997,9.997c5.52,0,9.997-4.476,9.997-9.997V133.42
			c0-6.822,5.55-12.372,12.372-12.372h19.371v68.965v39.002c0,5.521,4.477,9.997,9.997,9.997h157.952v3.999
			c0,16.537,13.454,29.991,29.991,29.991h126.116c4.096,0,7.621,2.478,9.163,6.012c-44.523,5.366-79.142,43.373-79.142,89.319
			v53.624c0,49.611,40.362,89.973,89.973,89.973S512,471.568,512,421.957v-53.624C512,322.002,476.797,283.743,431.735,278.885z
			 M97.971,20.064h131.677c8.976,0,16.278,7.302,16.278,16.278v147.536c-4.898-2.47-10.429-3.862-16.278-3.862H97.971V20.064z
			 M97.971,219.018V200.01h131.677c8.976,0,16.278,7.302,16.278,16.278c0,0.948,0.141,1.861,0.387,2.73H97.971z M265.92,216.288
			c0-8.975,7.303-16.278,16.278-16.278h131.677v19.008H265.533C265.78,218.149,265.92,217.236,265.92,216.288z M492.006,421.957
			c0,38.586-31.392,69.979-69.979,69.979c-38.587,0-69.979-31.393-69.979-69.979v-53.624c0-38.586,31.392-69.979,69.979-69.979
			c38.587,0,69.979,31.393,69.979,69.979V421.957z"/>
	</g>
</g>
<g>
	<g>
		<path d="M465.919,374.208h-33.895v-46.557c0-5.521-4.477-9.997-9.997-9.997c-5.52,0-9.997,4.476-9.997,9.997v46.557h-33.894
			c-5.52,0-9.997,4.476-9.997,9.997s4.477,9.997,9.997,9.997h87.783c5.52,0,9.997-4.476,9.997-9.997
			S471.439,374.208,465.919,374.208z"/>
	</g>
</g>
<g>
	<g>
		<path d="M465.919,411.96c-5.52,0-9.997,4.476-9.997,9.997c0,18.689-15.204,33.894-33.894,33.894c-5.52,0-9.997,4.476-9.997,9.997
			s4.477,9.997,9.997,9.997c29.714,0,53.888-24.174,53.888-53.888C475.916,416.436,471.439,411.96,465.919,411.96z"/>
	</g>
</g>
<g>
	<g>
		<path d="M211.315,356.986c-4.898-38.878-38.171-69.05-78.355-69.05c-40.185,0-73.457,30.172-78.355,69.05
			C24.241,358.49,0,383.667,0,414.396c0,31.696,25.786,57.483,57.483,57.483h150.955c31.696,0,57.483-25.786,57.483-57.483
			C265.92,383.667,241.679,358.49,211.315,356.986z M208.437,451.885H57.483c-20.672,0-37.489-16.817-37.489-37.489
			c0-20.672,16.817-37.489,37.489-37.489c1.707,0,3.438,0.119,5.146,0.353c2.875,0.398,5.775-0.48,7.954-2.392
			c2.178-1.913,3.419-4.679,3.4-7.578l-0.005-0.38c0-32.523,26.459-58.982,58.982-58.982c32.523,0,58.982,26.459,58.981,59.047
			l-0.005,0.314c-0.019,2.899,1.223,5.664,3.4,7.578c2.179,1.913,5.079,2.787,7.954,2.392c1.708-0.234,3.439-0.353,5.146-0.353
			c20.672,0,37.489,16.817,37.489,37.489C245.925,435.067,229.109,451.885,208.437,451.885z"/>
	</g>
</g>
<g>
	<g>
		<path d="M430.939,75.984c-1.858-1.859-4.438-2.919-7.067-2.919c-2.629,0-5.208,1.06-7.068,2.919
			c-1.859,1.869-2.929,4.449-2.929,7.078s1.069,5.198,2.929,7.068c1.859,1.859,4.439,2.929,7.068,2.929
			c2.629,0,5.208-1.07,7.067-2.929c1.859-1.859,2.93-4.439,2.93-7.068C433.87,80.423,432.8,77.854,430.939,75.984z"/>
	</g>
</g>
<g>
	<g>
		<path d="M43.306,316.202c-1.858-1.859-4.438-2.929-7.067-2.929s-5.208,1.07-7.068,2.929c-1.869,1.859-2.929,4.439-2.929,7.068
			s1.06,5.208,2.929,7.068c1.859,1.859,4.429,2.929,7.068,2.929c2.629,0,5.208-1.07,7.067-2.929c1.859-1.859,2.93-4.439,2.93-7.068
			S45.166,318.061,43.306,316.202z"/>
	</g>
</g>
<g>
	<g>
		<path d="M365.052,46.056h-50.309c-5.52,0-9.997,4.476-9.997,9.997c0,5.521,4.477,9.997,9.997,9.997h50.309
			c5.52,0,9.997-4.476,9.997-9.997C375.049,50.532,370.574,46.056,365.052,46.056z"/>
	</g>
</g>
<g>
	<g>
		<path d="M365.052,90.043h-50.309c-5.52,0-9.997,4.476-9.997,9.997s4.477,9.997,9.997,9.997h50.309c5.52,0,9.997-4.476,9.997-9.997
			S370.574,90.043,365.052,90.043z"/>
	</g>
</g>
<g>
	<g>
		<path d="M365.052,134.03h-50.309c-5.52,0-9.997,4.476-9.997,9.997c0,5.521,4.477,9.997,9.997,9.997h50.309
			c5.52,0,9.997-4.476,9.997-9.997C375.049,138.505,370.574,134.03,365.052,134.03z"/>
	</g>
</g>
<g>
	<g>
		<path d="M197.103,46.056h-50.309c-5.52,0-9.997,4.476-9.997,9.997c0,5.521,4.476,9.997,9.997,9.997h50.309
			c5.52,0,9.997-4.476,9.997-9.997C207.1,50.532,202.623,46.056,197.103,46.056z"/>
	</g>
</g>
<g>
	<g>
		<path d="M197.103,90.043h-50.309c-5.52,0-9.997,4.476-9.997,9.997s4.476,9.997,9.997,9.997h50.309c5.52,0,9.997-4.476,9.997-9.997
			S202.623,90.043,197.103,90.043z"/>
	</g>
</g>
<g>
	<g>
		<path d="M197.103,134.03h-50.309c-5.52,0-9.997,4.476-9.997,9.997c0,5.521,4.476,9.997,9.997,9.997h50.309
			c5.52,0,9.997-4.476,9.997-9.997C207.1,138.505,202.623,134.03,197.103,134.03z"/>
	</g>
</g>
<g>
</g>
<g>
</g>
<g>
</g>
<g>
</g>
<g>
</g>
<g>
</g>
<g>
</g>
<g>
</g>
<g>
</g>
<g>
</g>
<g>
</g>
<g>
</g>
<g>
</g>
<g>
</g>
<g>
</g>
</svg>
