<svg width="8" height="15" viewBox="0 0 8 15" fill="none" xmlns="http://www.w3.org/2000/svg">
<path d="M5.90211 14.6312C6.25071 15.0596 6.88057 15.1242 7.30893 14.7756C7.7373 14.427 7.80196 13.7972 7.45336 13.3688L5.90211 14.6312ZM1.50153 7.63942L0.692501 7.05166C0.425952 7.41855 0.439664 7.91888 0.72591 8.27062L1.50153 7.63942ZM7.13061 1.59265C7.45522 1.14583 7.35616 0.520464 6.90934 0.19585C6.46253 -0.128765 5.83716 -0.0297013 5.51255 0.417114L7.13061 1.59265ZM7.45336 13.3688L2.27715 7.00823L0.72591 8.27062L5.90211 14.6312L7.45336 13.3688ZM2.31056 8.22719L7.13061 1.59265L5.51255 0.417114L0.692501 7.05166L2.31056 8.22719Z" fill="#9D9D9D"/>
</svg>
