<svg width="42" height="32" viewBox="0 0 42 32" fill="none" xmlns="http://www.w3.org/2000/svg">
<path d="M1 16.9261L6.00496 21.9L14.2632 13.1" stroke="#525252"/>
<path d="M40.7368 31.2C40.7368 27.6991 39.2231 24.3417 36.5284 21.8662C33.8338 19.3907 30.1791 18 26.3684 18C22.5577 18 18.903 19.3907 16.2084 21.8662C13.5138 24.3417 12 27.6991 12 31.2H26.3684H40.7368Z" stroke="#525252"/>
<path d="M25.6316 14.2C29.2941 14.2 32.2632 11.2451 32.2632 7.6C32.2632 3.95492 29.2941 1 25.6316 1C21.9691 1 19 3.95492 19 7.6C19 11.2451 21.9691 14.2 25.6316 14.2Z" stroke="#525252"/>
</svg>
