<svg width="19" height="20" viewBox="0 0 19 20" fill="none" xmlns="http://www.w3.org/2000/svg">
<path d="M1 7.73913L3.26415 10L7 6" stroke="#525252"/>
<mask id="path-2-inside-1" fill="white">
<path d="M19 14C19 12.4087 18.3152 10.8826 17.0962 9.75736C15.8772 8.63214 14.2239 8 12.5 8C10.7761 8 9.12279 8.63214 7.90381 9.75736C6.68482 10.8826 6 12.4087 6 14L12.5 14H19Z"/>
</mask>
<path d="M19 14C19 12.4087 18.3152 10.8826 17.0962 9.75736C15.8772 8.63214 14.2239 8 12.5 8C10.7761 8 9.12279 8.63214 7.90381 9.75736C6.68482 10.8826 6 12.4087 6 14L12.5 14H19Z" fill="white" stroke="#525252" stroke-width="2" mask="url(#path-2-inside-1)"/>
<circle cx="12.5" cy="3.5" r="3" fill="white" stroke="#525252"/>
</svg>
