<svg width="7" height="15" viewBox="0 0 7 15" fill="none" xmlns="http://www.w3.org/2000/svg">
<path d="M1.79262 0.390289C1.45589 -0.0474649 0.828043 -0.129358 0.390289 0.207376C-0.0474649 0.54411 -0.129358 1.17196 0.207376 1.60971L1.79262 0.390289ZM6 7.5L6.79262 8.10971C7.06913 7.75026 7.06913 7.24974 6.79262 6.89029L6 7.5ZM0.207376 13.3903C-0.129358 13.828 -0.0474649 14.4559 0.390289 14.7926C0.828043 15.1294 1.45589 15.0475 1.79262 14.6097L0.207376 13.3903ZM0.207376 1.60971L5.20738 8.10971L6.79262 6.89029L1.79262 0.390289L0.207376 1.60971ZM5.20738 6.89029L0.207376 13.3903L1.79262 14.6097L6.79262 8.10971L5.20738 6.89029Z" fill="#9D9D9D"/>
</svg>
