<svg width="2261" height="476" viewBox="0 0 2261 476" fill="none" xmlns="http://www.w3.org/2000/svg">
<path d="M290.101 329.078C276.917 344.866 258.281 357.154 234.192 365.943C210.104 374.57 183.411 378.883 154.114 378.883C123.353 378.883 96.3343 372.21 73.0596 358.863C49.9476 345.354 32.0439 325.823 19.3486 300.27C6.81608 274.716 0.387044 244.687 0.0615234 210.182V186.012C0.0615234 150.53 6.00228 119.85 17.8838 93.9707C29.9281 67.929 47.1807 48.0723 69.6416 34.4004C92.2653 20.5658 118.714 13.6484 148.987 13.6484C191.142 13.6484 224.101 23.7396 247.864 43.9219C271.627 63.9414 285.706 93.1569 290.101 131.568H218.812C215.556 111.223 208.313 96.3307 197.083 86.8906C186.015 77.4505 170.716 72.7305 151.185 72.7305C126.282 72.7305 107.321 82.0892 94.2998 100.807C81.279 119.524 74.6872 147.356 74.5244 184.303V207.008C74.5244 244.28 81.6045 272.438 95.7646 291.48C109.925 310.523 130.677 320.045 158.021 320.045C185.527 320.045 205.14 314.186 216.858 302.467V241.188H150.208V187.232H290.101V329.078ZM533.997 280.738C533.997 266.904 529.114 256.324 519.349 249C509.583 241.513 492.005 233.701 466.614 225.562C441.224 217.262 421.123 209.124 406.312 201.148C365.947 179.339 345.765 149.96 345.765 113.014C345.765 93.8079 351.136 76.7181 361.878 61.7441C372.783 46.6074 388.326 34.8073 408.509 26.3438C428.854 17.8802 451.64 13.6484 476.868 13.6484C502.259 13.6484 524.882 18.2871 544.739 27.5645C564.596 36.679 579.977 49.6185 590.882 66.3828C601.95 83.1471 607.483 102.19 607.483 123.512H534.241C534.241 107.236 529.114 94.6217 518.86 85.6699C508.606 76.5553 494.202 71.998 475.647 71.998C457.744 71.998 443.828 75.8229 433.899 83.4727C423.971 90.9596 419.007 100.888 419.007 113.258C419.007 124.814 424.785 134.498 436.341 142.311C448.06 150.123 465.231 157.447 487.854 164.283C529.521 176.816 559.876 192.359 578.919 210.914C597.962 229.469 607.483 252.581 607.483 280.25C607.483 311.012 595.846 335.182 572.571 352.76C549.297 370.175 517.965 378.883 478.577 378.883C451.233 378.883 426.331 373.919 403.87 363.99C381.409 353.899 364.238 340.146 352.356 322.73C340.638 305.315 334.778 285.133 334.778 262.184H408.265C408.265 301.409 431.702 321.021 478.577 321.021C495.993 321.021 509.583 317.522 519.349 310.523C529.114 303.362 533.997 293.434 533.997 280.738ZM871.155 219.947H730.53V315.162H895.569V374H657.288V18.5312H895.081V77.8574H730.53V162.574H871.155V219.947ZM1034.24 18.5312L1125.55 276.344L1216.37 18.5312H1312.56V374H1239.08V276.832L1246.4 109.107L1150.45 374H1100.16L1004.46 109.352L1011.78 276.832V374H938.538V18.5312H1034.24Z" fill="black"/>
<path d="M1423.82 142.751C1443.76 118.272 1469.69 106.033 1501.63 106.033C1557.23 106.033 1585.28 137.401 1585.76 200.138V374H1540.78V199.895C1540.62 180.928 1536.24 166.905 1527.65 157.827C1519.22 148.749 1506.01 144.21 1488.01 144.21C1473.42 144.21 1460.62 148.101 1449.59 155.882C1438.57 163.663 1429.98 173.876 1423.82 186.521V374H1378.83V0.5H1423.82V142.751ZM1762.3 378.863C1726.64 378.863 1697.62 367.191 1675.25 343.848C1652.88 320.342 1641.69 288.974 1641.69 249.743V241.476C1641.69 215.376 1646.64 192.113 1656.52 171.688C1666.58 151.1 1680.52 135.051 1698.35 123.541C1716.34 111.869 1735.8 106.033 1756.71 106.033C1790.91 106.033 1817.5 117.3 1836.47 139.833C1855.43 162.366 1864.92 194.626 1864.92 236.612V255.336H1686.68C1687.33 281.273 1694.86 302.267 1709.29 318.315C1723.88 334.202 1742.36 342.146 1764.73 342.146C1780.62 342.146 1794.07 338.903 1805.1 332.419C1816.12 325.935 1825.77 317.343 1834.03 306.644L1861.51 328.042C1839.46 361.923 1806.39 378.863 1762.3 378.863ZM1756.71 142.994C1738.55 142.994 1723.31 149.641 1710.99 162.934C1698.67 176.064 1691.05 194.545 1688.14 218.375H1819.93V214.971C1818.63 192.113 1812.47 174.443 1801.45 161.961C1790.43 149.316 1775.51 142.994 1756.71 142.994ZM1966.07 374H1921.09V0.5H1966.07V374ZM2260.54 245.366C2260.54 285.407 2251.38 317.667 2233.07 342.146C2214.75 366.624 2189.95 378.863 2158.66 378.863C2126.72 378.863 2101.6 368.731 2083.28 348.468V475.156H2038.29V110.896H2079.39L2081.58 140.076C2099.89 117.381 2125.34 106.033 2157.93 106.033C2189.54 106.033 2214.5 117.948 2232.82 141.778C2251.3 165.608 2260.54 198.76 2260.54 241.232V245.366ZM2215.56 240.26C2215.56 210.594 2209.24 187.169 2196.59 169.985C2183.95 152.802 2166.6 144.21 2144.55 144.21C2117.32 144.21 2096.89 156.287 2083.28 180.441V306.157C2096.73 330.149 2117.32 342.146 2145.04 342.146C2166.6 342.146 2183.7 333.635 2196.35 316.613C2209.16 299.43 2215.56 273.979 2215.56 240.26Z" fill="#F4B042"/>
</svg>
