<svg width="10" height="10" viewBox="0 0 10 10" fill="none" xmlns="http://www.w3.org/2000/svg">
<path d="M5.13922 0.434814C2.65394 0.434814 0.639221 2.44953 0.639221 4.93481C0.639221 7.42009 2.65394 9.43481 5.13922 9.43481C7.6245 9.43481 9.63922 7.42009 9.63922 4.93481C9.63604 2.45086 7.62317 0.438 5.13922 0.434814ZM5.33227 9.03906V8.24756C5.33227 8.14094 5.24583 8.05451 5.13922 8.05451C5.03261 8.05451 4.94617 8.14094 4.94617 8.24756V9.03906C2.82935 8.938 1.13604 7.24468 1.03497 5.12786H1.82648C1.93309 5.12786 2.01953 5.04143 2.01953 4.93481C2.01953 4.8282 1.93309 4.74176 1.82648 4.74176H1.03497C1.13604 2.62494 2.82935 0.931629 4.94617 0.830567V1.62207C4.94617 1.72869 5.03261 1.81512 5.13922 1.81512C5.24583 1.81512 5.33227 1.72869 5.33227 1.62207V0.830567C7.44909 0.931629 9.14241 2.62494 9.24347 4.74176H8.45196C8.34535 4.74176 8.25891 4.8282 8.25891 4.93481C8.25891 5.04143 8.34535 5.12786 8.45196 5.12786H8.45389H9.2454C9.14426 7.24538 7.44984 8.93896 5.33227 9.03906Z" fill="#7D7D7D"/>
</svg>
