<svg width="11" height="11" viewBox="0 0 11 11" fill="none" xmlns="http://www.w3.org/2000/svg">
<path d="M8.13602 0.854324C8.04783 0.4221 7.66491 0.0957031 7.2069 0.0957031C7.10202 0.0957031 7.01724 0.180479 7.01724 0.285358C7.01724 0.390238 7.10202 0.475013 7.2069 0.475013C7.52059 0.475013 7.77586 0.730289 7.77586 1.04398C7.77586 1.35767 7.52059 1.61294 7.2069 1.61294C7.10202 1.61294 7.01724 1.69772 7.01724 1.8026C7.01724 1.90748 7.10202 1.99225 7.2069 1.99225C7.66472 1.99225 8.04783 1.66586 8.13602 1.23363H10.6207V2.94053H0.37931V1.23363H3.03448H3.60345C3.70833 1.23363 3.7931 1.14886 3.7931 1.04398C3.7931 0.9391 3.70833 0.854324 3.60345 0.854324H3.25903C3.33755 0.633945 3.54617 0.475013 3.7931 0.475013C4.10679 0.475013 4.36207 0.730289 4.36207 1.04398C4.36207 1.35767 4.10679 1.61294 3.7931 1.61294C3.68822 1.61294 3.60345 1.69772 3.60345 1.8026C3.60345 1.90748 3.68822 1.99225 3.7931 1.99225C4.31598 1.99225 4.74138 1.56686 4.74138 1.04398C4.74138 0.5211 4.31598 0.0957031 3.7931 0.0957031C3.33528 0.0957031 2.95217 0.4221 2.86398 0.854324H0V3.31984V10.906H11V3.31984V0.854324H8.13602ZM10.6207 10.5267H0.37931V3.31984H10.6207V10.5267Z" fill="#5D4542"/>
<path d="M4.93184 0.475013C5.24553 0.475013 5.50081 0.730289 5.50081 1.04398C5.50081 1.35767 5.24553 1.61294 4.93184 1.61294C4.82696 1.61294 4.74219 1.69772 4.74219 1.8026C4.74219 1.90748 4.82696 1.99225 4.93184 1.99225C5.45472 1.99225 5.88012 1.56686 5.88012 1.04398C5.88012 0.5211 5.45472 0.0957031 4.93184 0.0957031C4.82696 0.0957031 4.74219 0.180479 4.74219 0.285358C4.74219 0.390238 4.82696 0.475013 4.93184 0.475013Z" fill="#5D4542"/>
<path d="M6.06856 0.475013C6.38225 0.475013 6.63753 0.730289 6.63753 1.04398C6.63753 1.35767 6.38225 1.61294 6.06856 1.61294C5.96368 1.61294 5.87891 1.69772 5.87891 1.8026C5.87891 1.90748 5.96368 1.99225 6.06856 1.99225C6.59144 1.99225 7.01684 1.56686 7.01684 1.04398C7.01684 0.5211 6.59144 0.0957031 6.06856 0.0957031C5.96368 0.0957031 5.87891 0.180479 5.87891 0.285358C5.87891 0.390238 5.96368 0.475013 6.06856 0.475013Z" fill="#5D4542"/>
<path d="M4.17208 4.83634C4.27682 4.83634 4.36173 4.75143 4.36173 4.64669C4.36173 4.54194 4.27682 4.45703 4.17208 4.45703C4.06733 4.45703 3.98242 4.54194 3.98242 4.64669C3.98242 4.75143 4.06733 4.83634 4.17208 4.83634Z" fill="#5D4542"/>
<path d="M5.5002 4.83634C5.60495 4.83634 5.68986 4.75143 5.68986 4.64669C5.68986 4.54194 5.60495 4.45703 5.5002 4.45703C5.39546 4.45703 5.31055 4.54194 5.31055 4.64669C5.31055 4.75143 5.39546 4.83634 5.5002 4.83634Z" fill="#5D4542"/>
<path d="M6.82833 4.83634C6.93307 4.83634 7.01798 4.75143 7.01798 4.64669C7.01798 4.54194 6.93307 4.45703 6.82833 4.45703C6.72358 4.45703 6.63867 4.54194 6.63867 4.64669C6.63867 4.75143 6.72358 4.83634 6.82833 4.83634Z" fill="#5D4542"/>
<path d="M8.1545 4.83634C8.25924 4.83634 8.34415 4.75143 8.34415 4.64669C8.34415 4.54194 8.25924 4.45703 8.1545 4.45703C8.04975 4.45703 7.96484 4.54194 7.96484 4.64669C7.96484 4.75143 8.04975 4.83634 8.1545 4.83634Z" fill="#5D4542"/>
<path d="M9.48263 4.83634C9.58737 4.83634 9.67228 4.75143 9.67228 4.64669C9.67228 4.54194 9.58737 4.45703 9.48263 4.45703C9.37788 4.45703 9.29297 4.54194 9.29297 4.64669C9.29297 4.75143 9.37788 4.83634 9.48263 4.83634Z" fill="#5D4542"/>
<path d="M1.51778 6.35392C1.62252 6.35392 1.70744 6.26901 1.70744 6.16426C1.70744 6.05952 1.62252 5.97461 1.51778 5.97461C1.41304 5.97461 1.32812 6.05952 1.32812 6.16426C1.32812 6.26901 1.41304 6.35392 1.51778 6.35392Z" fill="#5D4542"/>
<path d="M2.84591 6.35392C2.95065 6.35392 3.03556 6.26901 3.03556 6.16426C3.03556 6.05952 2.95065 5.97461 2.84591 5.97461C2.74116 5.97461 2.65625 6.05952 2.65625 6.16426C2.65625 6.26901 2.74116 6.35392 2.84591 6.35392Z" fill="#5D4542"/>
<path d="M4.17208 6.35392C4.27682 6.35392 4.36173 6.26901 4.36173 6.16426C4.36173 6.05952 4.27682 5.97461 4.17208 5.97461C4.06733 5.97461 3.98242 6.05952 3.98242 6.16426C3.98242 6.26901 4.06733 6.35392 4.17208 6.35392Z" fill="#5D4542"/>
<path d="M5.5002 6.35392C5.60495 6.35392 5.68986 6.26901 5.68986 6.16426C5.68986 6.05952 5.60495 5.97461 5.5002 5.97461C5.39546 5.97461 5.31055 6.05952 5.31055 6.16426C5.31055 6.26901 5.39546 6.35392 5.5002 6.35392Z" fill="#5D4542"/>
<path d="M6.82833 6.35392C6.93307 6.35392 7.01798 6.26901 7.01798 6.16426C7.01798 6.05952 6.93307 5.97461 6.82833 5.97461C6.72358 5.97461 6.63867 6.05952 6.63867 6.16426C6.63867 6.26901 6.72358 6.35392 6.82833 6.35392Z" fill="#5D4542"/>
<path d="M8.1545 6.35392C8.25924 6.35392 8.34415 6.26901 8.34415 6.16426C8.34415 6.05952 8.25924 5.97461 8.1545 5.97461C8.04975 5.97461 7.96484 6.05952 7.96484 6.16426C7.96484 6.26901 8.04975 6.35392 8.1545 6.35392Z" fill="#5D4542"/>
<path d="M9.48263 6.35392C9.58737 6.35392 9.67228 6.26901 9.67228 6.16426C9.67228 6.05952 9.58737 5.97461 9.48263 5.97461C9.37788 5.97461 9.29297 6.05952 9.29297 6.16426C9.29297 6.26901 9.37788 6.35392 9.48263 6.35392Z" fill="#5D4542"/>
<path d="M1.51778 7.68204C1.62252 7.68204 1.70744 7.59713 1.70744 7.49239C1.70744 7.38765 1.62252 7.30273 1.51778 7.30273C1.41304 7.30273 1.32812 7.38765 1.32812 7.49239C1.32812 7.59713 1.41304 7.68204 1.51778 7.68204Z" fill="#5D4542"/>
<path d="M2.84591 7.68204C2.95065 7.68204 3.03556 7.59713 3.03556 7.49239C3.03556 7.38765 2.95065 7.30273 2.84591 7.30273C2.74116 7.30273 2.65625 7.38765 2.65625 7.49239C2.65625 7.59713 2.74116 7.68204 2.84591 7.68204Z" fill="#5D4542"/>
<path d="M4.17208 7.68204C4.27682 7.68204 4.36173 7.59713 4.36173 7.49239C4.36173 7.38765 4.27682 7.30273 4.17208 7.30273C4.06733 7.30273 3.98242 7.38765 3.98242 7.49239C3.98242 7.59713 4.06733 7.68204 4.17208 7.68204Z" fill="#5D4542"/>
<path d="M5.5002 7.68204C5.60495 7.68204 5.68986 7.59713 5.68986 7.49239C5.68986 7.38765 5.60495 7.30273 5.5002 7.30273C5.39546 7.30273 5.31055 7.38765 5.31055 7.49239C5.31055 7.59713 5.39546 7.68204 5.5002 7.68204Z" fill="#5D4542"/>
<path d="M6.82833 7.68204C6.93307 7.68204 7.01798 7.59713 7.01798 7.49239C7.01798 7.38765 6.93307 7.30273 6.82833 7.30273C6.72358 7.30273 6.63867 7.38765 6.63867 7.49239C6.63867 7.59713 6.72358 7.68204 6.82833 7.68204Z" fill="#5D4542"/>
<path d="M8.1545 7.68204C8.25924 7.68204 8.34415 7.59713 8.34415 7.49239C8.34415 7.38765 8.25924 7.30273 8.1545 7.30273C8.04975 7.30273 7.96484 7.38765 7.96484 7.49239C7.96484 7.59713 8.04975 7.68204 8.1545 7.68204Z" fill="#5D4542"/>
<path d="M9.48263 7.68204C9.58737 7.68204 9.67228 7.59713 9.67228 7.49239C9.67228 7.38765 9.58737 7.30273 9.48263 7.30273C9.37788 7.30273 9.29297 7.38765 9.29297 7.49239C9.29297 7.59713 9.37788 7.68204 9.48263 7.68204Z" fill="#5D4542"/>
<path d="M1.51778 9.19962C1.62252 9.19962 1.70744 9.11471 1.70744 9.00997C1.70744 8.90522 1.62252 8.82031 1.51778 8.82031C1.41304 8.82031 1.32812 8.90522 1.32812 9.00997C1.32812 9.11471 1.41304 9.19962 1.51778 9.19962Z" fill="#5D4542"/>
<path d="M2.84591 9.19962C2.95065 9.19962 3.03556 9.11471 3.03556 9.00997C3.03556 8.90522 2.95065 8.82031 2.84591 8.82031C2.74116 8.82031 2.65625 8.90522 2.65625 9.00997C2.65625 9.11471 2.74116 9.19962 2.84591 9.19962Z" fill="#5D4542"/>
<path d="M4.17208 9.19962C4.27682 9.19962 4.36173 9.11471 4.36173 9.00997C4.36173 8.90522 4.27682 8.82031 4.17208 8.82031C4.06733 8.82031 3.98242 8.90522 3.98242 9.00997C3.98242 9.11471 4.06733 9.19962 4.17208 9.19962Z" fill="#5D4542"/>
<path d="M5.5002 9.19962C5.60495 9.19962 5.68986 9.11471 5.68986 9.00997C5.68986 8.90522 5.60495 8.82031 5.5002 8.82031C5.39546 8.82031 5.31055 8.90522 5.31055 9.00997C5.31055 9.11471 5.39546 9.19962 5.5002 9.19962Z" fill="#5D4542"/>
<path d="M6.82833 9.19962C6.93307 9.19962 7.01798 9.11471 7.01798 9.00997C7.01798 8.90522 6.93307 8.82031 6.82833 8.82031C6.72358 8.82031 6.63867 8.90522 6.63867 9.00997C6.63867 9.11471 6.72358 9.19962 6.82833 9.19962Z" fill="#5D4542"/>
</svg>
