<svg width="1139" height="1030" viewBox="0 0 1139 1030" fill="none" xmlns="http://www.w3.org/2000/svg">
<path opacity="0.5" d="M667.638 646.46C662.932 645.736 658.226 644.288 654.606 642.116C643.384 635.6 643.384 625.102 654.606 618.586C665.828 612.07 684.29 612.07 695.512 618.586C699.132 620.758 701.666 623.292 703.114 626.188L781.306 580.938L614.424 484.646C600.306 476.682 577.862 476.682 563.744 484.646L396.862 580.938L473.606 625.102C470.71 625.826 467.814 626.912 465.28 628.36C454.058 634.876 454.058 645.374 465.28 651.89C476.502 658.406 494.964 658.406 506.186 651.89C508.72 650.442 510.53 648.994 511.978 647.184L588.722 691.348L667.638 646.46Z" fill="#173D7A"/>
<path opacity="0.5" d="M1040.86 748.182L873.979 651.89L795.787 697.14C794.701 694.244 792.167 691.71 788.185 689.538C776.963 683.022 758.501 683.022 747.279 689.538C736.057 696.054 736.057 706.552 747.279 713.068C750.899 715.24 755.605 716.688 760.311 717.412L682.119 762.662L762.845 809.36C763.207 805.378 766.103 801.758 771.171 798.5C782.393 791.984 800.855 791.984 812.077 798.5C823.299 805.016 823.299 815.514 812.077 822.03C807.009 824.926 800.131 826.736 793.253 826.736L873.979 873.434L1040.86 777.142C1054.98 769.178 1054.98 756.146 1040.86 748.182Z" fill="#173D7A"/>
<path opacity="0.5" d="M429.443 815.152C425.823 812.98 421.117 811.532 416.411 810.808L494.603 765.558L418.221 721.394C416.773 723.204 414.963 724.652 412.429 726.1C401.207 732.616 382.745 732.616 371.523 726.1C360.301 719.584 360.301 709.086 371.523 702.57C374.057 701.122 376.591 700.036 379.849 699.312L303.105 655.148L136.223 751.44C122.105 759.404 122.105 772.798 136.223 780.762L303.105 877.054L381.297 831.804C382.745 834.7 384.917 837.234 388.899 839.406C400.121 845.922 418.583 845.922 429.805 839.406C441.027 832.166 441.027 821.668 429.443 815.152Z" fill="#173D7A"/>
<path opacity="0.5" d="M694.789 888.638C701.305 888.276 707.459 886.828 712.527 883.932C723.387 877.778 723.387 867.642 712.527 861.488C701.667 855.334 684.291 855.334 673.793 861.488C668.725 864.384 666.191 868.004 665.829 871.624L589.447 827.46L515.599 870.176C519.943 870.9 524.287 872.348 527.907 874.158C538.767 880.312 538.767 890.448 527.907 896.602C517.047 902.756 499.671 902.756 489.173 896.602C485.553 894.43 483.381 892.258 482.295 889.724L408.447 932.44L566.279 1023.3C579.673 1030.9 601.031 1030.9 614.425 1023.3L772.257 932.44L694.789 888.638Z" fill="#173D7A"/>
<path d="M770.084 452.066L620.216 365.548C603.202 355.774 575.69 355.774 558.676 365.548L401.568 456.41L356.68 438.31V482.474L429.442 524.466V553.788C429.08 559.218 432.7 564.648 439.578 568.63C453.334 576.594 475.416 576.594 489.172 568.63C492.068 566.82 494.602 565.01 496.05 562.838L589.084 616.414L683.928 561.752V522.656C695.512 520.846 708.544 522.656 717.594 528.086C722.3 530.62 725.196 533.878 726.644 537.136L821.488 482.474V438.31L770.084 452.066Z" fill="#FC6151"/>
<path d="M675.602 521.208L674.154 523.38H674.878L589.446 572.612L496.412 519.036C494.602 521.208 492.43 523.018 489.534 524.828C475.778 532.792 453.696 532.792 439.94 524.828C434.51 521.57 431.252 517.588 430.166 513.606C428.718 519.76 431.976 526.276 439.94 530.982C453.696 538.946 475.778 538.946 489.534 530.982C492.43 529.172 494.964 527.362 496.412 525.19L589.446 578.766L684.29 524.104V518.312L675.602 521.208Z" fill="white"/>
<path d="M684.29 517.588C678.498 516.864 673.068 515.054 668.362 512.158C654.606 504.194 654.606 491.524 668.362 483.56C682.118 475.596 704.2 475.596 717.956 483.56C722.662 486.094 725.558 489.352 727.006 492.61L821.85 437.948L619.854 321.384C602.84 311.61 575.328 311.61 558.314 321.384L356.68 438.31L449.714 491.886C446.094 492.972 442.836 494.058 439.94 495.868C426.184 503.832 426.184 516.502 439.94 524.466C453.696 532.43 475.778 532.43 489.534 524.466C492.43 522.656 494.964 520.846 496.412 518.674L589.446 572.25L684.29 517.588Z" fill="#F75252"/>
<path d="M449.714 491.886L356.68 438.31V444.102L443.198 494.058C445.37 493.334 447.542 492.61 449.714 491.886Z" fill="white"/>
<path d="M727.006 492.972C725.558 489.714 722.3 486.456 717.956 483.922C704.2 475.958 682.118 475.958 668.362 483.922C660.036 488.628 656.778 495.144 658.588 501.298C659.674 496.954 662.932 492.972 668.362 490.076C682.118 482.112 704.2 482.112 717.956 490.076C722.662 492.61 725.558 495.868 727.006 499.126L821.85 444.464V438.672L727.006 492.972Z" fill="white"/>
<path d="M1056.43 630.17L875.789 525.914L780.945 580.576C779.497 577.318 776.239 574.06 771.895 571.526C767.189 568.63 761.397 566.82 755.243 566.096C752.347 562.114 741.849 549.806 741.125 549.444C740.039 549.082 712.165 541.118 712.165 541.118V585.282C712.165 590.712 715.423 595.78 722.301 599.762C727.007 602.296 732.437 604.106 738.229 605.192L690.445 632.704L643.385 615.69V659.854L741.125 716.326C741.487 711.62 745.107 706.914 751.261 703.294C758.863 698.95 768.637 697.14 778.411 697.502V738.046L876.151 794.518L1078.15 677.954C1086.83 672.886 1091.18 666.37 1090.82 659.854V616.776L1056.43 630.17Z" fill="#5E5E5E"/>
<path d="M740.763 638.134V716.688C741.125 711.982 744.745 707.276 750.899 703.656C764.655 695.692 786.737 695.692 800.493 703.656C803.389 705.466 805.561 707.276 807.371 709.448C814.611 707.276 822.213 705.828 830.177 705.466V638.496H740.763V638.134Z" fill="#3F3F3F"/>
<path d="M875.788 525.914L875.064 526.276V794.156L875.788 794.518L1077.78 677.954C1086.47 672.886 1090.82 666.37 1090.45 659.854V616.776L1056.43 630.532L875.788 525.914Z" fill="#3D3D3D"/>
<path d="M778.049 706.914V693.882L788.909 700.398L778.049 706.914Z" fill="#396CAA"/>
<path d="M1090.09 618.948C1089.01 624.378 1085.02 629.446 1077.78 633.79L875.788 750.354L790.718 701.122C790.718 699.674 790.356 697.14 790.356 697.14L778.41 693.882V699.674L876.15 756.146L1078.15 639.582C1087.56 634.152 1091.54 626.55 1090.09 618.948Z" fill="white"/>
<path d="M1077.78 598.314L875.789 481.75L780.945 536.412C779.497 533.154 776.239 529.896 771.895 527.362C758.139 519.398 736.057 519.398 722.301 527.362C708.545 535.326 708.545 547.996 722.301 555.96C727.007 558.494 732.437 560.304 738.229 561.39L643.385 616.052L741.125 672.524C741.487 667.818 745.107 663.112 751.261 659.492C765.017 651.528 787.099 651.528 800.855 659.492C814.611 667.456 814.611 680.126 800.855 688.09C794.701 691.71 786.375 693.52 778.411 693.882L876.151 750.354L1078.15 633.79C1094.44 624.016 1094.44 608.088 1077.78 598.314Z" fill="#707070"/>
<path d="M721.939 562.114C724.473 563.562 727.369 564.648 730.627 565.734L737.867 561.39C732.075 560.666 726.645 558.856 721.939 555.96C716.509 552.702 713.251 548.72 712.165 544.738C710.717 550.892 713.975 557.408 721.939 562.114Z" fill="white"/>
<path d="M810.629 676.868C812.077 670.714 808.819 664.198 800.855 659.492C787.099 651.528 765.017 651.528 751.261 659.492C745.107 663.112 741.487 667.818 741.125 672.524L643.385 616.052V621.844L741.125 678.316C741.487 673.61 745.107 668.904 751.261 665.284C765.017 657.32 787.099 657.32 800.855 665.284C806.285 668.542 809.543 672.524 810.629 676.868Z" fill="white"/>
<path d="M534.785 660.216V616.052L488.449 633.428L441.751 606.64C439.941 608.812 437.769 610.622 434.873 612.432C421.117 620.396 399.035 620.396 385.279 612.432C371.885 604.83 371.523 592.16 384.555 584.196L395.415 590.35V535.688H361.749L358.491 558.494L302.381 526.276L123.915 629.446L87.7148 616.414V660.578C87.7148 667.094 92.0588 673.248 100.385 678.316L302.381 794.88L397.225 740.218C398.673 743.476 401.931 746.734 406.275 749.268C420.031 757.232 442.113 757.232 455.869 749.268C463.109 745.286 466.367 739.856 466.005 734.426V700.398L534.785 660.216Z" fill="#173D7A"/>
<path d="M302.018 525.914L123.553 629.084L87.3525 616.052V660.216C87.3525 666.732 91.6965 672.886 100.023 677.954L302.018 794.518V525.914Z" fill="#396CAA"/>
<path d="M387.089 535.688L386.003 538.584L386.365 538.946C386.003 538.946 385.641 539.308 385.279 539.67C376.953 544.376 373.695 550.892 375.505 557.046C376.591 552.702 379.849 548.72 385.279 545.824C388.175 544.014 391.795 542.928 395.053 541.842V536.05L387.089 535.688Z" fill="white"/>
<path d="M455.507 676.144C451.163 673.61 445.733 671.8 439.941 671.076L534.785 616.414L441.751 562.838C439.941 565.01 437.769 566.82 434.873 568.63C421.117 576.594 399.035 576.594 385.279 568.63C371.523 560.666 371.523 547.996 385.279 540.032C388.175 538.222 391.795 537.136 395.053 536.05L302.019 482.474L100.023 599.038C83.0087 608.812 83.0087 624.74 100.023 634.514L302.019 751.078L396.863 696.416C398.311 699.674 401.569 702.932 405.913 705.466C419.669 713.43 441.751 713.43 455.507 705.466C469.263 696.778 469.263 684.108 455.507 676.144Z" fill="#5793CE"/>
<path d="M455.507 704.742C441.751 712.706 419.669 712.706 405.913 704.742C401.569 702.208 398.311 698.95 396.863 695.692L302.019 750.354L100.023 633.79C92.783 629.808 88.801 624.378 87.715 618.948C86.267 626.188 90.249 634.152 100.023 639.582L302.019 756.146L396.863 701.484C398.311 704.742 401.569 708 405.913 710.534C419.669 718.498 441.751 718.498 455.507 710.534C463.833 705.828 467.091 699.312 465.281 693.158C464.557 697.502 461.299 701.484 455.507 704.742Z" fill="white"/>
<path d="M439.941 670.714C442.475 671.076 445.009 671.8 447.181 672.524L534.785 621.844V616.052L439.941 670.714Z" fill="white"/>
<path d="M781.668 811.894L729.178 781.848C737.504 781.486 745.468 779.676 751.622 776.056C757.414 772.798 760.672 768.454 761.758 764.11L762.12 764.472V761.938V717.774L717.956 735.15L728.092 742.028C718.68 742.028 709.268 743.838 702.39 747.82C696.236 751.44 692.616 756.146 692.254 760.852L594.514 704.38L536.956 737.684L531.164 717.774L499.67 715.24V764.11L509.444 761.576C511.616 762.3 513.426 763.386 515.598 764.472C529.354 772.436 529.354 785.106 515.598 793.07C501.842 801.034 479.76 801.034 466.004 793.07C461.66 790.536 458.402 787.278 456.954 784.02L404.464 814.428L362.11 794.88V838.32L564.106 954.884C581.12 964.658 608.632 964.658 625.646 954.884L827.642 838.32V794.156L781.668 811.894Z" fill="#ABF978"/>
<path d="M510.169 720.67C507.997 719.584 505.463 718.498 502.928 717.774L502.205 715.964L494.603 715.602V721.394C500.395 722.118 505.825 723.928 510.169 726.462C515.599 729.72 518.857 733.702 519.943 737.684C521.753 731.892 518.495 725.376 510.169 720.67Z" fill="white"/>
<path d="M724.472 738.77C732.798 738.408 740.762 736.598 746.916 732.978C760.672 725.014 760.672 712.344 746.916 704.38C733.16 696.416 711.078 696.416 697.322 704.38C691.168 708 687.548 712.706 687.186 717.412L589.446 660.94L494.602 715.602C500.394 716.326 505.824 718.136 510.168 720.67C523.924 728.634 523.924 741.304 510.168 749.268C496.412 757.232 474.33 757.232 460.574 749.268C456.23 746.734 452.972 743.476 451.524 740.218L356.68 794.88L558.676 911.444C575.69 921.218 603.202 921.218 620.216 911.444L822.212 794.88L724.472 738.77Z" fill="#24E21A"/>
<path d="M756.691 721.394C755.605 725.738 752.347 729.72 746.917 732.616C740.763 736.236 732.437 738.046 724.473 738.408L733.161 743.476C738.229 742.39 742.935 740.942 747.279 738.408C755.243 734.064 758.501 727.548 756.691 721.394Z" fill="white"/>
<path d="M620.216 911.444C603.202 921.218 575.69 921.218 558.676 911.444L356.68 794.88V800.672L558.676 917.236C575.69 927.01 603.202 927.01 620.216 917.236L822.212 800.672V794.88L620.216 911.444Z" fill="white"/>
<path d="M303.466 680.85C354.848 680.85 396.5 656.863 396.5 627.274C396.5 597.685 354.848 573.698 303.466 573.698C252.085 573.698 210.433 597.685 210.433 627.274C210.433 656.863 252.085 680.85 303.466 680.85Z" fill="#396CAA"/>
<path d="M258.94 77.0339C258.94 77.0339 261.112 118.664 264.008 146.9C267.266 175.136 334.96 125.18 334.96 125.18V93.3239L258.94 77.0339Z" fill="#D3CF7D"/>
<path d="M294.78 596.866C295.866 599.4 313.242 620.758 330.98 626.187C338.582 628.359 343.65 628.722 346.908 628.36C350.166 627.998 352.338 624.378 351.252 621.12C348.356 612.794 339.668 595.056 317.586 584.196C287.902 569.354 294.78 596.866 294.78 596.866Z" fill="#173D7A"/>
<path d="M288.987 605.191C288.987 605.191 295.503 620.757 297.675 633.789C298.761 641.753 294.417 651.889 291.159 658.767C288.987 663.111 283.195 663.835 279.937 660.577C274.145 655.509 266.905 646.459 265.819 633.427C263.647 611.707 265.819 607.725 265.819 607.725L288.987 605.191Z" fill="#173D7A"/>
<path d="M246.995 341.294C246.995 341.294 244.823 368.806 246.995 399.214C249.167 429.622 257.493 572.25 258.941 606.278C258.941 606.278 258.217 616.776 278.127 614.242C298.037 612.07 296.589 600.486 296.589 600.486C296.589 600.486 324.825 600.124 325.549 583.472C326.273 566.82 354.509 384.734 354.509 319.574L246.995 341.294Z" fill="#D4ECFF"/>
<path d="M365.006 198.666L378.762 220.024L426.185 277.582C426.185 277.582 424.375 283.012 418.583 284.46C413.877 285.546 374.056 247.536 356.68 230.522C351.974 226.178 351.25 218.938 354.87 213.508L365.006 198.666Z" fill="#FFC2B0"/>
<path d="M338.219 111.062C338.219 111.062 360.301 110.338 367.903 142.194C375.505 174.05 381.659 213.508 374.781 217.128C354.871 226.902 342.201 215.318 342.201 215.318L338.219 111.062Z" fill="#5793CE"/>
<path d="M344.735 112.148C341.115 110.7 336.771 110.338 332.789 111.424C313.965 116.854 243.737 137.488 232.153 147.262C218.759 158.846 252.063 222.92 251.701 244.278C251.339 265.274 248.805 290.252 246.995 313.058C245.185 335.864 242.651 348.534 261.475 358.308C280.299 368.082 312.155 368.444 336.047 350.344C359.939 332.244 355.595 319.574 354.509 306.18C353.423 292.786 345.459 235.59 346.183 219.3C346.183 219.3 354.509 213.146 361.025 202.286C367.179 191.788 356.319 171.878 351.613 159.208C346.907 146.538 354.147 132.058 352.699 121.56C351.975 116.492 348.717 113.958 344.735 112.148Z" fill="#5793CE"/>
<path d="M290.797 155.588L298.761 164.638C299.847 165.724 300.209 167.534 300.209 168.982L293.331 217.852C292.969 219.3 293.331 220.748 294.417 221.834L311.431 245.364C312.155 246.45 313.965 246.088 314.327 245.002L324.825 214.956C325.187 213.87 325.187 212.422 324.825 211.336L308.897 166.448C308.535 165.362 308.535 164.276 308.897 163.552L311.793 151.968L290.797 155.588Z" fill="white"/>
<path d="M322.291 134.23C323.739 145.814 313.241 156.674 298.399 158.484C283.919 160.294 270.887 152.33 269.439 140.746C267.991 129.162 278.489 118.302 293.331 116.492C307.811 114.682 320.843 122.646 322.291 134.23Z" fill="white"/>
<path d="M314.689 135.316C315.775 143.642 308.173 151.244 297.675 152.692C287.177 154.14 277.765 148.348 277.041 140.022C275.955 131.696 283.557 124.094 294.055 122.646C304.191 121.198 313.603 126.99 314.689 135.316Z" fill="#FFC2B0"/>
<path d="M304.19 108.166C304.19 108.166 291.52 97.6678 288.986 103.098C286.452 108.528 284.28 130.972 284.28 130.972L309.62 137.85L305.638 114.682C306 114.682 311.068 110.338 304.19 108.166Z" fill="#FFC2B0"/>
<path d="M342.231 91.9993C348.263 72.101 337.022 51.0804 317.123 45.0485C297.225 39.0166 276.205 50.2576 270.173 70.1559C264.141 90.0543 275.382 111.075 295.28 117.107C315.178 123.139 336.199 111.898 342.231 91.9993Z" fill="#FFC2B0"/>
<path d="M287.538 109.251C287.176 110.337 287.176 111.785 286.814 112.871C289.348 125.903 308.896 131.695 308.896 131.695L306.001 114.319C306.001 114.319 308.535 112.147 307.811 110.337C299.846 108.165 290.072 105.993 287.538 109.251Z" fill="#EA9C92"/>
<path d="M342.231 91.9993C348.263 72.101 337.022 51.0804 317.123 45.0485C297.225 39.0166 276.205 50.2576 270.173 70.1559C264.141 90.0543 275.382 111.075 295.28 117.107C315.178 123.139 336.199 111.898 342.231 91.9993Z" fill="#FFC2B0"/>
<path d="M213.329 240.295L217.673 340.931L232.515 342.379L241.927 251.879L213.329 240.295Z" fill="#FFC2B0"/>
<path d="M261.836 231.97C261.112 228.35 254.596 225.454 253.51 221.11C248.442 197.58 247.356 163.19 247.356 163.19L243.375 210.612C248.08 224.73 252.062 237.4 252.062 245.002C251.7 257.31 250.976 271.066 249.89 284.822C249.528 284.46 266.542 253.328 261.836 231.97Z" fill="#396CAA"/>
<path d="M235.049 145.452C235.049 145.452 223.103 149.796 216.587 185.996C210.071 222.196 205.003 258.396 216.949 263.102C228.895 267.808 238.669 271.428 242.289 261.654C245.909 251.88 248.081 205.182 248.443 188.53C248.805 171.878 249.167 148.71 235.049 145.452Z" fill="#5793CE"/>
<path d="M422.927 273.238C422.927 273.238 429.443 275.41 433.787 280.478C437.407 284.46 439.579 288.08 441.389 290.614C445.009 296.044 448.267 307.99 446.095 309.438C443.923 310.886 430.891 289.528 429.081 294.596C426.909 299.664 429.081 304.008 426.547 304.37C424.013 304.732 414.601 283.012 407.361 276.496C399.759 269.618 422.927 273.238 422.927 273.238Z" fill="#FFC2B0"/>
<path d="M296.589 600.848C296.589 600.848 300.209 600.848 304.553 600.124L309.983 378.58L296.589 600.848Z" fill="#396CAA"/>
<path d="M275.23 481.026L267.266 470.89L184.73 423.106C182.196 421.658 180.024 417.314 180.024 414.056V346.724L175.318 340.57L179.662 338.036C180.386 337.312 181.472 337.674 182.92 338.398L276.316 392.336C278.85 393.784 281.022 398.128 281.022 401.386V474.872C281.022 476.682 280.298 478.13 279.212 478.854L275.23 481.026Z" fill="#396CAA"/>
<path d="M218.396 442.292L212.604 439.034L180.386 383.286V346.724L175.68 340.57L180.024 338.036C180.748 337.312 181.834 337.674 183.282 338.398L276.678 392.336C278.126 393.06 279.212 394.508 280.298 396.318L218.396 442.292Z" fill="#396CAA"/>
<path d="M177.852 343.104L175.68 340.208L180.024 337.674C180.748 336.95 181.834 337.312 183.282 338.036L185.092 339.122L177.852 343.104Z" fill="#396CAA"/>
<path d="M277.765 392.698C279.937 394.508 281.384 397.766 281.746 400.662L272.696 406.092L268.353 398.49L277.765 392.698Z" fill="#396CAA"/>
<path d="M272.334 394.508L178.938 340.57C176.404 339.122 174.232 340.57 174.232 344.19V417.676C174.232 421.296 176.404 425.278 178.938 426.726L272.334 480.664C274.868 482.112 277.04 480.664 277.04 477.044V403.558C277.04 400.3 274.868 395.956 272.334 394.508Z" fill="#D4ECFF"/>
<path d="M273.783 393.783L180.387 339.845C178.939 339.121 177.491 339.121 176.405 340.207C177.129 340.207 177.853 340.207 178.939 340.569L272.335 394.507C274.869 395.955 277.041 400.299 277.041 403.557V477.043C277.041 478.491 276.679 479.578 275.955 480.302C277.403 479.94 278.489 478.491 278.489 476.319V402.833C278.489 399.213 276.317 395.231 273.783 393.783Z" fill="white"/>
<path d="M253.149 447.36L248.805 444.826V406.454L253.149 408.988V447.36Z" fill="white"/>
<path d="M242.651 441.206L238.307 438.672V400.662L242.651 403.196V441.206Z" fill="white"/>
<path d="M232.514 435.414L227.808 432.88V394.508L232.514 397.042V435.414Z" fill="white"/>
<path d="M217.672 340.208C217.672 340.208 213.69 363.738 214.414 371.34C215.138 378.942 219.12 391.25 222.016 390.888C224.912 390.526 222.016 360.48 227.446 363.738C232.876 366.634 233.238 371.702 235.772 369.892C238.306 368.082 231.428 342.38 233.238 331.158C235.41 320.298 217.672 340.208 217.672 340.208Z" fill="#FFC2B0"/>
<path d="M320.48 84.2739C339.304 91.1519 342.924 86.8079 343.286 86.8079C343.286 85.7219 343.648 84.6359 343.648 83.1879C344.01 78.8439 343.286 74.8619 342.562 71.2419L293.692 64.7259C293.33 64.3639 301.294 77.3959 320.48 84.2739Z" fill="#EA9C92"/>
<path d="M345.095 45.5399C340.751 41.5579 324.462 22.7339 295.864 27.4399C277.764 30.3359 262.56 42.6439 259.302 70.5179C257.13 89.3419 264.008 107.804 276.678 121.56C277.402 121.198 278.126 120.836 278.85 120.474C286.09 115.768 286.814 113.234 286.814 113.234L288.262 99.1159C288.262 96.9439 286.814 95.1338 284.642 95.1338C283.194 95.1338 281.022 94.4099 279.212 91.8759C275.23 86.4459 277.039 78.1199 285.365 77.7579C289.709 77.7579 291.52 75.2238 291.882 73.0518C292.244 71.2418 294.415 70.1559 296.225 70.8799C305.637 74.1379 328.805 81.7399 343.647 77.3959C363.195 71.6039 349.439 49.5219 345.095 45.5399Z" fill="#D3CF7D"/>
<path d="M323.739 101.288L335.323 98.0303C335.323 98.0303 329.893 106.718 321.929 108.89C313.965 111.062 312.517 104.184 312.517 104.184L323.739 101.288Z" fill="white"/>
<path d="M237.221 369.168L227.447 363.738L231.067 369.53L236.135 371.34L237.221 369.168Z" fill="#396CAA"/>
<path d="M284.281 92.6C284.281 94.772 282.471 96.582 280.299 96.582C278.127 96.582 276.317 94.772 276.317 92.6C276.317 90.428 278.127 88.6179 280.299 88.6179C282.471 88.6179 284.281 90.428 284.281 92.6Z" fill="white"/>
<path d="M874.34 667.456C924.922 667.456 965.927 643.794 965.927 614.604C965.927 585.415 924.922 561.752 874.34 561.752C823.759 561.752 782.754 585.415 782.754 614.604C782.754 643.794 823.759 667.456 874.34 667.456Z" fill="#C9C9C9"/>
<path d="M879.77 586.73C878.684 589.264 861.308 610.622 843.57 616.052C835.968 618.224 830.9 618.586 827.28 618.224C824.022 617.862 821.85 614.242 822.936 610.984C825.832 602.296 834.52 584.558 856.602 573.698C886.648 559.218 879.77 586.73 879.77 586.73Z" fill="#191919"/>
<path d="M885.562 595.056C885.562 595.056 879.046 610.622 876.874 623.654C875.788 631.618 880.132 641.754 883.39 648.632C885.562 652.976 891.354 653.7 894.974 650.442C900.766 645.374 908.006 636.324 909.092 623.292C911.264 601.21 909.092 597.59 909.092 597.59L885.562 595.056Z" fill="#191919"/>
<path d="M927.917 330.072C927.917 330.072 930.089 357.584 927.917 388.354C925.745 419.124 917.419 562.114 915.971 596.504C915.971 596.504 916.695 607.002 896.423 604.468C876.151 602.296 877.961 590.712 877.961 590.712C877.961 590.712 849.725 590.35 848.639 573.698C847.915 557.046 819.679 374.236 819.679 308.714L927.917 330.072Z" fill="#5F7E93"/>
<path d="M877.961 590.711C877.961 590.711 874.341 590.711 869.997 589.987L864.566 367.719L877.961 590.711Z" fill="#798B99"/>
<path d="M897.87 126.99C943.483 145.814 942.758 172.964 942.758 172.964C942.758 172.964 933.708 272.152 936.966 338.398C938.414 365.91 789.994 368.082 812.076 294.234C838.14 206.992 828.367 136.764 840.675 125.904C852.621 115.406 886.286 121.922 897.87 126.99Z" fill="#444444"/>
<path d="M912.712 150.881C910.178 160.293 898.232 164.999 885.562 161.741C872.892 158.483 864.566 148.347 867.1 138.935C869.634 129.523 881.58 124.817 894.25 128.075C906.92 131.695 915.246 141.831 912.712 150.881Z" fill="#FFC2B0"/>
<path d="M893.164 165.724C890.268 165.724 887.734 165.362 884.838 164.638C870.72 161.018 861.308 149.072 864.204 138.574C865.652 133.144 869.634 128.8 875.788 126.628C881.58 124.456 888.458 124.094 894.974 125.904C901.49 127.714 907.644 131.334 911.264 136.04C915.246 141.108 916.694 146.9 915.608 152.33C913.074 160.294 904.024 165.724 893.164 165.724ZM886.286 130.248C883.39 130.248 880.494 130.61 877.598 131.696C873.254 133.506 870.358 136.402 869.634 140.022C867.462 147.624 875.064 156.312 885.924 159.208C897.146 162.104 907.644 158.122 909.454 150.158C910.54 146.538 909.454 142.556 906.558 138.936C903.3 134.954 898.594 132.058 893.164 130.972C890.992 130.61 888.82 130.248 886.286 130.248Z" fill="white"/>
<path d="M879.77 124.818C879.77 124.818 880.132 126.628 879.408 141.108C879.046 145.814 894.974 149.796 899.318 145.814C903.3 141.832 901.852 137.488 902.938 121.922C904.024 106.356 879.77 124.818 879.77 124.818Z" fill="#FFC2B0"/>
<path d="M902.577 121.922C902.577 121.922 898.595 136.402 879.409 141.832L879.771 128.8L902.577 121.922Z" fill="#EA9C92"/>
<path d="M914.885 85.3595C919.591 104.183 908.369 123.369 889.545 128.437C870.721 133.143 851.535 121.921 846.467 103.097C841.761 84.2735 852.983 65.0875 871.807 60.0195C890.631 54.9515 909.817 66.5355 914.885 85.3595Z" fill="#FFC2B0"/>
<path d="M888.82 95.4959C888.82 95.4959 869.272 103.822 855.878 103.822C842.484 103.822 845.38 92.5999 845.38 92.5999L885.2 86.8079L888.82 95.4959Z" fill="#EA9C92"/>
<path d="M851.896 97.6678C851.896 97.6678 868.91 90.4278 883.752 93.3238C887.372 94.0478 890.63 95.8578 892.802 98.7538C893.526 99.4778 894.612 100.564 895.336 100.564C897.87 101.288 902.214 90.4278 907.282 90.0658C912.35 89.7038 915.97 93.3238 911.626 100.202C907.282 107.08 908.73 114.32 910.902 115.406C912.712 116.492 933.346 100.926 915.246 65.0878C897.146 29.2498 851.534 48.4358 844.294 55.6758C844.294 55.6758 836.692 62.1918 830.538 56.3998C830.538 56.7618 823.66 108.166 851.896 97.6678Z" fill="#282828"/>
<path d="M818.23 119.026L793.614 108.528C790.718 107.442 788.546 104.908 787.46 102.012L763.206 31.4216L751.984 33.2316L771.532 120.836C772.618 124.818 775.152 128.438 778.772 130.61L819.678 153.778L818.23 119.026Z" fill="#FFC2B0"/>
<path d="M1074.16 130.248L1079.96 127.714C1084.66 125.542 1089.01 122.646 1092.99 118.664L1096.97 114.682C1099.14 112.51 1099.87 109.252 1098.78 106.356C1097.69 104.184 1095.16 103.098 1092.99 104.184L1081.04 109.976C1081.04 109.976 1082.85 104.908 1082.13 103.46C1081.4 102.012 1071.99 112.148 1068.01 119.388C1063.3 126.628 1074.16 130.248 1074.16 130.248Z" fill="#FFC2B0"/>
<path d="M976.062 158.484L997.058 156.312C1002.13 155.588 1006.83 154.14 1011.18 151.606L1067.65 119.75L1074.16 130.61L1016.61 175.136C1014.8 176.584 1012.99 177.67 1010.81 178.394L976.425 193.236L976.062 158.484Z" fill="#FFC2B0"/>
<path d="M751.984 33.232L749.812 30.698C747.278 27.802 745.83 24.182 745.106 20.562L743.658 10.426C743.296 7.168 744.382 3.90999 746.916 2.09999C746.916 2.09999 747.278 2.1 747.278 1.738C750.174 -0.0719989 753.794 1.37599 755.242 4.27199L760.31 16.58C760.31 16.58 758.862 10.064 760.672 9.70198C762.12 9.33998 765.016 16.942 763.206 21.286C761.396 25.63 763.206 31.422 763.206 31.422L751.984 33.232Z" fill="#FFC2B0"/>
<path d="M866.737 118.664L857.688 116.13C857.688 116.13 862.031 123.008 868.547 124.818C875.063 126.628 875.787 121.198 875.787 121.198L866.737 118.664Z" fill="white"/>
<path d="M852.982 121.198C852.982 121.198 811.714 113.234 799.406 109.252C787.098 105.27 781.668 140.022 782.392 148.71C783.478 157.398 826.194 167.172 831.262 182.014C836.33 196.856 852.982 121.198 852.982 121.198Z" fill="#3D3D3D"/>
<path d="M915.97 136.04C915.97 136.04 946.016 149.072 996.334 155.226C998.506 155.588 999.954 156.674 1000.68 158.846C1002.49 164.276 1005.75 176.584 1003.21 188.892C1002.13 193.96 997.42 197.58 992.352 197.58C976.786 197.58 942.758 199.028 937.328 213.87C930.088 233.418 915.97 136.04 915.97 136.04Z" fill="#3D3D3D"/>
<path d="M898.232 163.19L889.906 172.24C888.82 173.326 888.458 175.136 888.458 176.584L894.25 225.454C894.25 226.902 893.888 228.35 893.164 229.436L875.426 252.604C874.702 253.69 872.892 253.328 872.53 252.242L862.756 221.834C862.394 220.748 862.394 219.3 862.756 218.214L879.77 173.688C880.132 172.602 880.132 171.516 880.132 170.792L877.598 158.846L898.232 163.19Z" fill="white"/>
<path d="M988.371 188.892C979.321 189.978 957.239 191.788 940.225 193.236C930.451 193.96 923.934 203.372 926.468 212.784C935.518 247.536 923.572 303.284 925.744 322.47C928.279 344.914 914.522 353.964 914.522 353.964C927.916 351.068 937.328 345.638 936.966 338.76C935.156 298.216 937.691 245.002 940.225 210.25C949.999 199.39 978.959 198.304 992.715 198.304C998.145 198.304 1002.49 194.684 1003.57 189.254C1005.02 182.738 1004.66 176.222 1003.57 170.792C1003.57 170.792 1003.57 187.082 988.371 188.892Z" fill="#282828"/>
<path d="M601.393 862.574C661.171 862.574 709.631 834.535 709.631 799.948C709.631 765.36 661.171 737.322 601.393 737.322C541.615 737.322 493.155 765.36 493.155 799.948C493.155 834.535 541.615 862.574 601.393 862.574Z" fill="#E1FFB6"/>
<path d="M535.147 767.006C527.545 770.264 522.839 778.59 523.563 787.64C523.925 791.984 524.287 795.966 525.373 797.776C527.907 802.844 535.509 809.722 548.179 804.654C560.849 799.586 588.723 773.522 589.809 756.508C591.619 724.29 555.057 758.318 535.147 767.006Z" fill="#173D7A"/>
<path d="M608.995 819.495C608.995 819.495 606.099 837.957 607.547 841.215C608.995 844.473 617.683 851.713 630.715 850.265C643.747 848.817 680.671 835.785 688.997 811.531C701.667 773.521 617.321 814.427 617.321 814.427L608.995 819.495Z" fill="#173D7A"/>
<path d="M645.195 525.913L648.09 812.617C647.728 822.753 641.213 831.079 632.525 832.527C631.439 832.889 630.353 832.889 628.905 832.889C619.855 833.613 614.786 829.993 611.89 826.011C609.356 822.753 608.27 818.771 607.908 814.427L604.288 692.071L586.188 582.747L560.848 776.417C560.486 781.485 557.952 786.553 553.97 789.087C551.074 790.897 547.454 792.345 542.386 792.345C535.146 791.983 530.078 788.363 527.182 784.743C524.648 781.847 523.562 778.227 523.562 774.245L533.698 657.681L537.318 508.899L645.195 525.913Z" fill="#D4ECFF"/>
<path d="M607.908 269.256L603.202 295.32C603.202 295.32 603.202 304.37 612.976 306.542C622.75 309.076 626.008 302.56 626.008 302.56L630.352 273.238L607.908 269.256Z" fill="#FFC2B0"/>
<path d="M662.867 254.577C669.622 232.182 658.961 209.159 639.054 203.154C619.148 197.15 597.534 210.436 590.778 232.831C584.023 255.226 594.684 278.249 614.591 284.254C634.497 290.259 656.111 276.972 662.867 254.577Z" fill="#FFC2B0"/>
<path d="M609.357 296.044C608.633 295.682 567.003 268.894 551.799 297.13C526.821 342.742 544.921 395.232 536.233 508.538C534.785 527.724 561.935 538.946 574.605 546.548C585.827 553.064 598.859 557.046 611.891 557.046C624.923 557.046 649.901 545.462 648.815 528.81C644.833 450.618 651.711 385.096 657.865 321.022C657.865 321.022 649.901 312.334 609.357 296.044Z" fill="#EFEC7F"/>
<path d="M586.189 582.385L560.849 776.055C560.487 781.123 557.953 786.191 553.971 788.725C553.247 789.087 552.523 789.45 551.799 789.812C556.867 785.83 572.433 623.292 575.329 605.192C577.863 587.454 586.189 582.385 586.189 582.385Z" fill="#AFC9DB"/>
<path d="M744.02 319.574L778.772 250.794L767.912 243.554L731.712 296.406L744.02 319.574Z" fill="#FFC2B0"/>
<path d="M514.513 246.45L531.527 169.344L544.921 169.706L539.853 233.418L514.513 246.45Z" fill="#FFC2B0"/>
<path d="M657.865 321.022C657.865 321.022 696.599 336.226 730.265 294.234C733.161 290.614 739.315 290.976 741.125 294.958C744.021 301.836 748.003 312.334 743.297 322.108C723.025 365.548 654.245 364.1 637.593 388.354C620.579 412.246 657.865 321.022 657.865 321.022Z" fill="#EFEC7F"/>
<path d="M582.931 286.27C582.931 286.27 550.713 288.804 546.369 260.93C543.835 246.45 543.111 238.124 543.111 233.056C543.111 229.798 540.215 227.264 536.957 227.626C529.355 228.712 517.409 230.884 515.599 235.952C513.065 243.554 508.721 281.564 540.215 339.122C560.849 377.494 582.931 286.27 582.931 286.27Z" fill="#EFEC7F"/>
<path d="M531.527 169.706L531.889 161.018C531.889 157.76 532.975 154.864 534.423 152.33L543.473 137.85L545.645 134.954C547.817 132.42 551.437 131.696 554.695 133.506L556.867 134.954C559.401 136.764 560.849 139.66 560.849 142.556L556.143 154.864L561.935 153.778C563.021 153.416 564.107 154.14 564.469 155.588C564.469 156.674 564.107 157.398 563.383 157.76L553.971 161.742L545.283 174.05L531.527 169.706Z" fill="#FFC2B0"/>
<path d="M778.773 251.156L782.755 243.554C784.203 240.658 784.927 237.762 784.927 234.504L784.565 217.49L783.841 213.87C783.479 210.612 780.221 208.078 776.963 208.078H774.429C771.171 208.078 768.637 209.888 767.189 212.784L765.017 225.816L760.673 221.834C759.949 221.11 758.501 221.11 757.777 222.196C757.053 222.92 757.053 224.006 757.777 224.73L764.293 232.694L766.103 249.346L778.773 251.156Z" fill="#FFC2B0"/>
<path d="M632.524 379.304C629.266 394.87 649.538 511.072 626.732 553.426C637.954 548.72 649.176 540.032 648.452 528.448C645.556 472.7 648.09 423.106 652.434 376.046C671.62 366.272 702.028 360.48 723.386 344.552C700.58 353.24 635.42 365.548 632.524 379.304Z" fill="#F7FFBD"/>
<path d="M594.515 288.442L600.307 282.65C600.307 282.65 609.719 292.424 617.321 293.872C617.321 293.872 626.371 296.406 631.077 296.768L634.697 306.904C634.697 307.266 604.289 305.094 594.515 288.442Z" fill="white"/>
<path d="M635.783 255.862C637.231 255.862 638.679 255.138 639.765 253.69C641.213 251.518 640.489 241.02 645.195 239.21C652.797 236.676 670.897 246.088 672.707 218.576C673.793 204.458 666.915 200.476 666.915 192.874C666.915 192.874 667.639 196.856 630.715 194.322C594.153 191.788 582.207 224.368 581.121 239.934C580.397 255.5 587.637 280.84 612.615 284.46C616.597 285.184 634.335 271.066 633.611 269.256C633.249 267.446 626.733 267.446 627.457 262.016C628.905 257.672 631.801 255.862 635.783 255.862Z" fill="#513F2E"/>
<path d="M110.158 429.26L17.486 375.684C15.676 374.598 13.866 374.598 12.78 375.322L3.72998 380.39C3.72998 380.39 7.71197 381.838 9.88397 382.562V449.894C9.88397 455.324 13.142 461.84 17.486 464.012L105.814 515.054V523.018L114.864 517.95C116.312 516.864 117.398 515.054 117.398 512.158V443.378C117.76 437.948 114.502 431.794 110.158 429.26Z" fill="#5793CE"/>
<path d="M101.108 523.38L8.43649 469.804C4.45449 467.27 0.834473 461.116 0.834473 455.686V386.906C0.834473 381.476 4.09249 378.942 8.43649 381.114L101.108 434.69C105.09 437.224 108.71 443.378 108.71 448.808V517.588C108.71 523.018 105.09 525.552 101.108 523.38Z" fill="#D4ECFF"/>
<path d="M101.108 434.69L8.43655 381.114C6.26455 379.666 4.09253 380.028 2.64453 381.476C3.73053 381.476 4.81656 381.476 5.90256 382.2L98.5745 435.776C102.557 438.31 106.177 444.464 106.177 449.894V518.674C106.177 521.208 105.453 522.656 104.367 523.742C106.901 523.38 108.348 521.208 108.348 517.226V448.446C108.71 443.378 105.09 436.862 101.108 434.69Z" fill="white"/>
<path d="M39.5677 446.274C39.5677 450.256 36.6717 451.704 33.4137 449.894C29.7937 448.084 27.2598 443.016 27.2598 439.034C27.2598 435.052 30.1557 433.604 33.4137 435.414C37.0337 437.224 39.5677 442.292 39.5677 446.274Z" fill="white"/>
<path d="M58.7534 457.134C58.7534 461.116 55.8574 462.564 52.5993 460.754C48.9793 458.944 46.4453 453.876 46.4453 449.894C46.4453 445.912 49.3413 444.464 52.5993 446.274C55.8574 448.446 58.7534 453.152 58.7534 457.134Z" fill="white"/>
<path d="M77.5776 467.994C77.5776 471.976 74.6816 473.424 71.4236 471.614C67.8035 469.804 65.2695 464.736 65.2695 460.754C65.2695 456.772 68.1655 455.324 71.4236 457.134C74.6816 459.306 77.5776 464.012 77.5776 467.994Z" fill="white"/>
<path opacity="0.5" d="M64.9085 988.188L2.64453 952.35L64.9085 916.15L127.535 952.35L64.9085 988.188Z" fill="#86EFEF"/>
<path d="M127.535 906.738L64.9092 942.576V870.538L127.535 834.7V906.738Z" fill="#78C4C2"/>
<path d="M64.9085 870.538L2.64453 834.7L64.9085 798.5L127.535 834.7L64.9085 870.538Z" fill="#AEFFFD"/>
<path d="M64.9085 942.576L2.64453 906.738V834.7L64.9085 870.538V942.576Z" fill="#86EFEF"/>
<path d="M42.465 903.842L25.0889 893.706V873.434L42.465 883.57V903.842Z" fill="white"/>
<path opacity="0.5" d="M1074.16 1027.28L1009 989.998L1074.16 952.35L1138.96 989.998L1074.16 1027.28Z" fill="#173D7A"/>
<path d="M1138.96 942.214L1074.17 979.862V904.928L1138.96 867.28V942.214Z" fill="#173D7A"/>
<path d="M1074.16 904.928L1009 867.28L1074.16 829.994L1138.96 867.28L1074.16 904.928Z" fill="#D4ECFF"/>
<path d="M1074.16 979.862L1009 942.214V867.28L1074.16 904.928V979.862Z" fill="#5793CE"/>
<path d="M1050.63 939.318L1032.53 928.82V907.824L1050.63 918.322V939.318Z" fill="white"/>
<path d="M1116.15 428.174L1025.65 376.046C1023.84 374.96 1022.4 374.96 1020.95 375.684L1012.26 380.752C1012.26 380.752 1016.24 382.2 1018.41 382.924V448.808C1018.41 454.238 1021.67 460.392 1025.65 462.564L1112.17 512.52V520.122L1120.86 515.054C1122.31 513.968 1123.39 512.158 1123.39 509.262V441.93C1123.39 436.862 1120.14 430.346 1116.15 428.174Z" fill="#8E88FF"/>
<path d="M1107.11 520.122L1016.61 467.994C1012.62 465.822 1009.37 459.306 1009.37 454.238V386.906C1009.37 381.476 1012.62 378.942 1016.61 381.476L1107.11 433.604C1111.09 435.776 1114.35 442.292 1114.35 447.36V514.692C1114.71 519.76 1111.45 522.294 1107.11 520.122Z" fill="#AEA4FD"/>
<path d="M1109.64 431.794L1019.14 379.666C1016.61 378.218 1014.43 378.58 1012.99 380.39C1014.07 380.028 1015.52 380.39 1016.97 381.114L1107.47 433.242C1111.45 435.414 1114.71 441.93 1114.71 446.998V514.33C1114.71 516.14 1114.35 517.95 1113.62 519.036C1115.79 518.674 1116.88 516.14 1116.88 512.882V445.55C1116.88 440.12 1113.62 433.966 1109.64 431.794Z" fill="white"/>
<path d="M1047.38 444.464C1047.38 448.446 1044.48 449.894 1041.22 448.084C1037.96 446.274 1035.07 441.568 1035.07 437.586C1035.07 433.604 1037.96 432.156 1041.22 433.966C1044.48 436.138 1047.38 440.844 1047.38 444.464Z" fill="white"/>
<path d="M1065.84 455.324C1065.84 459.306 1062.94 460.754 1059.68 458.944C1056.43 457.134 1053.53 452.428 1053.53 448.446C1053.53 444.464 1056.43 443.016 1059.68 444.826C1062.94 446.636 1065.84 451.342 1065.84 455.324Z" fill="white"/>
<path d="M1084.3 465.822C1084.3 469.804 1081.4 471.252 1078.15 469.442C1074.89 467.632 1071.99 462.926 1071.99 458.944C1071.99 454.962 1074.89 453.514 1078.15 455.324C1081.4 457.134 1084.3 462.202 1084.3 465.822Z" fill="white"/>
</svg>
