<svg width="26" height="26" viewBox="0 0 26 26" fill="none" xmlns="http://www.w3.org/2000/svg">
<path d="M20.668 0H5.33203C2.39195 0 0 2.39195 0 5.33203V20.668C0 23.6081 2.39195 26 5.33203 26H20.668C23.6081 26 26 23.6081 26 20.668V5.33203C26 2.39195 23.6081 0 20.668 0ZM24.4766 20.668C24.4766 22.768 22.768 24.4766 20.668 24.4766H5.33203C3.23197 24.4766 1.52344 22.768 1.52344 20.668V5.33203C1.52344 3.23197 3.23197 1.52344 5.33203 1.52344H20.668C22.768 1.52344 24.4766 3.23197 24.4766 5.33203V20.668Z" fill="white"/>
<path d="M15.5211 6.27273C15.4333 5.94519 15.2233 5.67138 14.9296 5.50187C14.3235 5.15189 13.5455 5.36024 13.1954 5.96657L13 6.30498L12.8046 5.96652C12.4546 5.36034 11.6766 5.15189 11.0704 5.50182H11.0704C10.4641 5.85186 10.2557 6.62977 10.6057 7.23605L11.534 8.84399L8.10865 14.777H5.61133C4.91131 14.777 4.3418 15.3465 4.3418 16.0465C4.3418 16.7466 4.91131 17.3161 5.61133 17.3161H15.2527L13.7867 14.777H11.0405L15.3942 7.2361C15.5638 6.94243 15.6089 6.60027 15.5211 6.27273Z" fill="white"/>
<path d="M20.3882 14.7767H17.8909L15.0518 9.85938L13.5859 12.3984L17.994 20.0333C18.1635 20.327 18.4372 20.5371 18.7649 20.6249C18.8742 20.6542 18.9852 20.6687 19.0955 20.6687C19.3155 20.6687 19.5326 20.611 19.7283 20.498C20.3345 20.148 20.5429 19.37 20.1929 18.7639L19.3568 17.3158H20.3882C21.0882 17.3158 21.6577 16.7463 21.6577 16.0463C21.6577 15.3462 21.0882 14.7767 20.3882 14.7767Z" fill="white"/>
<path d="M6.05623 18.332L5.80654 18.7645C5.45655 19.3707 5.66501 20.1487 6.27124 20.4987C6.47065 20.6138 6.68861 20.6685 6.90387 20.6685C7.34292 20.6685 7.77055 20.4408 8.00547 20.034L8.98808 18.332H6.05623Z" fill="white"/>
</svg>
