<svg width="35" height="30" viewBox="0 0 35 30" fill="none" xmlns="http://www.w3.org/2000/svg">
<path d="M35 13.7135C35 13.3611 34.6919 13.0758 34.3119 13.0758H29.0701C29.601 12.7897 30.0976 12.4557 30.5588 12.0731C33.8718 9.32314 34.118 5.10502 34.1268 4.9266C34.1362 4.73977 34.0563 4.55839 33.9084 4.4307C33.7607 4.30301 33.5599 4.24214 33.3591 4.26392C30.6749 4.55665 28.4015 5.2233 26.6022 6.24504C25.1344 7.07872 23.9781 8.14748 23.1658 9.42138C22.9106 9.82176 22.7063 10.2165 22.5421 10.5948C22.4131 10.3238 22.2617 10.0457 22.0822 9.7646C21.3354 8.59339 20.2729 7.61099 18.9241 6.84512C17.2736 5.90751 15.1894 5.2963 12.7298 5.02806C12.5296 5.00628 12.3282 5.06716 12.1803 5.19484C12.0326 5.32253 11.9528 5.50391 11.9619 5.69099C11.9701 5.85456 12.1961 9.72896 15.2402 12.2552C15.6105 12.5628 16.006 12.8363 16.4252 13.0758H12.7416L9.54072 7.03541C9.69053 6.78672 9.81843 6.52442 9.9199 6.249C10.3594 5.05552 10.271 3.7747 9.67103 2.64259C9.07129 1.51073 8.03148 0.662948 6.7436 0.255636C5.45519 -0.151922 4.07332 -0.0700148 2.85166 0.486017C1.63028 1.0418 0.715437 2.00539 0.275642 3.19912C-0.163887 4.39259 -0.0755004 5.67342 0.524512 6.80553C1.12452 7.93739 2.16407 8.78517 3.45194 9.19273C3.70001 9.27117 3.95182 9.33056 4.20496 9.37288L6.16816 13.0758H0.910368C0.530387 13.0758 0.221969 13.3614 0.221969 13.7135C0.221969 13.8078 0.223304 13.902 0.225173 13.9963C0.183517 14.128 0.163757 14.2658 0.170166 14.4046C0.271903 16.6344 0.856695 18.7774 1.90879 20.7736C1.95391 20.8593 2.0172 20.9305 2.0917 20.9869C2.15953 21.1114 2.22895 21.2354 2.30052 21.3581C2.59158 21.8572 2.91361 22.3445 3.26129 22.8146C3.30401 22.9265 3.37824 23.0215 3.47224 23.093C3.58279 23.2358 3.69494 23.3774 3.8103 23.5167C4.14542 23.9213 4.5059 24.3157 4.88161 24.6896C4.93101 24.7389 4.98175 24.7866 5.03195 24.8354C5.06506 24.9108 5.11419 24.9819 5.18015 25.0435C5.21754 25.0784 5.25519 25.1135 5.29337 25.1484C5.94652 25.7492 6.65468 26.3045 7.40209 26.8029V28.5969C7.40209 29.3707 8.09663 30 8.95032 30H26.1352C26.9889 30 27.6834 29.3707 27.6834 28.5969V26.8489C32.2702 23.8238 35 18.9331 35 13.7135ZM27.3657 7.30761C28.7924 6.5066 30.5665 5.9476 32.6491 5.64199C32.424 6.89387 31.7273 9.39614 29.6317 11.1303C28.2861 12.2436 26.5648 12.8786 24.4975 13.0261L28.7326 9.78934C29.0258 9.5654 29.0674 9.16353 28.8258 8.89158C28.5838 8.61987 28.1502 8.58127 27.857 8.80521L23.4476 12.1748C23.6014 11.5532 23.8804 10.7925 24.3878 10.0133C25.0909 8.9329 26.0927 8.02251 27.3657 7.30761ZM13.4441 6.40836C15.3008 6.68848 16.8843 7.19156 18.1607 7.90769C19.3148 8.55504 20.2229 9.37906 20.8606 10.3568C21.2691 10.9831 21.5145 11.596 21.6625 12.1199L19.287 10.2627C18.9965 10.0356 18.5625 10.0697 18.3171 10.3389C18.0723 10.6082 18.1091 11.0105 18.3994 11.2377L20.6745 13.0162C18.8643 12.8635 17.354 12.2941 16.1673 11.3124C14.3074 9.774 13.662 7.56621 13.4441 6.40836ZM1.75979 6.24306C1.32213 5.41706 1.2575 4.48217 1.57847 3.61113C1.89917 2.73984 2.56674 2.03657 3.45835 1.63099C3.97639 1.39517 4.53394 1.27614 5.09444 1.27614C5.49872 1.27614 5.90487 1.33825 6.29873 1.46272C7.23894 1.76016 7.99757 2.3788 8.43549 3.20505C8.87342 4.03131 8.93777 4.96595 8.61707 5.83724C8.29637 6.70828 7.62853 7.41155 6.73693 7.81737C5.84532 8.2232 4.83675 8.28284 3.89655 7.98539C2.95661 7.6882 2.19771 7.06931 1.75979 6.24306ZM5.7572 9.40777C6.30167 9.3417 6.83653 9.19298 7.34388 8.9621C7.81091 8.74954 8.23282 8.47684 8.60078 8.15515L11.2083 13.0758H7.70143L5.7572 9.40777ZM4.56866 22.3217C4.53501 22.2551 4.48962 22.1965 4.43568 22.146C4.10029 21.6966 3.79027 21.2302 3.51149 20.7521C2.36834 18.7905 1.71759 16.5902 1.61319 14.3512H33.5412C33.4339 16.7089 32.7474 18.9427 31.5006 20.9907C30.3406 22.8961 28.7118 24.5669 26.7814 25.8336H8.37274C7.47446 25.2442 6.63946 24.5676 5.88884 23.8205C5.54278 23.4761 5.21059 23.1123 4.90191 22.7399C4.78815 22.6026 4.67734 22.4628 4.56866 22.3217ZM26.3069 28.5969C26.3069 28.6573 26.2364 28.7246 26.1349 28.7246H8.95006C8.84885 28.7246 8.77836 28.6573 8.77836 28.5969V27.109H26.3069V28.5969Z" fill="black"/>
<path d="M7.66899 4.72506C7.66899 3.40984 6.51436 2.33984 5.09537 2.33984C3.67611 2.33984 2.52148 3.40984 2.52148 4.72506C2.52148 6.04004 3.67611 7.11004 5.0951 7.11004C6.51436 7.11004 7.66899 6.04004 7.66899 4.72506ZM5.0951 5.83465C4.43501 5.83465 3.89775 5.33677 3.89775 4.72506C3.89775 4.11311 4.43501 3.61548 5.0951 3.61548C5.75546 3.61548 6.29246 4.11311 6.29246 4.72506C6.29273 5.33677 5.75546 5.83465 5.0951 5.83465Z" fill="black"/>
<path d="M30.3441 8.20755C30.3962 8.20755 30.4491 8.20211 30.5019 8.19048L30.5385 8.18256C30.9086 8.10189 31.1383 7.75867 31.0512 7.41595C30.9644 7.07297 30.5938 6.86041 30.224 6.94083L30.1874 6.94875C29.8173 7.02942 29.5876 7.37264 29.6747 7.71537C29.7492 8.00934 30.0317 8.20755 30.3441 8.20755Z" fill="black"/>
<path d="M13.2862 23.4229H21.8779C23.8592 23.4229 25.471 21.9293 25.471 20.0932C25.471 18.2573 23.8592 16.7637 21.8779 16.7637H13.2862C11.3051 16.7637 9.69336 18.2573 9.69336 20.0932C9.69336 21.9293 11.3051 23.4229 13.2862 23.4229ZM13.2862 18.0393H21.8779C23.1003 18.0393 24.0945 18.9606 24.0945 20.0932C24.0945 21.226 23.1003 22.1473 21.8779 22.1473H13.2862C12.064 22.1473 11.0696 21.226 11.0696 20.0932C11.0696 18.9606 12.064 18.0393 13.2862 18.0393Z" fill="black"/>
</svg>
