<svg width="46" height="30" viewBox="0 0 46 30" fill="none" xmlns="http://www.w3.org/2000/svg">
<path d="M43.5707 3.57143C42.39 3.57143 41.4286 4.53286 41.4286 5.71429C41.4286 6.30214 41.6671 6.835 42.0514 7.22214L33.4271 14.7371L30.7364 4.14714C31.5543 3.845 32.1429 3.06429 32.1429 2.14286C32.1429 0.961429 31.1807 0 29.9993 0C28.8186 0 27.8571 0.961429 27.8571 2.14286C27.8571 2.88357 28.235 3.53714 28.8079 3.92214L23.2393 13.1479L17.0286 3.82214C17.5293 3.43 17.8571 2.82643 17.8571 2.14286C17.8571 0.961429 16.895 0 15.7136 0C14.5329 0 13.5714 0.961429 13.5714 2.14286C13.5714 3.12786 14.2429 3.95071 15.1493 4.20071L13.0343 14.7443L3.67357 7.20857C4.05071 6.82214 4.28571 6.29571 4.28571 5.71429C4.28571 4.53286 3.32357 3.57143 2.14214 3.57143C0.961429 3.57143 0 4.53286 0 5.71429C0 6.89571 0.961429 7.85714 2.14214 7.85714C2.16357 7.85714 2.18286 7.85143 2.20357 7.85071L6.49786 30H40.0629L43.5207 7.85214C43.5379 7.85214 43.5536 7.85714 43.5714 7.85714C44.7521 7.85714 45.7143 6.89571 45.7143 5.71429C45.7143 4.53286 44.7521 3.57143 43.5707 3.57143ZM29.9993 1.42857C30.3936 1.42857 30.7143 1.74929 30.7143 2.14286C30.7143 2.53643 30.3936 2.85714 29.9993 2.85714C29.6057 2.85714 29.2857 2.53643 29.2857 2.14286C29.2857 1.74929 29.6057 1.42857 29.9993 1.42857ZM15.7136 1.42857C16.1079 1.42857 16.4286 1.74929 16.4286 2.14286C16.4286 2.53643 16.1079 2.85714 15.7136 2.85714C15.32 2.85714 15 2.53643 15 2.14286C15 1.74929 15.32 1.42857 15.7136 1.42857ZM1.42857 5.71429C1.42857 5.32071 1.74857 5 2.14214 5C2.53643 5 2.85714 5.32071 2.85714 5.71429C2.85714 6.10786 2.53643 6.42857 2.14214 6.42857C1.74857 6.42857 1.42857 6.10786 1.42857 5.71429ZM7.67643 28.5714L7.26072 26.4286H39.1736L38.8393 28.5714H7.67643ZM39.3971 25H7.14286C7.08857 25 7.04072 25.0193 6.99 25.0307L3.93 9.24857L13.055 16.595L14.2036 16.1793L16.365 5.40214L22.675 14.8764L23.8814 14.8493L29.5821 5.40357L32.3286 16.2143L33.49 16.5771L41.8493 9.29357L39.3971 25ZM43.5707 6.42857C43.1771 6.42857 42.8571 6.10786 42.8571 5.71429C42.8571 5.32071 43.1771 5 43.5707 5C43.965 5 44.2857 5.32071 44.2857 5.71429C44.2857 6.10786 43.965 6.42857 43.5707 6.42857Z" fill="white"/>
</svg>
