<svg width="72" height="100" viewBox="0 0 72 100" fill="none" xmlns="http://www.w3.org/2000/svg">
<path d="M58.7955 71.1461L63.6852 43L12.1309 62.7854L15.8166 84L58.7955 71.1461Z" fill="#F9BA48"/>
<path d="M66.7251 30.6693L66.7481 31.1452H67.2245H67.3043C68.6972 31.1452 69.7279 31.5549 70.4121 32.2599C71.0984 32.9671 71.5 34.0373 71.5 35.4839V37.0968C71.5 38.5433 71.0984 39.6136 70.4121 40.3207C69.7279 41.0258 68.6972 41.4355 67.3043 41.4355H65.4934H65.0697L65.0002 41.8534L55.8515 96.8534L55.8467 96.8822L55.8453 96.9112C55.7815 98.2253 54.8536 99.5 53.2174 99.5H18.7826C17.1464 99.5 16.2185 98.2253 16.1547 96.9112L16.1533 96.8822L16.1485 96.8534L6.99983 41.8534L6.93031 41.4355H6.50661H4.69565C3.30284 41.4355 2.27211 41.0258 1.5879 40.3207C0.90164 39.6136 0.5 38.5433 0.5 37.0968V35.4839C0.5 34.0373 0.90164 32.9671 1.5879 32.2599C2.27211 31.5549 3.30284 31.1452 4.69565 31.1452H4.77548H5.2519L5.2749 30.6693C6.08608 13.8845 19.5485 0.5 36 0.5C44.8967 0.5 52.904 4.43212 58.5339 10.6799L59.067 11.2714L59.3682 10.5343L62.999 1.6488L64.9674 2.50131L60.6964 12.9561L60.5919 13.2119L60.753 13.4366C64.2479 18.3098 66.4137 24.2335 66.7251 30.6693ZM64.0941 31.1452H64.6217L64.5934 30.6183C64.3133 25.4044 62.7299 20.552 60.1487 16.3974L59.6317 15.5653L59.2612 16.4721L53.5465 30.456L53.2649 31.1452H54.0094H64.0941ZM58.0331 13.8069L58.1454 13.532L57.9578 13.3018C52.6965 6.84843 44.8116 2.72581 36 2.72581C20.713 2.72581 8.23863 15.1123 7.40663 30.6184L7.37837 31.1452H7.90591H50.6129H50.9487L51.0757 30.8343L58.0331 13.8069ZM53.7155 96.8171L53.7373 96.5642L62.8108 42.0175L62.9076 41.4355H62.3176H9.68087H9.09104L9.18762 42.0174L18.2894 96.8561L18.3588 97.2742H18.7826H53.2174H53.6762L53.7155 96.8171ZM67.3043 39.2097C67.9305 39.2097 68.529 39.1491 68.923 38.7432C69.3116 38.3427 69.3696 37.7389 69.3696 37.0968V35.4839C69.3696 34.8417 69.3116 34.238 68.923 33.8375C68.529 33.4315 67.9305 33.371 67.3043 33.371H4.69565C4.06949 33.371 3.471 33.4315 3.07703 33.8375C2.68838 34.238 2.63043 34.8417 2.63043 35.4839V37.0968C2.63043 37.7389 2.68838 38.3427 3.07703 38.7432C3.471 39.1491 4.06949 39.2097 4.69565 39.2097H67.3043Z" fill="#343433" stroke="black"/>
<path d="M16.7891 45.224L19.748 62.8186L17.647 63.1644L14.6881 45.5698L16.7891 45.224Z" fill="#343433" stroke="black"/>
<path d="M26.3835 11.9855C20.9845 13.5665 16.8082 18.9315 15.2352 26.0403L13.1464 25.6262C14.9155 17.5807 19.7702 11.6919 25.8689 9.94941L26.3835 11.9855Z" fill="#343433" stroke="black"/>
</svg>
