<svg width="156" height="40" viewBox="0 0 156 40" fill="none" xmlns="http://www.w3.org/2000/svg">
<path d="M3.14756 38.8438C2.44356 38.8438 1.85156 38.6037 1.37156 38.1237C0.891563 37.6437 0.651563 37.0517 0.651563 36.3477V3.85175C0.651563 3.11575 0.891563 2.52375 1.37156 2.07575C1.85156 1.59575 2.44356 1.35575 3.14756 1.35575C3.88356 1.35575 4.47556 1.59575 4.92356 2.07575C5.40356 2.52375 5.64356 3.11575 5.64356 3.85175V17.6277H27.9156V3.85175C27.9156 3.11575 28.1556 2.52375 28.6356 2.07575C29.1156 1.59575 29.7076 1.35575 30.4116 1.35575C31.1476 1.35575 31.7396 1.59575 32.1876 2.07575C32.6356 2.52375 32.8596 3.11575 32.8596 3.85175V36.3477C32.8596 37.0517 32.6356 37.6437 32.1876 38.1237C31.7396 38.6037 31.1476 38.8438 30.4116 38.8438C29.7076 38.8438 29.1156 38.6037 28.6356 38.1237C28.1556 37.6437 27.9156 37.0517 27.9156 36.3477V22.0437H5.64356V36.3477C5.64356 37.0517 5.40356 37.6437 4.92356 38.1237C4.47556 38.6037 3.88356 38.8438 3.14756 38.8438ZM59.7921 39.3238C56.9761 39.3238 54.4001 38.8598 52.0641 37.9317C49.7281 36.9717 47.7121 35.6437 46.0161 33.9477C44.3521 32.2197 43.0561 30.1877 42.1281 27.8517C41.2001 25.4837 40.7361 22.8917 40.7361 20.0757C40.7361 17.2597 41.2001 14.6837 42.1281 12.3477C43.0561 10.0117 44.3521 7.99575 46.0161 6.29975C47.7121 4.57175 49.7281 3.24375 52.0641 2.31575C54.4001 1.35575 56.9761 0.87575 59.7921 0.87575C62.6081 0.87575 65.1681 1.35575 67.4721 2.31575C69.8081 3.24375 71.8241 4.57175 73.5201 6.29975C75.2161 7.99575 76.5281 10.0117 77.4561 12.3477C78.3841 14.6837 78.8481 17.2597 78.8481 20.0757C78.8481 22.8917 78.3841 25.4837 77.4561 27.8517C76.5281 30.1877 75.2161 32.2197 73.5201 33.9477C71.8241 35.6437 69.8081 36.9717 67.4721 37.9317C65.1681 38.8598 62.6081 39.3238 59.7921 39.3238ZM59.7921 34.8117C62.5761 34.8117 65.0401 34.1717 67.1841 32.8917C69.3281 31.5797 71.0081 29.8197 72.2241 27.6117C73.4401 25.3717 74.0481 22.8597 74.0481 20.0757C74.0481 17.2917 73.4401 14.7957 72.2241 12.5877C71.0081 10.3477 69.3281 8.58775 67.1841 7.30775C65.0401 6.02775 62.5761 5.38775 59.7921 5.38775C57.0081 5.38775 54.5441 6.02775 52.4001 7.30775C50.2561 8.58775 48.5761 10.3477 47.3601 12.5877C46.1441 14.7957 45.5361 17.2917 45.5361 20.0757C45.5361 22.8597 46.1441 25.3717 47.3601 27.6117C48.5761 29.8197 50.2561 31.5797 52.4001 32.8917C54.5441 34.1717 57.0081 34.8117 59.7921 34.8117ZM103.058 39.3238C100.242 39.3238 97.6657 38.8598 95.3297 37.9317C92.9937 36.9717 90.9777 35.6437 89.2817 33.9477C87.6177 32.2197 86.3217 30.1877 85.3937 27.8517C84.4657 25.4837 84.0017 22.8917 84.0017 20.0757C84.0017 17.2597 84.4657 14.6837 85.3937 12.3477C86.3217 10.0117 87.6177 7.99575 89.2817 6.29975C90.9777 4.57175 92.9937 3.24375 95.3297 2.31575C97.6657 1.35575 100.242 0.87575 103.058 0.87575C105.874 0.87575 108.434 1.35575 110.738 2.31575C113.074 3.24375 115.09 4.57175 116.786 6.29975C118.482 7.99575 119.794 10.0117 120.722 12.3477C121.65 14.6837 122.114 17.2597 122.114 20.0757C122.114 22.8917 121.65 25.4837 120.722 27.8517C119.794 30.1877 118.482 32.2197 116.786 33.9477C115.09 35.6437 113.074 36.9717 110.738 37.9317C108.434 38.8598 105.874 39.3238 103.058 39.3238ZM103.058 34.8117C105.842 34.8117 108.306 34.1717 110.45 32.8917C112.594 31.5797 114.274 29.8197 115.49 27.6117C116.706 25.3717 117.314 22.8597 117.314 20.0757C117.314 17.2917 116.706 14.7957 115.49 12.5877C114.274 10.3477 112.594 8.58775 110.45 7.30775C108.306 6.02775 105.842 5.38775 103.058 5.38775C100.274 5.38775 97.8097 6.02775 95.6657 7.30775C93.5217 8.58775 91.8417 10.3477 90.6257 12.5877C89.4097 14.7957 88.8017 17.2917 88.8017 20.0757C88.8017 22.8597 89.4097 25.3717 90.6257 27.6117C91.8417 29.8197 93.5217 31.5797 95.6657 32.8917C97.8097 34.1717 100.274 34.8117 103.058 34.8117ZM132.429 38.8438C131.757 38.8438 131.165 38.6037 130.653 38.1237C130.173 37.6437 129.933 37.0517 129.933 36.3477V3.85175C129.933 3.14775 130.173 2.55575 130.653 2.07575C131.165 1.59575 131.757 1.35575 132.429 1.35575C133.133 1.35575 133.725 1.59575 134.205 2.07575C134.685 2.55575 134.925 3.14775 134.925 3.85175V18.2517L150.813 2.36375C151.197 1.97975 151.549 1.72375 151.869 1.59575C152.189 1.43575 152.525 1.35575 152.877 1.35575C153.677 1.35575 154.253 1.59575 154.605 2.07575C154.957 2.55575 155.085 3.13175 154.989 3.80375C154.893 4.44375 154.589 5.03575 154.077 5.57975L141.837 17.8677L154.317 34.8597C154.701 35.4037 154.861 35.9957 154.797 36.6357C154.733 37.2437 154.509 37.7717 154.125 38.2197C153.741 38.6357 153.229 38.8438 152.589 38.8438C151.693 38.8438 151.005 38.4917 150.525 37.7877L138.381 21.3237L134.925 24.7797V36.3477C134.925 37.0517 134.685 37.6437 134.205 38.1237C133.725 38.6037 133.133 38.8438 132.429 38.8438Z" fill="#111111"/>
</svg>
