<svg width="40" height="40" viewBox="0 0 40 40" fill="none" xmlns="http://www.w3.org/2000/svg">
<path d="M39.4991 7.65444L37.9017 7.0396C35.5783 6.14531 33.5119 4.65846 31.926 2.73973C30.4868 0.998581 28.3656 0 26.1064 0C24.0538 0 22.0637 0.851161 20.6463 2.33528L19.9937 3.01848L19.3412 2.33528C17.9238 0.851161 15.9337 0 13.8812 0C11.6219 0 9.50074 0.998581 8.06156 2.73973C6.47569 4.65846 4.40929 6.14531 2.08585 7.0396L0.488498 7.65444C-0.190768 7.91654 -0.153179 8.92411 0.548516 9.13246C0.565006 9.13731 0.581808 9.14145 0.598688 9.1452C0.606034 9.14684 0.613301 9.14871 0.620726 9.15012C0.636355 9.15317 0.652219 9.15535 0.668162 9.15739C0.676914 9.15856 0.685511 9.16004 0.694341 9.1609C0.709111 9.16231 0.724116 9.16278 0.73912 9.16332C0.748889 9.16371 0.758579 9.16457 0.768426 9.16465C0.768739 9.16465 0.768973 9.16465 0.769286 9.16465C1.98551 9.16465 3.32693 10.2778 5.02517 11.6871C5.7915 12.323 6.66004 13.0438 7.6226 13.744C7.97161 13.9979 8.46043 13.9208 8.71433 13.5719C8.96831 13.223 8.89126 12.7344 8.54225 12.4805C7.61994 11.8097 6.80829 11.1361 6.02352 10.4849C5.1202 9.73527 4.30527 9.0595 3.51261 8.5506C5.85816 8.12396 9.38281 7.78303 12.0303 8.84223C15.7149 10.3166 18.5272 10.479 19.5873 10.479C19.5934 10.479 19.5996 10.479 19.6057 10.479C20.666 10.479 23.4785 10.3165 27.1627 8.84223C30.0531 7.68569 33.9891 8.1981 36.2947 8.66903C35.5585 9.16231 34.7991 9.79199 33.9643 10.4848C31.3191 12.6799 28.0271 15.4118 22.6588 16.1154C22.2308 16.1715 21.9295 16.5638 21.9856 16.9916C22.0372 17.3849 22.373 17.6713 22.7594 17.6713C22.7933 17.6713 22.8276 17.6692 22.862 17.6646C28.6781 16.9023 32.3104 13.888 34.9626 11.687C36.6609 10.2777 38.0023 9.16457 39.2185 9.16457C39.595 9.16457 39.918 8.89614 39.9869 8.52607C40.0554 8.15615 39.8505 7.78959 39.4991 7.65444ZM26.5818 7.39178C23.5501 8.60481 21.1449 8.86044 19.9983 8.90622C19.9936 8.90614 19.9888 8.90614 19.984 8.90614H19.2087C19.2044 8.90614 19.2001 8.90614 19.1957 8.90622C18.0487 8.86059 15.6431 8.60505 12.6109 7.3917C10.6073 6.59 8.24028 6.48015 6.13465 6.63226C7.29875 5.81172 8.35454 4.83814 9.26637 3.73495C10.4076 2.35435 12.0896 1.56248 13.8812 1.56248C15.5088 1.56248 17.0869 2.23747 18.2109 3.41425L19.4286 4.68924C19.576 4.84361 19.7802 4.93095 19.9937 4.93095C20.2072 4.93095 20.4115 4.84361 20.5589 4.68924L21.7766 3.41425C22.9007 2.23747 24.4788 1.56248 26.1064 1.56248C27.8979 1.56248 29.5799 2.35435 30.7211 3.73495C31.664 4.87572 32.7606 5.8779 33.9718 6.71546C31.6595 6.46273 28.8813 6.47164 26.5818 7.39178Z" fill="black"/>
<path d="M18.5891 25.009V21.5637C18.5891 20.9244 18.2026 20.3742 17.6513 20.1326V15.3052C17.6513 14.4397 17.1773 13.6481 16.4141 13.2394L13.9134 11.8999C13.1798 11.507 12.3156 11.5275 11.6018 11.9549C10.8879 12.3821 10.4616 13.1339 10.4616 13.9657V20.1326C9.9103 20.3742 9.52386 20.9244 9.52386 21.5637V25.009C8.73511 25.0877 8.11719 25.7548 8.11719 26.5636V37.6572C8.11719 38.9495 9.16891 40.0009 10.4616 40.0009H17.6513C18.944 40.0009 19.9958 38.9495 19.9958 37.6572V26.5636C19.9958 25.7548 19.3778 25.0877 18.5891 25.009ZM12.0245 13.9656C12.0246 13.566 12.2904 13.3638 12.4046 13.2953C12.5191 13.227 12.8228 13.0883 13.1752 13.277L15.6759 14.6165C15.9303 14.7527 16.0883 15.0166 16.0883 15.3051V20.0012H12.0245V13.9656ZM11.0868 21.5637H11.2431H16.8698H17.0261V25.0011H11.0868V21.5637ZM18.4328 37.6572C18.4328 38.088 18.0822 38.4385 17.6513 38.4385H16.2446V32.501C16.2446 32.0695 15.8947 31.7198 15.4631 31.7198C15.0316 31.7198 14.6817 32.0695 14.6817 32.501V38.4385H10.4616C10.0307 38.4385 9.68016 38.088 9.68016 37.6572V26.5636H18.4328V37.6572Z" fill="black"/>
</svg>
