<svg width="100" height="100" viewBox="0 0 100 100" fill="none" xmlns="http://www.w3.org/2000/svg">
<g clip-path="url(#clip0)">
<path d="M16.739 17.7271C16.5514 13.415 12.9037 10.0718 8.59237 10.2595C4.28024 10.4479 0.937035 14.0955 1.12472 18.4069C1.3124 22.719 4.96002 26.0622 9.27215 25.8746C13.5835 25.6869 16.9267 22.0393 16.739 17.7271Z" fill="#FEE063"/>
<path d="M8.06234 18.4067C7.92349 15.2192 9.71563 12.3963 12.4012 11.0642C11.2575 10.4958 9.95825 10.2006 8.59259 10.2593C4.28045 10.4478 0.938013 14.0954 1.1257 18.4067C1.31338 22.7181 4.96099 26.0613 9.27236 25.8736C10.3962 25.824 11.4536 25.5387 12.4004 25.0687C9.9346 23.8442 8.19128 21.3517 8.06234 18.4067Z" fill="#F9D021"/>
<path d="M81.3965 50.5111C81.8184 50.9482 81.8611 51.6257 81.4964 52.1125L76.2695 59.0812V66.87C76.2695 67.253 76.0895 67.6162 75.7851 67.8504L69.6289 72.5577L67.6758 82.714L56.1974 89.849C54.9004 90.6554 53.2227 89.7216 53.2227 88.1942V22.2396C53.2227 19.7409 56.0921 18.3348 58.0666 19.8622L65.332 25.4874L66.3086 33.1046L75.2991 36.7003C75.7675 36.888 76.0742 37.3427 76.0742 37.847V45.0187L81.3965 50.5111Z" fill="#76B1CB"/>
<path d="M61.3083 58.9317L61.2305 58.8867L66.6992 51.4648H81.543L81.7406 51.4687C81.723 51.6953 81.6406 51.9196 81.4964 52.1133L76.2695 59.082V66.8709C76.2695 67.0586 76.2268 67.2424 76.1444 67.408L61.3083 58.9317Z" fill="#579AB2"/>
<path d="M81.543 51.4648H66.6992L76.0742 45.0195L81.3965 50.5119C81.6505 50.7751 81.7673 51.1253 81.7406 51.4687L81.543 51.4648Z" fill="#439FBF"/>
<path d="M69.6289 72.5586L67.6758 82.7148L56.1974 89.8499C54.9004 90.6563 53.2227 89.7224 53.2227 88.195V72.625L69.6289 72.5586Z" fill="#439FBF"/>
<path d="M59.8633 43.4567L66.6992 51.4645L61.2305 58.8863L61.3083 58.9314L53.2227 62.0136V35.6777L59.8633 43.4567Z" fill="#438FA3"/>
<path d="M66.6168 33.2283L59.8633 43.457L53.2227 35.6781L65.332 25.4883L66.3086 33.1055L66.6168 33.2283Z" fill="#439FBF"/>
<path d="M53.2227 22.2396C53.2227 19.7409 56.0921 18.3348 58.0666 19.8622L65.332 25.4874L53.2227 35.6772V22.2396Z" fill="#579AB2"/>
<path d="M46.9733 22.2396V88.1942C46.9733 89.7216 45.2956 90.6554 43.9986 89.849L32.5202 82.714L30.5671 72.5577L24.4109 67.8504C24.1065 67.6162 23.9265 67.253 23.9265 66.87V59.0812L18.6996 52.1125C18.3349 51.6257 18.3776 50.9482 18.7995 50.5111L24.1218 45.0187V37.847C24.1218 37.3427 24.4285 36.888 24.8969 36.7003L33.8874 33.1046L34.864 25.4874L42.1294 19.8622C44.1039 18.3348 46.9733 19.7409 46.9733 22.2396Z" fill="#A6A6A6"/>
<path d="M98.5352 81.0135V88.7131C98.5352 89.3929 97.9866 89.9414 97.3068 89.9414H89.6072C88.9275 89.9414 88.3789 89.3929 88.3789 88.7131V81.0135C88.3789 80.3337 88.9275 79.7852 89.6072 79.7852H97.3068C97.9866 79.7852 98.5352 80.3337 98.5352 81.0135Z" fill="#FEE063"/>
<path d="M28.418 88.6368V93.0038C28.418 93.6859 27.8656 94.2383 27.1835 94.2383H6.01959C5.33752 94.2383 4.78516 93.6859 4.78516 93.0038V88.6368C4.78516 87.9547 5.33752 87.4023 6.01959 87.4023H27.1835C27.8656 87.4023 28.418 87.9547 28.418 88.6368Z" fill="#75DBAD"/>
<path d="M88.3789 9.66797H80.2322C79.5525 9.66797 79.0039 10.2165 79.0039 10.8963V24.0646C79.0039 24.7444 79.5525 25.293 80.2322 25.293H93.4006C94.0804 25.293 94.6289 24.7444 94.6289 24.0646V9.66797H88.3789Z" fill="#75DBAD"/>
<path d="M85.3516 9.66797V16.9846C85.3516 18.0695 86.2274 18.9453 87.3123 18.9453H94.6289V9.66797H85.3516Z" fill="#15CE71"/>
<path d="M98.5352 6.99005V14.6896C98.5352 15.3694 97.9866 15.918 97.3068 15.918H89.6072C88.9275 15.918 88.3789 15.3694 88.3789 14.6896V6.99005C88.3789 6.31027 88.9275 5.76172 89.6072 5.76172H97.3068C97.9866 5.76172 98.5352 6.31027 98.5352 6.99005Z" fill="#71D3A4"/>
<path d="M42.2852 70.4102C42.2852 71.5965 41.3231 72.5586 40.1367 72.5586C38.9503 72.5586 37.9883 71.5965 37.9883 70.4102C37.9883 69.2238 38.9503 68.2617 40.1367 68.2617C41.3231 68.2617 42.2852 69.2238 42.2852 70.4102Z" fill="#FEE063"/>
<path d="M41.1133 37.9883C41.1133 39.1747 40.1512 40.1367 38.9648 40.1367C37.7785 40.1367 36.8164 39.1747 36.8164 37.9883C36.8164 36.8019 37.7785 35.8398 38.9648 35.8398C40.1512 35.8398 41.1133 36.8019 41.1133 37.9883Z" fill="#FEE063"/>
<path d="M37.793 51.2695C37.793 52.7794 36.5685 54.0039 35.0586 54.0039C33.5487 54.0039 32.3242 52.7794 32.3242 51.2695C32.3242 49.7597 33.5487 48.5352 35.0586 48.5352C36.5685 48.5352 37.793 49.7597 37.793 51.2695Z" fill="#FEE063"/>
<path d="M77.7344 66.8706V59.5708L82.6683 52.992C83.4694 51.9239 83.3771 50.4529 82.4478 49.4939L77.5391 44.4272V37.8484C77.5391 36.7376 76.873 35.7541 75.8423 35.3414L67.6521 32.0661L66.7847 25.3026C66.7358 24.9174 66.5352 24.5679 66.2285 24.3307L58.9638 18.7063C57.605 17.6542 55.8022 17.4703 54.2595 18.2271C52.7161 18.984 51.7578 20.5221 51.7578 22.2402V88.1963C51.7578 89.4346 52.43 90.5775 53.5126 91.1787C54.0283 91.4655 54.599 91.6082 55.1697 91.6082C55.7961 91.6082 56.4209 91.4365 56.971 91.094L68.4494 83.9597C68.7958 83.7438 69.0369 83.3929 69.1139 82.9916L70.9618 73.3839L76.6747 69.0153C77.3384 68.5079 77.7344 67.7061 77.7344 66.8706ZM75.0977 58.2036C74.9077 58.4569 74.8047 58.7659 74.8047 59.0826V64.9564L63.3858 58.4318L67.4393 52.9302H79.0527L75.0977 58.2036ZM60.2303 57.7749L54.6875 59.8875V39.6505L58.7494 44.4082C58.7494 44.4089 58.7494 44.4089 58.7502 44.4097L64.8308 51.5325L60.2303 57.7749ZM64.2204 28.3384L64.8499 33.2479L59.7137 41.0261L55.2948 35.8495L64.2204 28.3384ZM75.8835 46.9289L78.8597 50.0005H71.4157L75.8835 46.9289ZM74.6094 44.2495L66.9563 49.5107L61.6928 43.3446L67.1822 35.0332L74.6094 38.0041V44.2495ZM55.5496 20.8578C55.7709 20.7487 56.0036 20.6952 56.234 20.6952C56.5643 20.6952 56.8901 20.8059 57.1701 21.0225L63.0005 25.5361L54.6875 32.5307V22.2402C54.6875 21.639 55.0095 21.1225 55.5496 20.8578ZM55.4245 88.606C55.2147 88.7365 55.0285 88.6693 54.9355 88.6182C54.8431 88.5664 54.6875 88.4435 54.6875 88.1963V74.0842L58.5022 74.0682C59.3109 74.0652 59.964 73.4067 59.9609 72.598C59.9579 71.7908 59.3025 71.1385 58.4961 71.1385C58.4938 71.1385 58.4923 71.1385 58.49 71.1385L54.6875 71.1538V63.0231L61.1832 60.5474L73.6267 67.658L69.1307 71.0966L64.3501 71.1156C63.5407 71.1187 62.8876 71.7771 62.8906 72.5858C62.8944 73.393 63.549 74.0453 64.3555 74.0453H64.3616L67.8543 74.0308L66.3582 81.8098L55.4245 88.606Z" fill="black"/>
<path d="M45.9358 18.2271C44.3932 17.4703 42.5903 17.6542 41.2315 18.7063L33.9668 24.3307C33.6601 24.5679 33.4595 24.9174 33.4106 25.3026L32.5432 32.0661L24.353 35.3414C23.3223 35.7541 22.6562 36.7383 22.6562 37.8484V44.4272L17.7475 49.4939C16.819 50.4529 16.7259 51.9239 17.527 52.992L22.4609 59.5708V66.8706C22.4609 67.3704 22.6051 67.8571 22.8615 68.2767L10.9985 80.1397C10.7239 80.4143 10.569 80.7867 10.569 81.175V85.938H6.01959C4.5311 85.938 3.32031 87.1488 3.32031 88.6373V93.0044C3.32031 94.4929 4.5311 95.7037 6.01959 95.7037H27.1835C28.672 95.7037 29.8828 94.4929 29.8828 93.0044V88.6373C29.8828 87.1488 28.672 85.938 27.1835 85.938H13.4987V81.7823L25.0763 70.2054L29.2336 73.3839L31.0806 82.9923C31.1577 83.3936 31.3988 83.7438 31.7459 83.9597L43.2243 91.0947C43.7744 91.4365 44.3993 91.6082 45.0256 91.6082C45.5963 91.6082 46.1678 91.4655 46.6835 91.1787C47.7654 90.5775 48.4375 89.4346 48.4375 88.1963V47.2173C48.4375 46.4078 47.7814 45.7525 46.9727 45.7525C46.1639 45.7525 45.5078 46.4078 45.5078 47.2173V49.8052H38.9885C38.6505 48.9004 38.0104 48.1443 37.1895 47.6583L39.0694 41.5967C40.6746 41.5502 42.0181 40.4546 42.4385 38.9715L45.5078 37.4723V41.3579C45.5078 42.1674 46.1639 42.8228 46.9727 42.8228C47.7814 42.8228 48.4375 42.1674 48.4375 41.3579V22.2402C48.4375 20.5221 47.4792 18.984 45.9358 18.2271ZM26.9531 92.774H6.25V88.8677H26.9531V92.774ZM25.1732 46.0393C25.4379 45.7662 25.5859 45.4008 25.5859 45.02V38.0041L33.5472 34.8195L35.5637 36.7818C35.4286 37.1602 35.3516 37.5654 35.3516 37.9888C35.3516 38.9524 35.733 39.8267 36.3495 40.4752L34.2812 47.1456C32.8255 47.4195 31.6368 48.4464 31.1287 49.8052H21.5248L25.1732 46.0393ZM35.0586 50.0005C35.759 50.0005 36.3281 50.5697 36.3281 51.27C36.3281 51.9704 35.759 52.5396 35.0586 52.5396C34.3582 52.5396 33.7891 51.9704 33.7891 51.27C33.7891 50.5697 34.3582 50.0005 35.0586 50.0005ZM20.9961 52.7349H31.1287C31.5941 53.98 32.6309 54.9444 33.9218 55.3091L37.677 67.7709C37.1536 68.2592 36.7744 68.8993 36.6127 69.6218L30.9044 70.9737L25.3906 66.757V59.0826C25.3906 58.7659 25.2876 58.4569 25.0977 58.2036L20.9961 52.7349ZM40.1367 69.7271C40.5136 69.7271 40.8203 70.0338 40.8203 70.4107C40.8203 70.7876 40.5136 71.0943 40.1367 71.0943C39.7598 71.0943 39.4531 70.7876 39.4531 70.4107C39.4531 70.0338 39.7598 69.7271 40.1367 69.7271ZM33.8371 81.8098L32.2701 73.6608L37.191 72.4958C37.8151 73.3755 38.8222 73.9622 39.9673 74.0156L43.4029 87.7553L33.8371 81.8098ZM45.5078 84.0978L42.717 72.9352C43.3548 72.2829 43.75 71.3926 43.75 70.4107C43.75 68.5239 42.2951 66.9721 40.4488 66.8134L36.9003 55.0382C37.8593 54.5675 38.6116 53.7435 38.9885 52.7349H45.5078V84.0978ZM38.9648 38.6724C38.588 38.6724 38.2812 38.3657 38.2812 37.9888C38.2812 37.6119 38.588 37.3052 38.9648 37.3052C39.3417 37.3052 39.6484 37.6119 39.6484 37.9888C39.6484 38.3657 39.3417 38.6724 38.9648 38.6724ZM41.9464 35.9517C41.2949 35.0011 40.2023 34.3755 38.9648 34.3755C38.4727 34.3755 38.0043 34.4747 37.5771 34.654L35.4324 32.5666L36.2389 26.2761L43.0244 21.0225C43.4998 20.6548 44.1063 20.593 44.6457 20.8578C45.1851 21.1225 45.5078 21.639 45.5078 22.2402V34.2122L41.9464 35.9517Z" fill="black"/>
<path d="M9.96094 18.1641C9.96094 18.9735 10.6171 19.6289 11.4258 19.6289H18.3388L28.5538 29.8447C28.8399 30.1308 29.2152 30.2734 29.5898 30.2734C29.9644 30.2734 30.3398 30.1308 30.6259 29.8447C31.1974 29.2725 31.1974 28.3447 30.6259 27.7725L19.9814 17.128C19.7067 16.8533 19.3336 16.6992 18.9453 16.6992H11.4258C10.6171 16.6992 9.96094 17.3546 9.96094 18.1641Z" fill="black"/>
<path d="M15.6029 23.8861C16.1331 23.275 16.0675 22.3503 15.4564 21.8201C14.8445 21.2898 13.9198 21.3554 13.3896 21.9666C12.2559 23.2735 10.6148 24.0234 8.88672 24.0234C5.60226 24.0234 2.92969 21.3509 2.92969 18.0664C2.92969 14.782 5.60226 12.1094 8.88672 12.1094C10.7292 12.1094 12.439 12.9425 13.5773 14.3936C14.077 15.0307 14.9979 15.1421 15.6342 14.6423C16.2704 14.1434 16.3818 13.2225 15.8829 12.5862C14.1853 10.421 11.6348 9.17969 8.88672 9.17969C3.98636 9.17969 0 13.166 0 18.0664C0 22.9668 3.98636 26.9531 8.88672 26.9531C11.4647 26.9531 13.9122 25.8354 15.6029 23.8861Z" fill="black"/>
<path d="M97.3084 78.3201H89.6073C88.1226 78.3201 86.9149 79.5279 86.9149 81.0125V83.4959H82.8339L74.7673 75.4286C74.1951 74.8571 73.2674 74.8571 72.6952 75.4286C72.1237 76.0008 72.1237 76.9285 72.6952 77.5007L81.1913 85.9968C81.4659 86.2715 81.839 86.4256 82.2274 86.4256H86.9149V88.7136C86.9149 90.1983 88.1226 91.4061 89.6073 91.4061H97.3084C98.7931 91.4061 100.001 90.1983 100.001 88.7136V81.0125C100.001 79.5279 98.7931 78.3201 97.3084 78.3201ZM97.0711 88.4764H89.8445V81.2498H97.0711V88.4764Z" fill="black"/>
<path d="M97.3076 4.29688H89.6065C88.1218 4.29688 86.9141 5.50461 86.9141 6.98929V8.20312H80.2315C78.7468 8.20312 77.5391 9.41086 77.5391 10.8955V24.0654C77.5391 25.5501 78.7468 26.7578 80.2315 26.7578H85.3516V30.7411L80.3116 35.7803C79.7401 36.3533 79.7401 37.2803 80.3116 37.8525C80.5977 38.1386 80.9731 38.2812 81.3477 38.2812C81.7223 38.2812 82.0976 38.1386 82.3837 37.8525L87.8525 32.3837C88.1271 32.1091 88.2812 31.736 88.2812 31.3477V26.7578H93.4013C94.886 26.7578 96.0938 25.5501 96.0938 24.0654V17.3828H97.3076C98.7923 17.3828 100 16.1751 100 14.6904V6.98929C100 5.50461 98.7923 4.29688 97.3076 4.29688ZM93.1641 23.8281H80.4688V11.1328H86.9141V14.6904C86.9141 16.1751 88.1218 17.3828 89.6065 17.3828H93.1641V23.8281ZM97.0703 14.4531H89.8438V7.22656H97.0703V14.4531Z" fill="black"/>
</g>
<defs>
<clipPath id="clip0">
<rect width="100" height="100" fill="white"/>
</clipPath>
</defs>
</svg>
