<svg width="35" height="48" viewBox="0 0 35 48" fill="none" xmlns="http://www.w3.org/2000/svg">
<path d="M30.9018 0H12.686C10.7642 0 9.20083 1.56338 9.20083 3.48513V10.5462C7.04043 11.1961 5.08002 12.2943 3.52137 13.7649C3.24136 14.029 3.22853 14.4702 3.49275 14.7502C3.75688 15.0301 4.19795 15.043 4.47807 14.7788C6.84814 12.5427 10.2664 11.2602 13.8562 11.2602C20.7279 11.2602 26.3185 15.8781 26.3185 21.5542C26.3185 24.4848 24.7989 27.2814 22.1466 29.2366C21.8477 29.4131 21.7217 29.7871 21.8611 30.1116L23.4748 33.8685C23.5206 33.9752 23.4892 34.0748 23.4445 34.1324C23.3991 34.191 23.3622 34.1852 23.3483 34.183C21.1855 33.8466 19.526 33.1446 18.4686 32.58C19.0428 32.4086 19.6063 32.2055 20.1569 31.9682C20.5104 31.8159 20.6735 31.4058 20.5212 31.0523C20.3689 30.6987 19.9586 30.5356 19.6053 30.688C17.8439 31.447 15.8559 31.8481 13.8563 31.8481C6.98466 31.8481 1.39405 27.2303 1.39405 21.5542C1.39405 19.8789 1.86691 18.2809 2.79944 16.8047C3.00502 16.4793 2.9079 16.0488 2.58243 15.8431C2.25706 15.6375 1.82649 15.7347 1.62082 16.0601C0.560409 17.7387 0 19.6385 0 21.5541C0 26.6217 3.84377 30.9459 9.20102 32.5626V35.6916C9.20102 36.0766 9.5131 36.3887 9.89805 36.3887C10.283 36.3887 10.5951 36.0766 10.5951 35.6916V32.9142C11.6414 33.128 12.7333 33.2421 13.8563 33.2421C14.7638 33.2421 15.6543 33.1692 16.5244 33.0267C17.2747 33.561 19.5711 35.0063 23.134 35.5604C23.2114 35.5725 23.2885 35.5783 23.3648 35.5783C23.8216 35.5783 24.2514 35.3665 24.546 34.9867C24.9137 34.5125 24.9941 33.8732 24.7557 33.3181L23.3581 30.0644C26.1328 27.8598 27.7124 24.7864 27.7124 21.5541C27.7124 15.1093 21.4966 9.86608 13.8561 9.86608C12.748 9.86608 11.6538 9.97834 10.5949 10.1949V3.48513C10.5949 2.33206 11.5329 1.39405 12.686 1.39405H15.6015C16.3091 2.81478 17.7733 3.73913 19.3872 3.73913H24.2006C25.8145 3.73913 27.2787 2.81468 27.9863 1.39405H30.9018C32.0548 1.39405 32.9928 2.33206 32.9928 3.48513V9.5632C32.9928 9.94814 33.3049 10.2602 33.6899 10.2602C34.0748 10.2602 34.3869 9.94814 34.3869 9.5632V3.48513C34.3869 1.56338 32.8235 0 30.9018 0ZM24.2006 2.34507H19.3872C18.5635 2.34507 17.7981 1.98578 17.2703 1.39405H26.3174C25.7897 1.98578 25.0243 2.34507 24.2006 2.34507Z" fill="white"/>
<path d="M33.6902 11.6562C33.3053 11.6562 32.9932 11.9683 32.9932 12.3533V44.1087C32.9932 45.2617 32.0552 46.1997 30.9021 46.1997H12.6863C11.5332 46.1997 10.5952 45.2617 10.5952 44.1087V38.4818C10.5952 38.0969 10.2831 37.7848 9.8982 37.7848C9.51325 37.7848 9.20117 38.0969 9.20117 38.4818V44.1087C9.20117 46.0304 10.7646 47.5938 12.6863 47.5938H30.9021C32.8238 47.5938 34.3872 46.0304 34.3872 44.1087V12.3533C34.3872 11.9683 34.0751 11.6562 33.6902 11.6562Z" fill="white"/>
<path d="M24.657 44.4683C25.0419 44.4683 25.354 44.1562 25.354 43.7712C25.354 43.3863 25.0419 43.0742 24.657 43.0742H18.9285C18.5435 43.0742 18.2314 43.3863 18.2314 43.7712C18.2314 44.1562 18.5435 44.4683 18.9285 44.4683H24.657Z" fill="white"/>
<path d="M13.4954 27.7133C13.5996 27.7133 13.7039 27.69 13.8001 27.6431C14.0768 27.5087 20.5671 24.2956 19.9256 19.6062C19.6085 17.288 17.9709 16.3338 16.5443 16.214C15.3423 16.1129 14.2137 16.5377 13.4954 17.2897C12.7771 16.5377 11.6483 16.1129 10.4464 16.214C9.01963 16.3339 7.38218 17.288 7.06508 19.6062C6.42363 24.2956 12.914 27.5086 13.1905 27.6431C13.2868 27.6899 13.3911 27.7133 13.4954 27.7133ZM8.4463 19.7952C8.69788 17.9561 10.0105 17.6496 10.5633 17.6031C10.6404 17.5966 10.717 17.5934 10.7931 17.5934C11.7502 17.5934 12.6034 18.0956 12.8302 18.8196C12.9213 19.1103 13.1906 19.3082 13.4954 19.3082C13.8001 19.3082 14.0693 19.1103 14.1605 18.8196C14.4055 18.038 15.3802 17.5146 16.4275 17.6031C16.9802 17.6496 18.293 17.9561 18.5445 19.7952C18.8009 21.669 17.3832 23.3354 16.1488 24.4035C15.1074 25.3045 14.0122 25.9473 13.4951 26.2295C12.9823 25.9501 11.9019 25.3164 10.8628 24.4214C8.60811 22.4793 8.3042 20.8337 8.4463 19.7952Z" fill="white"/>
</svg>
