<svg width="20" height="22" viewBox="0 0 20 22" fill="none" xmlns="http://www.w3.org/2000/svg">
<path d="M18.6601 8.44338L3.9904 0.345251C3.13179 -0.128051 2.11453 -0.114718 1.27058 0.385248C0.474635 0.855883 0 1.67316 0 2.57177V18.7654C0 19.6653 0.475968 20.4826 1.27191 20.9532C1.70522 21.2092 2.18385 21.3372 2.66382 21.3372C3.11846 21.3372 3.57309 21.2225 3.99173 20.9905L18.6614 12.8951C19.5 12.4311 20.0013 11.5992 20 10.6672C20 9.73662 19.4987 8.90601 18.6601 8.44338ZM18.0148 11.7285L3.34644 19.8239C2.90514 20.0666 2.38251 20.0599 1.9492 19.804C1.55723 19.5733 1.33324 19.1947 1.33324 18.7654V2.57177C1.33324 2.14246 1.55723 1.76382 1.94654 1.53317C2.17052 1.40118 2.41717 1.33585 2.66382 1.33585C2.89714 1.33585 3.13046 1.39451 3.34511 1.51184L18.0161 9.6113C18.4214 9.83528 18.6654 10.2313 18.6654 10.6686C18.6654 11.1059 18.4228 11.5032 18.0148 11.7285Z" fill="white"/>
<path d="M15.6576 13.5533L1.73858 0.712804C1.46793 0.464821 1.04662 0.48082 0.795975 0.751468C0.546658 1.02212 0.562657 1.44342 0.833306 1.69274L14.7524 14.5319C14.8804 14.6505 15.043 14.7092 15.2043 14.7092C15.3843 14.7092 15.563 14.6385 15.695 14.4946C15.9456 14.2239 15.9283 13.8026 15.6576 13.5533Z" fill="white"/>
<path d="M14.9148 6.41374C14.6549 6.15375 14.2322 6.15375 13.9722 6.41374L0.773112 19.6115C0.513129 19.8715 0.513129 20.2941 0.773112 20.5541C0.90377 20.6835 1.07443 20.7488 1.24508 20.7488C1.41574 20.7488 1.58639 20.6835 1.71572 20.5541L14.9148 7.35634C15.1748 7.09636 15.1748 6.67372 14.9148 6.41374Z" fill="white"/>
</svg>
