<svg width="35" height="30" viewBox="0 0 35 30" fill="none" xmlns="http://www.w3.org/2000/svg">
<path d="M31.8038 21.7586C31.9678 21.6429 32.1275 21.5229 32.2725 21.3843C33.1235 20.5657 33.5365 19.4115 33.5365 17.8558C33.5365 15.35 32.1964 14.1015 30.1489 13.4772C30.5824 13.2829 30.9661 13.0529 31.2678 12.7543C31.8127 12.2129 32.0821 11.5229 32.0689 10.7028C32.0499 9.52714 30.8299 8.63424 29.0255 8.03712C29.3638 7.89141 29.6611 7.70853 29.9042 7.47281C30.37 7.02281 30.6058 6.4285 30.6058 5.71426C30.6058 3.01714 27.1611 0 22.5505 0C17.94 0 14.4952 3.01714 14.4952 5.71426C14.4952 6.42857 14.731 7.02 15.1952 7.47141C15.4383 7.70712 15.7415 7.88283 16.0798 8.02855C14.7119 8.47855 13.6808 9.0971 13.2502 9.87857C12.452 9.07574 11.3375 8.57143 10.1013 8.57143C7.97616 8.57143 6.19963 10.0514 5.7954 12.01C3.85478 11.3728 1.65348 12.1343 0.590185 13.9286C-0.471673 15.7229 -0.0469162 17.9643 1.48947 19.2843C-0.0483579 20.6043 -0.475998 22.8457 0.587301 24.6429C1.4016 26.0172 2.88086 26.7857 4.40112 26.7857C4.86981 26.7857 5.33556 26.6843 5.79251 26.5329C6.18651 28.5043 7.966 30 10.1014 30C11.5572 30 12.8417 29.2971 13.6413 28.2286C15.7562 29.3286 19.3328 30 23.2828 30C28.321 30 32.6298 28.9529 34.2585 27.3329C34.7623 26.8315 35.0113 26.2815 34.9996 25.7014C34.9498 23.3257 33.7034 22.2443 31.8038 21.7586ZM32.0704 17.8572C32.0704 19.0114 31.7994 19.8329 31.2429 20.3686C30.578 21.0086 29.4576 21.2758 28.0808 21.3857C27.3002 21.3771 26.4859 21.39 25.6481 21.4029C24.9553 21.4143 24.2303 21.4229 23.4981 21.4343C22.3455 21.4257 21.1576 21.4157 20.0108 21.29C19.9054 20.9385 19.7443 20.6071 19.5495 20.2914C19.5158 20.2357 19.4822 20.18 19.4455 20.1256C19.239 19.8228 19.0047 19.5356 18.7161 19.2871L18.7147 19.2856C18.7176 19.2828 18.7205 19.28 18.7235 19.2771C18.7293 19.2714 18.7337 19.2656 18.741 19.2599C18.9329 19.0928 19.1043 18.9056 19.2625 18.7085C19.2991 18.6627 19.3328 18.6142 19.3679 18.5671C19.4924 18.397 19.6052 18.2199 19.7033 18.0327C19.7267 17.9885 19.7531 17.9456 19.775 17.8999C19.8863 17.6685 19.9845 17.4299 20.0533 17.1785C20.1236 16.9213 20.1631 16.6613 20.1836 16.4028C20.188 16.3499 20.1836 16.297 20.1866 16.2456C20.1954 16.0385 20.1924 15.8328 20.1705 15.6285C20.1631 15.5527 20.1485 15.4771 20.1368 15.4013C20.1074 15.217 20.065 15.037 20.0108 14.857C19.9859 14.7756 19.961 14.6956 19.9317 14.6156C19.9097 14.557 19.898 14.4956 19.8731 14.4385C20.7445 14.3356 21.6409 14.2842 22.5504 14.2842C28.63 14.2857 32.0704 14.45 32.0704 17.8572ZM15.9598 5.71426C15.9598 3.77283 18.8992 1.42855 22.5505 1.42855C26.2017 1.42855 29.1412 3.77283 29.1412 5.71426C29.1412 6.14712 28.9874 6.34567 28.8717 6.45857C28.1423 7.16571 25.8971 7.15286 23.5215 7.14429L22.5505 7.14288L21.5794 7.14576C19.2053 7.16002 16.9586 7.16859 16.2292 6.46004C16.1135 6.34714 15.9598 6.15 15.9598 5.71426ZM22.5505 8.57143C27.7395 8.57143 30.5941 9.99428 30.6057 10.7257C30.6131 11.16 30.4915 11.4872 30.2249 11.7514C29.166 12.8028 25.9659 12.8543 23.0117 12.8557C22.858 12.8557 22.7056 12.8557 22.5518 12.8557C22.546 12.8557 22.5401 12.8557 22.5343 12.8557C20.9818 12.8543 19.4688 12.7172 18.1434 12.4543C18.1244 12.4428 18.1024 12.4385 18.0833 12.4286C17.4155 12.0343 16.6598 11.8157 15.8821 11.8015C14.9256 11.3972 14.4951 10.97 14.4951 10.7143C14.4952 9.98571 17.338 8.57143 22.5505 8.57143ZM13.24 16.1071C13.3176 15.9757 13.3938 15.8457 13.4685 15.7142C13.5183 15.6256 13.5666 15.5385 13.6135 15.4514C13.6867 15.3157 13.7541 15.1814 13.8214 15.0471C13.858 14.9729 13.8976 14.8985 13.9313 14.8243C14.0265 14.6215 14.1129 14.4214 14.1876 14.2257C14.2007 14.1914 14.2095 14.16 14.2213 14.1257C14.2842 13.9529 14.3369 13.7857 14.3794 13.6229C14.3838 13.6057 14.3912 13.5872 14.3956 13.57C14.8232 13.3415 15.2831 13.24 15.7415 13.2301C15.7445 13.2301 15.7474 13.2315 15.7503 13.2315C16.364 13.2115 16.9513 13.3886 17.4507 13.7186C17.4507 13.7186 17.4507 13.7186 17.4521 13.7186C17.8066 13.9529 18.12 14.2572 18.347 14.6429C19.053 15.8358 18.7732 17.3244 17.7583 18.2058C17.6133 18.3315 17.4537 18.4444 17.2779 18.5429C17.2633 18.5515 17.2442 18.5558 17.2296 18.5644C17.1768 18.5915 17.1065 18.6129 17.0436 18.6372C16.8678 18.7015 16.6657 18.7558 16.4329 18.7958C16.4299 18.7958 16.427 18.7972 16.4241 18.7972C15.9188 18.8843 15.2993 18.9186 14.6431 18.9201C14.6285 18.9201 14.6124 18.9201 14.5962 18.9201C14.2813 18.9201 13.9577 18.9129 13.6354 18.8987C13.6237 18.8987 13.6135 18.8973 13.6017 18.8973C12.8416 18.8644 12.0991 18.8016 11.4576 18.733C11.4781 18.7059 11.5015 18.6744 11.522 18.6459C11.6099 18.5302 11.6992 18.4088 11.793 18.2802C11.834 18.2231 11.8765 18.1659 11.919 18.1059C12.0054 17.9859 12.0918 17.8645 12.1812 17.7373C12.2281 17.6701 12.2749 17.6044 12.3218 17.5359C12.4272 17.383 12.5327 17.2273 12.6381 17.0673C12.6674 17.0231 12.6952 16.9816 12.7246 16.9373C12.852 16.7431 12.9764 16.5445 13.0995 16.3445C13.1477 16.2643 13.1932 16.1857 13.24 16.1071ZM10.0999 9.99857C11.7154 9.99857 13.0292 11.28 13.0292 12.8557C13.0292 12.9272 13.0058 13.0172 12.9926 13.0986C12.9618 13.2772 12.9105 13.4701 12.8314 13.6829C12.8285 13.6915 12.8256 13.6986 12.8227 13.7072C12.6499 14.17 12.3759 14.7015 12.0552 15.2472C12.0332 15.2843 12.0083 15.3229 11.9863 15.3615C11.8457 15.5958 11.6993 15.8329 11.5469 16.0672C11.522 16.1058 11.4957 16.1458 11.4708 16.1843C11.3053 16.4372 11.1354 16.6872 10.967 16.9272C10.9626 16.9329 10.9582 16.9386 10.9552 16.9443C10.7238 17.2757 10.5012 17.5772 10.2888 17.86C9.95784 17.1229 9.48914 16.1486 8.9487 15.2101C8.94431 15.2015 8.93847 15.1929 8.93257 15.1844C8.81394 14.98 8.69235 14.7786 8.56788 14.5815C8.54008 14.5386 8.51372 14.4958 8.48584 14.4529C8.3716 14.2743 8.25441 14.1029 8.13578 13.9357C8.11237 13.9029 8.0904 13.87 8.06692 13.8386C7.92632 13.6443 7.78277 13.4614 7.63928 13.2914C7.6261 13.2757 7.61292 13.2628 7.59974 13.2485C7.46792 13.0971 7.33611 12.9585 7.20285 12.8328C7.19111 12.8214 7.18088 12.8071 7.16914 12.7971C7.20292 11.25 8.50493 9.99998 10.0999 9.99857ZM1.85718 14.6429C2.39906 13.7257 3.38478 13.2143 4.39824 13.2143C4.89474 13.2143 5.39858 13.3372 5.85842 13.5972C5.91993 13.6314 5.98584 13.6943 6.0503 13.7443C7.03307 14.53 8.2135 16.83 8.93264 18.4171C8.90188 18.4142 8.86378 18.41 8.83158 18.4071C8.67924 18.3914 8.51962 18.3743 8.35121 18.3586C8.29114 18.3529 8.23258 18.3486 8.17107 18.3429C7.99532 18.3271 7.81373 18.3129 7.62479 18.2986C7.57502 18.2943 7.52669 18.2914 7.47541 18.2871C6.9833 18.2529 6.46483 18.2285 5.94197 18.2229C5.89803 18.2229 5.85554 18.2229 5.81311 18.2229C5.60365 18.2215 5.3957 18.2229 5.18919 18.2285C5.12184 18.23 5.05442 18.2328 4.98707 18.2342C4.7864 18.2414 4.59019 18.2528 4.3983 18.2685C4.34853 18.2728 4.29725 18.2757 4.24747 18.28C4.00877 18.3014 3.77734 18.33 3.55765 18.3657C3.53273 18.37 3.50932 18.3757 3.48439 18.38C3.28963 18.4142 3.10797 18.4557 2.93517 18.5028C2.91904 18.5071 2.89858 18.51 2.881 18.5143C1.51886 17.7157 1.05895 15.99 1.85718 14.6429ZM6.98474 22.43C6.89542 22.5786 6.80899 22.7286 6.72551 22.8786C6.68301 22.9529 6.64347 23.0272 6.60248 23.1015C6.519 23.2558 6.44135 23.4072 6.36666 23.56C6.33734 23.62 6.30659 23.6786 6.27878 23.7372C6.18068 23.9458 6.0928 24.1515 6.01515 24.3514C6.00492 24.3785 5.99758 24.4043 5.98735 24.4315C5.92144 24.61 5.86728 24.7815 5.82478 24.95C5.82183 24.9658 5.81304 24.9843 5.80865 25C4.41437 25.75 2.65534 25.2743 1.85718 23.9272C1.05016 22.5629 1.5306 20.8115 2.92927 20.0243C2.99517 19.9872 3.09184 19.9615 3.17532 19.93C3.34228 19.87 3.53122 19.82 3.74651 19.7815C3.76704 19.7772 3.78606 19.7729 3.80658 19.77C4.39535 19.6714 5.13646 19.6457 5.90826 19.6572C6.22606 19.6614 6.54976 19.6729 6.87785 19.6886C7.08292 19.7 7.28791 19.71 7.48859 19.7243C7.80199 19.7471 8.10811 19.7728 8.40833 19.8014C8.52697 19.8129 8.63386 19.8242 8.74521 19.8357C8.68514 19.9157 8.61779 20.0085 8.55333 20.0942C8.51674 20.1443 8.48159 20.1914 8.44348 20.2428C8.38053 20.3285 8.3175 20.4157 8.25311 20.5071C8.18281 20.6057 8.11107 20.7057 8.03925 20.8085C7.98509 20.8857 7.9338 20.96 7.87964 21.0386C7.77274 21.1943 7.66578 21.3528 7.55745 21.5157C7.53253 21.5543 7.50767 21.59 7.48275 21.6285C7.35238 21.8286 7.22352 22.0328 7.09754 22.24C7.05793 22.3043 7.02133 22.3657 6.98474 22.43ZM12.7289 26.9457C12.7245 26.9529 12.7259 26.9614 12.723 26.9685C12.2441 27.9143 11.2541 28.5714 10.1014 28.5714C8.48591 28.5714 7.17217 27.29 7.17217 25.7142C7.17217 25.6442 7.19413 25.5542 7.20732 25.4728C7.23807 25.2928 7.2908 25.0971 7.36989 24.8814C7.37133 24.8757 7.37284 24.8714 7.37428 24.8656C7.54859 24.3971 7.82684 23.8599 8.15198 23.3071C8.16372 23.2885 8.17539 23.2685 8.18713 23.2485C8.33947 22.9913 8.50205 22.7313 8.66901 22.4742C8.68219 22.4556 8.69393 22.4356 8.70711 22.417C9.11278 21.797 9.5361 21.2071 9.91397 20.7042C10.0795 21.0713 10.2801 21.4999 10.5042 21.9527C10.5056 21.9541 10.5056 21.957 10.5071 21.9584C10.7298 22.4055 10.9773 22.8741 11.2423 23.337C11.2585 23.3656 11.2745 23.3927 11.2921 23.4198C11.399 23.6041 11.5088 23.7841 11.6202 23.9627C11.6554 24.0184 11.6905 24.0741 11.7257 24.1284C11.8325 24.2927 11.9395 24.4527 12.0494 24.607C12.0787 24.6485 12.1079 24.6913 12.1372 24.7327C12.2764 24.9242 12.417 25.1056 12.559 25.2727C12.5737 25.2899 12.5883 25.3041 12.603 25.3213C12.7333 25.4713 12.8636 25.6084 12.9955 25.7327C13.0042 25.7413 13.013 25.7527 13.0218 25.7598C13.0159 26.1629 12.9207 26.5615 12.7289 26.9457ZM11.2716 20.1528C11.2921 20.1557 11.3185 20.1571 11.3389 20.16C11.5015 20.1771 11.6714 20.1943 11.853 20.2114C11.9043 20.2157 11.9555 20.2214 12.0068 20.2257C12.1884 20.2414 12.3759 20.2571 12.5706 20.2714C12.6336 20.2757 12.6937 20.28 12.7566 20.2843C12.9397 20.2971 13.1271 20.3071 13.3176 20.3157C13.4011 20.32 13.4845 20.3243 13.568 20.3271C13.7423 20.3343 13.9166 20.3386 14.0923 20.3414C14.1919 20.3428 14.2886 20.3457 14.3882 20.3471C14.435 20.3471 14.4834 20.35 14.5302 20.35C14.5991 20.35 14.6635 20.3457 14.7323 20.3443C14.9462 20.3429 15.1556 20.3371 15.3636 20.3271C15.469 20.3229 15.5715 20.3157 15.6755 20.3086C15.8894 20.2943 16.093 20.2729 16.2936 20.2472C16.3815 20.2357 16.4723 20.2272 16.5573 20.2143C16.7945 20.1771 17.0172 20.1315 17.2237 20.0758C17.253 20.0686 17.2896 20.0643 17.3174 20.0557C17.6718 20.2643 17.975 20.54 18.2049 20.8686C18.2093 20.8743 18.2123 20.8815 18.2167 20.8872C18.4525 21.2286 18.6136 21.6229 18.6839 22.0486C18.6839 22.05 18.6853 22.0515 18.6853 22.0529C18.7029 22.1614 18.7219 22.2686 18.7278 22.38C18.7278 22.3872 18.7234 22.3943 18.7248 22.4028C18.7336 22.6557 18.7029 22.9029 18.6487 23.1414C18.6399 23.1757 18.6341 23.2114 18.6238 23.2456C18.5593 23.4856 18.47 23.7171 18.3426 23.9314C18.3264 23.9585 18.303 23.9814 18.2855 24.0085C18.1976 24.1456 18.1053 24.2799 17.9984 24.3971C17.9867 24.41 17.9706 24.4199 17.9589 24.4328C17.3291 25.1 16.4137 25.4271 15.5086 25.3371C15.4866 25.3342 15.4646 25.3371 15.4427 25.3357C15.2889 25.3171 15.1365 25.2785 14.9843 25.2342C14.9506 25.2242 14.914 25.2214 14.8803 25.2099C14.6972 25.1499 14.517 25.0714 14.3442 24.9742C14.2827 24.9399 14.2168 24.877 14.1523 24.8271C13.1712 24.0415 11.9893 21.7414 11.2716 20.1528ZM33.2113 26.3314C32.1289 27.41 28.5597 28.5715 23.2827 28.5715C19.5861 28.5715 16.1633 27.95 14.296 26.9629C14.3267 26.87 14.3487 26.7757 14.3721 26.6829C14.3823 26.6429 14.3985 26.6058 14.4072 26.5643C14.4746 26.5872 14.5435 26.5972 14.6123 26.6158C14.6665 26.63 14.7192 26.6444 14.7749 26.6572C15.1015 26.7344 15.4325 26.7801 15.7679 26.7829C15.7796 26.7829 15.7898 26.7872 15.8016 26.7872C15.8236 26.7872 15.8455 26.7786 15.8675 26.7786C16.2278 26.7729 16.5881 26.7344 16.9454 26.6415C17.2808 26.5529 17.5927 26.42 17.8901 26.2629C17.9648 26.2229 18.0336 26.1758 18.1068 26.1315C18.3383 25.9929 18.552 25.8358 18.7527 25.6572C18.823 25.5958 18.8919 25.5372 18.9578 25.47C19.2038 25.2214 19.4309 24.9514 19.6139 24.6443C19.6886 24.5171 19.7369 24.3771 19.7984 24.2428C19.9815 23.8442 20.1177 23.4342 20.169 23.0157C21.1883 22.9142 22.2238 22.8785 23.2402 22.8614C23.6181 22.8657 23.9916 22.8686 24.3577 22.8743C24.9084 22.8814 25.4459 22.8885 25.9673 22.8885C26.7156 22.8885 27.4274 22.87 28.0997 22.82C31.7056 22.8571 33.4851 23.3185 33.5363 25.73C33.5394 25.9114 33.4295 26.1143 33.2113 26.3314Z" fill="black"/>
<path d="M18.7044 5.67032C18.8846 5.67032 19.0633 5.60604 19.2053 5.47887C19.5114 5.2003 20.6582 4.28604 22.5504 4.28604C22.9547 4.28604 23.2828 3.96602 23.2828 3.57173C23.2828 3.17744 22.9547 2.85742 22.5504 2.85742C20.1207 2.85742 18.6092 4.06459 18.2035 4.43456C17.9091 4.70456 17.8945 5.15597 18.1698 5.44459C18.3134 5.59606 18.5096 5.67032 18.7044 5.67032Z" fill="black"/>
</svg>
