<svg width="1932" height="1068" viewBox="0 0 1932 1068" fill="none" xmlns="http://www.w3.org/2000/svg">
<path d="M394.37 794.234C256.271 864.381 0 886 0 886V168H1930V485.047C1930 485.047 1576.15 377.784 1626.49 485.047C1695 631 1302 805 1114 805C880.111 805 832.5 647.5 626.996 577.13C509.17 536.783 505.369 737.852 394.37 794.234Z" fill="url(#paint0_linear)"/>
<path d="M394.37 887.234C256.271 957.381 0 979 0 979V261H1930V578.047C1930 578.047 1576.15 470.784 1626.49 578.047C1695 724 1302 898 1114 898C880.111 898 832.5 740.5 626.996 670.13C509.17 629.783 505.369 830.852 394.37 887.234Z" fill="url(#paint1_linear)"/>
<path d="M1700.73 405.976C1703.54 393.058 1709.71 378.248 1709.71 378.248L1836.2 376L1932 590.705L1932 1007C1932 1007 1793.27 935.415 1713.08 849.25C1703.93 839.422 1695.16 826.962 1687.63 814.12C1673.31 789.711 1663.47 763.921 1664.02 752.202C1667.39 680.259 1806.26 722.975 1845.55 662.648C1864.58 633.431 1846.44 584.737 1815.96 567.848C1777.41 546.49 1754.21 576.466 1713.08 576.466C1699.35 576.466 1705.96 560.729 1705.96 546.49C1705.96 537.235 1699.98 540.869 1699.23 539.745C1698.11 538.059 1698.11 535.249 1699.6 531.876C1701.08 528.555 1695.99 531.026 1694.74 526.631C1693.48 522.235 1710.58 506.502 1700.73 498.153C1695.86 494.031 1685.76 495.156 1687.63 488.411C1689.5 481.666 1701.09 467.867 1704.47 453.938C1708.89 435.68 1696.68 424.57 1700.73 405.976Z" fill="#FABC91"/>
<path d="M1819.84 811.466C1768.14 815.23 1686 811.466 1686 811.466C1686 811.466 1721.42 880.14 1766.99 930.558C1818.53 987.592 1932 1068 1932 1068V786C1932 786 1867.12 808.024 1819.84 811.466Z" fill="#21B79A"/>
<path d="M1909.64 579.933C1917.36 582.804 1930 586.659 1930 586.659V119.648C1930 119.648 1716.08 18.1605 1583.58 45.2138C1487.34 64.8638 1445.49 130.985 1347.23 130.784C1249.52 130.584 1202.98 79.7144 1112.39 45.2138C956.278 -14.2392 646.028 155.753 458.639 152.094C158.833 146.239 0 0 0 0V612.068C101.023 631.125 146.469 571.712 249 535.466C351.531 499.221 601.652 319.229 688.353 465.217C813.371 675.722 1096.67 738.344 1298.88 612.068C1423.9 534 1560.47 221.909 1719.63 209.914C1756.99 207.098 1824.97 217.742 1846.69 248.116C1863.81 272.044 1875.26 315.584 1846.69 323.223C1789.4 338.543 1716.27 341.533 1707.22 383.01C1698.17 424.487 1718.44 449.113 1751.32 465.217C1782.61 480.537 1824.08 456.622 1846.69 465.217C1868.87 473.643 1844.05 514.915 1851.97 535.466C1857.83 550.677 1874.49 545.957 1887.4 556.018C1898.88 564.957 1895.98 574.85 1909.64 579.933Z" fill="url(#paint2_linear)"/>
<path d="M1697.51 538.746C1696.73 537.632 1699.05 532.059 1699.05 532.059C1699.05 532.059 1697.51 530.201 1695.58 528.715C1695.58 528.715 1694.22 527.516 1694.03 526.486C1693.87 525.617 1694.42 525 1694.42 525C1694.42 525 1698.27 527.042 1700.98 527.601C1706.39 528.715 1712.18 527.601 1712.96 527.601C1713.41 527.601 1710.26 531.979 1706.78 535.402C1704.32 537.822 1701.76 539.489 1700.98 539.861C1700.21 540.232 1698.28 539.861 1697.51 538.746Z" fill="#E65B73"/>
<path d="M1853.74 640.115L1853 625C1853 625 1876.37 630.744 1890.94 631.424C1906.18 632.135 1930 628.023 1930 628.023V643.516C1930 643.516 1906.18 647.628 1890.94 646.917C1876.37 646.238 1853.74 640.115 1853.74 640.115Z" fill="#21B79A"/>
<defs>
<linearGradient id="paint0_linear" x1="1851.2" y1="252.222" x2="2.08946" y2="738.238" gradientUnits="userSpaceOnUse">
<stop stop-color="#1D1029"/>
<stop offset="1" stop-color="#693C8C"/>
</linearGradient>
<linearGradient id="paint1_linear" x1="1851.2" y1="345.222" x2="2.08946" y2="831.238" gradientUnits="userSpaceOnUse">
<stop stop-color="#08030C" stop-opacity="0.2"/>
<stop offset="1" stop-color="#422459"/>
</linearGradient>
<linearGradient id="paint2_linear" x1="0.754154" y1="-839.631" x2="1899.4" y2="-1264.42" gradientUnits="userSpaceOnUse">
<stop stop-color="#8745BB"/>
<stop offset="1" stop-color="#47008B"/>
</linearGradient>
</defs>
</svg>
