<svg width="99" height="100" viewBox="0 0 99 100" fill="none" xmlns="http://www.w3.org/2000/svg">
<path d="M44 64.6469H25V53.5674C25 52.4342 25.8861 51.5156 26.9792 51.5156H42.0208C43.1139 51.5156 44 52.4342 44 53.5674V64.6469Z" fill="#D2D8FF"/>
<path d="M41 51.5145H28V35.0838C28 32.2376 30.9111 30.4199 33.3166 31.7642L39.0944 34.9929C40.2677 35.6486 41 36.9241 41 38.3125V51.5145Z" fill="#FE61BF"/>
<path d="M97.7602 19.2513L93.8067 17.705C88.0562 15.4558 82.9419 11.7163 79.0168 6.89058C75.4549 2.51149 70.2049 0 64.6132 0C59.5331 0 54.6077 2.14072 51.0995 5.87337L49.4845 7.59165L47.8695 5.87337C44.3615 2.14072 39.4359 0 34.356 0C28.7643 0 23.5143 2.51149 19.9524 6.89058C16.0273 11.7163 10.913 15.4558 5.16249 17.705L1.20903 19.2513C-0.472152 19.9106 -0.379118 22.4446 1.35758 22.9687C1.39839 22.9809 1.43997 22.9913 1.48175 23.0007C1.49993 23.0048 1.51792 23.0095 1.5363 23.0131C1.57498 23.0207 1.61424 23.0262 1.6537 23.0314C1.67536 23.0343 1.69664 23.038 1.71849 23.0402C1.75505 23.0437 1.79219 23.0449 1.82932 23.0463C1.8535 23.0473 1.87748 23.0494 1.90185 23.0496C1.90263 23.0496 1.90321 23.0496 1.90398 23.0496C4.91414 23.0496 8.23415 25.8494 12.4373 29.3938C14.334 30.9932 16.4836 32.806 18.8659 34.5669C19.7297 35.2055 20.9396 35.0117 21.568 34.134C22.1966 33.2565 22.0059 32.0277 21.1421 31.3891C18.8593 29.7021 16.8505 28.008 14.9082 26.37C12.6725 24.4848 10.6555 22.7852 8.69371 21.5052C14.4989 20.4322 23.2225 19.5748 29.7751 22.2387C38.8945 25.9468 45.8548 26.3553 48.4785 26.3553C48.4936 26.3553 48.5091 26.3553 48.5242 26.3553C51.1485 26.3553 58.1092 25.9466 67.2277 22.2387C74.3814 19.3299 84.1231 20.6187 89.8293 21.8031C88.0073 23.0437 86.1278 24.6274 84.0616 26.3699C77.5148 31.8907 69.3671 38.7615 56.0806 40.5312C55.0213 40.6723 54.2755 41.6589 54.4143 42.7348C54.542 43.7241 55.3733 44.4444 56.3295 44.4444C56.4133 44.4444 56.4982 44.4389 56.5835 44.4275C70.9782 42.5102 79.9683 34.929 86.5325 29.3936C90.7356 25.849 94.0556 23.0494 97.0658 23.0494C97.9977 23.0494 98.7971 22.3743 98.9675 21.4435C99.1371 20.5132 98.63 19.5913 97.7602 19.2513ZM65.79 18.5908C58.2865 21.6416 52.3335 22.2845 49.4959 22.3996C49.4841 22.3995 49.4723 22.3995 49.4603 22.3995H47.5416C47.5308 22.3995 47.5201 22.3995 47.5093 22.3996C44.6705 22.2849 38.7168 21.6422 31.212 18.5906C26.2531 16.5742 20.3947 16.298 15.1833 16.6805C18.0644 14.6168 20.6775 12.1682 22.9343 9.39362C25.7587 5.92131 29.9219 3.92973 34.356 3.92973C38.3843 3.92973 42.2901 5.62737 45.0719 8.58705L48.0857 11.7937C48.4507 12.182 48.9561 12.4016 49.4845 12.4016C50.0129 12.4016 50.5185 12.182 50.8833 11.7937L53.8971 8.58705C56.6792 5.62737 60.5849 3.92973 64.6132 3.92973C69.0473 3.92973 73.2103 5.92131 76.0347 9.39362C78.3683 12.2627 81.0825 14.7832 84.0803 16.8898C78.3573 16.2541 71.4813 16.2765 65.79 18.5908Z" fill="black"/>
<path d="M49.5157 41.4141H49.4786C48.6589 41.4141 48 42.0924 48 42.9292C48 43.766 48.6705 44.4444 49.4901 44.4444H49.5157C50.3353 44.4444 51 43.766 51 42.9292C51 42.0924 50.3355 41.4141 49.5157 41.4141Z" fill="black"/>
<path d="M45.5658 62.6509V54.0676C45.5658 52.4749 44.6223 51.1044 43.2763 50.5024V38.476C43.2763 36.3198 42.119 34.3478 40.2559 33.3295L34.1507 29.9924C32.3597 29.0136 30.25 29.0648 28.5073 30.1294C26.7642 31.1938 25.7237 33.0667 25.7237 35.1389V50.5024C24.3777 51.1044 23.4342 52.4749 23.4342 54.0676V62.6509C21.5086 62.8469 20 64.5089 20 66.5238V94.1612C20 97.3807 22.5676 100 25.7237 100H43.2763C46.4324 100 49 97.3807 49 94.1612V66.5238C49 64.5089 47.4914 62.8469 45.5658 62.6509ZM27.25 54.0676H27.6316H41.3684H41.75V62.6313H27.25V54.0676ZM29.5395 35.1387C29.5395 34.143 30.1883 33.6393 30.4673 33.4688C30.7466 33.2985 31.4882 32.9531 32.3485 33.4231L38.4537 36.7602C39.0748 37.0996 39.4603 37.7571 39.4603 38.4757V50.175H29.5393L29.5395 35.1387ZM45.1842 94.1612C45.1842 95.2344 44.3283 96.1075 43.2763 96.1075H39.8421V81.3157C39.8421 80.2407 38.9878 79.3694 37.9342 79.3694C36.8807 79.3694 36.0263 80.2407 36.0263 81.3157V96.1075H25.7237C24.6717 96.1075 23.8158 95.2344 23.8158 94.1612V66.5238H45.1842V94.1612Z" fill="black"/>
<path d="M38 71.7168C37.474 71.7168 36.958 71.933 36.586 72.3087C36.214 72.6845 36 73.2057 36 73.737C36 74.2683 36.2138 74.7895 36.586 75.1653C36.9582 75.541 37.474 75.7572 38 75.7572C38.526 75.7572 39.042 75.541 39.4138 75.1653C39.7858 74.7895 40 74.2683 40 73.737C40 73.2057 39.786 72.6845 39.4138 72.3087C39.042 71.933 38.526 71.7168 38 71.7168Z" fill="black"/>
</svg>
