<svg width="21" height="18" viewBox="0 0 21 18" fill="none" xmlns="http://www.w3.org/2000/svg">
<path d="M19.2066 1.92536C18.1593 0.878085 16.7728 0.305689 15.2931 0.305689C13.8133 0.305689 12.4226 0.882325 11.3754 1.9296L10.8284 2.47656L10.273 1.92112C9.22569 0.873845 7.83073 0.292969 6.35098 0.292969C4.87547 0.292969 3.48475 0.869605 2.44172 1.91264C1.39444 2.95991 0.817805 4.35062 0.822045 5.83038C0.822045 7.31013 1.40292 8.6966 2.4502 9.74387L10.4129 17.7065C10.5231 17.8168 10.6715 17.8761 10.8157 17.8761C10.9598 17.8761 11.1082 17.821 11.2185 17.7108L19.1981 9.76083C20.2454 8.71356 20.822 7.32285 20.822 5.8431C20.8263 4.36334 20.2539 2.97263 19.2066 1.92536ZM18.3925 8.951L10.8157 16.4982L3.25579 8.93828C2.42476 8.10724 1.96684 7.00485 1.96684 5.83038C1.96684 4.6559 2.42052 3.55351 3.25155 2.72671C4.07835 1.89992 5.18074 1.442 6.35098 1.442C7.52545 1.442 8.63209 1.89992 9.46312 2.73095L10.4214 3.68919C10.6461 3.91391 11.0065 3.91391 11.2312 3.68919L12.181 2.73943C13.012 1.9084 14.1186 1.45048 15.2889 1.45048C16.4591 1.45048 17.5615 1.9084 18.3925 2.73519C19.2236 3.56623 19.6772 4.66862 19.6772 5.8431C19.6815 7.01757 19.2236 8.11996 18.3925 8.951Z" fill="#696969"/>
</svg>
